<svg xmlns="http://www.w3.org/2000/svg" viewBox="0 0 276.23 53.51"><defs><style>.cls-1{fill:#00a9e0;}</style></defs><title>Recurso 2</title><g id="Capa_2" data-name="Capa 2"><g id="Capa_1-2" data-name="Capa 1"><path class="cls-1" d="M253,16.66a17.49,17.49,0,0,0-6.66-1.07h-.36a39.19,39.19,0,0,0-6.54.64c-.39.07-.55.27-.55.73v3.33c0,.42.21.56.68.49a41.85,41.85,0,0,1,5.79-.52h.23c2.3,0,4.16.21,5.27,1s1.67,1.87,1.67,4.29v.72a28.37,28.37,0,0,0-5.58-.59h-.5c-3.1,0-6,.75-7.88,2.48A7.87,7.87,0,0,0,236.17,34v.22c0,5.16,3.56,8.34,10.8,8.34h1.29a11.67,11.67,0,0,0,7.18-2.19c1.87-1.55,2.6-3.84,2.6-7.5V25.45C258,20.35,256,18,253,16.66Zm-.46,16.12c0,2-.06,3.1-.77,3.92S249.63,38,247.83,38h-.88c-3.33,0-5.27-1.34-5.27-3.9a3.75,3.75,0,0,1,1.18-2.84c.85-.73,2.08-1.08,4.2-1.08h.47a20.43,20.43,0,0,1,5,.56Zm23.18-17.18h-3c-4.29,0-7.64,1.49-9.07,4.6a12.55,12.55,0,0,0-.81,5.08V41.62c0,.36.18.51.55.51h4.46c.37,0,.54-.15.54-.51V27.94c0-1.93,0-3.34.14-4.21.25-2.27,1.63-3.33,4.84-3.33h2.37c.38,0,.55-.2.55-.57V16.16A.5.5,0,0,0,275.66,15.59ZM168.75,42.13h4.83a.74.74,0,0,0,.77-.45c3.13-5.89,7.91-15.94,8.24-25.06,0-.36-.14-.52-.61-.52h-4.5c-.52,0-.67.17-.7.64a50,50,0,0,1-1.94,10.63,58,58,0,0,1-3.69,9.48,58,58,0,0,1-3.69-9.48,49.93,49.93,0,0,1-1.94-10.69c0-.48-.29-.57-.75-.57h-4.53c-.48,0-.61.22-.58.71.64,8.94,3.41,15.88,8.24,24.89A.83.83,0,0,0,168.75,42.13ZM204.6,30.45c1.2.45,2.2.81,3.39,1.24,2.55.91,3.64,1.62,3.64,3.18,0,2-1.7,3.09-5.55,3.09H206a23.45,23.45,0,0,1-6.84-1.13c-.45-.15-.7,0-.7.48v3.32c0,.42.07.67.54.83a24.44,24.44,0,0,0,7.31,1.12h.18c6.83,0,10.54-3,10.54-8v-.07a6.6,6.6,0,0,0-1.79-4.75c-1.14-1.12-2.87-2-5.54-3l-3.52-1.3c-2.22-.81-2.84-1.57-2.84-2.71,0-1.89,1.85-2.63,4.83-2.63h.23a36.58,36.58,0,0,1,6.32.7c.47.09.73,0,.73-.5V17c0-.45-.12-.58-.59-.68a38.31,38.31,0,0,0-6.29-.71h-.4c-3.49,0-6.07.65-7.8,2.15A6.9,6.9,0,0,0,198,23v.16A6.35,6.35,0,0,0,199.91,28,13.82,13.82,0,0,0,204.6,30.45ZM232,42.13a.52.52,0,0,0,.59-.54V37.87a.52.52,0,0,0-.59-.54h-.59a4.61,4.61,0,0,1-3.52-1.13c-.88-.93-1.06-2.43-1.06-4.22V20.71h4.9c.37,0,.55-.14.55-.51V16.6c0-.36-.18-.5-.55-.5h-4.9V11.42c0-.36-.18-.51-.56-.51h-4.46c-.37,0-.54.15-.54.51V32.29c0,3.63.72,5.95,2.32,7.54s3.84,2.3,7.23,2.3ZM117.95,15.6H116.6c-3.87,0-6.44,1-7.69,2.55h0c-1.25-1.53-4-2.55-7.85-2.55H99.65c-4.37,0-7.94,1.52-9.38,4.63a12.55,12.55,0,0,0-.82,5.08V41.53a.54.54,0,0,0,.57.6h4.4a.54.54,0,0,0,.57-.6V28c0-1.93,0-3.34.14-4.21.25-2.27,1.94-3.37,5.15-3.37h.37c3.21,0,5,1.1,5.22,3.37.1.87.15,2.27.15,4.21V41.54a.54.54,0,0,0,.58.59H111a.57.57,0,0,0,.57-.64V28c0-1.93,0-3.34.14-4.21.25-2.27,2-3.37,5.22-3.37h.37c3.21,0,4.89,1.1,5.14,3.37.1.87.14,2.27.14,4.21V41.54a.54.54,0,0,0,.58.59h4.41a.57.57,0,0,0,.57-.64V25.3a12.57,12.57,0,0,0-.82-5.08C125.89,17.11,122.31,15.6,117.95,15.6Zm37.89,20.68a23.81,23.81,0,0,0,.84-7.18,23.82,23.82,0,0,0-.84-7.18c-1.35-4.52-4.93-6.32-10.72-6.32h-.69c-5.79,0-9.36,1.8-10.72,6.32a24,24,0,0,0-.83,7.18,24,24,0,0,0,.83,7.18c1.36,4.52,4.93,6.32,10.72,6.32h.69C150.92,42.6,154.49,40.8,155.84,36.28Zm-5-3.38c-.43,4.22-2.56,4.88-6,4.88h-.14c-3.42,0-5.55-.66-6-4.88a32.9,32.9,0,0,1-.24-3.8,32.93,32.93,0,0,1,.24-3.8c.43-4.22,2.56-4.88,6-4.88h.14c3.42,0,5.55.66,6,4.88a33,33,0,0,1,.24,3.8A33,33,0,0,1,150.83,32.9Zm41.34-16.8h-4.46c-.37,0-.55.14-.55.51v25c0,.36.18.51.55.51h4.46c.37,0,.55-.15.55-.51v-25C192.72,16.24,192.54,16.1,192.17,16.1Z"/><path class="cls-1" d="M13.63,6.2c-3.36.05-9.56,1.71-12.39,13.28A39.47,39.47,0,0,0,.58,36,63.4,63.4,0,0,0,4.45,49.52a12,12,0,0,0,1.5,2.54,4,4,0,0,0,4.64,1.16c1.05-.52,2.26-1.77,1.82-4.63a37.81,37.81,0,0,0-1.17-4.52c-1.05-3.44-2.46-7.6-2.58-10.56-.16-4,1.4-4.48,2.43-4.71,1.74-.38,3.2,1.53,4.59,3.93,1.66,2.86,4.5,7.94,6.81,11.81,2.09,3.5,6,7.24,12.15,7s11-2.67,13.38-10.26A125.67,125.67,0,0,1,53,27c2.26-5,5.29-7.67,7.83-6.85,2.36.76,3,3.07,3,6.46a76.66,76.66,0,0,1-.59,8.74A25.21,25.21,0,0,0,63,39c.14,1.94,1,3.87,3.16,4.18s4.19-1.53,4.93-3.77a20.93,20.93,0,0,0,.68-3.2,57.55,57.55,0,0,0,.55-13.07A46.78,46.78,0,0,0,68.88,7.45C67,3.07,63.94.27,60,0c-4.32-.27-9.28,2.59-11.88,8.16-2.4,5.13-4.32,10.39-5.48,13.08s-2.92,4.4-5.58,4.68c-3.26.34-6.07-2-8.13-5.4C27.17,17.6,23.61,12,21.71,10.11S17.88,6.13,13.63,6.2Z"/></g></g></svg>