<?xml version="1.0" encoding="utf-8"?>
<!-- Generator: Adobe Illustrator 17.1.0, SVG Export Plug-In . SVG Version: 6.00 Build 0)  -->
<!DOCTYPE svg PUBLIC "-//W3C//DTD SVG 1.1 Basic//EN" "http://www.w3.org/Graphics/SVG/1.1/DTD/svg11-basic.dtd">
<svg version="1.1" baseProfile="basic" id="Capa_1" xmlns="http://www.w3.org/2000/svg" xmlns:xlink="http://www.w3.org/1999/xlink"
	 x="0px" y="0px" viewBox="0 0 2497.9 509" xml:space="preserve">
<g>
	<g>
		<path fill="#00A9E0" d="M2288.1,159.2c-13.4-5.8-33.7-9.6-60-9.6h-3.2c-16,0-37.9,2-58.9,5.8c-3.6,0.6-4.9,2.5-4.9,6.5v30
			c0,3.7,1.9,5,6.2,4.4c18.5-2.8,37.5-4.7,52.1-4.7h2.1c20.7,0,37.5,1.9,47.5,8.7c10,6.8,15,16.8,15,38.7v6.4
			c-15.2-3.2-33.5-5.3-50.3-5.3h-4.5c-28,0-54.2,6.8-71,22.4c-12.9,12-21.3,30.1-21.3,53.2v2c0,46.5,32.1,75.2,97.4,75.2h11.6
			c25.6,0,50-7.6,64.7-19.8c16.9-13.9,23.4-34.6,23.4-67.6v-67.2C2333.9,192.4,2315.9,171.1,2288.1,159.2z M2283.9,304.4
			c0,17.6-0.6,28-7,35.3c-6.8,7.8-18.8,11.5-35,11.5h-7.9c-30,0-47.5-12.1-47.5-35.2c0-10.6,4.2-20,10.6-25.6
			c7.6-6.6,18.8-9.8,37.9-9.8h4.2c14.5,0,31,1.4,44.7,5V304.4z M2492.7,149.5h-26.9c-38.6,0-68.8,13.4-81.8,41.4
			c-5.6,12.1-7.3,28.3-7.3,45.8v147.4c0,3.3,1.6,4.6,4.9,4.6h40.2c3.4,0,4.9-1.3,4.9-4.6V260.8c0-17.4,0.4-30.1,1.2-37.9
			c2.3-20.4,14.7-30,43.6-30h21.4c3.5,0,5-1.8,5-5.1v-33.1C2497.9,151.2,2496.2,149.5,2492.7,149.5z M1529.2,388.6h43.5
			c3.8,0,5.4-1.2,6.9-4.1c28.2-53,71.3-143.7,74.2-225.9c0.1-3.3-1.3-4.7-5.5-4.7l-40.6,0c-4.7,0-6,1.5-6.3,5.7
			c-1.9,29.9-8.2,64.7-17.4,95.8c-9.5,32.1-21.7,62.7-33.3,85.4c-11.6-22.7-23.7-53.3-33.3-85.4c-9.3-31.3-15.7-66.3-17.5-96.4
			c-0.3-4.3-2.6-5.1-6.7-5.1h-40.8c-4.3,0-5.5,2-5.2,6.4c5.7,80.5,30.8,143.1,74.2,224.3C1523.1,387.6,1525.4,388.6,1529.2,388.6z
			 M1852.3,283.4c10.8,4,19.8,7.3,30.6,11.1c23,8.2,32.8,14.6,32.8,28.7c0,18.2-15.3,27.8-50,27.8h-1.3c-19.6,0-42-3.8-61.7-10.1
			c-4.1-1.3-6.3,0.2-6.3,4.3v30c0,3.8,0.6,6.1,4.9,7.5c18.8,6.5,44.7,10.1,65.9,10.1h1.6c61.6,0,94.9-27.4,94.9-71.7l0-0.7
			c0-17.1-5.6-32.5-16.1-42.8c-10.3-10.1-25.9-17.9-49.9-26.9c-12.8-4.8-22.8-8.5-31.7-11.7c-20-7.3-25.6-14.2-25.6-24.5
			c0-17,16.7-23.7,43.5-23.7l2,0c15.5,0,34.2,2.2,57,6.3c4.2,0.8,6.6-0.2,6.6-4.5v-30.8c0-4.1-1.1-5.2-5.3-6.1
			c-14.8-3.1-41.6-6.4-56.7-6.4h-3.6c-31.4,0-54.7,5.8-70.3,19.4c-12.6,11-21.1,27.6-21.1,47.5l0,1.4c0,18.4,6.4,33.3,17.3,43.4
			C1820.2,270.7,1834,276.6,1852.3,283.4z M2099.6,388.6c3.4,0,5.3-1.9,5.3-4.9v-33.5c0-3-1.9-4.9-5.3-4.9h-5.3
			c-15.9,0-25.8-3.8-31.7-10.2c-7.9-8.4-9.6-21.9-9.6-38V195.6h44.2c3.3,0,5-1.3,5-4.6v-32.5c0-3.3-1.7-4.5-5-4.5H2053v-42.1
			c0-3.3-1.7-4.6-5-4.6h-40.2c-3.3,0-4.9,1.3-4.9,4.6V300c0,32.7,6.5,53.6,20.9,67.9c13.5,13.4,34.6,20.7,65.2,20.7H2099.6z
			 M1071.5,149.6h-12.1c-34.9,0-58.1,9.3-69.3,23h-0.3c-11.2-13.8-35.8-23-70.7-23h-12.5c-39.3,0-71.6,13.7-84.5,41.7
			c-5.6,12.1-7.4,28.3-7.4,45.8v146.2c0,3.2,1.9,5.4,5.2,5.4h39.6c3.3,0,5.1-2.2,5.1-5.4l0.1-121.8c0-17.4,0.4-30.1,1.3-37.9
			c2.3-20.4,17.4-30.4,46.4-30.4h3.3c28.9,0,44.8,9.9,47,30.4c0.9,7.8,1.3,20.5,1.3,37.9v121.8c0,3.2,2,5.3,5.2,5.3h39.7
			c3.3,0,5.1-2.5,5.1-5.8l0.1-121.4c0-17.4,0.4-30.1,1.3-37.9c2.3-20.4,18.1-30.4,47-30.4h3.3c28.9,0,44.1,9.9,46.3,30.4
			c0.9,7.8,1.3,20.5,1.3,37.9v121.8c0,3.3,1.9,5.3,5.2,5.3h39.7c3.3,0,5.1-2.5,5.1-5.8V237c0-17.5-1.9-33.7-7.4-45.8
			C1143.1,163.2,1110.8,149.6,1071.5,149.6z M1412.9,335.9c4.8-16,7.5-34.3,7.5-64.7c0-30.4-2.7-48.8-7.5-64.7
			c-12.2-40.7-44.4-57-96.6-57h-6.2c-52.2,0-84.4,16.2-96.6,57c-4.8,15.9-7.5,34.3-7.5,64.7c0,30.4,2.7,48.7,7.5,64.7
			c12.3,40.7,44.4,57,96.6,57h6.2C1368.6,392.9,1400.7,376.7,1412.9,335.9z M1367.8,305.4c-3.9,38-23.1,44-53.9,44h-1.3
			c-30.8,0-50-6-53.9-44c-1.2-11.5-2.2-21-2.2-34.2c0-13.3,0.9-22.8,2.2-34.2c3.8-38,23-44,53.9-44h1.3c30.8,0,50,5.9,53.9,44
			c1.2,11.5,2.2,21,2.2,34.2C1370,284.5,1369,294,1367.8,305.4z M1740.3,154.1h-40.2c-3.3,0-4.9,1.3-4.9,4.6l0,225.4
			c0,3.3,1.6,4.6,4.9,4.6h40.2c3.4,0,5-1.3,5-4.6l0-225.4C1745.3,155.4,1743.7,154.1,1740.3,154.1z"/>
		<path fill="#00A9E0" d="M131.4,64.9c-30.3,0.5-86.2,15.4-111.7,119.7c-11.1,45.4-15.4,92.8-5.9,149.1c8.8,52,24.3,96.8,34.8,121.6
			c3.6,8.5,9.2,17.4,13.5,22.9c12.4,15.7,33.1,14.7,41.8,10.4c9.5-4.7,20.4-15.9,16.4-41.7c-1.9-12.4-7.4-30.6-10.5-40.7
			c-9.5-31-22.1-68.5-23.2-95.1c-1.5-35.7,12.6-40.3,21.9-42.4c15.7-3.5,28.9,13.8,41.4,35.4c14.9,25.8,40.5,71.5,61.4,106.4
			c18.8,31.5,53.6,65.3,109.5,63c56.9-2.4,98.9-24.1,120.5-92.5c16.2-51.2,27.2-89.4,45-128.6c20.4-45,47.6-69.1,70.6-61.8
			c21.3,6.8,26.6,27.6,26.9,58.2c0.2,27-2.9,56.9-5.3,78.8c-0.9,7.9-2.5,23.9-1.8,32.8c1.3,17.5,8.8,34.9,28.5,37.7
			c20.9,3,37.7-13.8,44.4-34c2.6-8,4.9-20.2,6.1-28.8c6.2-43.7,7.8-73.1,5-117.8c-3.2-52.3-13.5-100-31.3-141.3
			c-17.1-39.5-44.5-64.8-79.7-67C510.7,6.7,466,32.5,442.5,82.7c-21.6,46.2-38.9,93.7-49.4,117.9c-10.6,24.6-26.3,39.7-50.3,42.2
			c-29.4,3.1-54.7-18.2-73.3-48.7c-16.2-26.5-48.2-77-65.4-94C188.1,84.2,169.7,64.3,131.4,64.9z"/>
	</g>
</g>
</svg>
