<?xml version="1.0" encoding="utf-8"?>
<!-- Generator: Adobe Illustrator 22.1.0, SVG Export Plug-In . SVG Version: 6.00 Build 0)  -->
<svg version="1.1" id="Capa_1" xmlns="http://www.w3.org/2000/svg" xmlns:xlink="http://www.w3.org/1999/xlink" x="0px" y="0px"
	 viewBox="0 0 500 398" style="enable-background:new 0 0 500 398;" xml:space="preserve">
<style type="text/css">
	.st0{fill:#5BC500;}
</style>
<path class="st0" d="M333.8,307.4c1.4-0.3,2.9-0.5,4.4-0.5c8.1,0,15,5.2,17.3,12.5c6.8,20.1,14,36.8,19.2,47.4
	c2.7,5.5,6.5,11,9.3,14.4c0.4,0.4,0.7,0.8,1.1,1.2l0,0c0.1,0.1,0.2,0.1,0.2,0.2c0.3,0.3,0.7,0.7,1,1c10.9,9.8,24.9,5,34.6-6.3
	c4-4.6,9-12.5,12.4-18.3c17.1-29.2,27.1-49.9,39.3-83.7c14.3-39.6,23.3-78.9,25.9-116.9c1-15,0.3-29-2.3-41.5
	c-8.8-44.5-40.7-75.3-85.8-90.6C363.4,10.2,310.9,5,254.8,9.5c-48,3.8-78.9,10.7-124.2,25.7c-9,3-21.5,7.9-29.5,12.6
	c-14,7.1-26.9,15.1-38.7,23.7C10.2,113.5-8.7,176.9,3.7,226.3c11.2,44.6,47.2,73.7,97.1,86.1c52.1,13,109.8,14.7,171.1,6.4
	C295.2,315.6,314.9,312,333.8,307.4z"/>
</svg>
