<?xml version="1.0" encoding="utf-8"?>
<!-- Generator: Adobe Illustrator 22.1.0, SVG Export Plug-In . SVG Version: 6.00 Build 0)  -->
<svg version="1.1" id="Capa_1" xmlns="http://www.w3.org/2000/svg" xmlns:xlink="http://www.w3.org/1999/xlink" x="0px" y="0px"
	 viewBox="0 0 655.6 483" style="enable-background:new 0 0 655.6 483;" xml:space="preserve">
<style type="text/css">
	.st0{clip-path:url(#SVGID_2_);fill:#00A9E0;}
</style>
<g>
	<defs>
		<rect id="SVGID_1_" width="655.6" height="483"/>
	</defs>
	<clipPath id="SVGID_2_">
		<use xlink:href="#SVGID_1_"  style="overflow:visible;"/>
	</clipPath>
	<path class="st0" d="M612.7,234.5c3.9,3.9,3.9,10.2,0,14.1L421.2,440.1c-4.3,4.3-10.6,3.6-14.2,0c-1.7-1.7-2.9-4.2-2.9-7v-65.2
		v-10.3c0,0,0,0,0,0c-0.2-0.2-4.6-0.3-10-0.3H50c-2.8,0-5.3-1.1-7.1-2.9c-1.8-1.8-2.9-4.3-2.9-7.1V135.3c0-5.5,4.5-10,10-10h344.1
		c5.5,0,10-4.5,10-10V50c0-8.9,10.8-13.4,17.1-7.1L612.7,234.5 M641,206.2L449.5,14.7C435.1,0.3,413.8-3.9,395,3.8
		c-18.8,7.8-30.9,25.9-30.9,46.2v35.2L50,85.3c-27.6,0-50,22.4-50,50l0,211.9c0,13.4,5.2,25.9,14.6,35.4c9.4,9.4,22,14.6,35.4,14.6
		h314.1l0,35.8c0,13.4,5.2,25.9,14.6,35.3c19.5,19.5,51.3,19.5,70.8,0L641,276.9C660.5,257.4,660.5,225.7,641,206.2"/>
</g>
</svg>
