<?xml version="1.0" encoding="utf-8"?>
<!-- Generator: Adobe Illustrator 22.1.0, SVG Export Plug-In . SVG Version: 6.00 Build 0)  -->
<svg version="1.1" id="Capa_1" xmlns="http://www.w3.org/2000/svg" xmlns:xlink="http://www.w3.org/1999/xlink" x="0px" y="0px"
	 viewBox="0 0 500 347.7" style="enable-background:new 0 0 500 347.7;" xml:space="preserve">
<style type="text/css">
	.st0{fill:#00ABE3;}
</style>
<path class="st0" d="M413.6,114.7c1.3,7.9,6.9,14.4,14.4,16.8c36.4,11.6,62.9,38.3,70.1,72.5c11.7,54.9-31.6,111.4-96.5,126.1
	c-0.1,0-1.6,0.4-1.9,0.4l-0.6,0.1c-43.1,9.6-97.3,14.3-152.7,13.3c-85.4-1.5-162.8-15.8-206.9-38.4c-0.5-0.3-1-0.5-1.4-0.8
	c-26.3-14.5-40.7-38.9-37.6-63.9c2.8-22.8,19.4-41.2,43.4-50.2c8.5-2.7,14.4-10.4,14.4-19.8c-0.5-27.4,9.2-52.4,27.9-70.5
	c17.5-16.9,41.6-26,67.9-25.5c2.1,0,4,0.1,6.2,0.3c0.8,0.1,1.3,0.1,2,0.1c7.4,0,13.9-3.8,17.6-9.6C206.3,24.4,249.3-0.8,294.7,0
	c10.1,0.2,20.2,1.7,29.9,4.5C372.2,18.2,406.5,61.7,413.6,114.7z"/>
</svg>
