<?xml version="1.0" encoding="utf-8"?>
<!-- Generator: Adobe Illustrator 23.0.3, SVG Export Plug-In . SVG Version: 6.00 Build 0)  -->
<svg version="1.1" id="Capa_1" xmlns="http://www.w3.org/2000/svg" xmlns:xlink="http://www.w3.org/1999/xlink" x="0px" y="0px"
	 viewBox="0 0 766.4 500" style="enable-background:new 0 0 766.4 500;" xml:space="preserve">
<style type="text/css">
	.st0{fill:#00ABE3;}
</style>
<g>
	<path class="st0" d="M319.9,274.8c7.4,0,14.3,1.8,20.5,5.3c5.2,2.9,11.7,1.1,14.6-4.1c2.9-5.1,1.1-11.7-4.1-14.6
		c-9.3-5.2-20.1-8-31-8c-35,0-63.6,28.5-63.6,63.4v16.5h-16.4c-5.9,0-10.7,4.8-10.7,10.7c0,5.9,4.8,10.7,10.7,10.7h16.4v16.5
		c0,35.1,28.5,63.6,63.6,63.6c11,0,21.7-2.8,31-8c5.1-2.9,7-9.4,4.1-14.6c-2.9-5.1-9.4-7-14.6-4.1c-6.2,3.5-13.1,5.3-20.5,5.3
		c-23.3,0-42.2-18.9-42.2-42.2v-16.5h43c5.9,0,10.7-4.8,10.7-10.7c0-5.9-4.8-10.7-10.7-10.7h-43v-16.5
		C277.7,293.6,296.6,274.8,319.9,274.8z"/>
	<path class="st0" d="M304.6,214.8c-70.2,0-127.1,56.9-127.1,127.1S234.4,469,304.6,469s127.1-56.9,127.1-127.1
		S374.8,214.8,304.6,214.8z M386.1,423.4c-21.8,21.8-50.7,33.8-81.5,33.8s-59.7-12-81.5-33.8c-21.8-21.8-33.8-50.7-33.8-81.5
		s12-59.7,33.8-81.5c21.8-21.8,50.7-33.8,81.5-33.8s59.7,12,81.5,33.8c21.8,21.8,33.8,50.7,33.8,81.5S407.9,401.6,386.1,423.4z"/>
	<path class="st0" d="M749.3,18.4C740.2,8,726.6,2.7,708.9,2.7H208.8c-17.7,0-31.3,5.3-40.4,15.7c-8.4,9.7-12.7,23.7-12.7,41.7v34.3
		h-27.6c-17.7,0-31.3,5.3-40.4,15.7c-8.4,9.7-12.7,23.7-12.7,41.7v30.4H54.6c-17.7,0-31.3,5.3-40.4,15.7
		c-8.4,9.7-12.7,23.7-12.7,41.7v202.8c0,18,4.3,32,12.7,41.7c9.1,10.4,22.7,15.7,40.4,15.7h500.1c17.7,0,31.3-5.3,40.4-15.7
		c8.4-9.7,12.7-23.7,12.7-41.7v-30.4h20.4c17.7,0,31.3-5.3,40.4-15.7c8.4-9.7,12.7-23.7,12.7-41.7V151.7c0-18-4.3-32-12.7-41.7
		c-9.1-10.4-22.7-15.7-40.4-15.7h-62c-22.6-35.5-62.2-59-107.4-59s-84.8,23.6-107.4,59H173.8V60c0-13.5,2.8-23.5,8.3-29.8
		c5.6-6.4,14.3-9.5,26.8-9.5h500.1c12.5,0,21.2,3.1,26.8,9.5c5.5,6.3,8.3,16.3,8.3,29.8v202.8c0,13.5-2.8,23.5-8.3,29.8
		c-5.6,6.4-14.3,9.5-26.8,9.5h-26.7v18.1h26.7c17.7,0,31.3-5.3,40.4-15.7c8.4-9.7,12.7-23.7,12.7-41.7V60
		C762,42.1,757.7,28,749.3,18.4z M589.7,442.3c0,13.5-2.8,23.5-8.3,29.8c-5.6,6.4-14.3,9.5-26.8,9.5H54.6c-12.5,0-21.2-3.1-26.8-9.5
		c-5.5-6.3-8.3-16.3-8.3-29.8V239.5c0-13.5,2.8-23.5,8.3-29.8c5.6-6.4,14.3-9.5,26.8-9.5h500.1c12.5,0,21.2,3.1,26.8,9.5
		c5.5,6.3,8.3,16.3,8.3,29.8V442.3z M429.8,182.1c-0.3-3.4-2.2-6.6-5.4-8.4c-9.3-5.2-20.1-8-31-8c-16.4,0-31.4,6.2-42.7,16.5h-62.6
		c2.6-3.3,5.5-6.4,8.5-9.5c21.8-21.8,50.7-33.8,81.5-33.8s59.7,12,81.5,33.8c3,3,5.9,6.2,8.5,9.5H429.8z M655,121.9
		c5.5,6.3,8.3,16.3,8.3,29.8v202.8c0,13.5-2.8,23.5-8.3,29.8c-5.6,6.4-14.3,9.5-26.8,9.5h-20.4V239.5c0-18-4.3-32-12.7-41.7
		c-9.1-10.4-22.7-15.7-40.4-15.7h-71.8C460,148.8,421.6,127,378.1,127s-81.8,21.8-104.7,55.1H93.1v-30.4c0-13.5,2.8-23.5,8.3-29.8
		c5.6-6.4,14.3-9.5,26.8-9.5h500.1C640.6,112.5,649.4,115.6,655,121.9z M377.3,81c21.8-21.8,50.7-33.8,81.5-33.8s59.7,12,81.5,33.8
		c4.2,4.2,8.1,8.7,11.5,13.4h-41.8c1.4-4.7-0.6-9.9-5-12.4c-9.3-5.2-20.1-8-31-8c-18.4,0-35,7.9-46.7,20.4h-61.6
		C369.3,89.7,373.1,85.2,377.3,81z"/>
</g>
</svg>
