<?xml version="1.0" encoding="utf-8"?>
<!-- Generator: Adobe Illustrator 23.0.3, SVG Export Plug-In . SVG Version: 6.00 Build 0)  -->
<svg version="1.1" id="Capa_1" xmlns="http://www.w3.org/2000/svg" xmlns:xlink="http://www.w3.org/1999/xlink" x="0px" y="0px"
	 viewBox="0 0 500 500" style="enable-background:new 0 0 500 500;" xml:space="preserve">
<style type="text/css">
	.st0{fill:#00ABE3;}
</style>
<g>
	<path class="st0" d="M425.3,65C383.8,25.1,323.9,4.8,247.2,4.8C170.5,4.8,110.6,25.1,69.1,65C26,106.5,4.2,168,4.2,247.8
		S26,389.1,69.1,430.6c41.4,39.9,101.4,60.2,178.1,60.2c76.7,0,136.6-20.2,178.1-60.2c43.1-41.5,64.9-103,64.9-182.8
		S468.4,106.5,425.3,65z M387,390.9c-30.8,29.7-77.8,44.7-139.8,44.7c-61.9,0-109-15-139.8-44.7c-31.9-30.7-48-78.8-48-143.1
		s16.2-112.3,48-143.1C138.2,75.1,185.3,60,247.2,60c61.9,0,109,15,139.8,44.7c31.9,30.7,48,78.8,48,143.1S418.8,360.2,387,390.9z"
		/>
	<path class="st0" d="M285.8,247.8l51.6-51.6c10.7-10.7,10.7-27.9,0-38.6c-10.7-10.7-27.9-10.7-38.6,0l-51.6,51.6l-51.6-51.6
		c-10.7-10.7-27.9-10.7-38.6,0c-10.7,10.7-10.7,27.9,0,38.6l51.6,51.6l-51.6,51.6c-10.7,10.7-10.7,27.9,0,38.6
		c10.7,10.7,27.9,10.7,38.6,0l51.6-51.6l51.6,51.6c10.7,10.7,27.9,10.7,38.6,0c10.7-10.7,10.7-27.9,0-38.6L285.8,247.8z"/>
</g>
</svg>
