<?xml version="1.0" encoding="utf-8"?>
<!-- Generator: Adobe Illustrator 23.0.3, SVG Export Plug-In . SVG Version: 6.00 Build 0)  -->
<svg version="1.1" id="Capa_1" xmlns="http://www.w3.org/2000/svg" xmlns:xlink="http://www.w3.org/1999/xlink" x="0px" y="0px"
	 viewBox="0 0 449.6 500" style="enable-background:new 0 0 449.6 500;" xml:space="preserve">
<style type="text/css">
	.st0{fill:#00ABE3;}
</style>
<g>
	<path class="st0" d="M422.4,22.7c-14-14-34.4-20.9-62.4-20.9H194.7c-27.7,0-48.1,7-62.3,21.3c-12.8,12.9-19.6,30.9-20.6,54.8
		c-32.6,2.2-58.5,12.4-77.1,30.3C12.6,129.5,1.4,161,1.4,201.9s11.2,72.3,33.2,93.6c18.6,17.9,44.4,28.1,77,30.3v89.9
		c0,28.1,6.8,48.6,20.9,62.5c13.9,13.8,34.3,20.5,62.2,20.5h165.4c27.9,0,48.2-6.7,62.2-20.5c14-13.9,20.9-34.4,20.9-62.5V84.9
		C443.1,57,436.3,36.7,422.4,22.7z M125.8,298c-31.7,0-55.8-7.7-71.5-22.9c-16.3-15.7-24.6-40.4-24.6-73.2
		c0-32.9,8.3-57.5,24.6-73.2c15.8-15.2,39.8-22.9,71.5-22.9c31.7,0,55.8,7.7,71.5,22.9c16.3,15.7,24.6,40.4,24.6,73.2
		c0,32.9-8.3,57.5-24.6,73.2C181.6,290.3,157.5,298,125.8,298z M414.8,415.7c0,39.9-14.8,54.8-54.8,54.8H194.7
		c-39.9,0-54.8-14.8-54.8-54.8v-89.9c32.6-2.2,58.5-12.4,77.1-30.3c22.1-21.2,33.2-52.7,33.2-93.6S239,129.5,217,108.3
		c-18.6-17.9-44.4-28.1-76.9-30.3c1.9-33.9,18.1-47.8,54.6-47.8h76.5c-0.2,1.5-0.3,3.2-0.4,5.4l-7.3,113.5l50-8.2l-7.9,122.7
		l52.7-16.5l10.1,92.1c0.4,3.8,3.6,6.6,7.4,6.6c0.3,0,0.5,0,0.8,0c4.1-0.4,7-4.1,6.6-8.2l-12.1-110.1L321.8,243l7.7-119.8l-50,8.2
		L286,30.1h74.1c20.1,0,33.9,4.1,42.3,12.5c8.4,8.4,12.4,22.2,12.4,42.2V415.7z"/>
	<path class="st0" d="M277.4,383.5c-17.5,0-28,10.5-28,28.1c0,8.6,2.5,15.5,7.3,20.4c4.9,5,12.1,7.7,20.7,7.7
		c8.6,0,15.8-2.7,20.7-7.7c4.8-5,7.3-11.8,7.3-20.4C305.4,394,294.9,383.5,277.4,383.5z"/>
	<path class="st0" d="M133.3,148.4c5.5,0,10.6,1.3,15.2,3.9c3.8,2.1,8.6,0.8,10.7-3c2.1-3.8,0.8-8.6-3-10.7
		c-6.9-3.9-14.8-5.9-22.9-5.9c-25.9,0-46.9,21-46.9,46.8v12.2H74.3c-4.4,0-7.9,3.5-7.9,7.9c0,4.4,3.5,7.9,7.9,7.9h12.1v12.2
		c0,25.9,21,46.9,46.9,46.9c8.1,0,16-2,22.9-5.9c3.8-2.1,5.2-7,3-10.7s-6.9-5.1-10.7-3c-4.6,2.6-9.7,3.9-15.2,3.9
		c-17.2,0-31.1-14-31.1-31.2v-12.2h31.7c4.4,0,7.9-3.5,7.9-7.9c0-4.4-3.5-7.9-7.9-7.9h-31.7v-12.2
		C102.2,162.3,116.1,148.4,133.3,148.4z"/>
</g>
</svg>
