<?xml version="1.0" encoding="utf-8"?>
<!-- Generator: Adobe Illustrator 23.0.3, SVG Export Plug-In . SVG Version: 6.00 Build 0)  -->
<svg version="1.1" id="Capa_1" xmlns="http://www.w3.org/2000/svg" xmlns:xlink="http://www.w3.org/1999/xlink" x="0px" y="0px"
	 viewBox="0 0 405.5 500" style="enable-background:new 0 0 405.5 500;" xml:space="preserve">
<style type="text/css">
	.st0{fill:#00ABE3;}
</style>
<g>
	<path class="st0" d="M282.6,47.1c-14.2-14.2-28.8-21.4-43.5-21.4c-0.1,0-0.2,0-0.3,0c-14.8,0.1-28.9,7.1-43.2,21.4L26,216.6
		c-14.7,14.7-21.8,29-21.7,43.7c0.1,14.6,7.2,28.8,21.7,43.3l84.8,84.8c11.1,11.1,22,17.9,33,20.5l-80.6,0.9c0,0,35,3.1,22.8,18.7
		s-28.7,29.1-28.7,29.1s47.5-28.2,62.6-14.5c15.4,13.9,6.1,56,6.1,56s20.9-66,56.3-49.5c13.6,6.3,29.6,24.9,29.6,24.9
		s-14.6-29-2.2-49.7c6.2-10.4,42.1-16.6,42.1-16.6h-59.4l-26.7,0.3c10.7-2.8,21.3-9.5,32-20.2l169.5-169.5
		c14.5-14.5,21.6-28.8,21.7-43.4c0-14.7-7.1-29-21.7-43.6L282.6,47.1z M350.9,202.5L181.4,372c-6.2,6.2-12,10.5-17.4,12.8l15.2-21.2
		c1.9-2.7,1.5-6.5-1-8.6l-32.8-28.2L178,300c2.6-2.1,3.1-5.9,1.2-8.7L159.5,263c-2-2.9-6-3.6-9-1.6c-2.9,2-3.6,6-1.6,9l16.3,23.5
		l-34,27.9c-1.5,1.2-2.3,3-2.4,4.9c0,1.9,0.8,3.7,2.2,5l34.2,29.4l-15.9,22.2c-0.6,0.9-1,1.9-1.2,2.9c-6.5-1.8-13.4-6.5-21-14.1
		l-84.8-84.8c-10-10-14.9-18.9-14.9-27c0-8.2,4.9-17.1,14.9-27.2L211.9,63.5c9.8-9.8,18.4-14.6,27.1-14.6s17.4,4.9,27.1,14.6
		l84.8,84.8C370.7,168,370.7,182.7,350.9,202.5z"/>
	<path class="st0" d="M24.6,160.8c6.4,0,11.6-5.2,11.6-11.6V13.7c0-6.4-5.2-11.6-11.6-11.6S13,7.3,13,13.7v135.5
		C13,155.6,18.2,160.8,24.6,160.8z"/>
	<path class="st0" d="M154.9,53.5c0.1,0,0.2,0,0.3,0c6.4-0.2,11.5-5.5,11.3-11.9c0-0.2-0.4-15.3-0.4-27.9c0-6.4-5.2-11.6-11.6-11.6
		s-11.6,5.2-11.6,11.6c0,12.9,0.4,28.3,0.4,28.5C143.4,48.5,148.6,53.5,154.9,53.5z"/>
	<path class="st0" d="M90.4,93.2c0.1,0,0.2,0,0.3,0c6.4-0.1,11.5-5.4,11.3-11.8c0-0.4-0.8-37.2-0.8-67.7c0-6.4-5.2-11.6-11.6-11.6
		c-6.4,0-11.6,5.2-11.6,11.6c0,30.8,0.8,67.8,0.8,68.2C78.9,88.2,84.1,93.2,90.4,93.2z"/>
	<path class="st0" d="M313.2,53.4c0.1,0,0.2,0,0.3,0c6.3,0,11.4-5,11.6-11.3c0-0.2,0.4-15.6,0.4-28.5c0-6.4-5.2-11.6-11.6-11.6
		c-6.4,0-11.6,5.2-11.6,11.6c0,12.6-0.4,27.8-0.4,27.9C301.7,47.9,306.8,53.3,313.2,53.4z"/>
	<path class="st0" d="M378.8,2c-6.4,0-11.6,5.2-11.6,11.6c0,30.5-0.8,67.3-0.8,67.7c-0.1,6.4,4.9,11.7,11.3,11.8c0.1,0,0.2,0,0.3,0
		c6.3,0,11.4-5,11.6-11.3c0-0.4,0.8-37.4,0.8-68.2C390.4,7.2,385.2,2,378.8,2z"/>
</g>
</svg>
