<?xml version="1.0" encoding="utf-8"?>
<!-- Generator: Adobe Illustrator 23.0.3, SVG Export Plug-In . SVG Version: 6.00 Build 0)  -->
<svg version="1.1" id="Capa_1" xmlns="http://www.w3.org/2000/svg" xmlns:xlink="http://www.w3.org/1999/xlink" x="0px" y="0px"
	 viewBox="0 0 451.4 500" style="enable-background:new 0 0 451.4 500;" xml:space="preserve">
<style type="text/css">
	.st0{fill:#00ABE3;}
</style>
<g>
	<path class="st0" d="M423,23.2C409,9.2,388.7,2.4,360.8,2.4H195.9c-27.6,0-48,6.9-62.1,21.2c-12.7,12.9-19.5,30.8-20.6,54.6
		c-32.5,2.2-58.3,12.4-76.9,30.3c-22,21.2-33.1,52.6-33.1,93.3s11.1,72.1,33.1,93.3c18.5,17.9,44.3,28,76.8,30.2V415
		c0,28.1,6.8,48.5,20.8,62.3c13.9,13.8,34.2,20.5,62,20.5h164.9c27.8,0,48.1-6.7,62-20.5c14-13.9,20.8-34.3,20.8-62.3V85.2
		C443.6,57.4,436.9,37.1,423,23.2z M31.4,201.8c0-32.8,8.2-57.3,24.5-73c15.7-15.1,39.7-22.8,71.3-22.8c31.6,0,55.6,7.7,71.3,22.8
		c16.3,15.7,24.5,40.2,24.5,73s-8.2,57.3-24.5,73c-15.7,15.1-39.7,22.8-71.3,22.8c-31.6,0-55.6-7.7-71.3-22.8
		C39.6,259.2,31.4,234.6,31.4,201.8z M415.4,415c0,39.8-14.8,54.6-54.6,54.6H195.9c-39.8,0-54.6-14.8-54.6-54.6v-89.6
		c32.5-2.2,58.3-12.4,76.9-30.3c22-21.2,33.1-52.6,33.1-93.3s-11.2-72.1-33.1-93.3c-18.5-17.8-44.3-28-76.7-30.2
		c1.9-33.8,18-47.7,54.4-47.7h164.9c20,0,33.8,4.1,42.2,12.5c8.4,8.4,12.4,22.2,12.4,42.1V415z"/>
	<path class="st0" d="M278.3,383c-17.5,0-27.9,10.5-27.9,28.1c0,8.6,2.5,15.4,7.3,20.4c4.9,5,12,7.7,20.7,7.7
		c8.6,0,15.8-2.7,20.7-7.7c4.8-4.9,7.3-11.8,7.3-20.4C306.3,393.5,295.8,383,278.3,383z"/>
</g>
<path class="st0" d="M134.7,148.5c5.5,0,10.5,1.3,15.1,3.9c3.8,2.1,8.6,0.8,10.7-3c2.1-3.8,0.8-8.6-3-10.7
	c-6.9-3.9-14.8-5.9-22.8-5.9c-25.8,0-46.8,20.9-46.8,46.7v12.1H75.8c-4.3,0-7.9,3.5-7.9,7.9c0,4.3,3.5,7.9,7.9,7.9h12.1v12.1
	c0,25.8,21,46.8,46.8,46.8c8.1,0,16-2,22.8-5.9c3.8-2.1,5.1-6.9,3-10.7c-2.1-3.8-6.9-5.1-10.7-3c-4.6,2.6-9.7,3.9-15.1,3.9
	c-17.1,0-31-13.9-31-31.1v-12.1h31.6c4.3,0,7.9-3.5,7.9-7.9c0-4.3-3.5-7.9-7.9-7.9h-31.6v-12.1C103.6,162.4,117.6,148.5,134.7,148.5
	z"/>
</svg>
