<?xml version="1.0" encoding="utf-8"?>
<!-- Generator: Adobe Illustrator 23.0.3, SVG Export Plug-In . SVG Version: 6.00 Build 0)  -->
<svg version="1.1" id="Capa_1" xmlns="http://www.w3.org/2000/svg" xmlns:xlink="http://www.w3.org/1999/xlink" x="0px" y="0px"
	 viewBox="0 0 602.6 500" style="enable-background:new 0 0 602.6 500;" xml:space="preserve">
<style type="text/css">
	.st0{fill:#00ABE3;}
</style>
<g>
	<path class="st0" d="M577,23.4c-13.1-13.2-32.2-19.5-58.4-19.5h-155c-26,0-45.1,6.5-58.4,20c-12.7,12.8-19.1,31-19.5,55.4
		c0,0.1,0,0.3,0,0.4v54.3c-13.1,7.2-25.6,14-35.5,19.4c-0.9,0.5-2-0.5-1.4-1.5c5.5-9.6,8.8-17.6,10.2-25.7
		c2.9-17.2-5.8-33.8-21.2-40.3c-14.9-6.3-31.4-0.8-42.1,13.9c-18.2,25-46.9,66-70,99c-14.4,20.6-26.8,38.3-30.6,43.5
		c-1.3,1.7-3,4.1-4.7,7c-0.2,0.4-0.8,0.7-1.2,0.5c-14.9-4.5-36.7-6.3-61.4,7.2c-0.2,0.1-0.4,0.2-0.6,0.3
		c-15.2,8.4-23.9,19.1-25.9,31.8c-1.3,8.2,0.5,16.8,5.2,25.4c4.2,7.7,88.3,160.2,93.5,169.6c1.4,2.8,6.6,11.5,17.6,15.2
		c9.9,3.4,21,1.7,33-4.8c12.5-6.8,29.5-18.3,39.8-34.7c4-6.4,6.6-13,7.8-19.6c0.1-0.6,0.7-1,1.3-0.9c14.1,3.6,29.3,1,45.3-7.7
		l42.1-23c2.3,17.8,8.4,31.5,18.5,41.6c13.1,12.9,32.1,19.2,58.3,19.2h155c26.2,0,45.2-6.3,58.3-19.2c13.2-13.1,19.6-32.2,19.6-58.6
		v-310C596.4,55.6,590.1,36.5,577,23.4z M232,408.6c-10.2,5.6-19.2,7.3-26.8,5.2c-3.2-0.9-6.4-2.7-9.5-5.4c0,0-0.1-0.1-0.2-0.1
		c-8.1-14.8-31.3,1.4-24.9,13.3c13.1,24.1-24.5,46.7-32.3,50.9c-5.4,3-10,4.1-12.8,3.1c-1.9-0.6-3-2.3-3-2.4l-0.2-0.5l-0.3-0.5
		c-0.9-1.6-89.3-162-93.5-169.8c-2.7-4.9-7.2-13.2,10.8-23.1c0.1-0.1,0.3-0.2,0.4-0.2c23.7-12.9,42.7-5.1,51-1.7
		c8.2,3.4,17.4-7.9,19.2-10.5l3-4.1c0.5-0.9,1.4-2.5,3.2-5c4-5.5,15.9-22.5,31-44c23-32.9,51.7-73.8,69.7-98.6
		c2.4-3.3,6.2-7,10.6-5.1c3.5,1.5,6.5,5.9,5.5,11.6c-1.3,7.8-7.3,18.1-17,33c-11.1,17.1-4.6,27.2-1.3,30.8c6.4,6.8,17.2,7.8,27,2.5
		c8.3-4.6,134-73,142.3-77.6c0,0,0,0,0.1,0c12.1-5.5,16.7-2.2,21.1,5.7c4.4,8.1,4,13.4-2,18c0,0-0.1,0.1-0.2,0.1
		c-24,13.1-55.6,30.3-78.4,42.7l0,0l-10.7,5.8c0,0,0,0,0,0c-0.3,0.2-0.6,0.3-0.9,0.5l0,0c-5.7,3.7-7.7,11.2-4.4,17.3
		c3.3,6,9.9,8.7,17.1,5.5c0,0,0.1,0,0.1,0c1.1-0.3,2.1-0.6,3.1-1.2c7-3.8,32.4-15.4,33.4-17.9c0.1-0.2,0.2-0.4,0.4-0.5l48.6-26.5
		c1.9-1,3.6-2.1,5.3-3.3c0,0,0.1,0,0.1-0.1c17.8-9.7,31.1-16.9,33.2-18.1c0,0,0,0,0.1,0c12.1-5.5,16.7-2.2,21.1,5.7
		c5.3,9.7,3.6,15.4-6.2,20.7l-14,7.6c0,0-0.1,0-0.1,0.1c-4,2.2-72.6,39.5-113.4,61.8l0,0l-10.7,5.8c0,0,0,0,0,0
		c-0.3,0.2-0.6,0.3-0.9,0.5l0,0c-5.7,3.7-7.7,11.2-4.4,17.3c3.4,6.2,10.4,9,18.1,5.1l0,0c4.6-2.5,9.8-5.3,15.2-8.3
		c0,0,0.1,0,0.1-0.1c0.8-0.3,1.5-0.6,2.3-1.1l0-0.2l105.9-57.7c8.4-4.5,15-5,19.3,2.9c5.3,9.7,3.6,15.4-6.2,20.7l-42.9,23.4
		c0,0,0,0-0.1,0c-0.4,0.2-0.9,0.4-1.3,0.6c-0.3,0.1-0.6,0.3-0.8,0.4c-4.1,2.2-24.7,13.5-65.3,35.6l0,0l-10.7,5.8c0,0,0,0,0,0
		c-0.3,0.2-0.6,0.3-0.9,0.5l0,0c-5.7,3.7-7.7,11.2-4.4,17.3c0,0.1,0.1,0.1,0.1,0.2c0,0,0,0.1,0.1,0.1c3.5,6.4,10.8,9.1,18.6,4.9
		l0-0.2l78.1-42.6c0,0,0.1,0,0.1,0c5.9-2.6,11.7-3.6,14.2,1c5.3,9.7,3.6,15.4-6.2,20.7l-117.7,64.1l0.1,0.2l-2.6,1.4
		c0-0.1-0.1-0.1-0.1-0.2L232,408.6z M569.9,391.7c0,37.4-13.9,51.3-51.3,51.3h-155c-36.4,0-50.5-13.1-51.3-48.2l32.5-17.7
		c0,0,0.1,0,0.1-0.1c0.8-0.3,1.6-0.7,2.4-1.1l0-0.2l120.3-65.5c22.6-12.3,29-33.9,16.7-56.4c-1.1-2-2.3-3.9-3.5-5.5
		c-0.4-0.5-0.2-1.3,0.4-1.6l7.8-4.3c22.6-12.3,29-33.9,16.7-56.4c-3-5.4-6.4-9.7-10.1-12.9c-0.4-0.3-0.5-0.9-0.2-1.4
		c7-11.5,6.9-25.7-1-40.3c-11.8-21.6-32.1-27.8-55.7-16.8c-0.3,0.1-0.5,0.2-0.8,0.4c-0.4,0.2-1.5,0.8-3.2,1.7
		c-0.6,0.3-1.4,0-1.6-0.7c-1-4.2-2.6-8.4-5-12.7c-11.8-21.6-32.1-27.8-55.7-16.8c-0.3,0.1-0.5,0.2-0.8,0.4
		c-2.5,1.3-29.6,16.1-59.6,32.5V81.7c0-36.5,14.9-51.3,51.3-51.3h155c18.8,0,31.8,3.8,39.7,11.8c7.9,7.9,11.7,20.8,11.7,39.6V391.7z
		"/>
	<path class="st0" d="M441,353.8c-16.5,0-26.3,9.9-26.3,26.4c0,8.1,2.3,14.5,6.8,19.2c4.6,4.7,11.3,7.2,19.4,7.2
		c8.1,0,14.8-2.5,19.4-7.2c4.5-4.7,6.8-11.1,6.8-19.2C467.3,363.7,457.5,353.8,441,353.8z"/>
</g>
</svg>
