<?xml version="1.0" encoding="utf-8"?>
<!-- Generator: Adobe Illustrator 23.0.3, SVG Export Plug-In . SVG Version: 6.00 Build 0)  -->
<svg version="1.1" id="Capa_1" xmlns="http://www.w3.org/2000/svg" xmlns:xlink="http://www.w3.org/1999/xlink" x="0px" y="0px"
	 viewBox="0 0 365.1 500" style="enable-background:new 0 0 365.1 500;" xml:space="preserve">
<style type="text/css">
	.st0{fill:#00ABE3;}
</style>
<g>
	<path class="st0" d="M263.9,23.3H98.3c-25.5,0-44,6.3-56.6,19.2c-12.1,12.4-18,30.4-18.3,55.1l0,0v1.6v3.5v298.6
		c0,51,24.5,75.8,74.9,75.8h165.5c50.4,0,74.9-24.8,74.9-75.8V99.1C338.7,48.8,313.5,23.3,263.9,23.3z M312.9,401.2
		c0,18.6-3.6,31.3-11.1,38.9c-7.4,7.5-19.8,11.1-38,11.1H98.3c-18.2,0-30.6-3.6-38-11.1c-7.4-7.6-11.1-20.3-11.1-38.9V103.7
		c0-0.3,0-0.5,0-0.8c0-0.2,0-0.4,0-0.6v-3.2c0-18.4,3.6-31.1,11-38.7s19.9-11.3,38.1-11.3h165.5c35.3,0,49.1,14,49.1,50V401.2z"/>
	<path class="st0" d="M181.3,376c-13.3,0-22,7-22,22.1c0,7.2,2,12.6,5.6,16.3c3.8,3.9,9.5,5.8,16.4,5.8s12.6-1.9,16.4-5.8
		c3.6-3.6,5.6-9,5.6-16.3C203.3,383,194.7,376,181.3,376z"/>
	<path class="st0" d="M353.2,414c0,53.7-28.6,80.9-85,80.9h-173c-56.4,0-85-27.2-85-80.9v-79.1c-1.8,0.4-3.6,0.9-5.4,1.3V414
		c0,28.1,7.7,49.7,22.9,64.2C43,492.7,65.7,500,95.3,500h173c29.6,0,52.3-7.3,67.5-21.8s22.9-36.1,22.9-64.2V226.5
		c-1.8,0.4-3.6,0.7-5.4,1.1L353.2,414L353.2,414z"/>
	<path class="st0" d="M335.4,22.2C320,7.6,297.4,0.1,268.2,0.1h-173C65.1,0.1,43,7.4,27.4,22.4C12.7,36.7,5.3,56.8,4.9,83.9
		c0,0.2,0,0.4,0,0.7v220.8c1.8-0.4,3.6-0.9,5.4-1.3V84.5c0-0.2,0-0.3,0-0.5c0.3-25.8,7.2-44.8,21-58.1C45.8,12,66.7,5.2,95.3,5.2
		h173c55.6,0,85,28,85,80.9v110.7c1.8-0.4,3.6-0.7,5.4-1.1V86.1C358.6,58.4,350.8,36.9,335.4,22.2z"/>
</g>
<g>
	<g>
		<path class="st0" d="M181.8,266.9c-40.8,0-57.9-19.8-65.2-36.4c-2.1-4.9,0.1-10.6,5-12.8c4.9-2.1,10.6,0.1,12.8,5
			c7.3,16.6,22.7,24.7,47.4,24.7c24.6,0,40-8.1,47.2-24.7c2.1-4.9,7.9-7.2,12.8-5.1c4.9,2.1,7.2,7.9,5.1,12.8
			C239.7,247.1,222.5,266.9,181.8,266.9z"/>
	</g>
	<g>
		<g>
			<path class="st0" d="M89.2,153c-1.3,0-2.6-0.3-3.9-0.8c-4.9-2.1-7.2-7.9-5.1-12.8c4.4-10.1,14.6-22.1,38.7-22.1
				c24.1,0,34.4,12,38.8,22.1c2.1,4.9-0.1,10.6-5,12.8c-4.9,2.1-10.6-0.1-12.8-5c-1.9-4.5-6.2-10.4-21-10.4
				c-14.7,0-19,5.9-20.9,10.4C96.5,150.8,93,153,89.2,153z"/>
		</g>
		<g>
			<path class="st0" d="M214.6,153c-1.3,0-2.6-0.3-3.9-0.8c-4.9-2.1-7.2-7.9-5.1-12.8c4.4-10.1,14.6-22.1,38.7-22.1
				c24.1,0,34.4,12,38.8,22.1c2.1,4.9-0.1,10.6-5,12.8c-4.9,2.1-10.6-0.1-12.8-5c-1.9-4.5-6.2-10.4-21-10.4
				c-14.7,0-19,5.9-20.9,10.4C221.9,150.8,218.3,153,214.6,153z"/>
		</g>
	</g>
</g>
</svg>
