<?xml version="1.0" encoding="utf-8"?>
<!-- Generator: Adobe Illustrator 22.1.0, SVG Export Plug-In . SVG Version: 6.00 Build 0)  -->
<svg version="1.1" id="Capa_1" xmlns="http://www.w3.org/2000/svg" xmlns:xlink="http://www.w3.org/1999/xlink" x="0px" y="0px"
	 viewBox="0 0 500 347.7" style="enable-background:new 0 0 500 347.7;" xml:space="preserve">
<style type="text/css">
	.st0{fill:#FF4071;}
	.st1{enable-background:new    ;}
	.st2{fill:#FFFFFF;}
</style>
<path class="st0" d="M86.4,116.5c-1.3,7.9-6.9,14.4-14.4,16.8c-36.4,11.6-62.9,38.3-70.2,72.5c-11.7,55,31.6,111.5,96.6,126.2
	c0.1,0,1.6,0.4,1.9,0.4l0.6,0.1c43.1,9.6,97.3,14.3,152.8,13.4c85.5-1.5,162.9-15.9,207.1-38.4c0.5-0.3,1-0.5,1.4-0.8
	c26.3-14.5,40.7-38.9,37.7-64c-2.8-22.8-19.4-41.2-43.4-50.2c-8.5-2.7-14.4-10.4-14.4-19.8c0.5-27.4-9.2-52.4-28-70.5
	c-17.5-16.9-41.7-26-67.9-25.6c-2.1,0-4,0.1-6.2,0.3c-0.8,0.1-1.3,0.1-2,0.1c-7.4,0-13.9-3.8-17.7-9.6
	C293.8,26.1,250.8,0.9,205.5,1.7c-10.1,0.2-20.2,1.7-29.9,4.5C127.8,19.9,93.6,63.5,86.4,116.5z"/>
<g class="st1">
	<path class="st2" d="M76.4,199.3h3l17.9,25.4v-25.4h3.8V232h-3.3l-17.6-24.9V232h-3.8V199.3z"/>
	<path class="st2" d="M116.8,232.6c-7.3,0-10.7-4.6-10.7-12.4c0-7.8,3.4-12.4,10.7-12.4s10.7,4.6,10.7,12.4
		C127.5,228.1,124.1,232.6,116.8,232.6z M116.8,211.1c-4.8,0-6.5,3.2-6.5,9.1c0,6,1.7,9.1,6.5,9.1s6.5-3.2,6.5-9.1
		C123.3,214.3,121.6,211.1,116.8,211.1z"/>
	<path class="st2" d="M157,231.9c-1.5,0.4-4.2,0.8-5.9,0.8c-3.8,0-6.6-1-8.5-2.9c-2-2-3.1-5.1-3.1-9.2s1.1-7.3,3.1-9.5
		c2-2.2,5-3.2,8.6-3.2c1.8,0,4,0.3,5.6,0.7l-0.2,3.1c-1.5-0.3-3.4-0.6-4.9-0.6c-5.5,0-8,3.2-8,9.4c0,3,0.7,5.2,2,6.7
		c1.3,1.5,3.3,2.2,6.2,2.2c1.6,0,3.7-0.2,4.9-0.5L157,231.9z"/>
	<path class="st2" d="M170.5,232.6c-7.3,0-10.7-4.6-10.7-12.4c0-7.8,3.4-12.4,10.7-12.4s10.7,4.6,10.7,12.4
		C181.1,228.1,177.7,232.6,170.5,232.6z M170.5,211.1c-4.8,0-6.5,3.2-6.5,9.1c0,6,1.7,9.1,6.5,9.1s6.5-3.2,6.5-9.1
		C177,214.3,175.3,211.1,170.5,211.1z"/>
	<path class="st2" d="M188.9,208.5l0.2,1.7c2.4-1.5,5.4-2.4,8.1-2.4c2.5,0,4.5,0.7,5.9,2.1c1.3,1.3,2,3.2,2,6.1V232h-4v-15.4
		c0-2-0.3-3.2-1.1-4c-0.8-0.8-2.1-1.2-3.8-1.2c-2.1,0-4.6,0.6-6.5,1.5V232h-4v-23.4H188.9z"/>
	<path class="st2" d="M212.1,203c1.1-0.4,2.7-0.7,4-0.7v6.2h6.2v2.9h-6.2v13c0,2.2,0.1,3.4,0.8,4.1c0.5,0.6,1.3,0.9,3,0.9
		c0.8,0,2.4-0.1,3.5-0.4l0.2,2.9c-1.2,0.3-3.1,0.6-4.8,0.6c-2.3,0-4.2-0.6-5.2-1.8c-1.1-1.3-1.5-2.9-1.5-5.8v-13.5h-4.3v-2.2
		l4.3-0.6V203z"/>
	<path class="st2" d="M241.3,230.4c-2.1,1.3-4.5,2.2-7.4,2.2c-2.5,0-4.7-0.8-6.1-2.2c-1.1-1.2-1.9-2.9-1.9-5.1c0-2.2,0.8-3.9,2-5.1
		c1.8-1.6,4.5-2.2,7.9-2.2h4.9v-1.5c0-1.9-0.3-3.1-1.2-4c-1-1-2.5-1.4-4.9-1.4c-1.8,0-4,0.2-6.3,0.6l-0.1-3.1
		c2.2-0.5,4.9-0.8,7.1-0.8c3.5,0,5.8,0.8,7.3,2.2c1.5,1.4,2.1,3.3,2.1,6.4V232h-3.2L241.3,230.4z M240.8,220.9h-4.3
		c-2.4,0-4.1,0.3-5.2,1.2c-0.8,0.7-1.3,1.7-1.3,3.1c0,2.8,1.8,4.2,4.8,4.2c1.9,0,4.3-0.7,6-1.5V220.9z"/>
	<path class="st2" d="M266.6,231.9c-1.5,0.4-4.2,0.8-5.9,0.8c-3.8,0-6.6-1-8.5-2.9c-2-2-3.1-5.1-3.1-9.2s1.1-7.3,3.1-9.5
		c2-2.2,5-3.2,8.6-3.2c1.8,0,4,0.3,5.6,0.7l-0.2,3.1c-1.5-0.3-3.4-0.6-4.9-0.6c-5.5,0-8,3.2-8,9.4c0,3,0.7,5.2,2,6.7
		c1.3,1.5,3.3,2.2,6.2,2.2c1.6,0,3.7-0.2,4.9-0.5L266.6,231.9z"/>
	<path class="st2" d="M272.4,203c1.1-0.4,2.7-0.7,4-0.7v6.2h6.2v2.9h-6.2v13c0,2.2,0.1,3.4,0.8,4.1c0.5,0.6,1.3,0.9,3,0.9
		c0.8,0,2.4-0.1,3.5-0.4l0.2,2.9c-1.2,0.3-3.1,0.6-4.8,0.6c-2.3,0-4.2-0.6-5.2-1.8c-1.1-1.3-1.5-2.9-1.5-5.8v-13.5h-4.3v-2.2
		l4.3-0.6V203z"/>
	<path class="st2" d="M301.5,230.4c-2.1,1.3-4.5,2.2-7.4,2.2c-2.5,0-4.7-0.8-6.1-2.2c-1.1-1.2-1.9-2.9-1.9-5.1c0-2.2,0.8-3.9,2-5.1
		c1.8-1.6,4.5-2.2,7.9-2.2h4.9v-1.5c0-1.9-0.3-3.1-1.2-4c-1-1-2.5-1.4-4.9-1.4c-1.8,0-4,0.2-6.3,0.6l-0.1-3.1
		c2.2-0.5,4.9-0.8,7.1-0.8c3.5,0,5.8,0.8,7.3,2.2c1.5,1.4,2.1,3.3,2.1,6.4V232h-3.2L301.5,230.4z M301,220.9h-4.3
		c-2.4,0-4.1,0.3-5.2,1.2c-0.8,0.7-1.3,1.7-1.3,3.1c0,2.8,1.8,4.2,4.8,4.2c1.9,0,4.3-0.7,6-1.5V220.9z"/>
	<path class="st2" d="M313.9,208.5l0.2,2c2.2-1.9,4.6-2.7,6.6-2.7c0.4,0,1,0,1.5,0.1v3.5c-0.5,0-1.4-0.1-2.1-0.1
		c-2.1,0-4,0.5-5.7,1.6V232h-4v-23.4H313.9z"/>
	<path class="st2" d="M350.7,231.9c-1.5,0.4-4.2,0.8-5.9,0.8c-3.8,0-6.6-1-8.5-2.9c-2-2-3.1-5.1-3.1-9.2s1.1-7.3,3.1-9.5
		c2-2.2,5-3.2,8.6-3.2c1.8,0,4,0.3,5.6,0.7l-0.2,3.1c-1.5-0.3-3.4-0.6-4.9-0.6c-5.5,0-8,3.2-8,9.4c0,3,0.7,5.2,2,6.7
		c1.3,1.5,3.3,2.2,6.2,2.2c1.6,0,3.7-0.2,4.9-0.5L350.7,231.9z"/>
	<path class="st2" d="M364.2,232.6c-7.3,0-10.7-4.6-10.7-12.4c0-7.8,3.4-12.4,10.7-12.4c7.3,0,10.7,4.6,10.7,12.4
		C374.8,228.1,371.4,232.6,364.2,232.6z M364.2,211.1c-4.8,0-6.5,3.2-6.5,9.1c0,6,1.7,9.1,6.5,9.1c4.8,0,6.5-3.2,6.5-9.1
		C370.7,214.3,368.9,211.1,364.2,211.1z"/>
	<path class="st2" d="M382.6,208.5l0.2,1.7c2.4-1.5,5.4-2.4,8.1-2.4c2.5,0,4.5,0.7,5.9,2.1c1.3,1.3,2,3.2,2,6.1V232h-4v-15.4
		c0-2-0.3-3.2-1.1-4s-2.1-1.2-3.8-1.2c-2.1,0-4.6,0.6-6.5,1.5V232h-4v-23.4H382.6z"/>
</g>
<g class="st1">
	<path class="st2" d="M71.7,245.8V280h-4v-34.2H71.7z"/>
	<path class="st2" d="M91.6,278.4c-2.1,1.3-4.5,2.2-7.4,2.2c-2.5,0-4.7-0.8-6.1-2.2c-1.1-1.2-1.9-2.9-1.9-5.1c0-2.2,0.8-3.9,2-5.1
		c1.8-1.6,4.5-2.2,7.9-2.2H91v-1.5c0-1.9-0.3-3.1-1.2-4c-1-1-2.5-1.4-4.9-1.4c-1.8,0-4,0.2-6.3,0.6l-0.1-3.1
		c2.2-0.5,4.9-0.8,7.1-0.8c3.5,0,5.8,0.8,7.3,2.2c1.5,1.4,2.1,3.3,2.1,6.4V280h-3.2L91.6,278.4z M91,268.9h-4.3
		c-2.4,0-4.1,0.3-5.2,1.2c-0.8,0.7-1.3,1.7-1.3,3.1c0,2.8,1.8,4.2,4.8,4.2c1.9,0,4.3-0.7,6-1.5V268.9z"/>
	<path class="st2" d="M121.2,256.5v2.9H115V280h-4v-20.5h-4.3v-2.2l4.3-0.6v-3.2c0-2.9,0.6-4.9,1.7-6.2c1.3-1.5,3.3-2.2,6.1-2.2
		c1.1,0,2.8,0.1,3.9,0.4v3c-1-0.1-2.4-0.2-3.3-0.2c-1.7,0-2.8,0.3-3.5,1.1c-0.7,0.8-1,1.9-1,4.1v3.3H121.2z"/>
	<path class="st2" d="M137.7,278.4c-2.1,1.3-4.5,2.2-7.4,2.2c-2.5,0-4.7-0.8-6.1-2.2c-1.1-1.2-1.9-2.9-1.9-5.1c0-2.2,0.8-3.9,2-5.1
		c1.8-1.6,4.5-2.2,7.9-2.2h4.9v-1.5c0-1.9-0.3-3.1-1.2-4c-1-1-2.5-1.4-4.9-1.4c-1.8,0-4,0.2-6.3,0.6l-0.1-3.1
		c2.2-0.5,4.9-0.8,7.1-0.8c3.5,0,5.8,0.8,7.3,2.2c1.5,1.4,2.1,3.3,2.1,6.4V280h-3.2L137.7,278.4z M137.1,268.9h-4.3
		c-2.4,0-4.1,0.3-5.2,1.2c-0.8,0.7-1.3,1.7-1.3,3.1c0,2.8,1.8,4.2,4.8,4.2c1.9,0,4.3-0.7,6-1.5V268.9z"/>
	<path class="st2" d="M150,256.5l0.2,1.7c2.4-1.5,5-2.4,7.6-2.4c3,0,5,0.9,6.4,2.6c2.9-1.8,5.8-2.6,8.4-2.6c2.5,0,4.5,0.7,5.9,2.1
		c1.3,1.3,2,3.2,2,6.1V280h-4v-15.4c0-2-0.3-3.2-1.1-4c-0.8-0.8-2.1-1.2-3.7-1.2c-1.9,0-4.3,0.6-6.3,1.6c0.2,0.9,0.3,1.9,0.3,3.1
		V280h-4v-15.4c0-2-0.3-3.2-1.1-4c-0.8-0.8-2.1-1.2-3.7-1.2c-2,0-4.2,0.6-6.1,1.5V280h-4v-23.4H150z"/>
	<path class="st2" d="M188,252.1c-1.4,0-2.3-0.7-2.3-2.5v-0.1c0-1.8,0.9-2.5,2.3-2.5h0.2c1.4,0,2.3,0.7,2.3,2.5v0.1
		c0,1.8-0.9,2.5-2.3,2.5H188z M190.1,280h-4v-23.4h4V280z"/>
	<path class="st2" d="M200,245.8V280h-4v-34.2H200z"/>
	<path class="st2" d="M207.7,252.1c-1.4,0-2.3-0.7-2.3-2.5v-0.1c0-1.8,0.9-2.5,2.3-2.5h0.2c1.4,0,2.3,0.7,2.3,2.5v0.1
		c0,1.8-0.9,2.5-2.3,2.5H207.7z M209.8,280h-4v-23.4h4V280z"/>
	<path class="st2" d="M229.7,278.4c-2.1,1.3-4.5,2.2-7.4,2.2c-2.5,0-4.7-0.8-6.1-2.2c-1.1-1.2-1.9-2.9-1.9-5.1c0-2.2,0.8-3.9,2-5.1
		c1.8-1.6,4.5-2.2,7.9-2.2h4.9v-1.5c0-1.9-0.3-3.1-1.2-4c-1-1-2.5-1.4-4.9-1.4c-1.8,0-4,0.2-6.3,0.6l-0.1-3.1
		c2.2-0.5,4.9-0.8,7.1-0.8c3.5,0,5.8,0.8,7.3,2.2c1.5,1.4,2.1,3.3,2.1,6.4V280H230L229.7,278.4z M229.2,268.9h-4.3
		c-2.4,0-4.1,0.3-5.2,1.2c-0.8,0.7-1.3,1.7-1.3,3.1c0,2.8,1.8,4.2,4.8,4.2c1.9,0,4.3-0.7,6-1.5V268.9z"/>
	<path class="st2" d="M262.9,278.5c-2.3,1.3-5,2.1-7.5,2.1c-2.5,0-4.5-0.7-5.9-2.1c-1.3-1.3-2-3.2-2-6.1v-15.9h4V272
		c0,2,0.3,3.2,1.1,4s2.1,1.2,3.8,1.2c2.1,0,4.5-0.6,6.5-1.5v-19.1h4v25.2c0,3.2-0.7,5.5-2.2,7c-1.6,1.7-4.1,2.6-7.6,2.6
		c-1.6,0-3.7-0.2-4.7-0.5l-0.3-3.1c1.1,0.1,3.3,0.3,4.5,0.3c2.2,0,3.8-0.3,4.9-1.3c1-1,1.5-2.4,1.5-5.1V278.5z"/>
	<path class="st2" d="M295.5,278.4c-2.1,1.3-4.5,2.2-7.4,2.2c-2.5,0-4.7-0.8-6.1-2.2c-1.1-1.2-1.9-2.9-1.9-5.1c0-2.2,0.8-3.9,2-5.1
		c1.8-1.6,4.5-2.2,7.9-2.2h4.9v-1.5c0-1.9-0.3-3.1-1.2-4c-1-1-2.5-1.4-4.9-1.4c-1.8,0-4,0.2-6.3,0.6l-0.1-3.1
		c2.2-0.5,4.9-0.8,7.1-0.8c3.5,0,5.8,0.8,7.3,2.2c1.5,1.4,2.1,3.3,2.1,6.4V280h-3.2L295.5,278.4z M295,268.9h-4.3
		c-2.4,0-4.1,0.3-5.2,1.2c-0.8,0.7-1.3,1.7-1.3,3.1c0,2.8,1.8,4.2,4.8,4.2c1.9,0,4.3-0.7,6-1.5V268.9z"/>
	<path class="st2" d="M307.9,256.5l0.2,1.7c2.4-1.5,5-2.4,7.6-2.4c3,0,5,0.9,6.4,2.6c2.9-1.8,5.8-2.6,8.4-2.6c2.5,0,4.5,0.7,5.9,2.1
		c1.3,1.3,2,3.2,2,6.1V280h-4v-15.4c0-2-0.3-3.2-1.1-4s-2.1-1.2-3.7-1.2c-1.9,0-4.3,0.6-6.3,1.6c0.2,0.9,0.3,1.9,0.3,3.1V280h-4
		v-15.4c0-2-0.3-3.2-1.1-4s-2.1-1.2-3.7-1.2c-2,0-4.2,0.6-6.1,1.5V280h-4v-23.4H307.9z"/>
	<path class="st2" d="M345.8,252.1c-1.4,0-2.3-0.7-2.3-2.5v-0.1c0-1.8,0.9-2.5,2.3-2.5h0.2c1.4,0,2.3,0.7,2.3,2.5v0.1
		c0,1.8-0.9,2.5-2.3,2.5H345.8z M347.9,280h-4v-23.4h4V280z"/>
	<path class="st2" d="M362.8,273.3c-1.4,0-2.6-0.1-3.7-0.5c-0.7,0.8-1.3,2.1-1.3,2.9c0,1,0.6,1.4,1.9,1.4h4.5c4.1,0,6.4,0.7,7.9,2.2
		c1.2,1.2,1.7,2.8,1.7,4.7c0,4.7-3.2,7.4-11.1,7.4c-7.2,0-10.5-2.4-10.5-6.6c0-2.1,1.1-4.1,2.7-5.2c-0.8-0.6-1.1-1.5-1.1-2.5
		c0-1.9,1.1-3.8,2.8-5.4c-2.2-1.5-3.3-4-3.3-7.1c0-5.1,3-8.7,9.4-8.7c0.9,0,1.7,0.1,2.4,0.2l2.8-6.1c1.1,0.2,2.5,0.9,3.3,1.5
		l-3.3,5.5c2.8,1.4,4.2,4.2,4.2,7.6C372.2,269.6,369.2,273.3,362.8,273.3z M357.4,280.5c-0.9,1.1-1.4,2.3-1.4,3.6c0,2.5,1.9,4,7.1,4
		c5,0,7-1.4,7-3.9c0-1.1-0.4-2-1.1-2.6c-0.9-0.7-2.4-1-4.8-1h-5.1C358.5,280.6,357.9,280.6,357.4,280.5z M362.8,259
		c-3.9,0-5.6,2-5.6,5.5c0,3.6,1.8,5.5,5.6,5.5s5.6-2,5.6-5.5C368.4,261,366.7,259,362.8,259z"/>
	<path class="st2" d="M386.6,280.6c-7.3,0-10.7-4.6-10.7-12.4c0-7.8,3.4-12.4,10.7-12.4c7.3,0,10.7,4.6,10.7,12.4
		C397.3,276.1,393.9,280.6,386.6,280.6z M386.6,259.1c-4.8,0-6.5,3.2-6.5,9.1c0,6,1.7,9.1,6.5,9.1c4.8,0,6.5-3.2,6.5-9.1
		C393.2,262.3,391.4,259.1,386.6,259.1z"/>
	<path class="st2" d="M415.7,259.8c-2.1-0.5-4.3-0.8-6.2-0.8c-3.3,0-5.1,1.1-5.1,3.3c0,5.3,13.1,2.8,13.1,11.1c0,5-3.8,7.2-9.5,7.2
		c-2.2,0-5.1-0.4-6.9-1l0.2-3.1c1.9,0.5,4.5,0.9,6.5,0.9c3.8,0,5.9-1.3,5.9-3.7c0-5.3-13.1-2.5-13.1-11.1c0-4.5,3.5-6.7,8.5-6.7
		c2.3,0,5,0.4,6.8,1L415.7,259.8z"/>
</g>
<g>
	<path class="st2" d="M272.1,64.2c-11.4-11-28-16.5-49.4-16.5s-37.9,5.6-49.3,16.6c-11.8,11.4-17.7,28.4-17.7,50.6s6,39.2,17.7,50.6
		c11.3,10.9,27.9,16.4,49.3,16.4s38-5.5,49.4-16.4c11.8-11.4,17.8-28.4,17.8-50.6C290,92.7,284,75.6,272.1,64.2z M266.2,159.3
		c-9.7,9.3-24.4,14.1-43.5,14.1s-33.7-4.7-43.4-14.1c-10-9.7-15.1-24.6-15.1-44.4s5.1-34.8,15.1-44.5c9.7-9.4,24.3-14.2,43.4-14.2
		s33.7,4.8,43.5,14.2c10.1,9.7,15.2,24.7,15.2,44.5C281.5,134.7,276.3,149.6,266.2,159.3z"/>
	<path class="st2" d="M222.8,127.2c-17.8,0-25.3,8.6-28.4,15.9c-0.9,2.1,0.1,4.6,2.2,5.6c0.5,0.2,1.1,0.4,1.7,0.4
		c1.6,0,3.2-1,3.9-2.6c3.1-7.3,9.9-10.8,20.6-10.8c10.7,0,17.5,3.5,20.7,10.8c0.9,2.1,3.4,3.1,5.6,2.2c2.1-0.9,3.1-3.4,2.2-5.6
		C248.1,135.8,240.6,127.2,222.8,127.2z"/>
	<path class="st2" d="M204.6,107.8c0.9,2.1,3.4,3.1,5.6,2.2c2.1-0.9,3.1-3.4,2.2-5.6c-1.9-4.4-6.4-9.6-16.9-9.6s-15,5.2-16.9,9.6
		c-0.9,2.1,0.1,4.6,2.2,5.6c0.5,0.2,1.1,0.4,1.7,0.4c1.6,0,3.2-1,3.9-2.6c0.8-1.9,2.7-4.5,9.1-4.5
		C201.9,103.3,203.8,105.9,204.6,107.8z"/>
	<path class="st2" d="M267.1,104.5c-1.9-4.4-6.4-9.6-16.9-9.6s-15,5.2-16.9,9.6c-0.9,2.1,0.1,4.6,2.2,5.6c0.5,0.2,1.1,0.4,1.7,0.4
		c1.6,0,3.2-1,3.9-2.6c0.8-1.9,2.7-4.5,9.1-4.5c6.4,0,8.3,2.6,9.2,4.5c0.9,2.1,3.4,3.1,5.6,2.2C267.1,109.1,268.1,106.6,267.1,104.5
		z"/>
</g>
</svg>
