<?xml version="1.0" encoding="utf-8"?>
<!-- Generator: Adobe Illustrator 22.1.0, SVG Export Plug-In . SVG Version: 6.00 Build 0)  -->
<svg version="1.1" id="Capa_1" xmlns="http://www.w3.org/2000/svg" xmlns:xlink="http://www.w3.org/1999/xlink" x="0px" y="0px"
	 viewBox="0 0 500 347.7" style="enable-background:new 0 0 500 347.7;" xml:space="preserve">
<style type="text/css">
	.st0{fill:#BEBEBE;}
	.st1{enable-background:new    ;}
	.st2{fill:#FFFFFF;}
</style>
<path class="st0" d="M414.4,116.6c1.3,7.9,6.9,14.3,14.3,16.7c36.3,11.6,62.8,38.2,70,72.3c11.7,54.8-31.6,111.2-96.4,125.9
	c-0.1,0-1.6,0.4-1.9,0.4l-0.6,0.1c-43,9.6-97.1,14.3-152.5,13.3C162,343.8,84.8,329.5,40.7,307c-0.5-0.3-1-0.5-1.4-0.8
	C13,291.7-1.4,267.4,1.7,242.4c2.8-22.8,19.4-41.1,43.3-50.1c8.5-2.7,14.3-10.4,14.3-19.8c-0.5-27.4,9.2-52.3,27.9-70.4
	c17.5-16.9,41.6-26,67.8-25.5c2.1,0,4,0.1,6.2,0.3c0.8,0.1,1.3,0.1,2,0.1c7.4,0,13.9-3.8,17.6-9.6c26.5-41.2,69.4-66.3,114.7-65.5
	c10.1,0.2,20.2,1.7,29.9,4.5C373.1,20.2,407.2,63.7,414.4,116.6z"/>
<g class="st1">
	<path class="st2" d="M162.4,158.2h3.5l21.1,29.9v-29.9h4.4v38.4h-3.8l-20.7-29.3v29.3h-4.4V158.2z"/>
	<path class="st2" d="M210.2,197.4c-8.5,0-12.5-5.4-12.5-14.6c0-9.2,4-14.6,12.5-14.6c8.5,0,12.5,5.4,12.5,14.6
		C222.7,192,218.7,197.4,210.2,197.4z M210.2,172.1c-5.6,0-7.6,3.7-7.6,10.7c0,7,2,10.7,7.6,10.7c5.6,0,7.6-3.7,7.6-10.7
		C217.8,175.8,215.8,172.1,210.2,172.1z"/>
	<path class="st2" d="M238.6,209.3v-40.2h3.9l0.2,2c2.9-1.9,6.1-2.8,8.6-2.8c7.1,0,10.6,5.7,10.6,14.4c0,10.3-4.2,14.7-10.7,14.7
		c-2.9,0-5.8-0.8-7.9-2.1v13.9H238.6z M243.3,191.9c1.6,1,4.3,1.7,6.7,1.7c5,0,7-3,7-10.8c0-7-2.1-10.4-6.7-10.4
		c-2.1,0-4.9,0.7-7,1.9V191.9z"/>
	<path class="st2" d="M278.4,197.4c-8.5,0-12.5-5.4-12.5-14.6c0-9.2,4-14.6,12.5-14.6c8.5,0,12.5,5.4,12.5,14.6
		C290.9,192,287,197.4,278.4,197.4z M278.4,172.1c-5.6,0-7.6,3.7-7.6,10.7c0,7,2,10.7,7.6,10.7c5.6,0,7.6-3.7,7.6-10.7
		C286.1,175.8,284,172.1,278.4,172.1z"/>
	<path class="st2" d="M314.2,194.9c-2.2,1.5-5.6,2.5-8.1,2.5c-7,0-11.1-4.8-11.1-14.4c0-9.1,4.2-14.7,11.4-14.7c2.4,0,5.1,0.7,7.3,2
		v-13.8h4.7v40.2h-3.8L314.2,194.9z M313.6,192v-18.4c-2-0.8-4.5-1.3-6.3-1.3c-5.6,0-7.5,4.4-7.5,10.8c0,7.2,2.5,10.5,7.5,10.5
		C309.3,193.6,311.7,192.9,313.6,192z"/>
	<path class="st2" d="M345.3,196.3c-2.4,0.7-5.6,1.1-8.1,1.1c-4.3,0-7.6-1.1-9.8-3.3c-2.5-2.5-3.6-6.2-3.6-11.2
		c0-9.8,4.9-14.6,11.9-14.6c7.7,0,11.4,5.5,11.4,14.5v1.1c0,0.5-0.2,0.6-0.7,0.6h-17.8c0,3,0.8,5.5,2.4,7c1.5,1.3,3.5,2.1,7,2.1
		c2,0,4.7-0.3,6.8-0.7L345.3,196.3z M342.5,181.1c-0.2-5.3-2.2-9-6.8-9c-4.7,0-7,3.4-7,9H342.5z"/>
	<path class="st2" d="M356.6,169.1l0.3,2.4c2.6-2.2,5.4-3.1,7.8-3.1c0.5,0,1.2,0.1,1.8,0.2v4.2c-0.6-0.1-1.6-0.1-2.4-0.1
		c-2.4,0-4.7,0.6-6.7,1.9v22.2h-4.7v-27.5H356.6z"/>
</g>
<g class="st1">
	<path class="st2" d="M147.1,249.5c-2.4,0.7-5.6,1.1-8.1,1.1c-4.3,0-7.6-1.1-9.8-3.3c-2.5-2.5-3.6-6.2-3.6-11.2
		c0-9.8,4.9-14.6,11.9-14.6c7.7,0,11.4,5.5,11.4,14.5v1.1c0,0.5-0.2,0.6-0.7,0.6h-17.8c0,3,0.8,5.5,2.4,7c1.5,1.3,3.5,2.1,7,2.1
		c2,0,4.7-0.3,6.8-0.7L147.1,249.5z M144.3,234.3c-0.2-5.3-2.2-9-6.8-9c-4.7,0-7,3.4-7,9H144.3z"/>
	<path class="st2" d="M170.8,226.1c-2.5-0.6-5-0.9-7.2-0.9c-3.9,0-6,1.3-6,3.9c0,6.2,15.3,3.3,15.3,13.1c0,5.8-4.5,8.4-11.1,8.4
		c-2.6,0-6-0.5-8.1-1.2l0.2-3.6c2.2,0.6,5.3,1,7.7,1c4.5,0,6.9-1.5,6.9-4.3c0-6.2-15.3-3-15.3-13.1c0-5.3,4.2-7.9,10-7.9
		c2.8,0,5.8,0.5,8,1.2L170.8,226.1z"/>
	<path class="st2" d="M197.6,249.7c-1.8,0.5-4.9,0.9-6.9,0.9c-4.5,0-7.8-1.1-10-3.4c-2.3-2.4-3.7-6-3.7-10.8s1.2-8.6,3.6-11.1
		c2.4-2.5,5.9-3.8,10.1-3.8c2.1,0,4.7,0.3,6.6,0.8l-0.3,3.6c-1.7-0.3-4-0.7-5.7-0.7c-6.5,0-9.4,3.8-9.4,11.1c0,3.5,0.8,6.1,2.3,7.9
		c1.6,1.8,3.9,2.6,7.3,2.6c1.9,0,4.3-0.3,5.7-0.6L197.6,249.7z"/>
	<path class="st2" d="M206.7,222.3l0.3,2.4c2.6-2.2,5.4-3.1,7.8-3.1c0.5,0,1.2,0.1,1.8,0.2v4.2c-0.6-0.1-1.6-0.1-2.4-0.1
		c-2.4,0-4.7,0.6-6.7,1.9v22.2h-4.7v-27.5H206.7z"/>
	<path class="st2" d="M223,217.1c-1.7,0-2.8-0.8-2.8-3V214c0-2.1,1.1-3,2.8-3h0.3c1.7,0,2.8,0.8,2.8,3v0.1c0,2.1-1.1,3-2.8,3H223z
		 M225.5,249.8h-4.7v-27.5h4.7V249.8z"/>
	<path class="st2" d="M237.1,223.7c2.2-1.2,5.2-2.2,7.9-2.2c6.7,0,10.7,4.6,10.7,14.4c0,10-3.9,14.7-10.7,14.7c-3,0-6.3-1.1-8.5-2.6
		l-0.2,1.9h-3.8v-40.2h4.7V223.7z M237.1,244.8c1.9,1.1,4.6,2,6.8,2c4.7,0,6.9-2.8,6.9-10.8c0-7.4-2.1-10.5-7-10.5
		c-2.1,0-4.8,0.7-6.7,1.6V244.8z"/>
	<path class="st2" d="M263.5,217.1c-1.7,0-2.8-0.8-2.8-3V214c0-2.1,1.1-3,2.8-3h0.3c1.7,0,2.8,0.8,2.8,3v0.1c0,2.1-1.1,3-2.8,3
		H263.5z M266,249.8h-4.7v-27.5h4.7V249.8z"/>
	<path class="st2" d="M276.9,222.3l0.3,2.4c2.6-2.2,5.4-3.1,7.8-3.1c0.5,0,1.2,0.1,1.8,0.2v4.2c-0.6-0.1-1.6-0.1-2.4-0.1
		c-2.4,0-4.7,0.6-6.7,1.9v22.2H273v-27.5H276.9z"/>
	<path class="st2" d="M317.9,248c-2.4,1.6-5.3,2.6-8.7,2.6c-3,0-5.5-0.9-7.2-2.6c-1.3-1.4-2.2-3.4-2.2-6c0-2.6,0.9-4.6,2.4-6
		c2.1-1.9,5.3-2.6,9.3-2.6h5.7v-1.7c0-2.2-0.4-3.7-1.4-4.7c-1.2-1.1-3-1.6-5.7-1.6c-2.1,0-4.7,0.2-7.4,0.7l-0.2-3.6
		c2.6-0.6,5.7-1,8.4-1c4.1,0,6.9,0.9,8.6,2.5c1.7,1.7,2.4,3.9,2.4,7.5v18.3h-3.8L317.9,248z M317.3,236.8h-5.1
		c-2.9,0-4.8,0.4-6.1,1.4c-1,0.8-1.5,2-1.5,3.7c0,3.3,2.1,4.9,5.7,4.9c2.2,0,5-0.8,7-1.8V236.8z"/>
	<path class="st2" d="M343.2,222.3l0.2,2c2.9-1.8,5.8-2.8,8.9-2.8c3.5,0,5.9,1,7.5,3.1c3.4-2.1,6.8-3.1,9.9-3.1c3,0,5.3,0.8,6.9,2.4
		c1.5,1.5,2.3,3.8,2.3,7.2v18.7h-4.7v-18.1c0-2.4-0.4-3.7-1.3-4.7s-2.4-1.4-4.3-1.4c-2.2,0-5,0.7-7.4,1.9c0.2,1,0.4,2.2,0.4,3.7
		v18.7h-4.7v-18.1c0-2.4-0.4-3.7-1.3-4.7s-2.4-1.4-4.3-1.4c-2.4,0-4.9,0.7-7.2,1.8v22.4h-4.7v-27.5H343.2z"/>
	<path class="st2" d="M387.9,217.1c-1.7,0-2.8-0.8-2.8-3V214c0-2.1,1.1-3,2.8-3h0.3c1.7,0,2.8,0.8,2.8,3v0.1c0,2.1-1.1,3-2.8,3
		H387.9z M390.4,249.8h-4.7v-27.5h4.7V249.8z"/>
</g>
<g class="st1">
	<path class="st2" d="M122,275.6l0.2,2c2.9-1.7,6.3-2.8,9.5-2.8c3,0,5.3,0.8,6.9,2.4c1.5,1.5,2.3,3.8,2.3,7.2v18.7h-4.7V285
		c0-2.4-0.4-3.7-1.3-4.7s-2.4-1.4-4.4-1.4c-2.5,0-5.4,0.7-7.7,1.8v22.4h-4.7v-27.5H122z"/>
	<path class="st2" d="M158.8,303.9c-8.5,0-12.5-5.4-12.5-14.6c0-9.2,4-14.6,12.5-14.6c8.5,0,12.5,5.4,12.5,14.6
		C171.3,298.5,167.3,303.9,158.8,303.9z M158.8,278.6c-5.6,0-7.6,3.7-7.6,10.7c0,7,2,10.7,7.6,10.7c5.6,0,7.6-3.7,7.6-10.7
		C166.4,282.3,164.4,278.6,158.8,278.6z"/>
	<path class="st2" d="M173.4,275.6h4.9l7.6,22.8l7.4-22.8h4.7l-9.7,27.5h-5.1L173.4,275.6z"/>
	<path class="st2" d="M204.2,270.4c-1.7,0-2.8-0.8-2.8-3v-0.1c0-2.1,1.1-3,2.8-3h0.3c1.7,0,2.8,0.8,2.8,3v0.1c0,2.1-1.1,3-2.8,3
		H204.2z M206.7,303.1H202v-27.5h4.7V303.1z"/>
	<path class="st2" d="M224.8,303.9c-8.5,0-12.5-5.4-12.5-14.6c0-9.2,4-14.6,12.5-14.6c8.5,0,12.5,5.4,12.5,14.6
		C237.3,298.5,233.3,303.9,224.8,303.9z M224.8,278.6c-5.6,0-7.6,3.7-7.6,10.7c0,7,2,10.7,7.6,10.7c5.6,0,7.6-3.7,7.6-10.7
		C232.4,282.3,230.4,278.6,224.8,278.6z"/>
	<path class="st2" d="M264.3,303.9c-8.5,0-12.5-5.4-12.5-14.6c0-9.2,4-14.6,12.5-14.6s12.5,5.4,12.5,14.6
		C276.8,298.5,272.9,303.9,264.3,303.9z M264.3,278.6c-5.6,0-7.6,3.7-7.6,10.7c0,7,2,10.7,7.6,10.7s7.6-3.7,7.6-10.7
		C272,282.3,269.9,278.6,264.3,278.6z"/>
	<path class="st2" d="M296.7,275.6l0.2,2c2.9-1.7,6.3-2.8,9.5-2.8c3,0,5.3,0.8,6.9,2.4c1.5,1.5,2.3,3.8,2.3,7.2v18.7h-4.7V285
		c0-2.4-0.4-3.7-1.3-4.7s-2.4-1.4-4.4-1.4c-2.5,0-5.5,0.7-7.7,1.8v22.4h-4.7v-27.5H296.7z"/>
	<path class="st2" d="M333.5,303.9c-8.5,0-12.5-5.4-12.5-14.6c0-9.2,4-14.6,12.5-14.6s12.5,5.4,12.5,14.6
		C346,298.5,342,303.9,333.5,303.9z M333.5,278.6c-5.6,0-7.6,3.7-7.6,10.7c0,7,2,10.7,7.6,10.7s7.6-3.7,7.6-10.7
		C341.1,282.3,339.1,278.6,333.5,278.6z"/>
	<path class="st2" d="M348.1,275.6h4.9l7.6,22.8l7.4-22.8h4.7l-9.7,27.5h-5.1L348.1,275.6z"/>
	<path class="st2" d="M378.9,270.4c-1.7,0-2.8-0.8-2.8-3v-0.1c0-2.1,1.1-3,2.8-3h0.3c1.7,0,2.8,0.8,2.8,3v0.1c0,2.1-1.1,3-2.8,3
		H378.9z M381.3,303.1h-4.7v-27.5h4.7V303.1z"/>
	<path class="st2" d="M404.9,301.3c-2.4,1.6-5.3,2.6-8.7,2.6c-3,0-5.5-0.9-7.2-2.6c-1.3-1.4-2.2-3.4-2.2-6c0-2.6,0.9-4.6,2.4-6
		c2.1-1.9,5.3-2.6,9.3-2.6h5.7V285c0-2.2-0.4-3.7-1.4-4.7c-1.2-1.1-3-1.6-5.7-1.6c-2.1,0-4.7,0.2-7.4,0.7l-0.2-3.6
		c2.6-0.6,5.7-1,8.4-1c4.1,0,6.9,0.9,8.6,2.5c1.7,1.7,2.4,3.9,2.4,7.5v18.3h-3.8L404.9,301.3z M404.3,290.1h-5.1
		c-2.9,0-4.8,0.4-6.1,1.4c-1,0.8-1.5,2-1.5,3.7c0,3.3,2.1,4.9,5.7,4.9c2.2,0,5-0.8,7-1.8V290.1z"/>
</g>
<g>
	<path class="st2" d="M307.5,48.5c-8.9-8.6-21.9-12.9-38.6-12.9s-29.7,4.4-38.5,12.9c-9.2,8.9-13.9,22.2-13.9,39.6
		s4.7,30.7,13.9,39.5c8.9,8.5,21.8,12.9,38.5,12.9s29.7-4.3,38.6-12.9c9.2-8.9,13.9-22.2,13.9-39.5
		C321.5,70.7,316.8,57.4,307.5,48.5z M302.9,122.8c-7.6,7.3-19.1,11-34,11s-26.3-3.7-33.9-11c-7.9-7.6-11.8-19.3-11.8-34.7
		c0-15.5,4-27.2,11.8-34.8c7.6-7.3,19-11.1,33.9-11.1s26.4,3.7,34,11.1c7.9,7.6,11.9,19.3,11.9,34.8S310.8,115.3,302.9,122.8z"/>
	<path class="st2" d="M269,97.7c-13.9,0-19.7,6.8-22.2,12.4c-0.7,1.7,0,3.6,1.7,4.4c0.4,0.2,0.9,0.3,1.3,0.3c1.3,0,2.5-0.7,3-2
		c2.5-5.7,7.7-8.4,16.1-8.4s13.7,2.8,16.2,8.4c0.7,1.7,2.7,2.4,4.4,1.7c1.7-0.7,2.4-2.7,1.7-4.4C288.7,104.5,282.9,97.7,269,97.7z"
		/>
	<path class="st2" d="M254.8,82.6c0.7,1.7,2.7,2.4,4.4,1.7c1.7-0.7,2.4-2.7,1.7-4.4c-1.5-3.4-5-7.5-13.2-7.5s-11.7,4.1-13.2,7.5
		c-0.7,1.7,0,3.6,1.7,4.4c0.4,0.2,0.9,0.3,1.3,0.3c1.3,0,2.5-0.7,3-2c0.7-1.5,2.1-3.5,7.1-3.5C252.6,79.1,254.1,81.1,254.8,82.6z"/>
	<path class="st2" d="M303.6,80c-1.5-3.4-5-7.5-13.2-7.5s-11.7,4.1-13.2,7.5c-0.7,1.7,0,3.6,1.7,4.4c0.4,0.2,0.9,0.3,1.3,0.3
		c1.3,0,2.5-0.7,3-2c0.7-1.5,2.1-3.5,7.1-3.5s6.5,2,7.2,3.5c0.7,1.7,2.7,2.4,4.4,1.7C303.6,83.6,304.4,81.6,303.6,80z"/>
</g>
</svg>
