<?xml version="1.0" encoding="utf-8"?>
<!-- Generator: Adobe Illustrator 22.1.0, SVG Export Plug-In . SVG Version: 6.00 Build 0)  -->
<svg version="1.1" id="Capa_1" xmlns="http://www.w3.org/2000/svg" xmlns:xlink="http://www.w3.org/1999/xlink" x="0px" y="0px"
	 viewBox="0 0 500 347.7" style="enable-background:new 0 0 500 347.7;" xml:space="preserve">
<style type="text/css">
	.st0{fill:#00ABE3;}
	.st1{enable-background:new    ;}
	.st2{fill:#FFFFFF;}
</style>
<path class="st0" d="M413.6,116.5c1.3,7.9,6.9,14.4,14.4,16.8c36.4,11.6,62.9,38.3,70.1,72.5c11.7,54.9-31.6,111.4-96.5,126.1
	c-0.1,0-1.6,0.4-1.9,0.4l-0.6,0.1c-43.1,9.6-97.3,14.3-152.7,13.3c-85.4-1.5-162.8-15.8-206.9-38.4c-0.5-0.3-1-0.5-1.4-0.8
	C11.7,292-2.7,267.6,0.4,242.6c2.8-22.8,19.4-41.2,43.4-50.2c8.5-2.7,14.4-10.4,14.4-19.8c-0.5-27.4,9.2-52.4,27.9-70.5
	c17.5-16.9,41.6-26,67.9-25.5c2.1,0,4,0.1,6.2,0.3c0.8,0.1,1.3,0.1,2,0.1c7.4,0,13.9-3.8,17.6-9.6C206.3,26.2,249.3,1,294.7,1.8
	c10.1,0.2,20.2,1.7,29.9,4.5C372.2,20,406.5,63.5,413.6,116.5z"/>
<g class="st1">
	<path class="st2" d="M183.2,255.8c3.2,0.2,6.9,1.5,8.9,2.7c-0.3,1-1.4,3.2-1.9,3.9l-7.8-3.5c-2.3-1-3.3-1.3-5.9-1.3h-0.8
		c-10.7,0-14.2-8.1-14.2-18.5c0-10.4,3.5-18.5,14.2-18.5s14.2,8.1,14.2,18.5C189.9,246.6,188.1,252.8,183.2,255.8z M175.7,224.6
		c-7.3,0-9.4,5.8-9.4,14.5c0,8.7,2,14.5,9.4,14.5s9.4-5.7,9.4-14.5C185,230.4,183,224.6,175.7,224.6z"/>
	<path class="st2" d="M212.8,256.9l-0.2-1.9c-2.7,1.6-5.7,2.6-8.7,2.6c-2.8,0-4.9-0.7-6.4-2.2c-1.4-1.4-2.1-3.5-2.1-6.7v-17.3h4.3
		v16.8c0,2.2,0.4,3.4,1.2,4.3c0.9,0.9,2.2,1.3,4.1,1.3c2.3,0,4.9-0.7,7-1.7v-20.8h4.3v25.5H212.8z"/>
	<path class="st2" d="M241.3,256.6c-2.2,0.6-5.2,1-7.5,1c-4,0-7-1-9.1-3.1c-2.3-2.3-3.3-5.8-3.3-10.4c0-9.1,4.5-13.5,11-13.5
		c7.1,0,10.6,5.1,10.6,13.4v1c0,0.4-0.2,0.6-0.6,0.6h-16.5c0,2.8,0.7,5.1,2.2,6.5c1.4,1.2,3.3,1.9,6.5,1.9c1.8,0,4.3-0.3,6.3-0.7
		L241.3,256.6z M238.7,242.5c-0.2-4.9-2-8.3-6.3-8.3c-4.3,0-6.5,3.2-6.5,8.3H238.7z"/>
	<path class="st2" d="M264.5,255.3c-2.1,1.4-5.2,2.3-7.5,2.3c-6.5,0-10.3-4.5-10.3-13.3c0-8.4,3.9-13.6,10.6-13.6
		c2.2,0,4.7,0.7,6.8,1.8v-12.8h4.3v37.2h-3.5L264.5,255.3z M264,252.6v-17c-1.9-0.7-4.2-1.3-5.9-1.3c-5.2,0-6.9,4.1-6.9,10
		c0,6.7,2.3,9.7,6.9,9.7C260,254.1,262.2,253.4,264,252.6z"/>
	<path class="st2" d="M290,255.2c-2.2,1.5-4.9,2.4-8,2.4c-2.8,0-5.1-0.8-6.7-2.4c-1.3-1.3-2-3.1-2-5.5c0-2.4,0.8-4.3,2.2-5.5
		c1.9-1.8,4.9-2.4,8.6-2.4h5.3v-1.6c0-2.1-0.4-3.4-1.3-4.3c-1.1-1-2.8-1.5-5.3-1.5c-1.9,0-4.4,0.2-6.9,0.6l-0.2-3.3
		c2.4-0.6,5.3-0.9,7.8-0.9c3.8,0,6.4,0.8,8,2.3c1.6,1.6,2.2,3.6,2.2,6.9v17h-3.5L290,255.2z M289.4,244.9h-4.7
		c-2.7,0-4.5,0.4-5.7,1.3c-0.9,0.7-1.4,1.8-1.4,3.4c0,3.1,1.9,4.6,5.3,4.6c2.1,0,4.6-0.7,6.5-1.7V244.9z"/>
	<path class="st2" d="M303.5,231.4l0.3,2.2c2.4-2,5-2.9,7.2-2.9c0.5,0,1.1,0.1,1.7,0.2v3.9c-0.6-0.1-1.5-0.1-2.2-0.1
		c-2.2,0-4.4,0.6-6.2,1.7v20.6h-4.3v-25.5H303.5z"/>
	<path class="st2" d="M318.4,225.4c1.3-0.4,3-0.8,4.3-0.8v6.8h6.7v3.2h-6.7v14.2c0,2.4,0.2,3.7,0.9,4.5c0.6,0.6,1.5,1,3.3,1
		c0.9,0,2.6-0.2,3.9-0.4l0.2,3.2c-1.4,0.4-3.4,0.7-5.3,0.7c-2.5,0-4.5-0.7-5.7-2c-1.2-1.5-1.6-3.2-1.6-6.4v-14.7h-4.6v-2.4l4.6-0.7
		V225.4z"/>
	<path class="st2" d="M353.5,256.6c-2.2,0.6-5.2,1-7.5,1c-4,0-7-1-9.1-3.1c-2.3-2.3-3.3-5.8-3.3-10.4c0-9.1,4.5-13.5,11-13.5
		c7.1,0,10.6,5.1,10.6,13.4v1c0,0.4-0.2,0.6-0.6,0.6H338c0,2.8,0.7,5.1,2.2,6.5c1.4,1.2,3.3,1.9,6.5,1.9c1.8,0,4.3-0.3,6.3-0.7
		L353.5,256.6z M350.8,242.5c-0.2-4.9-2-8.3-6.3-8.3c-4.3,0-6.5,3.2-6.5,8.3H350.8z"/>
</g>
<g class="st1">
	<path class="st2" d="M115.3,270.7c-1.6,0-2.6-0.8-2.6-2.8v-0.1c0-2,1-2.8,2.6-2.8h0.3c1.6,0,2.6,0.8,2.6,2.8v0.1c0,2-1,2.8-2.6,2.8
		H115.3z M117.6,301.1h-4.3v-25.5h4.3V301.1z"/>
	<path class="st2" d="M127.6,275.6l0.2,1.9c2.7-1.6,5.8-2.6,8.8-2.6c2.8,0,4.9,0.7,6.4,2.2c1.4,1.4,2.1,3.5,2.1,6.7v17.3h-4.3v-16.8
		c0-2.2-0.4-3.4-1.2-4.3c-0.9-0.9-2.2-1.3-4.1-1.3c-2.3,0-5,0.7-7.1,1.7v20.8H124v-25.5H127.6z"/>
	<path class="st2" d="M169,301c-1.7,0.5-4.5,0.8-6.4,0.8c-4.2,0-7.2-1-9.3-3.2c-2.1-2.2-3.4-5.5-3.4-10s1.1-8,3.3-10.3
		c2.2-2.3,5.5-3.5,9.4-3.5c2,0,4.3,0.3,6.1,0.8l-0.3,3.3c-1.6-0.3-3.7-0.6-5.3-0.6c-6,0-8.7,3.5-8.7,10.3c0,3.2,0.7,5.7,2.1,7.3
		c1.5,1.7,3.6,2.4,6.8,2.4c1.7,0,4-0.3,5.3-0.5L169,301z"/>
	<path class="st2" d="M183.7,301.8c-7.9,0-11.6-5-11.6-13.5s3.7-13.5,11.6-13.5s11.6,5,11.6,13.5S191.6,301.8,183.7,301.8z
		 M183.7,278.4c-5.2,0-7.1,3.4-7.1,9.9s1.9,9.9,7.1,9.9c5.2,0,7.1-3.4,7.1-9.9S188.9,278.4,183.7,278.4z"/>
	<path class="st2" d="M203.9,275.6l0.2,1.9c2.7-1.7,5.4-2.6,8.2-2.6c3.2,0,5.5,0.9,6.9,2.9c3.2-1.9,6.3-2.9,9.2-2.9
		c2.8,0,4.9,0.7,6.4,2.2c1.4,1.4,2.1,3.5,2.1,6.7v17.3h-4.3v-16.8c0-2.2-0.4-3.4-1.2-4.3c-0.9-0.9-2.2-1.3-4-1.3
		c-2.1,0-4.6,0.6-6.9,1.7c0.2,0.9,0.4,2.1,0.4,3.4v17.3h-4.3v-16.8c0-2.2-0.4-3.4-1.2-4.3c-0.9-0.9-2.2-1.3-4-1.3
		c-2.2,0-4.6,0.7-6.7,1.7v20.8h-4.3v-25.5H203.9z"/>
	<path class="st2" d="M260.5,301.1l-0.2-1.9c-2.7,1.6-5.7,2.6-8.7,2.6c-2.8,0-4.9-0.7-6.4-2.2c-1.4-1.4-2.1-3.5-2.1-6.7v-17.3h4.3
		v16.8c0,2.2,0.4,3.4,1.2,4.3c0.9,0.9,2.2,1.3,4.1,1.3c2.3,0,4.9-0.7,7-1.7v-20.8h4.3v25.5H260.5z"/>
	<path class="st2" d="M273.9,275.6l0.2,1.9c2.7-1.6,5.8-2.6,8.8-2.6c2.8,0,4.9,0.7,6.4,2.2c1.4,1.4,2.1,3.5,2.1,6.7v17.3h-4.3v-16.8
		c0-2.2-0.4-3.4-1.3-4.3s-2.2-1.3-4.1-1.3c-2.3,0-5,0.7-7.1,1.7v20.8h-4.3v-25.5H273.9z"/>
	<path class="st2" d="M299.8,270.7c-1.6,0-2.6-0.8-2.6-2.8v-0.1c0-2,1-2.8,2.6-2.8h0.3c1.6,0,2.6,0.8,2.6,2.8v0.1c0,2-1,2.8-2.6,2.8
		H299.8z M302.1,301.1h-4.3v-25.5h4.3V301.1z"/>
	<path class="st2" d="M326.2,301c-1.7,0.5-4.5,0.8-6.4,0.8c-4.2,0-7.2-1-9.3-3.2c-2.1-2.2-3.4-5.5-3.4-10s1.1-8,3.3-10.3
		c2.2-2.3,5.5-3.5,9.4-3.5c2,0,4.3,0.3,6.1,0.8l-0.3,3.3c-1.6-0.3-3.7-0.6-5.3-0.6c-6,0-8.7,3.5-8.7,10.3c0,3.2,0.7,5.7,2.1,7.3
		c1.5,1.7,3.6,2.4,6.8,2.4c1.7,0,4-0.3,5.3-0.5L326.2,301z"/>
	<path class="st2" d="M346.2,299.4c-2.2,1.5-4.9,2.4-8,2.4c-2.8,0-5.1-0.8-6.7-2.4c-1.3-1.3-2-3.1-2-5.5c0-2.4,0.8-4.3,2.2-5.5
		c1.9-1.8,4.9-2.4,8.6-2.4h5.3v-1.6c0-2.1-0.4-3.4-1.3-4.3c-1.1-1-2.8-1.5-5.3-1.5c-1.9,0-4.4,0.2-6.9,0.6l-0.2-3.3
		c2.4-0.6,5.3-0.9,7.8-0.9c3.8,0,6.4,0.8,8,2.3c1.6,1.6,2.2,3.6,2.2,6.9v17h-3.5L346.2,299.4z M345.6,289.1h-4.7
		c-2.7,0-4.5,0.4-5.7,1.3c-0.9,0.7-1.4,1.8-1.4,3.4c0,3.1,1.9,4.6,5.3,4.6c2.1,0,4.6-0.7,6.5-1.7V289.1z"/>
	<path class="st2" d="M372.6,299.5c-2.1,1.4-5.2,2.3-7.5,2.3c-6.5,0-10.3-4.5-10.3-13.3c0-8.4,3.9-13.6,10.6-13.6
		c2.2,0,4.7,0.7,6.8,1.8v-12.8h4.3v37.2h-3.5L372.6,299.5z M372.1,296.8v-17c-1.9-0.7-4.2-1.3-5.9-1.3c-5.2,0-6.9,4.1-6.9,10
		c0,6.7,2.3,9.7,6.9,9.7C368.1,298.3,370.3,297.6,372.1,296.8z"/>
	<path class="st2" d="M393,301.8c-7.9,0-11.6-5-11.6-13.5s3.7-13.5,11.6-13.5c7.9,0,11.6,5,11.6,13.5S400.9,301.8,393,301.8z
		 M393,278.4c-5.2,0-7.1,3.4-7.1,9.9s1.9,9.9,7.1,9.9c5.2,0,7.1-3.4,7.1-9.9S398.2,278.4,393,278.4z"/>
</g>
<g>
	<path class="st2" d="M314,77.2C302.2,65.8,284.9,60,262.8,60c-22.2,0-39.4,5.8-51.2,17.2c-12.2,11.8-18.4,29.5-18.4,52.6
		s6.2,40.7,18.4,52.5c11.8,11.3,29,17.1,51.1,17.1c22.2,0,39.4-5.7,51.2-17.1c12.3-11.8,18.5-29.4,18.5-52.5
		C332.5,106.8,326.2,89.1,314,77.2z M307.9,175.9c-10.1,9.7-25.3,14.6-45.1,14.6s-35-4.9-45-14.6c-10.4-10-15.7-25.6-15.7-46.1
		c0-20.6,5.3-36.1,15.7-46.2c10.1-9.8,25.2-14.7,45-14.7s35,4.9,45.1,14.7c10.5,10.1,15.8,25.7,15.8,46.2
		C323.7,150.4,318.3,165.9,307.9,175.9z"/>
	<path class="st2" d="M262.8,142.6c-18.5,0-26.2,9-29.5,16.5c-1,2.2,0.1,4.8,2.3,5.8c0.6,0.2,1.2,0.4,1.7,0.4c1.7,0,3.3-1,4-2.7
		c3.3-7.5,10.3-11.2,21.4-11.2c11.2,0,18.2,3.7,21.5,11.2c1,2.2,3.6,3.2,5.8,2.3c2.2-1,3.2-3.6,2.3-5.8
		C289,151.5,281.3,142.6,262.8,142.6z"/>
	<path class="st2" d="M243.9,122.5c1,2.2,3.6,3.2,5.8,2.3c2.2-1,3.2-3.6,2.3-5.8c-2-4.6-6.7-10-17.6-10c-10.9,0-15.6,5.4-17.5,10
		c-1,2.2,0.1,4.8,2.3,5.8c0.6,0.2,1.2,0.4,1.7,0.4c1.7,0,3.3-1,4-2.7c0.9-2,2.8-4.7,9.5-4.7C241.1,117.8,243,120.5,243.9,122.5z"/>
	<path class="st2" d="M308.8,119c-2-4.6-6.7-10-17.6-10s-15.6,5.4-17.5,10c-1,2.2,0.1,4.8,2.3,5.8c0.6,0.2,1.2,0.4,1.7,0.4
		c1.7,0,3.3-1,4-2.7c0.9-2,2.8-4.7,9.5-4.7s8.6,2.7,9.5,4.7c1,2.2,3.6,3.2,5.8,2.3C308.7,123.8,309.8,121.2,308.8,119z"/>
</g>
</svg>
