<?xml version="1.0" encoding="utf-8"?>
<!-- Generator: Adobe Illustrator 22.1.0, SVG Export Plug-In . SVG Version: 6.00 Build 0)  -->
<svg version="1.1" id="Capa_1" xmlns="http://www.w3.org/2000/svg" xmlns:xlink="http://www.w3.org/1999/xlink" x="0px" y="0px"
	 viewBox="0 0 500 347.7" style="enable-background:new 0 0 500 347.7;" xml:space="preserve">
<style type="text/css">
	.st0{fill:#FF4071;}
	.st1{enable-background:new    ;}
	.st2{fill:#FFFFFF;}
</style>
<path class="st0" d="M86.4,116.5c-1.3,7.9-6.9,14.4-14.4,16.8c-36.4,11.6-62.9,38.3-70.1,72.5c-11.7,54.9,31.6,111.4,96.5,126.1
	c0.1,0,1.6,0.4,1.9,0.4l0.6,0.1c43.1,9.6,97.3,14.3,152.7,13.3c85.4-1.5,162.8-15.8,206.9-38.4c0.5-0.3,1-0.5,1.4-0.8
	c26.3-14.5,40.7-38.9,37.6-63.9c-2.8-22.8-19.4-41.2-43.4-50.2c-8.5-2.7-14.4-10.4-14.4-19.8c0.5-27.4-9.2-52.4-27.9-70.5
	c-17.5-16.9-41.6-26-67.9-25.5c-2.1,0-4,0.1-6.2,0.3c-0.8,0.1-1.3,0.1-2,0.1c-7.4,0-13.9-3.8-17.6-9.6C293.7,26.2,250.7,1,205.3,1.8
	c-10.1,0.2-20.2,1.7-29.9,4.5C127.8,20,93.5,63.5,86.4,116.5z"/>
<g class="st1">
	<path class="st2" d="M137.5,195.2c2.8,0.6,5.9,1,9.5,1.4c3.6,0.3,6.9,0.5,9.9,0.5c4.4,0,8.4-0.5,11.9-1.4c3.6-0.9,6.5-2.4,8.6-4.5
		c3.7-3.4,5.6-8.6,5.6-15.5c0-5.8-1.7-10.5-5.1-13.9c-4.3-4.1-11.4-6.2-21.3-6.2h-1v-6.3h1.1c8.7,0,14.9-1.9,18.6-5.7
		c3.5-3.7,5.3-8.5,5.3-14.4c0-2.9-0.3-5.5-1-7.8c-0.7-2.3-1.8-4.3-3.4-5.9c-1.7-1.8-4-3.2-6.9-4.1c-2.9-0.9-6.6-1.4-11.2-1.4
		c-2.8,0-5.8,0.2-9.2,0.5c-3.4,0.3-6.7,0.8-9.9,1.5v-6.7c3-0.9,6.5-1.5,10.4-1.9s7.5-0.6,10.8-0.6c4.7,0,8.9,0.5,12.6,1.6
		c3.8,1.1,7,2.9,9.6,5.4c2.2,2.1,3.9,4.6,5.1,7.6c1.2,3,1.8,6.5,1.8,10.6c0,6.2-1.3,11.2-4,14.9c-2.7,3.8-6.3,6.7-11,8.9
		c5.1,1.4,9.4,4.1,12.6,8c3.3,3.9,4.9,9.2,4.9,15.9c0,4.7-0.7,8.7-2.1,12.2c-1.4,3.5-3.4,6.4-6,8.8c-5.7,5.1-14.2,7.7-25.6,7.7
		c-1.6,0-3.3,0-5.1-0.1c-1.8-0.1-3.6-0.3-5.5-0.5c-1.9-0.2-3.6-0.5-5.4-0.8c-1.7-0.3-3.2-0.6-4.6-1V195.2z"/>
	<path class="st2" d="M266.7,195v7.3h-55.5c-0.2-0.4-0.3-0.8-0.4-1.4c0-0.5-0.1-1-0.1-1.4c0-0.8,0.1-1.5,0.2-2.1
		c0.1-0.7,0.4-1.4,0.8-2.2c0.4-0.8,0.9-1.7,1.6-2.8c0.7-1,1.7-2.3,2.9-3.7l23.9-29.3c2.9-3.4,5.3-6.6,7.3-9.4c2-2.9,3.6-5.6,4.9-8.1
		c1.3-2.5,2.2-4.9,2.9-7.2c0.6-2.3,0.9-4.6,0.9-6.9c0-5.3-1.4-9.4-4.3-12.3c-1.8-1.8-4.2-3.2-7.1-4.1c-3-0.9-6.8-1.4-11.6-1.4
		c-3,0-6.1,0.2-9.6,0.5c-3.4,0.3-7,0.8-10.6,1.5v-6.6c2.5-0.7,5.7-1.4,9.6-1.9c4-0.5,7.9-0.8,11.9-0.8c4.9,0,9.3,0.5,13.2,1.6
		c4,1,7.3,2.9,10.1,5.4c2.7,2.5,4.5,5.3,5.5,8.4c1,3.1,1.5,6.2,1.5,9.1c0,3-0.3,5.7-0.9,8.2c-0.6,2.5-1.6,5.1-3,7.9
		c-1.4,2.7-3.3,5.7-5.7,8.9c-2.4,3.2-5.3,7-8.9,11.3L220.3,195H266.7z"/>
	<path class="st2" d="M345.5,153.6c0,8-0.6,15.1-1.7,21.4c-1.1,6.3-3,11.6-5.6,15.9c-2.6,4.3-5.9,7.6-9.9,9.9
		c-4.1,2.3-9,3.4-14.8,3.4c-5.8,0-10.7-1.1-14.8-3.4c-4.1-2.3-7.4-5.6-9.9-9.9c-2.6-4.3-4.4-9.6-5.6-15.9
		c-1.1-6.3-1.7-13.4-1.7-21.4c0-8,0.6-15.1,1.7-21.4c1.1-6.3,3-11.6,5.6-16c2.6-4.4,5.9-7.7,9.9-10c4-2.3,9-3.4,14.8-3.4
		c5.8,0,10.7,1.1,14.8,3.4c4,2.3,7.4,5.6,9.9,10c2.6,4.4,4.4,9.7,5.6,16C344.9,138.4,345.5,145.6,345.5,153.6z M336.8,153.6
		c0-6.9-0.4-13-1.1-18.3c-0.7-5.3-2-9.8-3.8-13.5c-1.8-3.7-4.2-6.5-7.1-8.4c-3-1.9-6.7-2.9-11.3-2.9s-8.3,1-11.3,2.9
		c-3,1.9-5.3,4.7-7.1,8.4c-1.8,3.7-3.1,8.2-3.8,13.5c-0.7,5.3-1.1,11.4-1.1,18.3c0,6.9,0.4,13,1.1,18.3c0.7,5.3,2,9.8,3.8,13.4
		c1.8,3.6,4.2,6.4,7.1,8.3c3,1.9,6.7,2.9,11.3,2.9s8.3-1,11.3-2.9c3-1.9,5.3-4.7,7.1-8.3c1.8-3.6,3.1-8.1,3.8-13.4
		C336.4,166.5,336.8,160.4,336.8,153.6z"/>
</g>
<g class="st1">
	<path class="st2" d="M354.3,180c-0.1-0.6-0.1-1.1-0.1-1.7s0-1.2,0-1.8v-2h-5.4V172l5.5-0.7c0.6-7.7,2.8-13.5,6.5-17.3
		c3.3-3.4,7.9-5,13.9-5c1.6,0,3.3,0.1,5,0.4c1.7,0.3,3.4,0.7,5,1.2v3.5c-1.5-0.4-3.2-0.7-4.9-1c-1.7-0.3-3.3-0.4-4.7-0.4
		c-2.4,0-4.4,0.3-6.2,0.9c-1.7,0.6-3.2,1.5-4.5,2.7c-3.2,3-5,7.9-5.7,14.8h16.7v3.4h-16.9v1.8c0,0.6,0,1.2,0,1.8
		c0,0.6,0,1.1,0.1,1.7h16.8v3.4h-16.6c0.6,5.8,2.2,10.1,4.9,12.7c2.6,2.6,6.5,4,11.7,4c1.4,0,3-0.1,4.7-0.3c1.8-0.2,3.5-0.5,5.2-0.8
		v3.4c-1.5,0.4-3.2,0.7-5.1,1c-1.9,0.2-3.7,0.4-5.4,0.4c-6.3,0-11.1-1.6-14.4-4.9c-3.3-3.3-5.4-8.4-6.2-15.4h-5.7v-2.4L354.3,180z"
		/>
</g>
<g class="st1">
	<path class="st2" d="M121.9,259.2h-3.6v-27.9h8c4,0,6.6,0.7,8.2,2.4c1.4,1.4,2,3.5,2,6.1c0,3-0.7,5.2-2.3,6.8
		c-1.5,1.5-3.8,2.3-7.1,2.3h-5.2V259.2z M121.9,245.8h4c2.5,0,4.3-0.4,5.4-1.4c1-0.9,1.5-2.5,1.5-4.7c0-1.9-0.4-3.3-1.3-4.2
		c-1.1-1.1-2.8-1.5-5.5-1.5h-4.1V245.8z"/>
	<path class="st2" d="M142.3,239.1l0.2,1.7c1.9-1.6,3.9-2.3,5.7-2.3c0.4,0,0.9,0,1.3,0.1v3c-0.4,0-1.2-0.1-1.8-0.1
		c-1.8,0-3.4,0.4-4.9,1.3v16.2h-3.4v-20H142.3z"/>
	<path class="st2" d="M165.9,259c-1.7,0.5-4.1,0.8-5.9,0.8c-3.1,0-5.5-0.8-7.1-2.4c-1.8-1.8-2.6-4.5-2.6-8.1
		c0-7.1,3.6-10.6,8.7-10.6c5.6,0,8.3,4,8.3,10.5v0.8c0,0.3-0.2,0.4-0.5,0.4h-12.9c0,2.2,0.6,4,1.8,5.1c1.1,1,2.6,1.5,5.1,1.5
		c1.4,0,3.4-0.2,4.9-0.5L165.9,259z M163.9,247.8c-0.1-3.8-1.6-6.5-4.9-6.5c-3.4,0-5.1,2.5-5.1,6.5H163.9z"/>
	<path class="st2" d="M184.9,259.1c-1.3,0.4-3.6,0.7-5,0.7c-3.3,0-5.6-0.8-7.3-2.5c-1.7-1.7-2.7-4.3-2.7-7.8s0.9-6.3,2.6-8.1
		c1.7-1.8,4.3-2.7,7.4-2.7c1.6,0,3.4,0.2,4.8,0.6l-0.2,2.6c-1.3-0.2-2.9-0.5-4.2-0.5c-4.7,0-6.8,2.7-6.8,8c0,2.5,0.6,4.5,1.7,5.7
		c1.1,1.3,2.9,1.9,5.3,1.9c1.3,0,3.1-0.2,4.2-0.4L184.9,259.1z"/>
	<path class="st2" d="M190.1,235.3c-1.2,0-2-0.6-2-2.2v-0.1c0-1.6,0.8-2.2,2-2.2h0.2c1.2,0,2,0.6,2,2.2v0.1c0,1.6-0.8,2.2-2,2.2
		H190.1z M191.9,259.2h-3.4v-20h3.4V259.2z"/>
	<path class="st2" d="M204.8,259.7c-6.2,0-9.1-3.9-9.1-10.6s2.9-10.6,9.1-10.6s9.1,3.9,9.1,10.6S211,259.7,204.8,259.7z
		 M204.8,241.4c-4.1,0-5.6,2.7-5.6,7.8c0,5.1,1.5,7.8,5.6,7.8c4.1,0,5.6-2.7,5.6-7.8C210.3,244.1,208.8,241.4,204.8,241.4z"/>
	<path class="st2" d="M237.8,257.9c-1.6,1.1-4,1.8-5.9,1.8c-5.1,0-8-3.5-8-10.5c0-6.6,3.1-10.7,8.3-10.7c1.7,0,3.7,0.5,5.3,1.4v-10
		h3.4v29.2h-2.8L237.8,257.9z M237.4,255.8v-13.4c-1.5-0.6-3.3-1-4.6-1c-4.1,0-5.4,3.2-5.4,7.9c0,5.3,1.8,7.6,5.4,7.6
		C234.3,257,236,256.5,237.4,255.8z"/>
	<path class="st2" d="M260.2,259c-1.7,0.5-4.1,0.8-5.9,0.8c-3.1,0-5.5-0.8-7.1-2.4c-1.8-1.8-2.6-4.5-2.6-8.1
		c0-7.1,3.6-10.6,8.7-10.6c5.6,0,8.3,4,8.3,10.5v0.8c0,0.3-0.2,0.4-0.5,0.4h-12.9c0,2.2,0.6,4,1.8,5.1c1.1,1,2.6,1.5,5.1,1.5
		c1.4,0,3.4-0.2,4.9-0.5L260.2,259z M258.1,247.8c-0.1-3.8-1.6-6.5-4.9-6.5c-3.4,0-5.1,2.5-5.1,6.5H258.1z"/>
	<path class="st2" d="M284.7,257.8c-1.8,1.1-3.9,1.9-6.3,1.9c-2.2,0-4-0.7-5.2-1.9c-1-1-1.6-2.5-1.6-4.3s0.7-3.3,1.7-4.3
		c1.5-1.4,3.9-1.9,6.8-1.9h4.2V246c0-1.6-0.3-2.7-1-3.4c-0.9-0.8-2.2-1.2-4.2-1.2c-1.5,0-3.4,0.2-5.4,0.5l-0.1-2.6
		c1.9-0.4,4.2-0.7,6.1-0.7c3,0,5,0.7,6.3,1.8c1.3,1.2,1.8,2.8,1.8,5.4v13.3h-2.7L284.7,257.8z M284.2,249.7h-3.7
		c-2.1,0-3.5,0.3-4.5,1c-0.7,0.6-1.1,1.4-1.1,2.7c0,2.4,1.5,3.6,4.1,3.6c1.6,0,3.6-0.6,5.1-1.3V249.7z"/>
	<path class="st2" d="M295.1,239.1l0.2,1.7c1.9-1.6,3.9-2.3,5.7-2.3c0.4,0,0.9,0,1.3,0.1v3c-0.4,0-1.2-0.1-1.8-0.1
		c-1.8,0-3.4,0.4-4.9,1.3v16.2h-3.4v-20H295.1z"/>
	<path class="st2" d="M307.8,239.1l0.2,1.7c1.9-1.6,3.9-2.3,5.7-2.3c0.4,0,0.9,0,1.3,0.1v3c-0.4,0-1.2-0.1-1.8-0.1
		c-1.8,0-3.4,0.4-4.9,1.3v16.2H305v-20H307.8z"/>
	<path class="st2" d="M331.4,259c-1.7,0.5-4.1,0.8-5.9,0.8c-3.1,0-5.5-0.8-7.1-2.4c-1.8-1.8-2.6-4.5-2.6-8.1
		c0-7.1,3.6-10.6,8.7-10.6c5.6,0,8.3,4,8.3,10.5v0.8c0,0.3-0.2,0.4-0.5,0.4h-12.9c0,2.2,0.6,4,1.8,5.1c1.1,1,2.6,1.5,5.1,1.5
		c1.4,0,3.4-0.2,4.9-0.5L331.4,259z M329.3,247.8c-0.1-3.8-1.6-6.5-4.9-6.5c-3.4,0-5.1,2.5-5.1,6.5H329.3z"/>
	<path class="st2" d="M344.2,253.4c-1.2,0-2.2-0.1-3.1-0.4c-0.6,0.7-1.1,1.8-1.1,2.5c0,0.9,0.5,1.2,1.6,1.2h3.8
		c3.5,0,5.5,0.6,6.8,1.9c1,1,1.5,2.4,1.5,4c0,4-2.7,6.3-9.5,6.3c-6.2,0-8.9-2.1-8.9-5.6c0-1.8,0.9-3.5,2.3-4.5
		c-0.7-0.5-0.9-1.3-0.9-2.2c0-1.6,0.9-3.2,2.4-4.6c-1.9-1.3-2.8-3.4-2.8-6c0-4.3,2.6-7.4,8-7.4c0.7,0,1.4,0.1,2,0.2l2.4-5.2
		c0.9,0.2,2.2,0.8,2.8,1.3l-2.8,4.7c2.4,1.2,3.6,3.6,3.6,6.5C352.2,250.3,349.7,253.4,344.2,253.4z M339.6,259.6
		c-0.7,0.9-1.2,2-1.2,3.1c0,2.2,1.6,3.4,6.1,3.4c4.2,0,6-1.2,6-3.3c0-1-0.3-1.7-1-2.2c-0.8-0.6-2.1-0.8-4.1-0.8h-4.3
		C340.5,259.7,340,259.7,339.6,259.6z M344.2,241.3c-3.3,0-4.8,1.7-4.8,4.7s1.5,4.7,4.8,4.7s4.8-1.7,4.8-4.7
		S347.5,241.3,344.2,241.3z"/>
	<path class="st2" d="M359.8,230v29.2h-3.4V230H359.8z"/>
	<path class="st2" d="M372.6,259.7c-6.2,0-9.1-3.9-9.1-10.6s2.9-10.6,9.1-10.6s9.1,3.9,9.1,10.6S378.8,259.7,372.6,259.7z
		 M372.6,241.4c-4.1,0-5.6,2.7-5.6,7.8c0,5.1,1.5,7.8,5.6,7.8s5.6-2.7,5.6-7.8C378.2,244.1,376.7,241.4,372.6,241.4z"/>
</g>
<g class="st1">
	<path class="st2" d="M176.1,303.1c-1.6,1.1-4,1.8-5.9,1.8c-5.1,0-8-3.5-8-10.5c0-6.6,3.1-10.7,8.3-10.7c1.7,0,3.7,0.5,5.3,1.4v-10
		h3.4v29.2h-2.8L176.1,303.1z M175.7,301v-13.4c-1.5-0.6-3.3-1-4.6-1c-4.1,0-5.4,3.2-5.4,7.9c0,5.3,1.8,7.6,5.4,7.6
		C172.5,302.2,174.3,301.7,175.7,301z"/>
	<path class="st2" d="M198.5,304.2c-1.7,0.5-4.1,0.8-5.9,0.8c-3.1,0-5.5-0.8-7.1-2.4c-1.8-1.8-2.6-4.5-2.6-8.1
		c0-7.1,3.6-10.6,8.7-10.6c5.6,0,8.3,4,8.3,10.5v0.8c0,0.3-0.2,0.4-0.5,0.4h-12.9c0,2.2,0.6,4,1.8,5.1c1.1,1,2.6,1.5,5.1,1.5
		c1.4,0,3.4-0.2,4.9-0.5L198.5,304.2z M196.4,293c-0.1-3.8-1.6-6.5-4.9-6.5c-3.4,0-5.1,2.5-5.1,6.5H196.4z"/>
	<path class="st2" d="M210.9,313.6v-29.2h2.8l0.2,1.5c2.1-1.4,4.4-2,6.2-2c5.2,0,7.7,4.1,7.7,10.5c0,7.5-3,10.7-7.8,10.7
		c-2.1,0-4.2-0.6-5.7-1.5v10.1H210.9z M214.3,300.9c1.2,0.7,3.1,1.2,4.9,1.2c3.6,0,5.1-2.2,5.1-7.9c0-5.1-1.5-7.6-4.9-7.6
		c-1.6,0-3.6,0.5-5.1,1.3V300.9z"/>
	<path class="st2" d="M243.5,303c-1.8,1.1-3.9,1.9-6.3,1.9c-2.2,0-4-0.7-5.2-1.9c-1-1-1.6-2.5-1.6-4.3s0.7-3.3,1.7-4.3
		c1.5-1.4,3.9-1.9,6.8-1.9h4.2v-1.3c0-1.6-0.3-2.7-1-3.4c-0.9-0.8-2.2-1.2-4.2-1.2c-1.5,0-3.4,0.2-5.4,0.5l-0.1-2.6
		c1.9-0.4,4.2-0.7,6.1-0.7c3,0,5,0.7,6.3,1.8c1.3,1.2,1.8,2.8,1.8,5.4v13.3h-2.7L243.5,303z M243.1,294.9h-3.7c-2.1,0-3.5,0.3-4.5,1
		c-0.7,0.6-1.1,1.4-1.1,2.7c0,2.4,1.5,3.6,4.1,3.6c1.6,0,3.6-0.6,5.1-1.3V294.9z"/>
	<path class="st2" d="M254,284.3l0.2,1.5c2.1-1.3,4.6-2,6.9-2c2.2,0,3.9,0.6,5,1.8c1.1,1.1,1.7,2.7,1.7,5.2v13.6h-3.4v-13.2
		c0-1.7-0.3-2.7-1-3.4s-1.8-1-3.2-1c-1.8,0-4,0.5-5.6,1.3v16.3h-3.4v-20H254z"/>
	<path class="st2" d="M273.6,279.7c1-0.3,2.3-0.6,3.4-0.6v5.3h5.3v2.5H277V298c0,1.9,0.1,2.9,0.7,3.5c0.4,0.5,1.1,0.8,2.6,0.8
		c0.7,0,2-0.1,3-0.3l0.2,2.5c-1.1,0.3-2.7,0.5-4.1,0.5c-2,0-3.6-0.5-4.5-1.6c-1-1.1-1.3-2.5-1.3-5v-11.6H270v-1.9l3.6-0.5V279.7z"/>
	<path class="st2" d="M298.4,303c-1.8,1.1-3.9,1.9-6.3,1.9c-2.2,0-4-0.7-5.2-1.9c-1-1-1.6-2.5-1.6-4.3s0.7-3.3,1.7-4.3
		c1.5-1.4,3.9-1.9,6.8-1.9h4.2v-1.3c0-1.6-0.3-2.7-1-3.4c-0.9-0.8-2.2-1.2-4.2-1.2c-1.5,0-3.4,0.2-5.4,0.5l-0.1-2.6
		c1.9-0.4,4.2-0.7,6.1-0.7c3,0,5,0.7,6.3,1.8c1.3,1.2,1.8,2.8,1.8,5.4v13.3h-2.7L298.4,303z M297.9,294.9h-3.7c-2.1,0-3.5,0.3-4.5,1
		c-0.7,0.6-1.1,1.4-1.1,2.7c0,2.4,1.5,3.6,4.1,3.6c1.6,0,3.6-0.6,5.1-1.3V294.9z"/>
	<path class="st2" d="M309.4,275.2v29.2H306v-29.2H309.4z"/>
	<path class="st2" d="M317.6,275.2v29.2h-3.4v-29.2H317.6z"/>
	<path class="st2" d="M334.4,303c-1.8,1.1-3.9,1.9-6.3,1.9c-2.2,0-4-0.7-5.2-1.9c-1-1-1.6-2.5-1.6-4.3s0.7-3.3,1.7-4.3
		c1.5-1.4,3.9-1.9,6.8-1.9h4.2v-1.3c0-1.6-0.3-2.7-1-3.4c-0.9-0.8-2.2-1.2-4.2-1.2c-1.5,0-3.4,0.2-5.4,0.5l-0.1-2.6
		c1.9-0.4,4.2-0.7,6.1-0.7c3,0,5,0.7,6.3,1.8c1.3,1.2,1.8,2.8,1.8,5.4v13.3h-2.7L334.4,303z M334,294.9h-3.7c-2.1,0-3.5,0.3-4.5,1
		c-0.7,0.6-1.1,1.4-1.1,2.7c0,2.4,1.5,3.6,4.1,3.6c1.6,0,3.6-0.6,5.1-1.3V294.9z"/>
</g>
<g class="st1">
	<path class="st2" d="M152.7,76.1v-9.8h2.9v22.2h-2.9V78.4h-10.2v10.1h-2.9V66.3h2.9v9.8H152.7z"/>
	<path class="st2" d="M170.2,87.4c-1.4,0.9-3.1,1.5-5,1.5c-1.7,0-3.2-0.5-4.2-1.5c-0.8-0.8-1.3-2-1.3-3.4s0.5-2.7,1.4-3.4
		c1.2-1.1,3.1-1.5,5.4-1.5h3.3v-1c0-1.3-0.2-2.1-0.8-2.7c-0.7-0.7-1.7-0.9-3.3-0.9c-1.2,0-2.7,0.1-4.3,0.4l-0.1-2.1
		c1.5-0.4,3.3-0.6,4.8-0.6c2.4,0,4,0.5,5,1.5c1,1,1.4,2.2,1.4,4.3v10.6h-2.2L170.2,87.4z M169.8,81h-2.9c-1.7,0-2.8,0.2-3.5,0.8
		c-0.6,0.5-0.9,1.1-0.9,2.1c0,1.9,1.2,2.9,3.3,2.9c1.3,0,2.9-0.5,4.1-1V81z"/>
	<path class="st2" d="M186.4,74.8c-1.4-0.3-2.9-0.5-4.2-0.5c-2.3,0-3.5,0.7-3.5,2.2c0,3.6,8.9,1.9,8.9,7.6c0,3.4-2.6,4.9-6.4,4.9
		c-1.5,0-3.5-0.3-4.7-0.7l0.1-2.1c1.3,0.4,3.1,0.6,4.5,0.6c2.6,0,4-0.9,4-2.5c0-3.6-8.9-1.7-8.9-7.6c0-3.1,2.4-4.6,5.8-4.6
		c1.6,0,3.4,0.3,4.6,0.7L186.4,74.8z"/>
	<path class="st2" d="M192.4,68.8c0.8-0.3,1.9-0.5,2.7-0.5v4.2h4.2v2h-4.2v8.8c0,1.5,0.1,2.3,0.6,2.8c0.4,0.4,0.9,0.6,2,0.6
		c0.6,0,1.6-0.1,2.4-0.3l0.1,2c-0.8,0.2-2.1,0.4-3.3,0.4c-1.6,0-2.8-0.4-3.5-1.2c-0.8-0.9-1-2-1-4v-9.2h-2.9V73l2.9-0.4V68.8z"/>
	<path class="st2" d="M212.9,87.4c-1.4,0.9-3.1,1.5-5,1.5c-1.7,0-3.2-0.5-4.2-1.5c-0.8-0.8-1.3-2-1.3-3.4s0.5-2.7,1.4-3.4
		c1.2-1.1,3.1-1.5,5.4-1.5h3.3v-1c0-1.3-0.2-2.1-0.8-2.7c-0.7-0.7-1.7-0.9-3.3-0.9c-1.2,0-2.7,0.1-4.3,0.4l-0.1-2.1
		c1.5-0.4,3.3-0.6,4.8-0.6c2.4,0,4,0.5,5,1.5c1,1,1.4,2.2,1.4,4.3v10.6H213L212.9,87.4z M212.5,81h-2.9c-1.7,0-2.8,0.2-3.5,0.8
		c-0.6,0.5-0.9,1.1-0.9,2.1c0,1.9,1.2,2.9,3.3,2.9c1.3,0,2.9-0.5,4.1-1V81z"/>
</g>
</svg>
