<?xml version="1.0" encoding="utf-8"?>
<!-- Generator: Adobe Illustrator 22.1.0, SVG Export Plug-In . SVG Version: 6.00 Build 0)  -->
<svg version="1.1" id="Capa_1" xmlns="http://www.w3.org/2000/svg" xmlns:xlink="http://www.w3.org/1999/xlink" x="0px" y="0px"
	 viewBox="0 0 500 347.7" style="enable-background:new 0 0 500 347.7;" xml:space="preserve">
<style type="text/css">
	.st0{fill:#00ABE3;}
	.st1{enable-background:new    ;}
	.st2{fill:#FFFFFF;}
</style>
<path class="st0" d="M413.6,114.7c1.3,7.9,6.9,14.4,14.4,16.8c36.4,11.6,62.9,38.3,70.1,72.5c11.7,54.9-31.6,111.4-96.5,126.1
	c-0.1,0-1.6,0.4-1.9,0.4l-0.6,0.1c-43.1,9.6-97.3,14.3-152.7,13.3c-85.4-1.5-162.8-15.8-206.9-38.4c-0.5-0.3-1-0.5-1.4-0.8
	c-26.3-14.5-40.7-38.9-37.6-63.9c2.8-22.8,19.4-41.2,43.4-50.2c8.5-2.7,14.4-10.4,14.4-19.8c-0.5-27.4,9.2-52.4,27.9-70.5
	c17.5-16.9,41.6-26,67.9-25.5c2.1,0,4,0.1,6.2,0.3c0.8,0.1,1.3,0.1,2,0.1c7.4,0,13.9-3.8,17.6-9.6C206.3,24.4,249.3-0.8,294.7,0
	c10.1,0.2,20.2,1.7,29.9,4.5C372.2,18.2,406.5,61.7,413.6,114.7z"/>
<g class="st1">
	<path class="st2" d="M132.8,206.3c3.2,0.7,6.9,1.2,11.1,1.6c4.2,0.4,8,0.6,11.6,0.6c5.1,0,9.7-0.5,13.9-1.6
		c4.2-1.1,7.5-2.8,10.1-5.3c4.3-4,6.5-10,6.5-18c0-6.8-2-12.2-6-16.2c-5-4.8-13.3-7.2-24.8-7.2h-1.2v-7.3h1.3
		c10.1,0,17.3-2.2,21.6-6.7c4.1-4.3,6.2-9.9,6.2-16.8c0-3.3-0.4-6.3-1.2-9.1c-0.8-2.7-2.1-5-4-6.9c-2-2.1-4.7-3.7-8.1-4.7
		c-3.4-1.1-7.7-1.6-13.1-1.6c-3.2,0-6.8,0.2-10.7,0.6c-3.9,0.4-7.8,1-11.6,1.7v-7.8c3.5-1,7.6-1.7,12.1-2.2
		c4.5-0.5,8.7-0.7,12.6-0.7c5.4,0,10.3,0.6,14.7,1.9c4.4,1.3,8.1,3.4,11.2,6.2c2.6,2.4,4.5,5.4,5.9,8.8c1.4,3.4,2.1,7.5,2.1,12.3
		c0,7.2-1.6,13-4.7,17.4c-3.1,4.4-7.4,7.8-12.8,10.4c6,1.7,10.9,4.8,14.7,9.3c3.8,4.5,5.7,10.7,5.7,18.5c0,5.4-0.8,10.2-2.5,14.2
		c-1.7,4.1-4,7.5-7,10.2c-6.7,6-16.6,9-29.8,9c-1.9,0-3.9-0.1-6-0.2c-2.1-0.1-4.2-0.3-6.4-0.6c-2.2-0.3-4.2-0.6-6.2-0.9
		c-2-0.3-3.8-0.7-5.3-1.1V206.3z"/>
	<path class="st2" d="M267.8,108.3c-2.3-0.3-5-0.6-8.2-0.8c-3.1-0.2-5.8-0.3-8.2-0.3c-5.7,0-10.2,0.6-13.5,1.7
		c-3.3,1.1-6.2,2.8-8.5,5.2c-3.8,3.8-6.4,8.8-8,15.2c-1.6,6.4-2.5,14-2.8,22.9c4.3-1.8,8.9-3.2,13.7-4.2c4.8-1,9.2-1.5,13.1-1.5
		c10.3,0,18.2,2.7,23.7,8.2c5.5,5.4,8.2,13.7,8.2,24.8c0,11.4-2.9,20.6-8.6,27.4c-5.7,6.8-14.1,10.2-25,10.2
		c-6.7,0-12.2-1.3-16.7-3.8c-4.5-2.6-8.1-6.2-10.8-10.8c-2.7-4.7-4.7-10.3-5.9-16.8c-1.2-6.5-1.8-13.8-1.8-21.8
		c0-13.2,1.1-24.4,3.2-33.4c2.2-9.1,5.6-16.3,10.2-21.5c3.4-3.8,7.6-6.4,12.4-7.9c4.8-1.5,10.2-2.2,16.1-2.2c2.6,0,5.5,0.2,8.9,0.6
		c3.4,0.4,6.2,0.9,8.4,1.4V108.3z M218.5,167.2c0,5.9,0.4,11.3,1.2,16.3c0.8,5,2.2,9.4,4.2,13.1c1.9,3.7,4.5,6.6,7.7,8.7
		c3.2,2.1,7.3,3.2,12.1,3.2c8,0,14-2.5,18.1-7.6c4.1-5.1,6.2-12,6.2-20.7c0-9.4-2.1-16-6.4-19.8c-4.3-3.8-10.3-5.7-18.1-5.7
		c-3.8,0-8,0.4-12.6,1.2c-4.6,0.8-8.8,1.9-12.6,3.2V167.2z"/>
	<path class="st2" d="M299.5,148.3H310c7.7,0,14,0.8,18.9,2.3c4.9,1.5,9.1,3.9,12.4,7.1c5.9,5.7,8.8,14,8.8,24.9
		c0,11.6-3.5,20.2-10.6,25.9c-7,5.7-16.6,8.6-28.7,8.6c-3.6,0-7.4-0.2-11.6-0.7c-4.2-0.4-7.6-1-10.2-1.8v-8c3,0.7,6.4,1.2,10.2,1.5
		s7.3,0.5,10.6,0.5c10.4,0,18.1-2.2,22.9-6.5c4.8-4.3,7.2-10.7,7.2-19c0-8.2-1.9-14.5-5.8-18.7c-2.6-2.7-5.8-4.6-9.7-5.8
		c-3.9-1.2-9.4-1.8-16.4-1.8h-16.5c-0.2-0.7-0.4-1.7-0.5-3.2c-0.1-1.5-0.1-3.1,0-4.9l1.8-47.8h50.3v8.5H301L299.5,148.3z"/>
</g>
<g class="st1">
	<path class="st2" d="M357.7,188.7c-0.1-0.7-0.1-1.3-0.1-2c0-0.7,0-1.4,0-2.1v-2.3h-6.2v-2.8l6.4-0.8c0.7-9,3.2-15.7,7.6-20.1
		c3.8-3.9,9.2-5.9,16.2-5.9c1.9,0,3.9,0.2,5.9,0.5c2,0.3,3.9,0.8,5.8,1.4v4.1c-1.8-0.5-3.7-0.9-5.7-1.2c-2-0.3-3.9-0.4-5.5-0.4
		c-2.8,0-5.2,0.4-7.2,1.1c-2,0.7-3.7,1.8-5.2,3.1c-3.7,3.5-5.9,9.2-6.6,17.2h19.5v3.9h-19.7v2.1c0,0.7,0,1.4,0,2c0,0.7,0,1.3,0.1,2
		h19.6v3.9h-19.3c0.7,6.8,2.6,11.7,5.7,14.8c3.1,3.1,7.6,4.6,13.7,4.6c1.6,0,3.4-0.1,5.5-0.4c2.1-0.2,4.1-0.6,6.1-1v4
		c-1.8,0.5-3.8,0.8-6,1.1c-2.2,0.3-4.3,0.4-6.2,0.4c-7.3,0-12.9-1.9-16.8-5.7c-3.9-3.8-6.3-9.8-7.2-17.9h-6.6v-2.8L357.7,188.7z"/>
</g>
<g class="st1">
	<path class="st2" d="M92.7,266.4h-3.8v-29.1h8.3c4.2,0,6.9,0.8,8.6,2.5c1.4,1.4,2.1,3.7,2.1,6.3c0,3.1-0.8,5.4-2.4,7.1
		c-1.6,1.5-4,2.4-7.4,2.4h-5.4V266.4z M92.7,252.4h4.1c2.6,0,4.5-0.4,5.6-1.4c1-1,1.6-2.6,1.6-4.8c0-2-0.4-3.4-1.4-4.3
		c-1.1-1.1-2.9-1.6-5.7-1.6h-4.3V252.4z"/>
	<path class="st2" d="M113.9,245.5l0.2,1.8c2-1.7,4.1-2.4,5.9-2.4c0.4,0,0.9,0,1.4,0.1v3.1c-0.5,0-1.2-0.1-1.8-0.1
		c-1.8,0-3.6,0.5-5.1,1.4v16.8H111v-20.8H113.9z"/>
	<path class="st2" d="M138.6,266.1c-1.8,0.5-4.3,0.8-6.2,0.8c-3.2,0-5.7-0.8-7.4-2.5c-1.9-1.9-2.7-4.7-2.7-8.5
		c0-7.4,3.7-11.1,9-11.1c5.8,0,8.6,4.1,8.6,11v0.8c0,0.3-0.2,0.5-0.5,0.5h-13.4c0,2.3,0.6,4.2,1.8,5.3c1.1,1,2.7,1.6,5.3,1.6
		c1.5,0,3.5-0.2,5.1-0.6L138.6,266.1z M136.4,254.6c-0.1-4-1.7-6.8-5.1-6.8c-3.5,0-5.3,2.6-5.3,6.8H136.4z"/>
	<path class="st2" d="M158.4,266.3c-1.4,0.4-3.7,0.7-5.2,0.7c-3.4,0-5.9-0.9-7.6-2.6c-1.7-1.8-2.8-4.5-2.8-8.2
		c0-3.7,0.9-6.5,2.7-8.4c1.8-1.9,4.5-2.9,7.7-2.9c1.6,0,3.5,0.3,5,0.6l-0.2,2.7c-1.3-0.3-3-0.5-4.3-0.5c-4.9,0-7.1,2.9-7.1,8.4
		c0,2.6,0.6,4.6,1.7,6c1.2,1.4,3,2,5.5,2c1.4,0,3.3-0.2,4.3-0.4L158.4,266.3z"/>
	<path class="st2" d="M163.8,241.6c-1.3,0-2.1-0.6-2.1-2.3v-0.1c0-1.6,0.8-2.3,2.1-2.3h0.2c1.3,0,2.1,0.6,2.1,2.3v0.1
		c0,1.6-0.8,2.3-2.1,2.3H163.8z M165.7,266.4h-3.5v-20.8h3.5V266.4z"/>
	<path class="st2" d="M179.1,266.9c-6.5,0-9.5-4.1-9.5-11s3-11,9.5-11s9.5,4.1,9.5,11S185.6,266.9,179.1,266.9z M179.1,247.8
		c-4.3,0-5.8,2.8-5.8,8.1s1.5,8.1,5.8,8.1c4.3,0,5.8-2.8,5.8-8.1S183.4,247.8,179.1,247.8z"/>
	<path class="st2" d="M203.1,245.5l0.2,1.5c2.2-1.4,4.4-2.1,6.7-2.1c2.6,0,4.5,0.8,5.7,2.3c2.6-1.6,5.1-2.3,7.5-2.3
		c2.3,0,4,0.6,5.2,1.8c1.1,1.1,1.7,2.8,1.7,5.4v14.2h-3.5v-13.7c0-1.8-0.3-2.8-1-3.5c-0.7-0.7-1.8-1.1-3.3-1.1
		c-1.7,0-3.8,0.5-5.6,1.4c0.2,0.8,0.3,1.7,0.3,2.8v14.2h-3.5v-13.7c0-1.8-0.3-2.8-1-3.5c-0.7-0.7-1.8-1.1-3.3-1.1
		c-1.8,0-3.7,0.6-5.4,1.4v17h-3.5v-20.8H203.1z"/>
	<path class="st2" d="M250.3,266.1c-1.8,0.5-4.3,0.8-6.2,0.8c-3.2,0-5.7-0.8-7.4-2.5c-1.9-1.9-2.7-4.7-2.7-8.5
		c0-7.4,3.7-11.1,9-11.1c5.8,0,8.6,4.1,8.6,11v0.8c0,0.3-0.2,0.5-0.5,0.5h-13.4c0,2.3,0.6,4.2,1.8,5.3c1.1,1,2.7,1.6,5.3,1.6
		c1.5,0,3.5-0.2,5.1-0.6L250.3,266.1z M248.1,254.6c-0.1-4-1.7-6.8-5.1-6.8c-3.5,0-5.3,2.6-5.3,6.8H248.1z"/>
	<path class="st2" d="M269,265.1c-1.7,1.1-4.2,1.9-6.2,1.9c-5.3,0-8.4-3.7-8.4-10.9c0-6.9,3.2-11.1,8.6-11.1c1.8,0,3.9,0.6,5.5,1.5
		v-10.5h3.5v30.4h-2.9L269,265.1z M268.6,262.8v-13.9c-1.5-0.6-3.4-1-4.8-1c-4.3,0-5.7,3.3-5.7,8.2c0,5.5,1.9,8,5.7,8
		C265.3,264.1,267.2,263.5,268.6,262.8z"/>
	<path class="st2" d="M278.9,241.6c-1.3,0-2.1-0.6-2.1-2.3v-0.1c0-1.6,0.8-2.3,2.1-2.3h0.2c1.3,0,2.1,0.6,2.1,2.3v0.1
		c0,1.6-0.8,2.3-2.1,2.3H278.9z M280.8,266.4h-3.5v-20.8h3.5V266.4z"/>
	<path class="st2" d="M294.2,266.9c-6.5,0-9.5-4.1-9.5-11s3-11,9.5-11c6.5,0,9.5,4.1,9.5,11S300.7,266.9,294.2,266.9z M294.2,247.8
		c-4.3,0-5.8,2.8-5.8,8.1s1.5,8.1,5.8,8.1s5.8-2.8,5.8-8.1S298.5,247.8,294.2,247.8z"/>
	<path class="st2" d="M328.7,265.1c-1.7,1.1-4.2,1.9-6.2,1.9c-5.3,0-8.4-3.7-8.4-10.9c0-6.9,3.2-11.1,8.6-11.1
		c1.8,0,3.9,0.6,5.5,1.5v-10.5h3.5v30.4H329L328.7,265.1z M328.3,262.8v-13.9c-1.5-0.6-3.4-1-4.8-1c-4.3,0-5.7,3.3-5.7,8.2
		c0,5.5,1.9,8,5.7,8C325,264.1,326.8,263.5,328.3,262.8z"/>
	<path class="st2" d="M352.1,266.1c-1.8,0.5-4.3,0.8-6.2,0.8c-3.2,0-5.7-0.8-7.4-2.5c-1.9-1.9-2.7-4.7-2.7-8.5
		c0-7.4,3.7-11.1,9-11.1c5.8,0,8.6,4.1,8.6,11v0.8c0,0.3-0.2,0.5-0.5,0.5h-13.4c0,2.3,0.6,4.2,1.8,5.3c1.1,1,2.7,1.6,5.3,1.6
		c1.5,0,3.5-0.2,5.1-0.6L352.1,266.1z M349.9,254.6c-0.1-4-1.7-6.8-5.1-6.8c-3.5,0-5.3,2.6-5.3,6.8H349.9z"/>
	<path class="st2" d="M379.3,266.4l-0.2-1.5c-2.2,1.3-4.7,2.1-7.1,2.1c-2.3,0-4-0.6-5.2-1.8c-1.1-1.1-1.7-2.9-1.7-5.4v-14.2h3.5
		v13.7c0,1.8,0.3,2.8,1,3.5c0.7,0.7,1.8,1.1,3.4,1.1c1.9,0,4-0.6,5.7-1.4v-17h3.5v20.8H379.3z"/>
	<path class="st2" d="M390.1,245.5l0.2,1.5c2.2-1.3,4.8-2.1,7.2-2.1c2.3,0,4,0.6,5.2,1.8c1.1,1.1,1.7,2.8,1.7,5.4v14.2h-3.5v-13.7
		c0-1.8-0.3-2.8-1-3.5c-0.7-0.7-1.8-1.1-3.4-1.1c-1.9,0-4.1,0.6-5.8,1.4v17h-3.5v-20.8H390.1z"/>
</g>
<g class="st1">
	<path class="st2" d="M127.9,281l0.2,1.5c2.2-1.3,4.8-2.1,7.2-2.1c2.3,0,4,0.6,5.2,1.8c1.1,1.1,1.7,2.8,1.7,5.4v14.2h-3.5v-13.7
		c0-1.8-0.3-2.8-1-3.5c-0.7-0.7-1.8-1.1-3.4-1.1c-1.9,0-4.1,0.6-5.8,1.4v17h-3.5V281H127.9z"/>
	<path class="st2" d="M161.3,301.9l-0.2-1.5c-2.2,1.3-4.7,2.1-7.1,2.1c-2.3,0-4-0.6-5.2-1.8c-1.1-1.1-1.7-2.9-1.7-5.4V281h3.5v13.7
		c0,1.8,0.3,2.8,1,3.5c0.7,0.7,1.8,1.1,3.4,1.1c1.9,0,4-0.6,5.7-1.4v-17h3.5v20.8H161.3z"/>
	<path class="st2" d="M184.4,301.6c-1.8,0.5-4.3,0.8-6.2,0.8c-3.2,0-5.7-0.8-7.4-2.5c-1.9-1.9-2.7-4.7-2.7-8.5
		c0-7.4,3.7-11.1,9-11.1c5.8,0,8.6,4.1,8.6,11v0.8c0,0.3-0.2,0.5-0.5,0.5h-13.4c0,2.3,0.6,4.2,1.8,5.3c1.1,1,2.7,1.6,5.3,1.6
		c1.5,0,3.5-0.2,5.1-0.6L184.4,301.6z M182.2,290.1c-0.1-4-1.7-6.8-5.1-6.8c-3.5,0-5.3,2.6-5.3,6.8H182.2z"/>
	<path class="st2" d="M187.2,281h3.7l5.8,17.2l5.6-17.2h3.6l-7.3,20.8h-3.9L187.2,281z"/>
	<path class="st2" d="M216.6,302.4c-6.5,0-9.5-4.1-9.5-11s3-11,9.5-11s9.5,4.1,9.5,11S223.1,302.4,216.6,302.4z M216.6,283.3
		c-4.3,0-5.8,2.8-5.8,8.1s1.5,8.1,5.8,8.1c4.3,0,5.8-2.8,5.8-8.1S220.9,283.3,216.6,283.3z"/>
	<path class="st2" d="M239,276.1c1-0.3,2.4-0.6,3.5-0.6v5.5h5.5v2.6h-5.5v11.6c0,2,0.1,3,0.7,3.7c0.5,0.5,1.2,0.8,2.7,0.8
		c0.7,0,2.1-0.1,3.1-0.3l0.2,2.6c-1.1,0.3-2.8,0.6-4.3,0.6c-2,0-3.7-0.6-4.6-1.6c-1-1.2-1.3-2.6-1.3-5.2v-12h-3.8v-2l3.8-0.6V276.1z
		"/>
	<path class="st2" d="M267.5,301.6c-1.8,0.5-4.3,0.8-6.2,0.8c-3.2,0-5.7-0.8-7.4-2.5c-1.9-1.9-2.7-4.7-2.7-8.5
		c0-7.4,3.7-11.1,9-11.1c5.8,0,8.6,4.1,8.6,11v0.8c0,0.3-0.2,0.5-0.5,0.5h-13.4c0,2.3,0.6,4.2,1.8,5.3c1.1,1,2.7,1.6,5.3,1.6
		c1.5,0,3.5-0.2,5.1-0.6L267.5,301.6z M265.3,290.1c-0.1-4-1.7-6.8-5.1-6.8c-3.5,0-5.3,2.6-5.3,6.8H265.3z"/>
	<path class="st2" d="M275.7,281l0.2,1.8c2-1.7,4.1-2.4,5.9-2.4c0.4,0,0.9,0,1.4,0.1v3.1c-0.5,0-1.2-0.1-1.8-0.1
		c-1.8,0-3.6,0.5-5.1,1.4v16.8h-3.5V281H275.7z"/>
	<path class="st2" d="M289,281l0.2,1.5c2.2-1.4,4.4-2.1,6.7-2.1c2.6,0,4.5,0.8,5.7,2.3c2.6-1.6,5.1-2.3,7.5-2.3c2.3,0,4,0.6,5.2,1.8
		c1.1,1.1,1.7,2.8,1.7,5.4v14.2h-3.5v-13.7c0-1.8-0.3-2.8-1-3.5c-0.7-0.7-1.8-1.1-3.3-1.1c-1.7,0-3.8,0.5-5.6,1.4
		c0.2,0.8,0.3,1.7,0.3,2.8v14.2h-3.5v-13.7c0-1.8-0.3-2.8-1-3.5c-0.7-0.7-1.8-1.1-3.3-1.1c-1.8,0-3.7,0.6-5.4,1.4v17H286V281H289z"
		/>
	<path class="st2" d="M322.6,277.1c-1.3,0-2.1-0.6-2.1-2.3v-0.1c0-1.6,0.8-2.3,2.1-2.3h0.2c1.3,0,2.1,0.6,2.1,2.3v0.1
		c0,1.6-0.8,2.3-2.1,2.3H322.6z M324.5,301.9H321V281h3.5V301.9z"/>
	<path class="st2" d="M332.5,281l0.2,1.5c2.2-1.3,4.8-2.1,7.2-2.1c2.3,0,4,0.6,5.2,1.8c1.1,1.1,1.7,2.8,1.7,5.4v14.2h-3.5v-13.7
		c0-1.8-0.3-2.8-1-3.5c-0.7-0.7-1.8-1.1-3.4-1.1c-1.9,0-4.1,0.6-5.8,1.4v17h-3.5V281H332.5z"/>
	<path class="st2" d="M364.3,300.4c-1.8,1.2-4,2-6.6,2c-2.3,0-4.2-0.7-5.4-2c-1-1.1-1.7-2.6-1.7-4.5s0.7-3.5,1.8-4.5
		c1.6-1.4,4-2,7.1-2h4.3v-1.3c0-1.7-0.3-2.8-1.1-3.5c-0.9-0.9-2.3-1.2-4.3-1.2c-1.6,0-3.6,0.2-5.6,0.5l-0.1-2.7
		c2-0.5,4.3-0.7,6.3-0.7c3.1,0,5.2,0.7,6.5,1.9c1.3,1.3,1.8,2.9,1.8,5.7v13.9h-2.9L364.3,300.4z M363.8,292H360
		c-2.2,0-3.7,0.3-4.6,1.1c-0.7,0.6-1.1,1.5-1.1,2.8c0,2.5,1.6,3.7,4.3,3.7c1.7,0,3.8-0.6,5.3-1.4V292z"/>
	<path class="st2" d="M375.8,271.4v30.4h-3.5v-30.4H375.8z"/>
</g>
</svg>
