<?xml version="1.0" encoding="utf-8"?>
<!-- Generator: Adobe Illustrator 22.1.0, SVG Export Plug-In . SVG Version: 6.00 Build 0)  -->
<svg version="1.1" id="Capa_1" xmlns="http://www.w3.org/2000/svg" xmlns:xlink="http://www.w3.org/1999/xlink" x="0px" y="0px"
	 viewBox="0 0 500 347.7" style="enable-background:new 0 0 500 347.7;" xml:space="preserve">
<style type="text/css">
	.st0{fill:#FF4071;}
	.st1{fill:#FFFFFF;}
</style>
<path class="st0" d="M86.5,117.5c-1.3,7.9-6.9,14.4-14.4,16.8c-36.4,11.6-63,38.4-70.2,72.6c-11.7,55,31.7,111.6,96.7,126.3
	c0.1,0,1.6,0.4,1.9,0.4l0.6,0.1c43.1,9.6,97.4,14.3,152.9,13.4c85.5-1.5,163-15.9,207.2-38.5c0.5-0.3,1-0.5,1.4-0.8
	c26.4-14.5,40.8-39,37.7-64c-2.8-22.8-19.4-41.3-43.4-50.2c-8.5-2.7-14.4-10.4-14.4-19.8c0.5-27.4-9.2-52.4-28-70.6
	c-17.6-17-41.7-26-68-25.6c-2.1,0-4,0.1-6.2,0.3c-0.8,0.1-1.3,0.1-2,0.1c-7.4,0-13.9-3.8-17.7-9.6C294.1,27.1,251,1.9,205.6,2.7
	c-10.1,0.2-20.2,1.7-30,4.5C127.9,20.9,93.7,64.5,86.5,117.5z"/>
<g>
	<path class="st1" d="M72.7,233.1h-4.3v-32.7h9.4c4.7,0,7.8,0.9,9.6,2.8c1.6,1.6,2.4,4.1,2.4,7.1c0,3.5-0.9,6.1-2.7,7.9
		c-1.8,1.7-4.5,2.7-8.4,2.7h-6.1V233.1z M72.7,217.5h4.6c3,0,5-0.4,6.3-1.6c1.1-1.1,1.8-2.9,1.8-5.5c0-2.2-0.5-3.8-1.5-4.9
		c-1.2-1.2-3.3-1.8-6.4-1.8h-4.8V217.5z"/>
	<path class="st1" d="M109.4,232.9c-2,0.6-4.8,0.9-6.9,0.9c-3.6,0-6.5-0.9-8.4-2.8c-2.1-2.1-3.1-5.3-3.1-9.5
		c0-8.4,4.2-12.4,10.1-12.4c6.6,0,9.7,4.6,9.7,12.3v0.9c0,0.4-0.2,0.5-0.6,0.5H95.1c0,2.6,0.7,4.7,2.1,6c1.2,1.1,3,1.8,6,1.8
		c1.7,0,4-0.2,5.8-0.6L109.4,232.9z M106.9,219.9c-0.1-4.5-1.9-7.7-5.8-7.7c-4,0-5.9,2.9-6,7.7H106.9z"/>
	<path class="st1" d="M118.5,209.7l0.2,2c2.2-1.9,4.6-2.7,6.7-2.7c0.4,0,1,0,1.5,0.1v3.5c-0.5,0-1.4-0.1-2.1-0.1
		c-2.1,0-4,0.5-5.7,1.6v18.9h-4v-23.4H118.5z"/>
	<path class="st1" d="M144.1,231.7c-1.9,1.2-4.7,2.1-6.9,2.1c-6,0-9.4-4.1-9.4-12.3c0-7.8,3.6-12.5,9.7-12.5c2,0,4.4,0.6,6.2,1.7
		v-11.8h4v34.2h-3.3L144.1,231.7z M143.7,229.2v-15.6c-1.7-0.7-3.8-1.1-5.4-1.1c-4.8,0-6.4,3.7-6.4,9.2c0,6.2,2.2,8.9,6.4,8.9
		C140,230.5,142,230,143.7,229.2z"/>
	<path class="st1" d="M170.3,232.9c-2,0.6-4.8,0.9-6.9,0.9c-3.6,0-6.5-0.9-8.4-2.8c-2.1-2.1-3.1-5.3-3.1-9.5
		c0-8.4,4.2-12.4,10.1-12.4c6.6,0,9.7,4.6,9.7,12.3v0.9c0,0.4-0.2,0.5-0.6,0.5h-15.1c0,2.6,0.7,4.7,2.1,6c1.2,1.1,3,1.8,6,1.8
		c1.7,0,4-0.2,5.8-0.6L170.3,232.9z M167.9,219.9c-0.1-4.5-1.9-7.7-5.8-7.7c-4,0-5.9,2.9-6,7.7H167.9z"/>
	<path class="st1" d="M179.5,209.7l0.2,2c2.2-1.9,4.6-2.7,6.7-2.7c0.4,0,1,0,1.5,0.1v3.5c-0.5,0-1.4-0.1-2.1-0.1
		c-2.1,0-4,0.5-5.7,1.6v18.9h-4v-23.4H179.5z"/>
	<path class="st1" d="M202.9,209.7l0.2,1.7c2.4-1.5,5-2.4,7.6-2.4c3,0,5,0.9,6.4,2.6c2.9-1.8,5.8-2.6,8.4-2.6c2.5,0,4.5,0.7,5.9,2.1
		c1.3,1.3,2,3.2,2,6.1v15.9h-4v-15.5c0-2-0.3-3.2-1.1-4s-2.1-1.2-3.7-1.2c-1.9,0-4.3,0.6-6.3,1.6c0.2,0.9,0.3,1.9,0.3,3.1v15.9h-4
		v-15.5c0-2-0.3-3.2-1.1-4s-2.1-1.2-3.7-1.2c-2,0-4.2,0.6-6.1,1.5v19.1h-4v-23.4H202.9z"/>
	<path class="st1" d="M240.7,205.2c-1.4,0-2.3-0.7-2.3-2.5v-0.1c0-1.8,0.9-2.5,2.3-2.5h0.2c1.4,0,2.3,0.7,2.3,2.5v0.1
		c0,1.8-0.9,2.5-2.3,2.5H240.7z M242.8,233.1h-4v-23.4h4V233.1z"/>
	<path class="st1" d="M262.2,212.9c-2.1-0.5-4.3-0.8-6.2-0.8c-3.3,0-5.1,1.1-5.1,3.3c0,5.3,13.1,2.8,13.1,11.1c0,5-3.8,7.2-9.5,7.2
		c-2.2,0-5.1-0.4-6.9-1l0.2-3.1c1.9,0.5,4.5,0.9,6.6,0.9c3.8,0,5.9-1.3,5.9-3.7c0-5.3-13.1-2.5-13.1-11.1c0-4.5,3.5-6.7,8.5-6.7
		c2.3,0,5,0.4,6.8,1L262.2,212.9z"/>
	<path class="st1" d="M292.1,231.7c-1.9,1.2-4.7,2.1-6.9,2.1c-6,0-9.4-4.1-9.4-12.3c0-7.8,3.6-12.5,9.7-12.5c2,0,4.4,0.6,6.2,1.7
		v-11.8h4v34.2h-3.3L292.1,231.7z M291.7,229.2v-15.6c-1.7-0.7-3.8-1.1-5.4-1.1c-4.8,0-6.4,3.7-6.4,9.2c0,6.2,2.2,8.9,6.4,8.9
		C287.9,230.5,290,230,291.7,229.2z"/>
	<path class="st1" d="M315.3,231.5c-2.1,1.3-4.5,2.2-7.4,2.2c-2.5,0-4.7-0.8-6.1-2.2c-1.1-1.2-1.9-2.9-1.9-5.1s0.8-3.9,2-5.1
		c1.8-1.6,4.5-2.2,7.9-2.2h4.9v-1.5c0-1.9-0.3-3.1-1.2-4c-1-1-2.5-1.4-4.9-1.4c-1.8,0-4,0.2-6.3,0.6l-0.1-3.1
		c2.2-0.5,4.9-0.8,7.1-0.8c3.5,0,5.8,0.8,7.3,2.2c1.5,1.4,2.1,3.3,2.1,6.4v15.6h-3.2L315.3,231.5z M314.7,222.1h-4.3
		c-2.4,0-4.1,0.3-5.2,1.2c-0.8,0.7-1.3,1.7-1.3,3.1c0,2.8,1.8,4.2,4.8,4.2c1.9,0,4.3-0.7,6-1.5V222.1z"/>
	<path class="st1" d="M325.5,204.2c1.1-0.4,2.7-0.7,4-0.7v6.2h6.2v2.9h-6.2v13c0,2.2,0.1,3.4,0.8,4.1c0.5,0.6,1.3,0.9,3,0.9
		c0.8,0,2.4-0.1,3.5-0.4l0.2,2.9c-1.2,0.3-3.1,0.6-4.8,0.6c-2.3,0-4.2-0.6-5.2-1.8c-1.1-1.3-1.5-2.9-1.5-5.8v-13.5h-4.3v-2.2
		l4.3-0.6V204.2z"/>
	<path class="st1" d="M349.8,233.8c-7.3,0-10.7-4.6-10.7-12.4s3.4-12.4,10.7-12.4s10.7,4.6,10.7,12.4S357.1,233.8,349.8,233.8z
		 M349.8,212.3c-4.8,0-6.5,3.2-6.5,9.1s1.7,9.1,6.5,9.1s6.5-3.2,6.5-9.1S354.6,212.3,349.8,212.3z"/>
	<path class="st1" d="M378.6,212.9c-2.1-0.5-4.3-0.8-6.2-0.8c-3.3,0-5.1,1.1-5.1,3.3c0,5.3,13.1,2.8,13.1,11.1c0,5-3.8,7.2-9.5,7.2
		c-2.2,0-5.1-0.4-6.9-1l0.2-3.1c1.9,0.5,4.5,0.9,6.6,0.9c3.8,0,5.9-1.3,5.9-3.7c0-5.3-13.1-2.5-13.1-11.1c0-4.5,3.5-6.7,8.5-6.7
		c2.3,0,5,0.4,6.8,1L378.6,212.9z"/>
	<path class="st1" d="M408.6,231.7c-2.3,1.3-5,2.1-7.5,2.1s-4.5-0.7-5.9-2.1c-1.3-1.3-2-3.2-2-6.1v-15.9h4v15.5c0,2,0.3,3.2,1.1,4
		s2.1,1.2,3.8,1.2c2.1,0,4.5-0.6,6.5-1.5v-19.1h4v25.3c0,3.2-0.7,5.5-2.2,7c-1.6,1.7-4.1,2.6-7.6,2.6c-1.6,0-3.7-0.2-4.7-0.5
		l-0.3-3.1c1.1,0.1,3.3,0.3,4.5,0.3c2.2,0,3.8-0.3,4.9-1.3c1-1,1.5-2.4,1.5-5.1V231.7z"/>
	<path class="st1" d="M167,246.9v34.2h-4v-34.2H167z"/>
	<path class="st1" d="M186.6,279.6c-2.1,1.3-4.5,2.2-7.4,2.2c-2.5,0-4.7-0.8-6.1-2.2c-1.1-1.2-1.9-2.9-1.9-5.1s0.8-3.9,2-5.1
		c1.8-1.6,4.5-2.2,7.9-2.2h4.9v-1.5c0-1.9-0.3-3.1-1.2-4c-1-1-2.5-1.4-4.9-1.4c-1.8,0-4,0.2-6.3,0.6l-0.1-3.1
		c2.2-0.5,4.9-0.8,7.1-0.8c3.5,0,5.8,0.8,7.3,2.2c1.5,1.4,2.1,3.3,2.1,6.4v15.6h-3.2L186.6,279.6z M186.1,270.1h-4.3
		c-2.4,0-4.1,0.3-5.2,1.2c-0.8,0.7-1.3,1.7-1.3,3.1c0,2.8,1.8,4.2,4.8,4.2c1.9,0,4.3-0.7,6-1.5V270.1z"/>
	<path class="st1" d="M209.4,260.9c-2.1-0.5-4.3-0.8-6.2-0.8c-3.3,0-5.1,1.1-5.1,3.3c0,5.3,13.1,2.8,13.1,11.1c0,5-3.8,7.2-9.5,7.2
		c-2.2,0-5.1-0.4-6.9-1l0.2-3.1c1.9,0.5,4.5,0.9,6.6,0.9c3.8,0,5.9-1.3,5.9-3.7c0-5.3-13.1-2.5-13.1-11.1c0-4.5,3.5-6.7,8.5-6.7
		c2.3,0,5,0.4,6.8,1L209.4,260.9z"/>
	<path class="st1" d="M235.8,257.7v2.9h-6.2v20.5h-4v-20.5h-4.3v-2.2l4.3-0.6v-3.2c0-2.9,0.6-4.9,1.7-6.2c1.3-1.5,3.3-2.2,6.1-2.2
		c1.1,0,2.8,0.1,3.9,0.4v3c-1-0.1-2.4-0.2-3.3-0.2c-1.7,0-2.8,0.3-3.5,1.1c-0.7,0.8-1,1.9-1,4.1v3.3H235.8z"/>
	<path class="st1" d="M247.3,281.8c-7.3,0-10.7-4.6-10.7-12.4S240,257,247.3,257c7.3,0,10.7,4.6,10.7,12.4S254.6,281.8,247.3,281.8z
		 M247.3,260.3c-4.8,0-6.5,3.2-6.5,9.1s1.7,9.1,6.5,9.1c4.8,0,6.5-3.2,6.5-9.1S252.1,260.3,247.3,260.3z"/>
	<path class="st1" d="M263.7,252.2c1.1-0.4,2.7-0.7,4-0.7v6.2h6.2v2.9h-6.2v13c0,2.2,0.1,3.4,0.8,4.1c0.5,0.6,1.3,0.9,3,0.9
		c0.8,0,2.4-0.1,3.5-0.4l0.2,2.9c-1.2,0.3-3.1,0.6-4.8,0.6c-2.3,0-4.2-0.6-5.2-1.8c-1.1-1.3-1.5-2.9-1.5-5.8v-13.5h-4.3v-2.2
		l4.3-0.6V252.2z"/>
	<path class="st1" d="M287.9,281.8c-7.3,0-10.7-4.6-10.7-12.4s3.4-12.4,10.7-12.4s10.7,4.6,10.7,12.4S295.2,281.8,287.9,281.8z
		 M287.9,260.3c-4.8,0-6.5,3.2-6.5,9.1s1.7,9.1,6.5,9.1s6.5-3.2,6.5-9.1S292.7,260.3,287.9,260.3z"/>
	<path class="st1" d="M316.7,260.9c-2.1-0.5-4.3-0.8-6.2-0.8c-3.3,0-5.1,1.1-5.1,3.3c0,5.3,13.1,2.8,13.1,11.1c0,5-3.8,7.2-9.5,7.2
		c-2.2,0-5.1-0.4-6.9-1l0.2-3.1c1.9,0.5,4.5,0.9,6.6,0.9c3.8,0,5.9-1.3,5.9-3.7c0-5.3-13.1-2.5-13.1-11.1c0-4.5,3.5-6.7,8.5-6.7
		c2.3,0,5,0.4,6.8,1L316.7,260.9z"/>
</g>
<g>
	<path class="st1" d="M272.4,65.2c-11.4-11-28-16.6-49.4-16.6c-21.4,0-38,5.6-49.3,16.6c-11.8,11.4-17.7,28.4-17.7,50.7
		c0,22.2,6,39.2,17.7,50.6c11.3,10.9,27.9,16.5,49.3,16.5c21.4,0,38-5.5,49.4-16.5c11.8-11.4,17.8-28.4,17.8-50.6
		C290.2,93.7,284.2,76.6,272.4,65.2z M266.5,160.4c-9.7,9.4-24.4,14.1-43.5,14.1c-19.1,0-33.7-4.7-43.4-14.1
		c-10.1-9.7-15.1-24.7-15.1-44.5c0-19.9,5.1-34.9,15.2-44.6c9.7-9.4,24.3-14.2,43.4-14.2c19.1,0,33.8,4.8,43.5,14.2
		c10.1,9.7,15.2,24.7,15.2,44.6C281.7,135.7,276.6,150.7,266.5,160.4z"/>
	<path class="st1" d="M223,128.2c-17.8,0-25.3,8.7-28.4,15.9c-0.9,2.2,0.1,4.6,2.2,5.6c0.5,0.2,1.1,0.4,1.7,0.4c1.6,0,3.2-1,3.9-2.6
		c3.1-7.3,9.9-10.8,20.6-10.8c10.8,0,17.5,3.5,20.7,10.8c0.9,2.1,3.4,3.1,5.6,2.2c2.1-0.9,3.1-3.4,2.2-5.6
		C248.3,136.9,240.8,128.2,223,128.2z"/>
	<path class="st1" d="M204.8,108.9c0.9,2.1,3.4,3.1,5.6,2.2c2.1-0.9,3.1-3.4,2.2-5.6c-1.9-4.4-6.4-9.6-17-9.6
		c-10.5,0-15,5.2-16.9,9.6c-0.9,2.2,0.1,4.6,2.2,5.6c0.5,0.2,1.1,0.4,1.7,0.4c1.6,0,3.2-1,3.9-2.6c0.8-1.9,2.7-4.5,9.1-4.5
		C202.1,104.4,204,107,204.8,108.9z"/>
	<path class="st1" d="M267.4,105.5c-1.9-4.4-6.4-9.6-17-9.6c-10.5,0-15,5.2-16.9,9.6c-0.9,2.2,0.1,4.6,2.2,5.6
		c0.5,0.2,1.1,0.4,1.7,0.4c1.6,0,3.2-1,3.9-2.6c0.8-1.9,2.7-4.5,9.1-4.5c6.4,0,8.3,2.6,9.2,4.5c0.9,2.1,3.4,3.1,5.6,2.2
		C267.3,110.2,268.3,107.7,267.4,105.5z"/>
</g>
</svg>
