<?xml version="1.0" encoding="utf-8"?>
<!-- Generator: Adobe Illustrator 22.1.0, SVG Export Plug-In . SVG Version: 6.00 Build 0)  -->
<svg version="1.1" id="Capa_1" xmlns="http://www.w3.org/2000/svg" xmlns:xlink="http://www.w3.org/1999/xlink" x="0px" y="0px"
	 viewBox="0 0 500 347.7" style="enable-background:new 0 0 500 347.7;" xml:space="preserve">
<style type="text/css">
	.st0{fill:#BEBEBE;}
	.st1{enable-background:new    ;}
	.st2{fill:#FFFFFF;}
</style>
<path class="st0" d="M87.7,117.4c-1.2,7.9-6.9,14.3-14.3,16.7c-36.3,11.6-62.7,38.2-69.9,72.2C-8.1,261,35,317.3,99.7,332
	c0.1,0,1.6,0.4,1.9,0.4l0.6,0.1c42.9,9.5,97,14.3,152.2,13.3c85.1-1.5,162.3-15.8,206.3-38.3c0.5-0.2,1-0.5,1.4-0.8
	c26.2-14.5,40.6-38.8,37.5-63.7c-2.8-22.7-19.4-41.1-43.2-50c-8.5-2.7-14.3-10.4-14.3-19.7c0.5-27.3-9.2-52.2-27.9-70.2
	c-17.5-16.9-41.5-25.9-67.6-25.5c-2.1,0-4,0.1-6.1,0.3c-0.8,0.1-1.3,0.1-2,0.1c-7.4,0-13.8-3.8-17.6-9.6
	C294.3,27.3,251.5,2.3,206.3,3c-10.1,0.2-20.1,1.7-29.8,4.5C128.9,21.1,94.8,64.6,87.7,117.4z"/>
<g class="st1">
	<path class="st2" d="M142.4,158.4c-2.6,0.8-6.7,1.3-9.8,1.3c-13.3,0-19.8-7.6-19.8-22.8c0-8.1,1.9-14.4,5.8-18.3
		c3.1-3.2,7.9-4.9,13.4-4.9c3.8,0,7.5,0.6,10.3,1.7l-0.8,4.4c-2.9-0.8-6.1-1.2-8.9-1.2c-4.5,0-7.8,1.2-9.9,3.6
		c-2.7,3-3.9,7.8-3.9,14.7c0,6.7,1.2,11.5,4.1,14.5c2.4,2.5,5.9,3.6,11.1,3.6c1.9,0,5.3-0.4,7.8-0.9L142.4,158.4z"/>
	<path class="st2" d="M159.5,159.7c-9.9,0-14.5-6.2-14.5-16.8s4.6-16.8,14.5-16.8s14.5,6.2,14.5,16.8S169.4,159.7,159.5,159.7z
		 M159.5,130.5c-6.5,0-8.8,4.3-8.8,12.4s2.3,12.4,8.8,12.4s8.8-4.3,8.8-12.4S166,130.5,159.5,130.5z"/>
	<path class="st2" d="M199.2,131.4c-2.9-0.6-5.8-1-8.4-1c-4.5,0-6.9,1.5-6.9,4.5c0,7.1,17.7,3.8,17.7,15.1c0,6.7-5.2,9.7-12.8,9.7
		c-3,0-6.9-0.6-9.3-1.4l0.3-4.1c2.6,0.7,6.1,1.2,8.9,1.2c5.2,0,8-1.8,8-5c0-7.1-17.7-3.4-17.7-15.1c0-6.2,4.8-9.1,11.5-9.1
		c3.2,0,6.7,0.6,9.3,1.4L199.2,131.4z"/>
	<path class="st2" d="M210.1,119.6c1.6-0.5,3.7-1,5.4-1v8.4h8.4v4h-8.4v17.6c0,3,0.2,4.6,1.1,5.6c0.7,0.8,1.8,1.2,4.1,1.2
		c1.1,0,3.2-0.2,4.8-0.5l0.3,4c-1.7,0.5-4.2,0.8-6.5,0.8c-3.1,0-5.6-0.8-7.1-2.5c-1.6-1.8-2-4-2-7.9V131h-5.8v-3l5.8-0.8V119.6z"/>
	<path class="st2" d="M254.1,158.4c-2.7,0.8-6.5,1.2-9.4,1.2c-4.9,0-8.7-1.2-11.3-3.8c-2.9-2.9-4.1-7.2-4.1-12.9
		c0-11.3,5.6-16.8,13.7-16.8c8.9,0,13.2,6.3,13.2,16.7v1.2c0,0.5-0.3,0.7-0.8,0.7h-20.5c0,3.5,0.9,6.4,2.8,8.1
		c1.7,1.6,4.1,2.4,8.1,2.4c2.3,0,5.4-0.3,7.8-0.8L254.1,158.4z M250.8,140.8c-0.2-6.1-2.5-10.4-7.8-10.4c-5.4,0-8,4-8.1,10.4H250.8z
		"/>
	<path class="st2" d="M281.5,131.4c-2.9-0.6-5.8-1-8.4-1c-4.5,0-6.9,1.5-6.9,4.5c0,7.1,17.7,3.8,17.7,15.1c0,6.7-5.2,9.7-12.8,9.7
		c-3,0-6.9-0.6-9.3-1.4l0.3-4.1c2.6,0.7,6.1,1.2,8.9,1.2c5.2,0,8-1.8,8-5c0-7.1-17.7-3.4-17.7-15.1c0-6.2,4.8-9.1,11.5-9.1
		c3.2,0,6.7,0.6,9.3,1.4L281.5,131.4z"/>
	<path class="st2" d="M323.2,156.8c-2.6,1.7-6.4,2.9-9.4,2.9c-8.1,0-12.8-5.6-12.8-16.6c0-10.5,4.9-17,13.2-17
		c2.7,0,5.9,0.8,8.4,2.3v-15.9h5.4v46.3h-4.4L323.2,156.8z M322.6,153.4v-21.2c-2.3-0.9-5.2-1.6-7.3-1.6c-6.5,0-8.6,5.1-8.6,12.5
		c0,8.4,2.9,12.1,8.6,12.1C317.6,155.3,320.4,154.5,322.6,153.4z"/>
	<path class="st2" d="M359.3,158.4c-2.7,0.8-6.5,1.2-9.4,1.2c-4.9,0-8.7-1.2-11.3-3.8c-2.9-2.9-4.1-7.2-4.1-12.9
		c0-11.3,5.6-16.8,13.7-16.8c8.9,0,13.2,6.3,13.2,16.7v1.2c0,0.5-0.3,0.7-0.8,0.7h-20.5c0,3.5,0.9,6.4,2.8,8.1
		c1.7,1.6,4.1,2.4,8.1,2.4c2.3,0,5.4-0.3,7.8-0.8L359.3,158.4z M356,140.8c-0.2-6.1-2.5-10.4-7.8-10.4c-5.4,0-8,4-8.1,10.4H356z"/>
</g>
<g class="st1">
	<path class="st2" d="M134.1,174.4v46.3h-5.4v-46.3H134.1z"/>
	<path class="st2" d="M147.7,174.4v46.3h-5.4v-46.3H147.7z"/>
	<path class="st2" d="M174.9,218.6c-2.8,1.8-6.2,3-10,3c-3.4,0-6.4-1-8.3-3c-1.6-1.6-2.5-3.9-2.5-6.9c0-3,1-5.3,2.7-6.9
		c2.4-2.2,6.2-3,10.8-3h6.6v-2c0-2.6-0.5-4.2-1.6-5.4c-1.4-1.3-3.4-1.9-6.6-1.9c-2.4,0-5.4,0.3-8.6,0.8l-0.2-4.1
		c3-0.7,6.6-1.1,9.7-1.1c4.7,0,7.9,1,9.9,2.9c2,1.9,2.8,4.5,2.8,8.6v21.1h-4.3L174.9,218.6z M174.2,205.8h-5.8
		c-3.3,0-5.6,0.5-7.1,1.6c-1.1,0.9-1.7,2.3-1.7,4.2c0,3.8,2.4,5.7,6.5,5.7c2.6,0,5.8-0.9,8.1-2.1V205.8z"/>
	<path class="st2" d="M192.1,189l0.3,2.3c3.3-2.1,6.7-3.2,10.2-3.2c4,0,6.8,1.2,8.6,3.6c4-2.4,7.8-3.6,11.4-3.6c3.4,0,6.2,0.9,8,2.8
		c1.7,1.8,2.7,4.3,2.7,8.3v21.6h-5.4v-20.9c0-2.7-0.5-4.3-1.6-5.4c-1.1-1.1-2.8-1.6-5-1.6c-2.6,0-5.8,0.8-8.6,2.1
		c0.3,1.2,0.5,2.6,0.5,4.2v21.6h-5.4v-20.9c0-2.7-0.5-4.3-1.6-5.4c-1.1-1.1-2.8-1.6-5-1.6c-2.7,0-5.7,0.8-8.3,2.1v25.9h-5.4V189
		H192.1z"/>
	<path class="st2" d="M260.3,218.6c-2.8,1.8-6.2,3-10,3c-3.4,0-6.4-1-8.3-3c-1.6-1.6-2.5-3.9-2.5-6.9c0-3,1-5.3,2.7-6.9
		c2.4-2.2,6.2-3,10.8-3h6.6v-2c0-2.6-0.5-4.2-1.6-5.4c-1.4-1.3-3.4-1.9-6.6-1.9c-2.4,0-5.4,0.3-8.6,0.8l-0.2-4.1
		c3-0.7,6.6-1.1,9.7-1.1c4.7,0,7.9,1,9.9,2.9c2,1.9,2.8,4.5,2.8,8.6v21.1h-4.3L260.3,218.6z M259.6,205.8h-5.8
		c-3.3,0-5.6,0.5-7.1,1.6c-1.1,0.9-1.7,2.3-1.7,4.2c0,3.8,2.4,5.7,6.5,5.7c2.6,0,5.8-0.9,8.1-2.1V205.8z"/>
	<path class="st2" d="M293.4,218.8c-2.6,1.7-6.4,2.9-9.4,2.9c-8.1,0-12.8-5.6-12.8-16.6c0-10.5,4.9-17,13.2-17
		c2.7,0,5.9,0.8,8.4,2.3v-15.9h5.4v46.3h-4.4L293.4,218.8z M292.8,215.4v-21.2c-2.3-0.9-5.2-1.6-7.3-1.6c-6.5,0-8.6,5.1-8.6,12.5
		c0,8.4,2.9,12.1,8.6,12.1C287.8,217.3,290.6,216.5,292.8,215.4z"/>
	<path class="st2" d="M325.4,218.6c-2.8,1.8-6.2,3-10,3c-3.4,0-6.4-1-8.3-3c-1.6-1.6-2.5-3.9-2.5-6.9c0-3,1-5.3,2.7-6.9
		c2.4-2.2,6.2-3,10.8-3h6.6v-2c0-2.6-0.5-4.2-1.6-5.4c-1.4-1.3-3.4-1.9-6.6-1.9c-2.4,0-5.4,0.3-8.6,0.8l-0.2-4.1
		c3-0.7,6.6-1.1,9.7-1.1c4.7,0,7.9,1,9.9,2.9c2,1.9,2.8,4.5,2.8,8.6v21.1h-4.3L325.4,218.6z M324.7,205.8h-5.8
		c-3.3,0-5.6,0.5-7.1,1.6c-1.1,0.9-1.7,2.3-1.7,4.2c0,3.8,2.4,5.7,6.5,5.7c2.6,0,5.8-0.9,8.1-2.1V205.8z"/>
	<path class="st2" d="M356.9,193.4c-2.9-0.6-5.8-1-8.4-1c-4.5,0-6.9,1.5-6.9,4.5c0,7.1,17.7,3.8,17.7,15.1c0,6.7-5.2,9.7-12.8,9.7
		c-3,0-6.9-0.6-9.3-1.4l0.3-4.1c2.6,0.7,6.1,1.2,8.9,1.2c5.2,0,8-1.8,8-5c0-7.1-17.7-3.4-17.7-15.1c0-6.2,4.8-9.1,11.5-9.1
		c3.2,0,6.7,0.6,9.3,1.4L356.9,193.4z"/>
</g>
<g class="st1">
	<path class="st2" d="M96.5,251v4h-8.4v27.8h-5.4V255H77v-3l5.8-0.8v-4.3c0-4,0.8-6.6,2.3-8.4c1.7-2,4.5-3,8.3-3
		c1.5,0,3.8,0.2,5.3,0.5v4.1c-1.3-0.1-3.2-0.3-4.5-0.3c-2.3,0-3.8,0.5-4.7,1.4c-1,1-1.3,2.6-1.3,5.5v4.4H96.5z"/>
	<path class="st2" d="M104.8,251l0.3,2.7c3-2.5,6.2-3.6,9-3.6c0.6,0,1.4,0.1,2.1,0.2v4.8c-0.7-0.1-1.9-0.1-2.8-0.1
		c-2.8,0-5.4,0.7-7.7,2.1v25.7h-5.4V251H104.8z"/>
	<path class="st2" d="M138.5,280.6c-2.8,1.8-6.2,3-10,3c-3.4,0-6.4-1-8.3-3c-1.6-1.6-2.5-3.9-2.5-6.9c0-3,1-5.3,2.7-6.9
		c2.4-2.2,6.2-3,10.8-3h6.6v-2c0-2.6-0.5-4.2-1.6-5.4c-1.4-1.3-3.4-1.9-6.6-1.9c-2.4,0-5.4,0.3-8.6,0.8l-0.2-4.1
		c3-0.7,6.6-1.1,9.7-1.1c4.7,0,7.9,1,9.9,2.9c2,1.9,2.8,4.5,2.8,8.6v21.1h-4.3L138.5,280.6z M137.8,267.8h-5.8
		c-3.3,0-5.6,0.5-7.1,1.6c-1.1,0.9-1.7,2.3-1.7,4.2c0,3.8,2.4,5.7,6.5,5.7c2.6,0,5.8-0.9,8.1-2.1V267.8z"/>
	<path class="st2" d="M172.7,282.8l-0.3-2.3c-3.3,2-7.1,3.2-10.8,3.2c-3.4,0-6.2-0.9-8-2.8c-1.7-1.8-2.7-4.3-2.7-8.3V251h5.4v20.9
		c0,2.7,0.5,4.3,1.6,5.4s2.8,1.6,5.1,1.6c2.9,0,6.2-0.8,8.7-2.1V251h5.4v31.8H172.7z"/>
	<path class="st2" d="M205.8,280.8c-2.6,1.7-6.4,2.9-9.4,2.9c-8.1,0-12.8-5.6-12.8-16.6c0-10.5,4.9-17,13.2-17
		c2.7,0,5.9,0.8,8.4,2.3v-15.9h5.4v46.3h-4.4L205.8,280.8z M205.2,277.4v-21.2c-2.3-0.9-5.2-1.6-7.3-1.6c-6.5,0-8.6,5.1-8.6,12.5
		c0,8.4,2.9,12.1,8.6,12.1C200.1,279.3,202.9,278.5,205.2,277.4z"/>
	<path class="st2" d="M240.2,282.8l-0.3-2.3c-3.3,2-7.1,3.2-10.8,3.2c-3.4,0-6.2-0.9-8-2.8c-1.7-1.8-2.7-4.3-2.7-8.3V251h5.4v20.9
		c0,2.7,0.5,4.3,1.6,5.4s2.8,1.6,5.1,1.6c2.9,0,6.2-0.8,8.7-2.1V251h5.4v31.8H240.2z"/>
	<path class="st2" d="M258.2,236.4v46.3h-5.4v-46.3H258.2z"/>
	<path class="st2" d="M289.6,282.4c-2.7,0.8-6.5,1.2-9.4,1.2c-4.9,0-8.7-1.2-11.3-3.8c-2.9-2.9-4.1-7.2-4.1-12.9
		c0-11.3,5.6-16.8,13.7-16.8c8.9,0,13.2,6.3,13.2,16.7v1.2c0,0.5-0.3,0.7-0.8,0.7h-20.5c0,3.5,0.9,6.4,2.8,8.1
		c1.7,1.6,4.1,2.4,8.1,2.4c2.3,0,5.4-0.3,7.8-0.8L289.6,282.4z M286.3,264.8c-0.2-6.1-2.5-10.4-7.8-10.4c-5.4,0-8,4-8.1,10.4H286.3z
		"/>
	<path class="st2" d="M302.7,251l0.3,2.3c3.3-2,7.3-3.2,11-3.2c3.4,0,6.2,0.9,8,2.8c1.8,1.8,2.7,4.3,2.7,8.3v21.6h-5.4v-20.9
		c0-2.7-0.5-4.3-1.6-5.4s-2.8-1.6-5.1-1.6c-2.9,0-6.3,0.8-8.9,2.1v25.9h-5.4V251H302.7z"/>
	<path class="st2" d="M334.5,243.6c1.6-0.5,3.7-1,5.4-1v8.4h8.4v4h-8.4v17.6c0,3,0.2,4.6,1.1,5.6c0.7,0.8,1.8,1.2,4.1,1.2
		c1.1,0,3.2-0.2,4.8-0.5l0.3,4c-1.7,0.5-4.2,0.8-6.5,0.8c-3.1,0-5.6-0.8-7.1-2.5c-1.6-1.8-2-4-2-7.9V255h-5.8v-3l5.8-0.8V243.6z"/>
	<path class="st2" d="M374.3,280.6c-2.8,1.8-6.2,3-10,3c-3.4,0-6.4-1-8.3-3c-1.6-1.6-2.5-3.9-2.5-6.9c0-3,1-5.3,2.7-6.9
		c2.4-2.2,6.2-3,10.8-3h6.6v-2c0-2.6-0.5-4.2-1.6-5.4c-1.4-1.3-3.4-1.9-6.6-1.9c-2.4,0-5.4,0.3-8.6,0.8l-0.2-4.1
		c3-0.7,6.6-1.1,9.7-1.1c4.7,0,7.9,1,9.9,2.9c2,1.9,2.8,4.5,2.8,8.6v21.1h-4.3L374.3,280.6z M373.6,267.8h-5.8
		c-3.3,0-5.6,0.5-7.1,1.6c-1.1,0.9-1.8,2.3-1.8,4.2c0,3.8,2.4,5.7,6.5,5.7c2.6,0,5.8-0.9,8.1-2.1V267.8z"/>
	<path class="st2" d="M405.7,255.4c-2.9-0.6-5.8-1-8.4-1c-4.5,0-6.9,1.5-6.9,4.5c0,7.1,17.7,3.8,17.7,15.1c0,6.7-5.2,9.7-12.8,9.7
		c-3,0-6.9-0.6-9.3-1.4l0.3-4.1c2.6,0.7,6.1,1.2,8.9,1.2c5.2,0,8-1.8,8-5c0-7.1-17.7-3.4-17.7-15.1c0-6.2,4.8-9.1,11.5-9.1
		c3.2,0,6.7,0.6,9.3,1.4L405.7,255.4z"/>
</g>
</svg>
