<?xml version="1.0" encoding="utf-8"?>
<!-- Generator: Adobe Illustrator 21.1.0, SVG Export Plug-In . SVG Version: 6.00 Build 0)  -->
<svg version="1.1" id="Capa_1" xmlns="http://www.w3.org/2000/svg" xmlns:xlink="http://www.w3.org/1999/xlink" x="0px" y="0px"
	 viewBox="0 0 500 347.7" style="enable-background:new 0 0 500 347.7;" xml:space="preserve">
<style type="text/css">
	.st0{fill:#00ABE3;}
	.st1{enable-background:new    ;}
	.st2{fill:#FFFFFF;}
</style>
<path class="st0" d="M414,116.5c1.3,7.9,6.9,14.4,14.4,16.8c36.4,11.6,62.9,38.3,70.2,72.5c11.7,55-31.6,111.5-96.6,126.2
	c-0.1,0-1.6,0.4-1.9,0.4l-0.6,0.1c-43.1,9.6-97.4,14.3-152.8,13.4c-85.5-1.5-162.9-15.9-207.1-38.4c-0.5-0.3-1-0.5-1.4-0.8
	c-26.3-14.5-40.8-38.9-37.7-64c2.8-22.8,19.4-41.2,43.4-50.2c8.5-2.7,14.4-10.4,14.4-19.8c-0.5-27.4,9.2-52.4,28-70.5
	c17.5-16.9,41.7-26,67.9-25.6c2.1,0,4,0.1,6.2,0.3c0.8,0.1,1.3,0.1,2,0.1c7.4,0,13.9-3.8,17.7-9.6c26.6-41.3,69.6-66.4,115-65.6
	C305.2,2,315.3,3.5,325,6.3C372.5,19.8,406.8,63.4,414,116.5z"/>
<g class="st1">
	<path class="st2" d="M268,96.5c-2.7-0.4-5.7-0.7-9.3-0.9c-3.5-0.3-6.6-0.4-9.3-0.4c-6.4,0-11.6,0.6-15.3,1.9
		c-3.8,1.3-7,3.2-9.7,5.9c-4.3,4.3-7.3,10.1-9.1,17.3c-1.8,7.3-2.8,15.9-3.2,26.1c4.9-2,10.1-3.6,15.6-4.7s10.5-1.7,14.9-1.7
		c11.7,0,20.7,3.1,27,9.3c6.3,6.2,9.4,15.6,9.4,28.2c0,13-3.3,23.4-9.8,31.2s-16,11.7-28.5,11.7c-7.6,0-13.9-1.5-19-4.4
		s-9.2-7-12.3-12.3s-5.3-11.7-6.7-19.1c-1.4-7.5-2.1-15.7-2.1-24.8c0-15,1.2-27.7,3.7-38.1s6.3-18.5,11.7-24.4
		c3.9-4.3,8.6-7.3,14.1-9s11.6-2.6,18.3-2.6c2.9,0,6.3,0.2,10.1,0.7c3.9,0.4,7,1,9.6,1.6v8.5H268z M211.9,163.6
		c0,6.7,0.5,12.9,1.4,18.6c0.9,5.7,2.5,10.7,4.7,14.9s5.1,7.5,8.8,9.9s8.3,3.6,13.8,3.6c9.1,0,16-2.9,20.7-8.7s7-13.7,7-23.6
		c0-10.7-2.4-18.2-7.3-22.6c-4.9-4.3-11.7-6.5-20.6-6.5c-4.3,0-9.1,0.5-14.3,1.4s-10,2.2-14.3,3.7v9.3H211.9z"/>
</g>
<g class="st1">
	<path class="st2" d="M291.2,188c-0.1-0.7-0.1-1.5-0.1-2.3s0-1.6,0-2.4v-2.6H284v-3.2l7.3-0.9c0.8-10.3,3.7-17.9,8.6-22.9
		c4.3-4.5,10.5-6.7,18.5-6.7c2.2,0,4.4,0.2,6.7,0.6c2.3,0.4,4.5,0.9,6.6,1.6v4.7c-2-0.5-4.2-1-6.5-1.3s-4.4-0.5-6.3-0.5
		c-3.2,0-5.9,0.4-8.2,1.2c-2.3,0.8-4.2,2-5.9,3.5c-4.2,4-6.7,10.5-7.5,19.6h22.2v4.5h-22.4v2.4c0,0.8,0,1.6,0,2.3s0,1.5,0.1,2.2
		h22.3v4.5h-22c0.8,7.7,3,13.4,6.4,16.9c3.5,3.5,8.7,5.2,15.6,5.2c1.8,0,3.9-0.1,6.3-0.4c2.4-0.3,4.7-0.6,6.9-1.1v4.5
		c-2,0.5-4.3,1-6.8,1.3s-4.9,0.5-7.1,0.5c-8.3,0-14.7-2.2-19.1-6.5s-7.1-11.1-8.2-20.4H284v-3.2L291.2,188z"/>
</g>
<g class="st1">
	<path class="st2" d="M74.6,270v-31h7.8c5.7,0,9.4,1.1,11.8,3.8c2.2,2.4,3.3,6.2,3.3,11.5c0,5.7-1.2,9.8-3.7,12.3
		c-2.3,2.3-5.7,3.4-10.6,3.4H74.6z M78.7,266.8h4.5c3.5,0,5.7-0.7,7.3-2.3c2.1-2,3-5.4,3-10.2c0-4.2-0.7-7.3-2.3-9.2
		c-1.7-2-4.3-2.9-8.9-2.9h-3.6V266.8z"/>
	<path class="st2" d="M117.4,270l-0.2-1.6c-2.3,1.4-5,2.3-7.6,2.3c-2.4,0-4.3-0.6-5.6-1.9c-1.2-1.2-1.9-3-1.9-5.8v-15.1h3.8v14.6
		c0,1.9,0.3,3,1.1,3.8c0.8,0.8,1.9,1.1,3.6,1.1c2,0,4.3-0.6,6.1-1.5v-18.1h3.8V270H117.4z"/>
	<path class="st2" d="M125.9,280.2v-32.4h3.1l0.2,1.6c2.3-1.5,4.9-2.3,6.9-2.3c5.8,0,8.5,4.6,8.5,11.7c0,8.3-3.4,11.8-8.7,11.8
		c-2.3,0-4.7-0.6-6.3-1.7v11.2h-3.7V280.2z M129.7,266.2c1.3,0.8,3.5,1.4,5.4,1.4c4,0,5.7-2.4,5.7-8.8c0-5.7-1.7-8.4-5.4-8.4
		c-1.7,0-3.9,0.6-5.7,1.5V266.2z"/>
	<path class="st2" d="M152.7,237.6V270h-3.8v-32.4H152.7z"/>
	<path class="st2" d="M159.9,243.6c-1.4,0-2.2-0.7-2.2-2.4v-0.1c0-1.7,0.9-2.4,2.2-2.4h0.2c1.4,0,2.2,0.7,2.2,2.4v0.1
		c0,1.7-0.9,2.4-2.2,2.4H159.9z M161.9,270h-3.8v-22.2h3.8V270z"/>
	<path class="st2" d="M182.8,269.9c-1.5,0.4-3.9,0.7-5.6,0.7c-3.6,0-6.3-0.9-8.1-2.8c-1.9-1.9-2.9-4.8-2.9-8.7s1-6.9,2.9-9
		c1.9-2,4.8-3,8.2-3c1.7,0,3.8,0.3,5.3,0.7l-0.2,2.9c-1.4-0.3-3.2-0.5-4.6-0.5c-5.2,0-7.6,3-7.6,8.9c0,2.8,0.6,4.9,1.9,6.3
		c1.3,1.5,3.2,2.1,5.9,2.1c1.5,0,3.5-0.2,4.6-0.5L182.8,269.9z"/>
	<path class="st2" d="M200,268.5c-1.9,1.3-4.3,2.1-7,2.1c-2.4,0-4.4-0.7-5.8-2.1c-1.1-1.1-1.8-2.7-1.8-4.8c0-2.1,0.7-3.7,1.9-4.8
		c1.7-1.5,4.3-2.1,7.5-2.1h4.6v-1.4c0-1.8-0.3-2.9-1.1-3.8c-1-0.9-2.4-1.3-4.6-1.3c-1.7,0-3.8,0.2-6,0.5l-0.1-2.9
		c2.1-0.5,4.6-0.8,6.8-0.8c3.3,0,5.5,0.7,6.9,2c1.4,1.4,1.9,3.1,1.9,6V270h-3L200,268.5z M199.5,259.5h-4.1c-2.3,0-3.9,0.3-4.9,1.1
		c-0.8,0.6-1.2,1.6-1.2,2.9c0,2.7,1.7,4,4.6,4c1.8,0,4-0.6,5.7-1.5v-6.5H199.5z"/>
	<path class="st2" d="M222.9,268.7c-1.8,1.2-4.5,2-6.6,2c-5.7,0-8.9-3.9-8.9-11.6c0-7.3,3.4-11.9,9.2-11.9c1.9,0,4.1,0.6,5.9,1.6
		v-11.2h3.8V270h-3.1L222.9,268.7z M222.5,266.3v-14.8c-1.6-0.6-3.6-1.1-5.1-1.1c-4.5,0-6,3.5-6,8.7c0,5.8,2,8.5,6,8.5
		C218.9,267.6,220.9,267,222.5,266.3z"/>
	<path class="st2" d="M240.5,270.7c-6.9,0-10.1-4.4-10.1-11.7c0-7.4,3.2-11.7,10.1-11.7c6.9,0,10.1,4.4,10.1,11.7
		C250.6,266.3,247.4,270.7,240.5,270.7z M240.5,250.3c-4.5,0-6.2,3-6.2,8.7c0,5.7,1.6,8.7,6.2,8.7c4.5,0,6.2-3,6.2-8.7
		C246.7,253.2,245.1,250.3,240.5,250.3z"/>
	<path class="st2" d="M264.4,242.6c1.1-0.4,2.6-0.7,3.8-0.7v5.9h5.8v2.8h-5.8v12.3c0,2.1,0.1,3.2,0.8,3.9c0.5,0.5,1.3,0.9,2.9,0.9
		c0.8,0,2.3-0.1,3.4-0.4l0.2,2.8c-1.2,0.3-2.9,0.6-4.6,0.6c-2.2,0-3.9-0.6-4.9-1.7c-1.1-1.3-1.4-2.8-1.4-5.5v-12.8h-4v-2.1l4-0.6
		v-5.4H264.4z"/>
	<path class="st2" d="M292,268.5c-1.9,1.3-4.3,2.1-7,2.1c-2.4,0-4.4-0.7-5.8-2.1c-1.1-1.1-1.8-2.7-1.8-4.8c0-2.1,0.7-3.7,1.9-4.8
		c1.7-1.5,4.3-2.1,7.5-2.1h4.6v-1.4c0-1.8-0.3-2.9-1.1-3.8c-1-0.9-2.4-1.3-4.6-1.3c-1.7,0-3.8,0.2-6,0.5l-0.1-2.9
		c2.1-0.5,4.6-0.8,6.8-0.8c3.3,0,5.5,0.7,6.9,2c1.4,1.4,2,3.1,2,6V270h-3L292,268.5z M291.5,259.5h-4.1c-2.3,0-3.9,0.3-4.9,1.1
		c-0.8,0.6-1.2,1.6-1.2,2.9c0,2.7,1.7,4,4.6,4c1.8,0,4-0.6,5.7-1.5v-6.5H291.5z"/>
	<path class="st2" d="M303.6,247.8l0.2,1.9c2.1-1.8,4.4-2.5,6.3-2.5c0.4,0,1,0,1.5,0.1v3.4c-0.5,0-1.3-0.1-2-0.1
		c-1.9,0-3.8,0.5-5.4,1.5v18h-3.8v-22.2L303.6,247.8L303.6,247.8z"/>
	<path class="st2" d="M318.5,247.8v22.3c0,4.3-0.6,6.5-2.3,8.3c-1.5,1.6-4,2.3-7.5,2.3l-0.4-3c2.5,0,4.2-0.5,5.2-1.6
		s1.3-2.7,1.3-5.3v-22.9L318.5,247.8L318.5,247.8z M316.5,243.6c-1.4,0-2.2-0.7-2.2-2.4v-0.1c0-1.7,0.9-2.4,2.2-2.4h0.2
		c1.4,0,2.2,0.7,2.2,2.4v0.1c0,1.7-0.9,2.4-2.2,2.4H316.5z"/>
	<path class="st2" d="M340.2,269.8c-1.9,0.5-4.5,0.9-6.6,0.9c-3.4,0-6.1-0.9-7.9-2.7c-2-2-2.9-5-2.9-9c0-7.9,3.9-11.8,9.6-11.8
		c6.2,0,9.2,4.4,9.2,11.7v0.9c0,0.4-0.2,0.5-0.5,0.5h-14.3c0,2.4,0.6,4.4,1.9,5.7c1.2,1.1,2.9,1.7,5.7,1.7c1.6,0,3.8-0.2,5.5-0.6
		L340.2,269.8z M337.9,257.5c-0.1-4.3-1.8-7.3-5.5-7.3c-3.8,0-5.6,2.8-5.7,7.3H337.9z"/>
	<path class="st2" d="M347.3,242.6c1.1-0.4,2.6-0.7,3.8-0.7v5.9h5.8v2.8H351v12.3c0,2.1,0.1,3.2,0.8,3.9c0.5,0.5,1.3,0.9,2.9,0.9
		c0.8,0,2.3-0.1,3.4-0.4l0.2,2.8c-1.2,0.3-2.9,0.6-4.6,0.6c-2.2,0-3.9-0.6-4.9-1.7c-1.1-1.3-1.4-2.8-1.4-5.5v-12.8h-4v-2.1l4-0.6
		v-5.4H347.3z"/>
	<path class="st2" d="M374.8,268.5c-1.9,1.3-4.3,2.1-7,2.1c-2.4,0-4.4-0.7-5.8-2.1c-1.1-1.1-1.8-2.7-1.8-4.8c0-2.1,0.7-3.7,1.9-4.8
		c1.7-1.5,4.3-2.1,7.5-2.1h4.6v-1.4c0-1.8-0.3-2.9-1.1-3.8c-1-0.9-2.4-1.3-4.6-1.3c-1.7,0-3.8,0.2-6,0.5l-0.1-2.9
		c2.1-0.5,4.6-0.8,6.8-0.8c3.3,0,5.5,0.7,6.9,2c1.4,1.4,1.9,3.1,1.9,6V270h-3L374.8,268.5z M374.3,259.5h-4.1
		c-2.3,0-3.9,0.3-4.9,1.1c-0.8,0.6-1.2,1.6-1.2,2.9c0,2.7,1.7,4,4.6,4c1.8,0,4-0.6,5.7-1.5v-6.5H374.3z"/>
	<path class="st2" d="M391.8,266.1c2.4,0.7,5.3,1.2,7.8,1.2s4.3-0.5,5.5-1.4c1.1-0.9,1.7-2.1,1.7-3.8c0-7.8-15.9-4.8-15.9-15.4
		c0-5.5,4.1-8.3,10.3-8.3c2.7,0,5.5,0.5,7.6,1.2l-0.6,3.1c-2.3-0.6-4.7-0.9-6.7-0.9c-4.2,0-6.8,1.4-6.8,4.7c0,7.1,16,4.7,16,15.3
		c0,2.7-0.9,4.9-2.4,6.3c-1.9,1.8-4.6,2.6-8.2,2.6c-2.9,0-6.4-0.5-8.8-1.5L391.8,266.1z"/>
	<path class="st2" d="M416,239h4v31h-4V239z"/>
	<path class="st2" d="M441,259.4l10.9-20.4h3.4v31h-3.8v-23.1l-9,16.5h-3.4l-8.9-16.7V270h-3.6v-31h3.5L441,259.4z"/>
</g>
</svg>
