<?xml version="1.0" encoding="utf-8"?>
<!-- Generator: Adobe Illustrator 22.1.0, SVG Export Plug-In . SVG Version: 6.00 Build 0)  -->
<svg version="1.1" id="Capa_1" xmlns="http://www.w3.org/2000/svg" xmlns:xlink="http://www.w3.org/1999/xlink" x="0px" y="0px"
	 viewBox="0 0 513 270" style="enable-background:new 0 0 513 270;" xml:space="preserve">
<style type="text/css">
	.st0{fill:#00ABE3;}
	.st1{clip-path:url(#SVGID_1_);fill:#E9426D;}
</style>
<path class="st0" d="M258.8,4.5c7.6-2.2,15.5-3.4,23.4-3.5c35.5-0.6,69.1,19.1,89.8,51.3c2.9,4.5,8,7.5,13.8,7.5
	c0.5,0,0.9,0,1.6-0.1c1.7-0.2,3.2-0.2,4.8-0.2c20.6-0.4,39.4,6.7,53.1,19.9c14.6,14.2,22.2,33.7,21.8,55.1c0,7.4,4.6,13.4,11.3,15.5
	c18.8,7,31.7,21.4,33.9,39.3c2.4,19.5-8.8,38.6-29.4,50c-0.3,0.2-0.7,0.4-1.1,0.6c-34.5,17.7-95,28.9-161.8,30
	c-43.3,0.8-85.7-2.9-119.4-10.4l-0.5-0.1c-0.2,0-1.4-0.3-1.5-0.3c-50.7-11.5-84.6-55.7-75.5-98.6c5.6-26.7,26.4-47.6,54.8-56.7
	c5.9-1.9,10.2-7,11.3-13.1C194.7,49.2,221.5,15.2,258.8,4.5z"/>
<g>
	<defs>
		<rect id="SVGID_3_" x="1" y="49.5" width="152" height="152.7"/>
	</defs>
	<clipPath id="SVGID_1_">
		<use xlink:href="#SVGID_3_"  style="overflow:visible;"/>
	</clipPath>
	<path class="st1" d="M1,125.8c0-52.1,27.9-76.3,76-76.3c48.1,0,76,24.2,76,76.3c0,52.1-27.9,76.3-76,76.3
		C28.9,202.2,1,177.9,1,125.8"/>
</g>
</svg>
