<?xml version="1.0" encoding="utf-8"?>
<!-- Generator: Adobe Illustrator 22.0.1, SVG Export Plug-In . SVG Version: 6.00 Build 0)  -->
<svg version="1.1" id="Capa_1" xmlns="http://www.w3.org/2000/svg" xmlns:xlink="http://www.w3.org/1999/xlink" x="0px" y="0px"
	 viewBox="0 0 565.8 300" style="enable-background:new 0 0 565.8 300;" xml:space="preserve">
<style type="text/css">
	.st0{fill:#00ABE3;}
	.st1{fill:none;stroke:#E6E6E6;stroke-miterlimit:10;}
	.st2{fill:#FFFFFF;stroke:#00ABE3;stroke-miterlimit:10;}
	.st3{fill:none;stroke:#00ABE3;stroke-width:2;stroke-miterlimit:10;}
	.st4{fill:#999999;}
	.st5{fill:#63E2F4;}
</style>
<g>
	<path class="st0" d="M770.5,405h0.9l2.7,8.2h-0.8l-0.7-2.2h-3.3l-0.7,2.2H768L770.5,405z M772.5,410.4l-1.5-4.6l-1.4,4.6H772.5z"/>
	<path class="st0" d="M775.5,405h0.5l4.7,6.9V405h0.6v8.2h-0.5l-4.7-6.8v6.8h-0.6V405z M778.9,403.7c-0.1,0-0.3-0.1-0.4-0.2
		c-0.1-0.1-0.2-0.1-0.4-0.1s-0.2-0.1-0.3-0.1c-0.1,0-0.2,0-0.3,0.1s-0.1,0.2-0.2,0.4l-0.4-0.1c0-0.3,0.1-0.6,0.3-0.8
		c0.2-0.2,0.4-0.3,0.6-0.3c0.1,0,0.3,0,0.4,0.1s0.3,0.1,0.5,0.2c0.2,0.1,0.3,0.1,0.4,0.2c0.1,0,0.2,0.1,0.3,0.1c0.1,0,0.2,0,0.3-0.1
		s0.1-0.2,0.2-0.4l0.4,0.1c0,0.3-0.1,0.6-0.3,0.8c-0.2,0.2-0.4,0.3-0.6,0.3C779.2,403.7,779,403.7,778.9,403.7z"/>
	<path class="st0" d="M783.9,412.3c-0.5-0.7-0.8-1.8-0.8-3.2s0.3-2.5,0.8-3.2c0.5-0.7,1.3-1.1,2.3-1.1s1.8,0.4,2.3,1.1
		c0.5,0.7,0.8,1.8,0.8,3.2s-0.3,2.5-0.8,3.2c-0.5,0.7-1.3,1.1-2.3,1.1S784.4,413,783.9,412.3z M788.1,411.8c0.4-0.6,0.6-1.5,0.6-2.7
		s-0.2-2.1-0.6-2.7s-1-0.9-1.8-0.9s-1.5,0.3-1.8,0.9c-0.4,0.6-0.6,1.5-0.6,2.7s0.2,2.1,0.6,2.7c0.4,0.6,1,0.9,1.8,0.9
		S787.7,412.4,788.1,411.8z"/>
	<path class="st0" d="M790.8,413l0.1-0.6c0.7,0.2,1.3,0.3,2,0.3c0.4,0,0.7,0,1-0.1c0.3-0.1,0.5-0.2,0.6-0.3c0.3-0.3,0.5-0.7,0.5-1.2
		c0-0.3-0.1-0.6-0.3-0.8s-0.4-0.4-0.6-0.6s-0.6-0.3-1.1-0.5c-0.5-0.2-0.9-0.4-1.2-0.6c-0.3-0.2-0.6-0.4-0.8-0.7
		c-0.2-0.3-0.3-0.6-0.3-1.1c0-0.6,0.2-1.1,0.5-1.4c0.4-0.4,1.1-0.7,2-0.7c0.7,0,1.3,0.1,1.9,0.3l-0.1,0.6c-0.6-0.2-1.1-0.2-1.7-0.2
		c-1.3,0-1.9,0.5-1.9,1.4c0,0.3,0.1,0.6,0.3,0.8s0.4,0.4,0.6,0.5c0.2,0.1,0.6,0.3,1,0.5c0.5,0.2,0.9,0.4,1.2,0.6
		c0.3,0.2,0.6,0.4,0.8,0.7c0.2,0.3,0.3,0.7,0.3,1.1c0,0.7-0.2,1.3-0.7,1.7c-0.5,0.4-1.1,0.6-2,0.6
		C792.2,413.4,791.5,413.3,790.8,413z"/>
</g>
<line class="st1" x1="56.9" y1="25.7" x2="530" y2="25.7"/>
<line class="st1" x1="56.9" y1="47.9" x2="530" y2="47.9"/>
<line class="st1" x1="56.9" y1="69.3" x2="530" y2="69.3"/>
<line class="st1" x1="56.9" y1="91.5" x2="530" y2="91.5"/>
<line class="st1" x1="56.9" y1="112.9" x2="530" y2="112.9"/>
<line class="st1" x1="56.9" y1="135.1" x2="530" y2="135.1"/>
<line class="st1" x1="56.9" y1="157.4" x2="530" y2="157.4"/>
<line class="st1" x1="56.9" y1="178.7" x2="530" y2="178.7"/>
<line class="st1" x1="56.9" y1="222.3" x2="530" y2="222.3"/>
<line class="st1" x1="56.9" y1="201" x2="530" y2="201"/>
<line class="st1" x1="56.9" y1="244.6" x2="510.5" y2="244.6"/>
<rect x="69.4" y="2.5" class="st2" width="84.4" height="82.5"/>
<polyline class="st3" points="50.4,25.2 50.4,252.5 529,252.5 "/>
<g>
	<path class="st4" d="M16.9,29.4c0-0.1,0-0.2,0.1-0.4c0.1-0.1,0.2-0.3,0.4-0.5l1.9-2.3c0.5-0.6,0.8-1,1-1.4c0.2-0.4,0.3-0.7,0.3-1.1
		c0-0.4-0.1-0.7-0.3-1c-0.3-0.3-0.8-0.4-1.5-0.4c-0.5,0-1,0.1-1.6,0.2v-0.5c0.2-0.1,0.5-0.1,0.8-0.2c0.3,0,0.6-0.1,0.9-0.1
		c0.8,0,1.4,0.2,1.8,0.5c0.2,0.2,0.3,0.4,0.4,0.6c0.1,0.2,0.1,0.5,0.1,0.7c0,0.3,0,0.6-0.1,0.9s-0.2,0.5-0.4,0.8
		c-0.2,0.3-0.5,0.7-0.9,1.1l-2,2.4h3.6v0.6h-4.3C16.9,29.6,16.9,29.5,16.9,29.4z"/>
	<path class="st4" d="M23.1,28.8c-0.4-0.7-0.6-1.7-0.6-2.9c0-1.3,0.2-2.3,0.6-3c0.4-0.7,1-1,1.9-1s1.5,0.3,1.9,1
		c0.4,0.7,0.6,1.7,0.6,3c0,1.3-0.2,2.3-0.6,2.9c-0.4,0.7-1,1-1.9,1S23.5,29.4,23.1,28.8z M26.5,28.3c0.3-0.5,0.4-1.4,0.4-2.5
		s-0.1-2-0.4-2.5s-0.7-0.8-1.4-0.8s-1.1,0.3-1.4,0.8s-0.4,1.4-0.4,2.5s0.1,2,0.4,2.5s0.7,0.8,1.4,0.8S26.2,28.9,26.5,28.3z"/>
	<path class="st4" d="M31.2,22h0.7v4.2l3.4-4.2H36l-2.5,3.1l2.7,4.5h-0.7l-2.4-4l-1.2,1.4v2.5h-0.7V22z"/>
	<path class="st4" d="M30.5,51.1h0.8v-3.9h-0.7V47c0.3,0,0.5-0.1,0.8-0.1c0.1,0,0.2,0,0.3,0.1c0,0,0.1,0.1,0.1,0.2v3.9h0.7v0.3h-1.8
		V51.1z"/>
	<path class="st4" d="M34.1,51.4c-0.2-0.1-0.4-0.2-0.5-0.4c-0.1-0.2-0.2-0.4-0.2-0.6c0-0.3,0.1-0.5,0.3-0.8s0.4-0.4,0.7-0.5
		c-0.2-0.1-0.4-0.3-0.5-0.4s-0.2-0.4-0.2-0.6c0-0.2,0-0.4,0.1-0.6s0.2-0.3,0.4-0.4c0.2-0.1,0.4-0.1,0.6-0.1s0.4,0,0.6,0.1
		c0.2,0.1,0.3,0.2,0.4,0.4c0.1,0.2,0.1,0.3,0.1,0.5c0,0.3-0.1,0.5-0.2,0.7c-0.1,0.2-0.4,0.3-0.6,0.5c0.3,0.2,0.6,0.3,0.8,0.5
		c0.2,0.2,0.3,0.4,0.3,0.7c0,0.2-0.1,0.5-0.2,0.6c-0.1,0.2-0.3,0.3-0.5,0.4c-0.2,0.1-0.5,0.1-0.7,0.1C34.5,51.5,34.3,51.5,34.1,51.4
		z M35.5,51c0.2-0.1,0.3-0.4,0.3-0.6c0-0.2-0.1-0.4-0.2-0.5c-0.1-0.1-0.2-0.2-0.4-0.3s-0.3-0.2-0.6-0.3c-0.3,0.1-0.5,0.3-0.7,0.5
		c-0.2,0.2-0.2,0.4-0.2,0.7c0,0.3,0.1,0.5,0.3,0.6c0.2,0.2,0.4,0.2,0.7,0.2C35.1,51.2,35.4,51.1,35.5,51z M35.4,48.5
		c0.1-0.2,0.2-0.3,0.2-0.5c0-0.2-0.1-0.4-0.2-0.5c-0.2-0.1-0.4-0.2-0.6-0.2c-0.3,0-0.5,0.1-0.6,0.2C34,47.6,34,47.7,34,48
		c0,0.2,0.1,0.4,0.2,0.5s0.4,0.3,0.6,0.4C35.1,48.8,35.3,48.6,35.4,48.5z"/>
	<path class="st4" d="M30.5,72.9h0.8V69h-0.7v-0.3c0.3,0,0.5-0.1,0.8-0.1c0.1,0,0.2,0,0.3,0.1c0,0,0.1,0.1,0.1,0.2v3.9h0.7v0.3h-1.8
		V72.9z"/>
	<path class="st4" d="M33.8,72.8c-0.2-0.4-0.3-0.9-0.3-1.5c0-1,0.2-1.8,0.5-2.1c0.2-0.3,0.6-0.4,1.1-0.4c0.1,0,0.2,0,0.3,0
		c0.1,0,0.2,0,0.3,0.1v0.3c-0.2,0-0.4,0-0.6,0c-0.2,0-0.4,0-0.5,0.1s-0.2,0.1-0.3,0.2c-0.1,0.1-0.2,0.3-0.3,0.6
		c-0.1,0.2-0.1,0.5-0.1,0.9c0.2-0.1,0.3-0.1,0.5-0.2c0.2,0,0.4-0.1,0.5-0.1c0.4,0,0.7,0.1,0.9,0.3c0.2,0.2,0.3,0.5,0.3,1
		c0,0.5-0.1,0.8-0.3,1.1c-0.2,0.3-0.6,0.4-1,0.4C34.4,73.3,34,73.1,33.8,72.8z M35.6,72.7c0.2-0.2,0.2-0.5,0.2-0.8
		c0-0.4-0.1-0.6-0.2-0.8s-0.4-0.2-0.7-0.2c-0.1,0-0.3,0-0.5,0c-0.2,0-0.3,0.1-0.5,0.1v0.3c0,1.1,0.3,1.6,1,1.6
		C35.2,73,35.4,72.9,35.6,72.7z"/>
	<path class="st4" d="M30.5,94.7h0.8v-3.9h-0.7v-0.3c0.3,0,0.5-0.1,0.8-0.1c0.1,0,0.2,0,0.3,0.1c0,0,0.1,0.1,0.1,0.2v3.9h0.7V95
		h-1.8V94.7z"/>
	<path class="st4" d="M35.4,93.9h-2.1c0-0.1,0-0.1,0-0.1c0-0.1,0-0.1,0-0.2c0-0.1,0-0.1,0.1-0.3l0.9-2.7h0.4l-1,3h1.7v-1.1h0.4v1.1
		h0.5v0.3h-0.5V95h-0.4V93.9z"/>
	<path class="st4" d="M30.5,116.5h0.8v-3.9h-0.7v-0.3c0.3,0,0.5-0.1,0.8-0.1c0.1,0,0.2,0,0.3,0.1c0,0,0.1,0.1,0.1,0.2v3.9h0.7v0.3
		h-1.8V116.5z"/>
	<path class="st4" d="M33.5,116.7c0-0.1,0-0.1,0-0.2c0-0.1,0.1-0.2,0.2-0.3l1.1-1.3c0.3-0.3,0.5-0.6,0.6-0.8
		c0.1-0.2,0.2-0.4,0.2-0.6c0-0.2-0.1-0.4-0.2-0.6c-0.2-0.2-0.4-0.2-0.9-0.2c-0.3,0-0.6,0-0.9,0.1v-0.3c0.1,0,0.3-0.1,0.4-0.1
		c0.2,0,0.4,0,0.5,0c0.5,0,0.8,0.1,1.1,0.3c0.1,0.1,0.2,0.2,0.2,0.4s0.1,0.3,0.1,0.4c0,0.2,0,0.3-0.1,0.5c0,0.1-0.1,0.3-0.3,0.5
		c-0.1,0.2-0.3,0.4-0.5,0.7l-1.2,1.4H36v0.3h-2.5C33.5,116.8,33.5,116.7,33.5,116.7z"/>
	<path class="st4" d="M30.5,138.3h0.8v-3.9h-0.7v-0.3c0.3,0,0.5-0.1,0.8-0.1c0.1,0,0.2,0,0.3,0.1c0,0,0.1,0.1,0.1,0.2v3.9h0.7v0.3
		h-1.8V138.3z"/>
	<path class="st4" d="M33.7,138.1c-0.2-0.4-0.3-1-0.3-1.7c0-0.8,0.1-1.3,0.3-1.7c0.2-0.4,0.6-0.6,1.1-0.6s0.9,0.2,1.1,0.6
		c0.2,0.4,0.3,1,0.3,1.7c0,0.8-0.1,1.3-0.3,1.7c-0.2,0.4-0.6,0.6-1.1,0.6S33.9,138.5,33.7,138.1z M35.6,137.9
		c0.2-0.3,0.2-0.8,0.2-1.5s-0.1-1.2-0.2-1.5c-0.2-0.3-0.4-0.5-0.8-0.5c-0.4,0-0.7,0.2-0.8,0.5s-0.2,0.8-0.2,1.5s0.1,1.2,0.2,1.5
		c0.2,0.3,0.4,0.5,0.8,0.5C35.2,138.3,35.5,138.2,35.6,137.9z"/>
	<path class="st4" d="M34.1,160.3c-0.2-0.1-0.4-0.2-0.5-0.4c-0.1-0.2-0.2-0.4-0.2-0.6c0-0.3,0.1-0.5,0.3-0.8s0.4-0.4,0.7-0.5
		c-0.2-0.1-0.4-0.3-0.5-0.4s-0.2-0.4-0.2-0.6c0-0.2,0-0.4,0.1-0.6s0.2-0.3,0.4-0.4c0.2-0.1,0.4-0.1,0.6-0.1s0.4,0,0.6,0.1
		c0.2,0.1,0.3,0.2,0.4,0.4c0.1,0.2,0.1,0.3,0.1,0.5c0,0.3-0.1,0.5-0.2,0.7c-0.1,0.2-0.4,0.3-0.6,0.5c0.3,0.2,0.6,0.3,0.8,0.5
		c0.2,0.2,0.3,0.4,0.3,0.7c0,0.2-0.1,0.5-0.2,0.6c-0.1,0.2-0.3,0.3-0.5,0.4c-0.2,0.1-0.5,0.1-0.7,0.1
		C34.5,160.5,34.3,160.4,34.1,160.3z M35.5,159.9c0.2-0.1,0.3-0.4,0.3-0.6c0-0.2-0.1-0.4-0.2-0.5c-0.1-0.1-0.2-0.2-0.4-0.3
		s-0.3-0.2-0.6-0.3c-0.3,0.1-0.5,0.3-0.7,0.5c-0.2,0.2-0.2,0.4-0.2,0.7c0,0.3,0.1,0.5,0.3,0.6c0.2,0.2,0.4,0.2,0.7,0.2
		C35.1,160.2,35.4,160.1,35.5,159.9z M35.4,157.5c0.1-0.2,0.2-0.3,0.2-0.5c0-0.2-0.1-0.4-0.2-0.5c-0.2-0.1-0.4-0.2-0.6-0.2
		c-0.3,0-0.5,0.1-0.6,0.2c-0.2,0.1-0.2,0.3-0.2,0.5c0,0.2,0.1,0.4,0.2,0.5s0.4,0.3,0.6,0.4C35.1,157.8,35.3,157.6,35.4,157.5z"/>
	<path class="st4" d="M33.8,181.7c-0.2-0.4-0.3-0.9-0.3-1.5c0-1,0.2-1.8,0.5-2.1c0.2-0.3,0.6-0.4,1.1-0.4c0.1,0,0.2,0,0.3,0
		c0.1,0,0.2,0,0.3,0.1v0.3c-0.2,0-0.4,0-0.6,0c-0.2,0-0.4,0-0.5,0.1s-0.2,0.1-0.3,0.2c-0.1,0.1-0.2,0.3-0.3,0.6
		c-0.1,0.2-0.1,0.5-0.1,0.9c0.2-0.1,0.3-0.1,0.5-0.2c0.2,0,0.4-0.1,0.5-0.1c0.4,0,0.7,0.1,0.9,0.3c0.2,0.2,0.3,0.5,0.3,1
		c0,0.5-0.1,0.8-0.3,1.1c-0.2,0.3-0.6,0.4-1,0.4C34.4,182.3,34,182.1,33.8,181.7z M35.6,181.7c0.2-0.2,0.2-0.5,0.2-0.8
		c0-0.4-0.1-0.6-0.2-0.8s-0.4-0.2-0.7-0.2c-0.1,0-0.3,0-0.5,0c-0.2,0-0.3,0.1-0.5,0.1v0.3c0,1.1,0.3,1.6,1,1.6
		C35.2,182,35.4,181.9,35.6,181.7z"/>
	<path class="st4" d="M35.4,202.9h-2.1c0-0.1,0-0.1,0-0.1c0-0.1,0-0.1,0-0.2c0-0.1,0-0.1,0.1-0.3l0.9-2.7h0.4l-1,3h1.7v-1.1h0.4v1.1
		h0.5v0.3h-0.5v1.1h-0.4V202.9z"/>
	<path class="st4" d="M33.5,225.7c0-0.1,0-0.1,0-0.2c0-0.1,0.1-0.2,0.2-0.3l1.1-1.3c0.3-0.3,0.5-0.6,0.6-0.8
		c0.1-0.2,0.2-0.4,0.2-0.6c0-0.2-0.1-0.4-0.2-0.6c-0.2-0.2-0.4-0.2-0.9-0.2c-0.3,0-0.6,0-0.9,0.1v-0.3c0.1,0,0.3-0.1,0.4-0.1
		c0.2,0,0.4,0,0.5,0c0.5,0,0.8,0.1,1.1,0.3c0.1,0.1,0.2,0.2,0.2,0.4s0.1,0.3,0.1,0.4c0,0.2,0,0.3-0.1,0.5c0,0.1-0.1,0.3-0.3,0.5
		c-0.1,0.2-0.3,0.4-0.5,0.7l-1.2,1.4H36v0.3h-2.5C33.5,225.7,33.5,225.7,33.5,225.7z"/>
	<path class="st4" d="M31.7,246.7c-0.4-0.7-0.6-1.7-0.6-2.9c0-1.3,0.2-2.3,0.6-3c0.4-0.7,1-1,1.9-1s1.5,0.3,1.9,1
		c0.4,0.7,0.6,1.7,0.6,3c0,1.3-0.2,2.3-0.6,2.9c-0.4,0.7-1,1-1.9,1S32.1,247.4,31.7,246.7z M35,246.3c0.3-0.5,0.4-1.4,0.4-2.5
		s-0.1-2-0.4-2.5s-0.7-0.8-1.4-0.8s-1.1,0.3-1.4,0.8c-0.3,0.5-0.4,1.4-0.4,2.5s0.1,2,0.4,2.5c0.3,0.5,0.7,0.8,1.4,0.8
		S34.7,246.9,35,246.3z"/>
</g>
<g>
	<path class="st4" d="M61,265.6h0.7l2.1,6.3h-0.6l-0.6-1.7h-2.6l-0.5,1.7H59L61,265.6z M62.5,269.7l-1.2-3.6l-1.1,3.6H62.5z"/>
	<path class="st4" d="M65,271.5c-0.4-0.4-0.5-1-0.5-1.8c0-0.8,0.2-1.4,0.5-1.8s0.9-0.6,1.6-0.6c0.4,0,0.7,0.1,1.1,0.2l0,0.4
		c-0.4-0.1-0.7-0.1-0.9-0.1c-0.6,0-1,0.2-1.3,0.5c-0.2,0.3-0.4,0.8-0.4,1.5c0,0.7,0.1,1.2,0.4,1.5c0.3,0.3,0.7,0.5,1.3,0.5
		c0.1,0,0.3,0,0.4,0s0.3,0,0.4-0.1l0,0.4c-0.3,0.1-0.7,0.1-1,0.1C65.9,272.1,65.4,271.9,65,271.5z"/>
	<path class="st4" d="M69,271.5c-0.4-0.4-0.5-1-0.5-1.8c0-0.8,0.2-1.4,0.5-1.8s0.9-0.6,1.6-0.6c0.4,0,0.7,0.1,1.1,0.2l0,0.4
		c-0.4-0.1-0.7-0.1-0.9-0.1c-0.6,0-1,0.2-1.3,0.5c-0.2,0.3-0.4,0.8-0.4,1.5c0,0.7,0.1,1.2,0.4,1.5c0.3,0.3,0.7,0.5,1.3,0.5
		c0.1,0,0.3,0,0.4,0s0.3,0,0.4-0.1l0,0.4c-0.3,0.1-0.7,0.1-1,0.1C69.9,272.1,69.3,271.9,69,271.5z"/>
	<path class="st4" d="M72.9,271.4c-0.3-0.4-0.5-1-0.5-1.8c0-0.7,0.2-1.3,0.5-1.8c0.3-0.4,0.8-0.6,1.4-0.6c1.2,0,1.8,0.8,1.8,2.4v0.1
		c0,0,0,0.1,0,0.1c0,0,0,0-0.1,0h-3c0,0.6,0.1,1,0.4,1.3c0.3,0.3,0.7,0.4,1.2,0.4c0.4,0,0.7,0,1.1-0.1l0,0.4c-0.2,0-0.3,0.1-0.6,0.1
		s-0.5,0-0.6,0C73.8,272.1,73.3,271.9,72.9,271.4z M75.5,269.4c0-0.5-0.1-1-0.3-1.3c-0.2-0.3-0.5-0.5-1-0.5s-0.7,0.2-1,0.5
		c-0.2,0.3-0.3,0.7-0.3,1.3H75.5z"/>
	<path class="st4" d="M77.6,272c-0.2,0-0.4-0.1-0.6-0.1l0-0.4c0.4,0.1,0.8,0.1,1.2,0.1c0.4,0,0.7-0.1,0.9-0.2
		c0.2-0.1,0.3-0.3,0.3-0.6c0-0.2-0.1-0.3-0.2-0.5s-0.2-0.2-0.4-0.3c-0.1-0.1-0.4-0.1-0.6-0.2c-0.3-0.1-0.6-0.2-0.7-0.3
		c-0.2-0.1-0.3-0.2-0.5-0.4c-0.1-0.2-0.2-0.4-0.2-0.7c0-0.4,0.1-0.7,0.4-1s0.7-0.3,1.2-0.3c0.2,0,0.4,0,0.6,0s0.4,0.1,0.5,0.1l0,0.4
		c-0.4-0.1-0.8-0.1-1.1-0.1c-0.4,0-0.7,0.1-0.9,0.2c-0.2,0.1-0.3,0.3-0.3,0.6c0,0.2,0,0.3,0.1,0.4c0.1,0.1,0.2,0.2,0.4,0.3
		c0.1,0.1,0.3,0.1,0.6,0.2c0.3,0.1,0.6,0.2,0.7,0.3c0.2,0.1,0.3,0.2,0.5,0.4c0.1,0.2,0.2,0.4,0.2,0.7c0,0.4-0.1,0.7-0.4,1
		c-0.3,0.2-0.7,0.3-1.3,0.3C78.1,272.1,77.9,272,77.6,272z"/>
	<path class="st4" d="M80.9,269.7c0-1.6,0.7-2.4,2-2.4s2,0.8,2,2.4c0,1.6-0.7,2.4-2,2.4S80.9,271.3,80.9,269.7z M83.9,271.1
		c0.2-0.3,0.3-0.8,0.3-1.5c0-0.6-0.1-1.1-0.3-1.5c-0.2-0.3-0.6-0.5-1.1-0.5c-0.5,0-0.9,0.2-1.1,0.5c-0.2,0.3-0.3,0.8-0.3,1.5
		c0,0.6,0.1,1.1,0.3,1.5c0.2,0.3,0.6,0.5,1.1,0.5C83.3,271.6,83.7,271.4,83.9,271.1z"/>
	<path class="st4" d="M88.1,271.4c-0.3-0.4-0.5-1-0.5-1.8c0-0.7,0.2-1.3,0.5-1.8c0.3-0.4,0.8-0.6,1.4-0.6c1.2,0,1.8,0.8,1.8,2.4v0.1
		c0,0,0,0.1,0,0.1c0,0,0,0-0.1,0h-3c0,0.6,0.1,1,0.4,1.3c0.3,0.3,0.7,0.4,1.2,0.4c0.4,0,0.7,0,1.1-0.1l0,0.4c-0.2,0-0.3,0.1-0.6,0.1
		s-0.5,0-0.6,0C89,272.1,88.4,271.9,88.1,271.4z M90.7,269.4c0-0.5-0.1-1-0.3-1.3c-0.2-0.3-0.5-0.5-1-0.5s-0.7,0.2-1,0.5
		c-0.2,0.3-0.3,0.7-0.3,1.3H90.7z"/>
	<path class="st4" d="M59.4,277.2L59.4,277.2c0-0.3,0.1-0.4,0.3-0.4h0c0.2,0,0.3,0.1,0.3,0.4v0c0,0.2-0.1,0.4-0.3,0.4h0
		C59.5,277.6,59.4,277.5,59.4,277.2z M59.5,278.5H60v4.5h-0.5V278.5z"/>
	<path class="st4" d="M61.4,278.5h0.4l0,0.3c0.5-0.3,1.1-0.5,1.6-0.5c0.2,0,0.5,0,0.7,0.1c0.2,0.1,0.4,0.2,0.5,0.3
		c0.1,0.1,0.2,0.3,0.3,0.5c0.1,0.2,0.1,0.4,0.1,0.7v3.1h-0.5v-3c0-0.2,0-0.4-0.1-0.6c0-0.1-0.1-0.3-0.2-0.3
		c-0.2-0.2-0.4-0.3-0.8-0.3c-0.2,0-0.5,0-0.7,0.1c-0.3,0.1-0.5,0.2-0.7,0.3v3.8h-0.5V278.5z"/>
	<path class="st4" d="M66.9,282.9c-0.1-0.1-0.2-0.2-0.2-0.4c0-0.2-0.1-0.4-0.1-0.6v-2.9h-0.8v-0.3l0.8-0.1v-1
		c0.2-0.1,0.4-0.1,0.5-0.1v1.2h1.2v0.4h-1.2v2.7c0,0.2,0,0.4,0,0.5c0,0.1,0.1,0.2,0.1,0.3c0.1,0.1,0.3,0.2,0.6,0.2
		c0.2,0,0.4,0,0.7-0.1l0,0.4c-0.2,0.1-0.5,0.1-0.8,0.1C67.4,283.2,67.1,283.1,66.9,282.9z"/>
	<path class="st4" d="M69.8,282.6c-0.3-0.4-0.5-1-0.5-1.8c0-0.7,0.2-1.3,0.5-1.8c0.3-0.4,0.8-0.6,1.4-0.6c1.2,0,1.8,0.8,1.8,2.4v0.1
		c0,0,0,0.1,0,0.1c0,0,0,0-0.1,0h-3c0,0.6,0.1,1,0.4,1.3c0.3,0.3,0.7,0.4,1.2,0.4c0.4,0,0.7,0,1.1-0.1l0,0.4c-0.2,0-0.3,0.1-0.6,0.1
		s-0.5,0-0.6,0C70.7,283.2,70.2,283,69.8,282.6z M72.4,280.6c0-0.5-0.1-1-0.3-1.3c-0.2-0.3-0.5-0.5-1-0.5s-0.7,0.2-1,0.5
		c-0.2,0.3-0.3,0.7-0.3,1.3H72.4z"/>
	<path class="st4" d="M74.1,278.5h0.4l0,0.4c0.2-0.2,0.4-0.3,0.7-0.4c0.2-0.1,0.5-0.1,0.7-0.1c0.1,0,0.2,0,0.2,0v0.5
		c-0.1,0-0.2,0-0.3,0c-0.4,0-0.8,0.1-1.2,0.4v3.8h-0.5V278.5z"/>
	<path class="st4" d="M77.2,282.6c-0.4-0.4-0.5-1-0.5-1.8c0-0.8,0.2-1.4,0.5-1.8s0.9-0.6,1.6-0.6c0.4,0,0.7,0.1,1.1,0.2l0,0.4
		c-0.4-0.1-0.7-0.1-0.9-0.1c-0.6,0-1,0.2-1.3,0.5c-0.2,0.3-0.4,0.8-0.4,1.5c0,0.7,0.1,1.2,0.4,1.5c0.3,0.3,0.7,0.5,1.3,0.5
		c0.1,0,0.3,0,0.4,0s0.3,0,0.4-0.1l0,0.4c-0.3,0.1-0.7,0.1-1,0.1C78.1,283.2,77.5,283,77.2,282.6z"/>
	<path class="st4" d="M81.1,282.6c-0.3-0.4-0.5-1-0.5-1.8c0-0.7,0.2-1.3,0.5-1.8c0.3-0.4,0.8-0.6,1.4-0.6c1.2,0,1.8,0.8,1.8,2.4v0.1
		c0,0,0,0.1,0,0.1c0,0,0,0-0.1,0h-3c0,0.6,0.1,1,0.4,1.3c0.3,0.3,0.7,0.4,1.2,0.4c0.4,0,0.7,0,1.1-0.1l0,0.4c-0.2,0-0.3,0.1-0.6,0.1
		s-0.5,0-0.6,0C82,283.2,81.5,283,81.1,282.6z M83.7,280.6c0-0.5-0.1-1-0.3-1.3c-0.2-0.3-0.5-0.5-1-0.5s-0.7,0.2-1,0.5
		c-0.2,0.3-0.3,0.7-0.3,1.3H83.7z"/>
	<path class="st4" d="M85.4,278.5h0.4l0,0.3c0.2-0.1,0.4-0.2,0.7-0.3c0.3-0.1,0.5-0.1,0.7-0.1c0.6,0,1,0.2,1.3,0.6s0.4,1,0.4,1.8
		c0,0.9-0.2,1.5-0.6,2c-0.3,0.3-0.7,0.5-1.2,0.5c-0.2,0-0.5,0-0.7-0.1c-0.2-0.1-0.4-0.2-0.6-0.3v2.3h-0.5V278.5z M87.8,282.6
		c0.2-0.1,0.3-0.2,0.4-0.4c0.2-0.3,0.3-0.8,0.3-1.5c0-0.7-0.1-1.2-0.3-1.5c-0.2-0.3-0.5-0.4-0.9-0.4c-0.2,0-0.4,0-0.6,0.1
		c-0.2,0.1-0.4,0.2-0.6,0.3v3.1c0.2,0.1,0.3,0.2,0.6,0.3c0.2,0.1,0.4,0.1,0.7,0.1C87.4,282.7,87.6,282.7,87.8,282.6z"/>
	<path class="st4" d="M90.8,282.9c-0.1-0.1-0.2-0.2-0.2-0.4c0-0.2-0.1-0.4-0.1-0.6v-2.9h-0.8v-0.3l0.8-0.1v-1
		c0.2-0.1,0.4-0.1,0.5-0.1v1.2h1.2v0.4H91v2.7c0,0.2,0,0.4,0,0.5c0,0.1,0.1,0.2,0.1,0.3c0.1,0.1,0.3,0.2,0.6,0.2
		c0.2,0,0.4,0,0.7-0.1l0,0.4c-0.2,0.1-0.5,0.1-0.8,0.1C91.3,283.2,91,283.1,90.8,282.9z"/>
	<path class="st4" d="M93.6,282.8c-0.3-0.2-0.4-0.6-0.4-1c0-0.4,0.1-0.7,0.4-1c0.2-0.1,0.3-0.3,0.6-0.3c0.2-0.1,0.5-0.1,0.9-0.1H96
		V280c0-0.4-0.1-0.7-0.3-0.9c-0.2-0.2-0.5-0.3-0.9-0.3c-0.4,0-0.8,0-1.3,0.1l0-0.4c0.5-0.1,0.9-0.2,1.4-0.2c0.6,0,1,0.1,1.3,0.4
		c0.2,0.3,0.4,0.7,0.4,1.2v3.1h-0.4l0-0.3c-0.2,0.1-0.5,0.2-0.7,0.3c-0.3,0.1-0.5,0.1-0.7,0.1C94.2,283.2,93.8,283.1,93.6,282.8z
		 M95.4,282.6c0.2-0.1,0.4-0.1,0.6-0.2v-1.5h-1c-0.3,0-0.5,0-0.7,0.1c-0.2,0-0.3,0.1-0.4,0.2c-0.2,0.1-0.3,0.4-0.3,0.7
		c0,0.3,0.1,0.6,0.3,0.7s0.5,0.2,0.8,0.2C95,282.7,95.2,282.7,95.4,282.6z"/>
	<path class="st4" d="M98.3,282.6c-0.4-0.4-0.5-1-0.5-1.8c0-0.8,0.2-1.4,0.5-1.8s0.9-0.6,1.6-0.6c0.4,0,0.7,0.1,1.1,0.2l0,0.4
		c-0.4-0.1-0.7-0.1-0.9-0.1c-0.6,0-1,0.2-1.3,0.5c-0.2,0.3-0.4,0.8-0.4,1.5c0,0.7,0.1,1.2,0.4,1.5c0.3,0.3,0.7,0.5,1.3,0.5
		c0.1,0,0.3,0,0.4,0s0.3,0,0.4-0.1l0,0.4c-0.3,0.1-0.7,0.1-1,0.1C99.2,283.2,98.6,283,98.3,282.6z"/>
	<path class="st4" d="M101.9,277.2L101.9,277.2c0-0.3,0.1-0.4,0.3-0.4h0c0.2,0,0.3,0.1,0.3,0.4v0c0,0.2-0.1,0.4-0.3,0.4h0
		C102,277.6,101.9,277.5,101.9,277.2z M102,278.5h0.5v4.5H102V278.5z"/>
	<path class="st4" d="M103.7,280.8c0-1.6,0.7-2.4,2-2.4s2,0.8,2,2.4s-0.7,2.4-2,2.4S103.7,282.4,103.7,280.8z M106.7,282.2
		c0.2-0.3,0.3-0.8,0.3-1.5s-0.1-1.1-0.3-1.5s-0.6-0.5-1.1-0.5c-0.5,0-0.9,0.2-1.1,0.5s-0.3,0.8-0.3,1.5s0.1,1.1,0.3,1.5
		c0.2,0.3,0.6,0.5,1.1,0.5C106.2,282.7,106.5,282.6,106.7,282.2z M104.7,277.5l1.6-1.5l0.4,0.5l-1.7,1.3L104.7,277.5z"/>
	<path class="st4" d="M108.8,278.5h0.4l0,0.3c0.5-0.3,1.1-0.5,1.6-0.5c0.2,0,0.5,0,0.7,0.1c0.2,0.1,0.4,0.2,0.5,0.3
		c0.1,0.1,0.2,0.3,0.3,0.5c0.1,0.2,0.1,0.4,0.1,0.7v3.1h-0.5v-3c0-0.2,0-0.4-0.1-0.6c0-0.1-0.1-0.3-0.2-0.3
		c-0.2-0.2-0.4-0.3-0.8-0.3c-0.2,0-0.5,0-0.7,0.1c-0.3,0.1-0.5,0.2-0.7,0.3v3.8h-0.5V278.5z"/>
	<path class="st4" d="M59.4,288.4L59.4,288.4c0-0.3,0.1-0.4,0.3-0.4h0c0.2,0,0.3,0.1,0.3,0.4v0c0,0.2-0.1,0.4-0.3,0.4h0
		C59.5,288.7,59.4,288.6,59.4,288.4z M59.5,289.6H60v4.5h-0.5V289.6z"/>
	<path class="st4" d="M61.4,287.6H62v6.6h-0.5V287.6z"/>
	<path class="st4" d="M62.7,288.6l1.6-1.5l0.4,0.5l-1.7,1.3L62.7,288.6z M63.4,289.6h0.5v4.5h-0.5V289.6z"/>
	<path class="st4" d="M65.6,293.7c-0.4-0.4-0.5-1-0.5-1.8c0-0.8,0.2-1.4,0.5-1.8s0.9-0.6,1.6-0.6c0.4,0,0.7,0.1,1.1,0.2l0,0.4
		c-0.4-0.1-0.7-0.1-0.9-0.1c-0.6,0-1,0.2-1.3,0.5c-0.2,0.3-0.4,0.8-0.4,1.5c0,0.7,0.1,1.2,0.4,1.5c0.3,0.3,0.7,0.5,1.3,0.5
		c0.1,0,0.3,0,0.4,0s0.3,0,0.4-0.1l0,0.4c-0.3,0.1-0.7,0.1-1,0.1C66.5,294.3,66,294.1,65.6,293.7z"/>
	<path class="st4" d="M69.3,288.4L69.3,288.4c0-0.3,0.1-0.4,0.3-0.4h0c0.2,0,0.3,0.1,0.3,0.4v0c0,0.2-0.1,0.4-0.3,0.4h0
		C69.4,288.7,69.3,288.6,69.3,288.4z M69.4,289.6h0.5v4.5h-0.5V289.6z"/>
	<path class="st4" d="M71.9,294c-0.1-0.1-0.2-0.2-0.2-0.4c0-0.2-0.1-0.4-0.1-0.6v-2.9h-0.8v-0.3l0.8-0.1v-1c0.2-0.1,0.4-0.1,0.5-0.1
		v1.2h1.2v0.4h-1.2v2.7c0,0.2,0,0.4,0,0.5c0,0.1,0.1,0.2,0.1,0.3c0.1,0.1,0.3,0.2,0.6,0.2c0.2,0,0.4,0,0.7-0.1l0,0.4
		c-0.2,0.1-0.5,0.1-0.8,0.1C72.4,294.3,72.1,294.2,71.9,294z"/>
	<path class="st4" d="M74.7,294c-0.3-0.2-0.4-0.6-0.4-1c0-0.4,0.1-0.7,0.4-1c0.2-0.1,0.3-0.3,0.6-0.3c0.2-0.1,0.5-0.1,0.9-0.1h1.1
		v-0.4c0-0.4-0.1-0.7-0.3-0.9c-0.2-0.2-0.5-0.3-0.9-0.3c-0.4,0-0.8,0-1.3,0.1l0-0.4c0.5-0.1,0.9-0.2,1.4-0.2c0.6,0,1,0.1,1.3,0.4
		c0.2,0.3,0.4,0.7,0.4,1.2v3.1h-0.4l0-0.3c-0.2,0.1-0.5,0.2-0.7,0.3c-0.3,0.1-0.5,0.1-0.7,0.1C75.3,294.3,74.9,294.2,74.7,294z
		 M76.5,293.7c0.2-0.1,0.4-0.1,0.6-0.2V292h-1c-0.3,0-0.5,0-0.7,0.1c-0.2,0-0.3,0.1-0.4,0.2c-0.2,0.1-0.3,0.4-0.3,0.7
		c0,0.3,0.1,0.6,0.3,0.7s0.5,0.2,0.8,0.2C76.1,293.8,76.3,293.8,76.5,293.7z"/>
</g>
<g>
	<path class="st4" d="M87.7,65.2h0.5l2.2,4.2l2.2-4.2H93v6h-0.5v-4.9l-2,3.7h-0.5l-1.9-3.7v5h-0.5V65.2z"/>
	<path class="st4" d="M95.2,71.2c-0.2-0.1-0.3-0.1-0.5-0.3c-0.1-0.1-0.2-0.3-0.3-0.4c-0.1-0.2-0.1-0.4-0.1-0.6v-3h0.5v2.8
		c0,0.2,0,0.4,0.1,0.5c0,0.1,0.1,0.2,0.2,0.3c0.2,0.2,0.4,0.3,0.8,0.3c0.2,0,0.4,0,0.7-0.1s0.5-0.1,0.7-0.3v-3.6h0.5v4.3h-0.4l0-0.3
		c-0.5,0.3-1,0.4-1.5,0.4C95.6,71.3,95.4,71.3,95.2,71.2z"/>
	<path class="st4" d="M97.9,72.8c0.5,0,0.8-0.1,1-0.3c0.1-0.1,0.2-0.2,0.2-0.4c0-0.1,0.1-0.4,0.1-0.7v-4.6h0.5v4.6
		c0,0.3,0,0.6-0.1,0.8c-0.1,0.2-0.2,0.4-0.3,0.5c-0.1,0.1-0.3,0.2-0.5,0.3c-0.2,0.1-0.5,0.1-0.8,0.1L97.9,72.8z M99,65.7L99,65.7
		c0-0.3,0.1-0.4,0.3-0.4h0c0.2,0,0.3,0.1,0.3,0.3v0c0,0.2-0.1,0.3-0.3,0.3h0C99.1,66,99,65.9,99,65.7z"/>
	<path class="st4" d="M101.2,70.7c-0.3-0.4-0.5-0.9-0.5-1.7c0-0.7,0.1-1.3,0.4-1.7c0.3-0.4,0.7-0.6,1.3-0.6c1.1,0,1.7,0.8,1.7,2.3
		v0.1c0,0,0,0.1,0,0.1c0,0,0,0-0.1,0h-2.8c0,0.5,0.1,0.9,0.4,1.2c0.2,0.3,0.6,0.4,1.2,0.4c0.3,0,0.7,0,1.1-0.1l0,0.4
		c-0.1,0-0.3,0.1-0.6,0.1c-0.2,0-0.4,0-0.6,0C102,71.3,101.5,71.1,101.2,70.7z M103.6,68.8c0-0.5-0.1-0.9-0.3-1.2
		c-0.2-0.3-0.5-0.4-0.9-0.4s-0.7,0.1-0.9,0.4c-0.2,0.3-0.3,0.7-0.3,1.2H103.6z"/>
	<path class="st4" d="M105.2,66.9h0.4l0,0.4c0.2-0.2,0.4-0.3,0.6-0.4c0.2-0.1,0.4-0.1,0.6-0.1c0.1,0,0.2,0,0.2,0v0.5
		c-0.1,0-0.2,0-0.3,0c-0.4,0-0.8,0.1-1.1,0.4v3.6h-0.5V66.9z"/>
	<path class="st4" d="M113.3,65.2h0.5v2.7h3v-2.7h0.5v6h-0.5v-2.8h-3v2.8h-0.5V65.2z"/>
	<path class="st4" d="M118.6,69c0-1.5,0.6-2.3,1.8-2.3s1.8,0.8,1.8,2.3c0,1.5-0.6,2.3-1.8,2.3S118.6,70.5,118.6,69z M121.5,70.4
		c0.2-0.3,0.3-0.8,0.3-1.4s-0.1-1.1-0.3-1.4c-0.2-0.3-0.5-0.5-1-0.5s-0.8,0.2-1,0.5c-0.2,0.3-0.3,0.8-0.3,1.4s0.1,1.1,0.3,1.4
		c0.2,0.3,0.5,0.5,1,0.5S121.3,70.7,121.5,70.4z"/>
	<path class="st4" d="M123.4,66.9h0.4l0,0.3c0.2-0.1,0.4-0.2,0.7-0.3c0.2-0.1,0.5-0.1,0.7-0.1c0.3,0,0.5,0,0.7,0.1
		c0.2,0.1,0.4,0.2,0.5,0.3c0.2-0.1,0.5-0.3,0.8-0.3s0.5-0.1,0.8-0.1c0.2,0,0.4,0,0.6,0.1c0.2,0.1,0.3,0.2,0.5,0.3
		c0.1,0.1,0.2,0.3,0.3,0.4c0.1,0.2,0.1,0.4,0.1,0.6v3h-0.5v-2.8c0-0.2,0-0.4-0.1-0.5c0-0.1-0.1-0.2-0.2-0.3
		c-0.2-0.2-0.4-0.3-0.8-0.3c-0.4,0-0.9,0.1-1.3,0.3c0.1,0.2,0.1,0.4,0.1,0.7v3h-0.5v-2.8c0-0.2,0-0.4-0.1-0.5c0-0.1-0.1-0.2-0.2-0.3
		c-0.2-0.2-0.4-0.3-0.8-0.3c-0.2,0-0.4,0-0.6,0.1c-0.2,0.1-0.4,0.1-0.7,0.2v3.6h-0.5V66.9z"/>
	<path class="st4" d="M131.7,71.2c-0.2-0.1-0.5-0.2-0.6-0.3l0,0.3h-0.4v-6.2h0.5v2.2c0.2-0.1,0.4-0.2,0.6-0.2
		c0.2-0.1,0.4-0.1,0.6-0.1c0.5,0,0.9,0.2,1.2,0.6s0.4,0.9,0.4,1.7c0,0.9-0.2,1.5-0.5,1.8c-0.3,0.3-0.6,0.4-1.1,0.4
		C132.2,71.3,132,71.2,131.7,71.2z M132.9,70.7c0.2-0.1,0.3-0.2,0.4-0.3c0.2-0.3,0.3-0.8,0.3-1.4c0-0.6-0.1-1.1-0.3-1.4
		c-0.2-0.3-0.5-0.4-0.9-0.4c-0.2,0-0.4,0-0.6,0.1c-0.2,0.1-0.4,0.1-0.6,0.2v3c0.2,0.1,0.4,0.2,0.6,0.3c0.2,0.1,0.4,0.1,0.6,0.1
		S132.7,70.8,132.9,70.7z"/>
	<path class="st4" d="M135.2,66.9h0.4l0,0.4c0.2-0.2,0.4-0.3,0.6-0.4c0.2-0.1,0.4-0.1,0.6-0.1c0.1,0,0.2,0,0.2,0v0.5
		c-0.1,0-0.2,0-0.3,0c-0.4,0-0.8,0.1-1.1,0.4v3.6h-0.5V66.9z"/>
	<path class="st4" d="M138,70.7c-0.3-0.4-0.5-0.9-0.5-1.7c0-0.7,0.1-1.3,0.4-1.7c0.3-0.4,0.7-0.6,1.3-0.6c1.1,0,1.7,0.8,1.7,2.3v0.1
		c0,0,0,0.1,0,0.1c0,0,0,0-0.1,0H138c0,0.5,0.1,0.9,0.4,1.2c0.2,0.3,0.6,0.4,1.2,0.4c0.3,0,0.7,0,1.1-0.1l0,0.4
		c-0.1,0-0.3,0.1-0.6,0.1c-0.2,0-0.4,0-0.6,0C138.8,71.3,138.3,71.1,138,70.7z M140.5,68.8c0-0.5-0.1-0.9-0.3-1.2
		c-0.2-0.3-0.5-0.4-0.9-0.4s-0.7,0.1-0.9,0.4c-0.2,0.3-0.3,0.7-0.3,1.2H140.5z"/>
</g>
<g>
	<path class="st4" d="M138,269.3h0.7l2.1,6.3h-0.6l-0.6-1.7h-2.6l-0.5,1.7H136L138,269.3z M139.4,273.4l-1.2-3.6l-1.1,3.6H139.4z"/>
	<path class="st4" d="M141.6,271.1h0.4l0,0.3c0.2-0.1,0.5-0.3,0.7-0.3c0.3-0.1,0.5-0.1,0.8-0.1c0.3,0,0.5,0,0.7,0.1
		c0.2,0.1,0.4,0.2,0.5,0.4c0.3-0.2,0.5-0.3,0.8-0.4c0.3-0.1,0.6-0.1,0.8-0.1c0.2,0,0.5,0,0.7,0.1c0.2,0.1,0.4,0.2,0.5,0.3
		c0.1,0.1,0.2,0.3,0.3,0.5c0.1,0.2,0.1,0.4,0.1,0.7v3.1h-0.5v-3c0-0.2,0-0.4-0.1-0.6c0-0.1-0.1-0.3-0.2-0.3
		c-0.2-0.2-0.5-0.3-0.8-0.3c-0.5,0-0.9,0.1-1.4,0.3c0.1,0.2,0.1,0.4,0.1,0.7v3.1h-0.5v-3c0-0.2,0-0.4-0.1-0.6c0-0.1-0.1-0.3-0.2-0.3
		c-0.2-0.2-0.4-0.3-0.8-0.3c-0.2,0-0.4,0-0.6,0.1c-0.2,0.1-0.5,0.1-0.7,0.3v3.8h-0.5V271.1z"/>
	<path class="st4" d="M149.7,275.2c-0.3-0.4-0.5-1-0.5-1.8c0-0.7,0.2-1.3,0.5-1.8c0.3-0.4,0.8-0.6,1.4-0.6c1.2,0,1.8,0.8,1.8,2.4
		v0.1c0,0,0,0.1,0,0.1c0,0,0,0-0.1,0h-3c0,0.6,0.1,1,0.4,1.3c0.3,0.3,0.7,0.4,1.2,0.4c0.4,0,0.7,0,1.1-0.1l0,0.4
		c-0.2,0-0.3,0.1-0.6,0.1s-0.5,0-0.6,0C150.6,275.8,150,275.6,149.7,275.2z M152.3,273.1c0-0.5-0.1-1-0.3-1.3
		c-0.2-0.3-0.5-0.5-1-0.5s-0.7,0.2-1,0.5c-0.2,0.3-0.3,0.7-0.3,1.3H152.3z"/>
	<path class="st4" d="M154,271.1h0.4l0,0.3c0.5-0.3,1.1-0.5,1.6-0.5c0.2,0,0.5,0,0.7,0.1c0.2,0.1,0.4,0.2,0.5,0.3
		c0.1,0.1,0.2,0.3,0.3,0.5c0.1,0.2,0.1,0.4,0.1,0.7v3.1H157v-3c0-0.2,0-0.4-0.1-0.6c0-0.1-0.1-0.3-0.2-0.3c-0.2-0.2-0.4-0.3-0.8-0.3
		c-0.2,0-0.5,0-0.7,0.1c-0.3,0.1-0.5,0.2-0.7,0.3v3.8H154V271.1z"/>
	<path class="st4" d="M159,275.4c-0.3-0.2-0.4-0.6-0.4-1c0-0.4,0.1-0.7,0.4-1c0.2-0.1,0.3-0.3,0.6-0.3c0.2-0.1,0.5-0.1,0.9-0.1h1.1
		v-0.4c0-0.4-0.1-0.7-0.3-0.9c-0.2-0.2-0.5-0.3-0.9-0.3c-0.4,0-0.8,0-1.3,0.1l0-0.4c0.5-0.1,0.9-0.2,1.4-0.2c0.6,0,1,0.1,1.3,0.4
		c0.2,0.3,0.4,0.7,0.4,1.2v3.1h-0.4l0-0.3c-0.2,0.1-0.5,0.2-0.7,0.3c-0.3,0.1-0.5,0.1-0.7,0.1C159.7,275.8,159.3,275.6,159,275.4z
		 M160.9,275.2c0.2-0.1,0.4-0.1,0.6-0.2v-1.5h-1c-0.3,0-0.5,0-0.7,0.1c-0.2,0-0.3,0.1-0.4,0.2c-0.2,0.1-0.3,0.4-0.3,0.7
		c0,0.3,0.1,0.6,0.3,0.7s0.5,0.2,0.8,0.2C160.4,275.3,160.7,275.3,160.9,275.2z"/>
	<path class="st4" d="M163.1,275.3l2.5-3.8h-2.4v-0.4h3.1v0.3l-2.4,3.8h2.5v0.4h-3.2V275.3z"/>
	<path class="st4" d="M167.4,275.4c-0.3-0.2-0.4-0.6-0.4-1c0-0.4,0.1-0.7,0.4-1c0.2-0.1,0.3-0.3,0.6-0.3c0.2-0.1,0.5-0.1,0.9-0.1
		h1.1v-0.4c0-0.4-0.1-0.7-0.3-0.9c-0.2-0.2-0.5-0.3-0.9-0.3c-0.4,0-0.8,0-1.3,0.1l0-0.4c0.5-0.1,0.9-0.2,1.4-0.2
		c0.6,0,1,0.1,1.3,0.4c0.2,0.3,0.4,0.7,0.4,1.2v3.1H170l0-0.3c-0.2,0.1-0.5,0.2-0.7,0.3c-0.3,0.1-0.5,0.1-0.7,0.1
		C168.1,275.8,167.7,275.6,167.4,275.4z M169.3,275.2c0.2-0.1,0.4-0.1,0.6-0.2v-1.5h-1c-0.3,0-0.5,0-0.7,0.1c-0.2,0-0.3,0.1-0.4,0.2
		c-0.2,0.1-0.3,0.4-0.3,0.7c0,0.3,0.1,0.6,0.3,0.7s0.5,0.2,0.8,0.2C168.8,275.3,169.1,275.3,169.3,275.2z"/>
	<path class="st4" d="M172.2,275.7c-0.2,0-0.4-0.1-0.6-0.1l0-0.4c0.4,0.1,0.8,0.1,1.2,0.1c0.4,0,0.7-0.1,0.9-0.2
		c0.2-0.1,0.3-0.3,0.3-0.6c0-0.2-0.1-0.3-0.2-0.5s-0.2-0.2-0.4-0.3c-0.1-0.1-0.4-0.1-0.6-0.2c-0.3-0.1-0.6-0.2-0.7-0.3
		c-0.2-0.1-0.3-0.2-0.5-0.4s-0.2-0.4-0.2-0.7c0-0.4,0.1-0.7,0.4-1c0.3-0.2,0.7-0.3,1.2-0.3c0.2,0,0.4,0,0.6,0c0.2,0,0.4,0.1,0.5,0.1
		l0,0.4c-0.4-0.1-0.8-0.1-1.1-0.1c-0.4,0-0.7,0.1-0.9,0.2c-0.2,0.1-0.3,0.3-0.3,0.6c0,0.2,0,0.3,0.1,0.4c0.1,0.1,0.2,0.2,0.4,0.3
		c0.1,0.1,0.3,0.1,0.6,0.2c0.3,0.1,0.6,0.2,0.7,0.3s0.3,0.2,0.5,0.4c0.1,0.2,0.2,0.4,0.2,0.7c0,0.4-0.1,0.7-0.4,1
		c-0.3,0.2-0.7,0.3-1.3,0.3C172.7,275.8,172.4,275.7,172.2,275.7z"/>
	<path class="st4" d="M137.6,288.9l-0.1-0.5c0.2,0,0.4,0,0.6,0c0.2,0,0.5,0,0.6-0.1c0.2,0,0.3-0.1,0.4-0.2c0.1-0.1,0.2-0.2,0.2-0.4
		s0.1-0.4,0.1-0.6v-0.8c-0.5,0.3-1,0.4-1.5,0.4c-0.2,0-0.5,0-0.7-0.1c-0.2-0.1-0.4-0.2-0.5-0.3c-0.1-0.1-0.2-0.3-0.3-0.5
		c-0.1-0.2-0.1-0.4-0.1-0.7v-3.1h0.5v3c0,0.2,0,0.4,0.1,0.6c0,0.1,0.1,0.3,0.2,0.3c0.2,0.2,0.4,0.3,0.8,0.3c0.2,0,0.5,0,0.7-0.1
		c0.2-0.1,0.5-0.2,0.7-0.3v-3.8h0.5v5.1c0,0.3,0,0.6-0.1,0.8c-0.1,0.2-0.2,0.4-0.3,0.5c-0.3,0.3-0.7,0.4-1.4,0.4
		C138,289,137.8,289,137.6,288.9z"/>
	<path class="st4" d="M143.5,286.3c-0.4-0.4-0.5-1-0.5-1.8c0-0.8,0.2-1.4,0.5-1.8s0.9-0.6,1.6-0.6c0.4,0,0.7,0.1,1.1,0.2l0,0.4
		c-0.4-0.1-0.7-0.1-0.9-0.1c-0.6,0-1,0.2-1.3,0.5c-0.2,0.3-0.4,0.8-0.4,1.5c0,0.7,0.1,1.2,0.4,1.5c0.3,0.3,0.7,0.5,1.3,0.5
		c0.1,0,0.3,0,0.4,0s0.3,0,0.4-0.1l0,0.4c-0.3,0.1-0.7,0.1-1,0.1C144.4,286.9,143.9,286.7,143.5,286.3z"/>
	<path class="st4" d="M147,284.5c0-1.6,0.7-2.4,2-2.4s2,0.8,2,2.4s-0.7,2.4-2,2.4S147,286.1,147,284.5z M150,285.9
		c0.2-0.3,0.3-0.8,0.3-1.5s-0.1-1.1-0.3-1.5s-0.6-0.5-1.1-0.5c-0.5,0-0.9,0.2-1.1,0.5s-0.3,0.8-0.3,1.5s0.1,1.1,0.3,1.5
		c0.2,0.3,0.6,0.5,1.1,0.5C149.4,286.4,149.8,286.3,150,285.9z"/>
	<path class="st4" d="M152.2,286.5c-0.3-0.2-0.4-0.6-0.4-1c0-0.4,0.1-0.7,0.4-1c0.2-0.1,0.3-0.3,0.6-0.3c0.2-0.1,0.5-0.1,0.9-0.1
		h1.1v-0.4c0-0.4-0.1-0.7-0.3-0.9c-0.2-0.2-0.5-0.3-0.9-0.3c-0.4,0-0.8,0-1.3,0.1l0-0.4c0.5-0.1,0.9-0.2,1.4-0.2
		c0.6,0,1,0.1,1.3,0.4c0.2,0.3,0.4,0.7,0.4,1.2v3.1h-0.4l0-0.3c-0.2,0.1-0.5,0.2-0.7,0.3c-0.3,0.1-0.5,0.1-0.7,0.1
		C152.8,286.9,152.5,286.8,152.2,286.5z M154.1,286.3c0.2-0.1,0.4-0.1,0.6-0.2v-1.5h-1c-0.3,0-0.5,0-0.7,0.1c-0.2,0-0.3,0.1-0.4,0.2
		c-0.2,0.1-0.3,0.4-0.3,0.7c0,0.3,0.1,0.6,0.3,0.7s0.5,0.2,0.8,0.2C153.6,286.4,153.8,286.4,154.1,286.3z"/>
	<path class="st4" d="M156.9,286.3c-0.4-0.4-0.5-1-0.5-1.8c0-0.8,0.2-1.4,0.5-1.8s0.9-0.6,1.6-0.6c0.4,0,0.7,0.1,1.1,0.2l0,0.4
		c-0.4-0.1-0.7-0.1-0.9-0.1c-0.6,0-1,0.2-1.3,0.5c-0.2,0.3-0.4,0.8-0.4,1.5c0,0.7,0.1,1.2,0.4,1.5c0.3,0.3,0.7,0.5,1.3,0.5
		c0.1,0,0.3,0,0.4,0s0.3,0,0.4-0.1l0,0.4c-0.3,0.1-0.7,0.1-1,0.1C157.8,286.9,157.3,286.7,156.9,286.3z"/>
	<path class="st4" d="M160.9,286.3c-0.4-0.4-0.5-1-0.5-1.8c0-0.8,0.2-1.4,0.5-1.8s0.9-0.6,1.6-0.6c0.4,0,0.7,0.1,1.1,0.2l0,0.4
		c-0.4-0.1-0.7-0.1-0.9-0.1c-0.6,0-1,0.2-1.3,0.5c-0.2,0.3-0.4,0.8-0.4,1.5c0,0.7,0.1,1.2,0.4,1.5c0.3,0.3,0.7,0.5,1.3,0.5
		c0.1,0,0.3,0,0.4,0s0.3,0,0.4-0.1l0,0.4c-0.3,0.1-0.7,0.1-1,0.1C161.8,286.9,161.3,286.7,160.9,286.3z"/>
	<path class="st4" d="M164.5,280.9L164.5,280.9c0-0.3,0.1-0.4,0.3-0.4h0c0.2,0,0.3,0.1,0.3,0.4v0c0,0.2-0.1,0.4-0.3,0.4h0
		C164.7,281.3,164.5,281.2,164.5,280.9z M164.6,282.2h0.5v4.5h-0.5V282.2z"/>
	<path class="st4" d="M166.3,284.5c0-1.6,0.7-2.4,2-2.4s2,0.8,2,2.4s-0.7,2.4-2,2.4S166.3,286.1,166.3,284.5z M169.4,285.9
		c0.2-0.3,0.3-0.8,0.3-1.5s-0.1-1.1-0.3-1.5s-0.6-0.5-1.1-0.5c-0.5,0-0.9,0.2-1.1,0.5s-0.3,0.8-0.3,1.5s0.1,1.1,0.3,1.5
		c0.2,0.3,0.6,0.5,1.1,0.5C168.8,286.4,169.2,286.3,169.4,285.9z"/>
	<path class="st4" d="M171.4,282.2h0.4l0,0.3c0.5-0.3,1.1-0.5,1.6-0.5c0.2,0,0.5,0,0.7,0.1c0.2,0.1,0.4,0.2,0.5,0.3
		c0.1,0.1,0.2,0.3,0.3,0.5c0.1,0.2,0.1,0.4,0.1,0.7v3.1h-0.5v-3c0-0.2,0-0.4-0.1-0.6c0-0.1-0.1-0.3-0.2-0.3
		c-0.2-0.2-0.4-0.3-0.8-0.3c-0.2,0-0.5,0-0.7,0.1c-0.3,0.1-0.5,0.2-0.7,0.3v3.8h-0.5V282.2z"/>
	<path class="st4" d="M176.6,286.3c-0.3-0.4-0.5-1-0.5-1.8c0-0.7,0.2-1.3,0.5-1.8c0.3-0.4,0.8-0.6,1.4-0.6c1.2,0,1.8,0.8,1.8,2.4
		v0.1c0,0,0,0.1,0,0.1c0,0,0,0-0.1,0h-3c0,0.6,0.1,1,0.4,1.3c0.3,0.3,0.7,0.4,1.2,0.4c0.4,0,0.7,0,1.1-0.1l0,0.4
		c-0.2,0-0.3,0.1-0.6,0.1s-0.5,0-0.6,0C177.5,286.9,177,286.7,176.6,286.3z M179.2,284.3c0-0.5-0.1-1-0.3-1.3
		c-0.2-0.3-0.5-0.5-1-0.5s-0.7,0.2-1,0.5c-0.2,0.3-0.3,0.7-0.3,1.3H179.2z"/>
	<path class="st4" d="M181.3,286.8c-0.2,0-0.4-0.1-0.6-0.1l0-0.4c0.4,0.1,0.8,0.1,1.2,0.1c0.4,0,0.7-0.1,0.9-0.2
		c0.2-0.1,0.3-0.3,0.3-0.6c0-0.2-0.1-0.3-0.2-0.5s-0.2-0.2-0.4-0.3c-0.1-0.1-0.4-0.1-0.6-0.2c-0.3-0.1-0.6-0.2-0.7-0.3
		c-0.2-0.1-0.3-0.2-0.5-0.4s-0.2-0.4-0.2-0.7c0-0.4,0.1-0.7,0.4-1c0.3-0.2,0.7-0.3,1.2-0.3c0.2,0,0.4,0,0.6,0c0.2,0,0.4,0.1,0.5,0.1
		l0,0.4c-0.4-0.1-0.8-0.1-1.1-0.1c-0.4,0-0.7,0.1-0.9,0.2c-0.2,0.1-0.3,0.3-0.3,0.6c0,0.2,0,0.3,0.1,0.4c0.1,0.1,0.2,0.2,0.4,0.3
		c0.1,0.1,0.3,0.1,0.6,0.2c0.3,0.1,0.6,0.2,0.7,0.3s0.3,0.2,0.5,0.4c0.1,0.2,0.2,0.4,0.2,0.7c0,0.4-0.1,0.7-0.4,1
		c-0.3,0.2-0.7,0.3-1.3,0.3C181.8,286.9,181.5,286.9,181.3,286.8z"/>
</g>
<g>
	<path class="st4" d="M210.7,275c-0.5-0.5-0.7-1.4-0.7-2.5c0-1.1,0.2-1.9,0.7-2.5c0.4-0.6,1.1-0.8,2-0.8c0.2,0,0.5,0,0.7,0.1
		c0.2,0,0.5,0.1,0.7,0.2l-0.1,0.5c-0.4-0.1-0.8-0.2-1.2-0.2c-0.7,0-1.3,0.2-1.6,0.7s-0.5,1.2-0.5,2.1c0,0.7,0.1,1.2,0.2,1.6
		c0.1,0.4,0.4,0.7,0.7,0.9c0.3,0.2,0.8,0.3,1.3,0.3c0.3,0,0.7,0,1.1-0.1l0.1,0.5c-0.2,0.1-0.4,0.1-0.6,0.1c-0.2,0-0.5,0.1-0.7,0.1
		C211.9,275.8,211.2,275.5,210.7,275z"/>
	<path class="st4" d="M214.7,273.4c0-1.6,0.7-2.4,2-2.4s2,0.8,2,2.4s-0.7,2.4-2,2.4S214.7,275,214.7,273.4z M217.7,274.8
		c0.2-0.3,0.3-0.8,0.3-1.5s-0.1-1.1-0.3-1.5s-0.6-0.5-1.1-0.5c-0.5,0-0.9,0.2-1.1,0.5s-0.3,0.8-0.3,1.5s0.1,1.1,0.3,1.5
		c0.2,0.3,0.6,0.5,1.1,0.5C217.1,275.3,217.5,275.1,217.7,274.8z"/>
	<path class="st4" d="M219.7,271.1h0.4l0,0.3c0.5-0.3,1.1-0.5,1.6-0.5c0.2,0,0.5,0,0.7,0.1c0.2,0.1,0.4,0.2,0.5,0.3
		c0.1,0.1,0.2,0.3,0.3,0.5c0.1,0.2,0.1,0.4,0.1,0.7v3.1h-0.5v-3c0-0.2,0-0.4-0.1-0.6c0-0.1-0.1-0.3-0.2-0.3
		c-0.2-0.2-0.4-0.3-0.8-0.3c-0.2,0-0.5,0-0.7,0.1c-0.3,0.1-0.5,0.2-0.7,0.3v3.8h-0.5V271.1z"/>
	<path class="st4" d="M225.3,275.5c-0.1-0.1-0.2-0.2-0.2-0.4c0-0.2-0.1-0.4-0.1-0.6v-2.9h-0.8v-0.3l0.8-0.1v-1
		c0.2-0.1,0.4-0.1,0.5-0.1v1.2h1.2v0.4h-1.2v2.7c0,0.2,0,0.4,0,0.5c0,0.1,0.1,0.2,0.1,0.3c0.1,0.1,0.3,0.2,0.6,0.2
		c0.2,0,0.4,0,0.7-0.1l0,0.4c-0.2,0.1-0.5,0.1-0.8,0.1C225.8,275.8,225.4,275.7,225.3,275.5z"/>
	<path class="st4" d="M227.9,271.1h0.4l0,0.4c0.2-0.2,0.4-0.3,0.7-0.4c0.2-0.1,0.5-0.1,0.7-0.1c0.1,0,0.2,0,0.2,0v0.5
		c-0.1,0-0.2,0-0.3,0c-0.4,0-0.8,0.1-1.2,0.4v3.8h-0.5V271.1z"/>
	<path class="st4" d="M230.7,275.4c-0.3-0.2-0.4-0.6-0.4-1c0-0.4,0.1-0.7,0.4-1c0.2-0.1,0.3-0.3,0.6-0.3c0.2-0.1,0.5-0.1,0.9-0.1
		h1.1v-0.4c0-0.4-0.1-0.7-0.3-0.9c-0.2-0.2-0.5-0.3-0.9-0.3c-0.4,0-0.8,0-1.3,0.1l0-0.4c0.5-0.1,0.9-0.2,1.4-0.2
		c0.6,0,1,0.1,1.3,0.4c0.2,0.3,0.4,0.7,0.4,1.2v3.1h-0.4l0-0.3c-0.2,0.1-0.5,0.2-0.7,0.3c-0.3,0.1-0.5,0.1-0.7,0.1
		C231.4,275.8,231,275.6,230.7,275.4z M232.6,275.2c0.2-0.1,0.4-0.1,0.6-0.2v-1.5h-1c-0.3,0-0.5,0-0.7,0.1c-0.2,0-0.3,0.1-0.4,0.2
		c-0.2,0.1-0.3,0.4-0.3,0.7c0,0.3,0.1,0.6,0.3,0.7s0.5,0.2,0.8,0.2C232.1,275.3,232.3,275.3,232.6,275.2z"/>
	<path class="st4" d="M210.5,286.3c-0.3-0.4-0.5-1-0.5-1.8c0-0.7,0.2-1.3,0.5-1.8c0.3-0.4,0.8-0.6,1.4-0.6c1.2,0,1.8,0.8,1.8,2.4
		v0.1c0,0,0,0.1,0,0.1c0,0,0,0-0.1,0h-3c0,0.6,0.1,1,0.4,1.3c0.3,0.3,0.7,0.4,1.2,0.4c0.4,0,0.7,0,1.1-0.1l0,0.4
		c-0.2,0-0.3,0.1-0.6,0.1s-0.5,0-0.6,0C211.4,286.9,210.8,286.7,210.5,286.3z M213.1,284.3c0-0.5-0.1-1-0.3-1.3
		c-0.2-0.3-0.5-0.5-1-0.5s-0.7,0.2-1,0.5c-0.2,0.3-0.3,0.7-0.3,1.3H213.1z"/>
	<path class="st4" d="M214.8,280.1h0.5v6.6h-0.5V280.1z"/>
	<path class="st4" d="M218.6,280.1h0.5v2.4c0.5-0.3,1-0.4,1.5-0.4c0.2,0,0.5,0,0.7,0.1c0.2,0.1,0.4,0.2,0.5,0.3
		c0.1,0.1,0.2,0.3,0.3,0.5c0.1,0.2,0.1,0.4,0.1,0.7v3.1h-0.5v-3c0-0.2,0-0.4-0.1-0.6c0-0.1-0.1-0.3-0.2-0.3
		c-0.2-0.2-0.4-0.3-0.8-0.3c-0.2,0-0.5,0-0.7,0.1c-0.3,0.1-0.5,0.2-0.7,0.3v3.8h-0.5V280.1z"/>
	<path class="st4" d="M223.3,284.5c0-1.6,0.7-2.4,2-2.4s2,0.8,2,2.4s-0.7,2.4-2,2.4S223.3,286.1,223.3,284.5z M226.3,285.9
		c0.2-0.3,0.3-0.8,0.3-1.5s-0.1-1.1-0.3-1.5s-0.6-0.5-1.1-0.5c-0.5,0-0.9,0.2-1.1,0.5s-0.3,0.8-0.3,1.5s0.1,1.1,0.3,1.5
		c0.2,0.3,0.6,0.5,1.1,0.5C225.7,286.4,226.1,286.3,226.3,285.9z"/>
	<path class="st4" d="M228.3,282.2h0.4l0,0.3c0.5-0.3,1.1-0.5,1.6-0.5c0.2,0,0.5,0,0.7,0.1c0.2,0.1,0.4,0.2,0.5,0.3
		c0.1,0.1,0.2,0.3,0.3,0.5c0.1,0.2,0.1,0.4,0.1,0.7v3.1h-0.5v-3c0-0.2,0-0.4-0.1-0.6c0-0.1-0.1-0.3-0.2-0.3
		c-0.2-0.2-0.4-0.3-0.8-0.3c-0.2,0-0.5,0-0.7,0.1c-0.3,0.1-0.5,0.2-0.7,0.3v3.8h-0.5V282.2z"/>
	<path class="st4" d="M233,284.5c0-1.6,0.7-2.4,2-2.4s2,0.8,2,2.4s-0.7,2.4-2,2.4S233,286.1,233,284.5z M236.1,285.9
		c0.2-0.3,0.3-0.8,0.3-1.5s-0.1-1.1-0.3-1.5s-0.6-0.5-1.1-0.5c-0.5,0-0.9,0.2-1.1,0.5s-0.3,0.8-0.3,1.5s0.1,1.1,0.3,1.5
		c0.2,0.3,0.6,0.5,1.1,0.5C235.5,286.4,235.9,286.3,236.1,285.9z"/>
	<path class="st4" d="M238.1,282.2h0.4l0,0.4c0.2-0.2,0.4-0.3,0.7-0.4c0.2-0.1,0.5-0.1,0.7-0.1c0.1,0,0.2,0,0.2,0v0.5
		c-0.1,0-0.2,0-0.3,0c-0.4,0-0.8,0.1-1.2,0.4v3.8h-0.5V282.2z"/>
</g>
<g>
	<path class="st4" d="M279.9,269.3h1.5c0.6,0,1,0.1,1.4,0.2s0.7,0.3,0.9,0.5c0.5,0.5,0.7,1.3,0.7,2.5c0,0.6-0.1,1.2-0.2,1.6
		s-0.3,0.8-0.6,1c-0.4,0.4-1,0.6-1.9,0.6h-1.7V269.3z M281.5,275.1c0.7,0,1.3-0.2,1.6-0.5c0.2-0.2,0.4-0.5,0.5-0.9
		c0.1-0.4,0.2-0.8,0.2-1.4c0-0.5,0-1-0.1-1.3c-0.1-0.3-0.2-0.6-0.4-0.8c-0.2-0.2-0.4-0.3-0.7-0.4c-0.3-0.1-0.7-0.1-1.1-0.1h-0.9v5.4
		H281.5z"/>
	<path class="st4" d="M285.9,275.2c-0.3-0.4-0.5-1-0.5-1.8c0-0.7,0.2-1.3,0.5-1.8c0.3-0.4,0.8-0.6,1.4-0.6c1.2,0,1.8,0.8,1.8,2.4
		v0.1c0,0,0,0.1,0,0.1c0,0,0,0-0.1,0h-3c0,0.6,0.1,1,0.4,1.3c0.3,0.3,0.7,0.4,1.2,0.4c0.4,0,0.7,0,1.1-0.1l0,0.4
		c-0.2,0-0.3,0.1-0.6,0.1s-0.5,0-0.6,0C286.8,275.8,286.2,275.6,285.9,275.2z M288.5,273.1c0-0.5-0.1-1-0.3-1.3
		c-0.2-0.3-0.5-0.5-1-0.5s-0.7,0.2-1,0.5c-0.2,0.3-0.3,0.7-0.3,1.3H288.5z"/>
	<path class="st4" d="M290.2,269h0.5v6.6h-0.5V269z"/>
	<path class="st4" d="M292,269.8L292,269.8c0-0.3,0.1-0.4,0.3-0.4h0c0.2,0,0.3,0.1,0.3,0.4v0c0,0.2-0.1,0.4-0.3,0.4h0
		C292.2,270.2,292,270,292,269.8z M292.1,271.1h0.5v4.5h-0.5V271.1z"/>
	<path class="st4" d="M294.6,275.5c-0.1-0.1-0.2-0.2-0.2-0.4c0-0.2-0.1-0.4-0.1-0.6v-2.9h-0.8v-0.3l0.8-0.1v-1
		c0.2-0.1,0.4-0.1,0.5-0.1v1.2h1.2v0.4h-1.2v2.7c0,0.2,0,0.4,0,0.5c0,0.1,0.1,0.2,0.1,0.3c0.1,0.1,0.3,0.2,0.6,0.2
		c0.2,0,0.4,0,0.7-0.1l0,0.4c-0.2,0.1-0.5,0.1-0.8,0.1C295.1,275.8,294.8,275.7,294.6,275.5z"/>
	<path class="st4" d="M297,273.4c0-1.6,0.7-2.4,2-2.4s2,0.8,2,2.4s-0.7,2.4-2,2.4S297,275,297,273.4z M300.1,274.8
		c0.2-0.3,0.3-0.8,0.3-1.5s-0.1-1.1-0.3-1.5s-0.6-0.5-1.1-0.5c-0.5,0-0.9,0.2-1.1,0.5s-0.3,0.8-0.3,1.5s0.1,1.1,0.3,1.5
		c0.2,0.3,0.6,0.5,1.1,0.5C299.5,275.3,299.8,275.1,300.1,274.8z"/>
	<path class="st4" d="M302.5,275.7c-0.2,0-0.4-0.1-0.6-0.1l0-0.4c0.4,0.1,0.8,0.1,1.2,0.1c0.4,0,0.7-0.1,0.9-0.2
		c0.2-0.1,0.3-0.3,0.3-0.6c0-0.2-0.1-0.3-0.2-0.5s-0.2-0.2-0.4-0.3c-0.1-0.1-0.4-0.1-0.6-0.2c-0.3-0.1-0.6-0.2-0.7-0.3
		c-0.2-0.1-0.3-0.2-0.5-0.4s-0.2-0.4-0.2-0.7c0-0.4,0.1-0.7,0.4-1c0.3-0.2,0.7-0.3,1.2-0.3c0.2,0,0.4,0,0.6,0c0.2,0,0.4,0.1,0.5,0.1
		l0,0.4c-0.4-0.1-0.8-0.1-1.1-0.1c-0.4,0-0.7,0.1-0.9,0.2c-0.2,0.1-0.3,0.3-0.3,0.6c0,0.2,0,0.3,0.1,0.4c0.1,0.1,0.2,0.2,0.4,0.3
		c0.1,0.1,0.3,0.1,0.6,0.2c0.3,0.1,0.6,0.2,0.7,0.3s0.3,0.2,0.5,0.4c0.1,0.2,0.2,0.4,0.2,0.7c0,0.4-0.1,0.7-0.4,1
		c-0.3,0.2-0.7,0.3-1.3,0.3C302.9,275.8,302.7,275.7,302.5,275.7z"/>
	<path class="st4" d="M280.2,286.8c-0.2,0-0.4-0.1-0.6-0.1l0-0.4c0.4,0.1,0.8,0.1,1.2,0.1c0.4,0,0.7-0.1,0.9-0.2
		c0.2-0.1,0.3-0.3,0.3-0.6c0-0.2-0.1-0.3-0.2-0.5s-0.2-0.2-0.4-0.3c-0.1-0.1-0.4-0.1-0.6-0.2c-0.3-0.1-0.6-0.2-0.7-0.3
		c-0.2-0.1-0.3-0.2-0.5-0.4s-0.2-0.4-0.2-0.7c0-0.4,0.1-0.7,0.4-1c0.3-0.2,0.7-0.3,1.2-0.3c0.2,0,0.4,0,0.6,0c0.2,0,0.4,0.1,0.5,0.1
		l0,0.4c-0.4-0.1-0.8-0.1-1.1-0.1c-0.4,0-0.7,0.1-0.9,0.2c-0.2,0.1-0.3,0.3-0.3,0.6c0,0.2,0,0.3,0.1,0.4c0.1,0.1,0.2,0.2,0.4,0.3
		c0.1,0.1,0.3,0.1,0.6,0.2c0.3,0.1,0.6,0.2,0.7,0.3s0.3,0.2,0.5,0.4c0.1,0.2,0.2,0.4,0.2,0.7c0,0.4-0.1,0.7-0.4,1
		c-0.3,0.2-0.7,0.3-1.3,0.3C280.6,286.9,280.4,286.9,280.2,286.8z"/>
	<path class="st4" d="M283.9,286.3c-0.3-0.4-0.5-1-0.5-1.8c0-0.7,0.2-1.3,0.5-1.8c0.3-0.4,0.8-0.6,1.4-0.6c1.2,0,1.8,0.8,1.8,2.4
		v0.1c0,0,0,0.1,0,0.1c0,0,0,0-0.1,0h-3c0,0.6,0.1,1,0.4,1.3c0.3,0.3,0.7,0.4,1.2,0.4c0.4,0,0.7,0,1.1-0.1l0,0.4
		c-0.2,0-0.3,0.1-0.6,0.1s-0.5,0-0.6,0C284.8,286.9,284.3,286.7,283.9,286.3z M286.5,284.3c0-0.5-0.1-1-0.3-1.3
		c-0.2-0.3-0.5-0.5-1-0.5s-0.7,0.2-1,0.5c-0.2,0.3-0.3,0.7-0.3,1.3H286.5z"/>
	<path class="st4" d="M289.1,284.5l-1.5-2.3h0.6l1.2,1.9l1.1-1.9h0.6l-1.5,2.3l1.5,2.3h-0.6l-1.2-1.9l-1.1,1.9h-0.6L289.1,284.5z"/>
	<path class="st4" d="M292.9,286.8c-0.2-0.1-0.4-0.2-0.5-0.3c-0.1-0.1-0.2-0.3-0.3-0.5c-0.1-0.2-0.1-0.4-0.1-0.7v-3.1h0.5v3
		c0,0.2,0,0.4,0.1,0.6c0,0.1,0.1,0.3,0.2,0.3c0.2,0.2,0.4,0.3,0.8,0.3c0.2,0,0.5,0,0.7-0.1c0.2-0.1,0.5-0.2,0.7-0.3v-3.8h0.5v4.5
		h-0.4l0-0.3c-0.5,0.3-1,0.5-1.6,0.5C293.3,286.9,293.1,286.9,292.9,286.8z"/>
	<path class="st4" d="M297.2,286.5c-0.3-0.2-0.4-0.6-0.4-1c0-0.4,0.1-0.7,0.4-1c0.2-0.1,0.3-0.3,0.6-0.3c0.2-0.1,0.5-0.1,0.9-0.1
		h1.1v-0.4c0-0.4-0.1-0.7-0.3-0.9c-0.2-0.2-0.5-0.3-0.9-0.3c-0.4,0-0.8,0-1.3,0.1l0-0.4c0.5-0.1,0.9-0.2,1.4-0.2
		c0.6,0,1,0.1,1.3,0.4c0.2,0.3,0.4,0.7,0.4,1.2v3.1h-0.4l0-0.3c-0.2,0.1-0.5,0.2-0.7,0.3c-0.3,0.1-0.5,0.1-0.7,0.1
		C297.8,286.9,297.4,286.8,297.2,286.5z M299,286.3c0.2-0.1,0.4-0.1,0.6-0.2v-1.5h-1c-0.3,0-0.5,0-0.7,0.1c-0.2,0-0.3,0.1-0.4,0.2
		c-0.2,0.1-0.3,0.4-0.3,0.7c0,0.3,0.1,0.6,0.3,0.7s0.5,0.2,0.8,0.2C298.6,286.4,298.8,286.4,299,286.3z"/>
	<path class="st4" d="M301.6,280.1h0.5v6.6h-0.5V280.1z"/>
	<path class="st4" d="M303.8,286.3c-0.3-0.4-0.5-1-0.5-1.8c0-0.7,0.2-1.3,0.5-1.8c0.3-0.4,0.8-0.6,1.4-0.6c1.2,0,1.8,0.8,1.8,2.4
		v0.1c0,0,0,0.1,0,0.1c0,0,0,0-0.1,0h-3c0,0.6,0.1,1,0.4,1.3c0.3,0.3,0.7,0.4,1.2,0.4c0.4,0,0.7,0,1.1-0.1l0,0.4
		c-0.2,0-0.3,0.1-0.6,0.1s-0.5,0-0.6,0C304.7,286.9,304.1,286.7,303.8,286.3z M306.4,284.3c0-0.5-0.1-1-0.3-1.3
		c-0.2-0.3-0.5-0.5-1-0.5s-0.7,0.2-1,0.5c-0.2,0.3-0.3,0.7-0.3,1.3H306.4z"/>
	<path class="st4" d="M308.5,286.8c-0.2,0-0.4-0.1-0.6-0.1l0-0.4c0.4,0.1,0.8,0.1,1.2,0.1c0.4,0,0.7-0.1,0.9-0.2
		c0.2-0.1,0.3-0.3,0.3-0.6c0-0.2-0.1-0.3-0.2-0.5s-0.2-0.2-0.4-0.3c-0.1-0.1-0.4-0.1-0.6-0.2c-0.3-0.1-0.6-0.2-0.7-0.3
		c-0.2-0.1-0.3-0.2-0.5-0.4s-0.2-0.4-0.2-0.7c0-0.4,0.1-0.7,0.4-1c0.3-0.2,0.7-0.3,1.2-0.3c0.2,0,0.4,0,0.6,0c0.2,0,0.4,0.1,0.5,0.1
		l0,0.4c-0.4-0.1-0.8-0.1-1.1-0.1c-0.4,0-0.7,0.1-0.9,0.2c-0.2,0.1-0.3,0.3-0.3,0.6c0,0.2,0,0.3,0.1,0.4c0.1,0.1,0.2,0.2,0.4,0.3
		c0.1,0.1,0.3,0.1,0.6,0.2c0.3,0.1,0.6,0.2,0.7,0.3s0.3,0.2,0.5,0.4c0.1,0.2,0.2,0.4,0.2,0.7c0,0.4-0.1,0.7-0.4,1
		c-0.3,0.2-0.7,0.3-1.3,0.3C308.9,286.9,308.7,286.9,308.5,286.8z"/>
</g>
<g>
	<path class="st4" d="M345.2,269.3h3.3l-0.1,0.5h-2.6v2.4h2.1v0.5h-2.1v3h-0.6V269.3z"/>
	<path class="st4" d="M349.1,275.4c-0.3-0.2-0.4-0.6-0.4-1c0-0.4,0.1-0.7,0.4-1c0.2-0.1,0.3-0.3,0.6-0.3c0.2-0.1,0.5-0.1,0.9-0.1
		h1.1v-0.4c0-0.4-0.1-0.7-0.3-0.9c-0.2-0.2-0.5-0.3-0.9-0.3c-0.4,0-0.8,0-1.3,0.1l0-0.4c0.5-0.1,0.9-0.2,1.4-0.2
		c0.6,0,1,0.1,1.3,0.4c0.2,0.3,0.4,0.7,0.4,1.2v3.1h-0.4l0-0.3c-0.2,0.1-0.5,0.2-0.7,0.3c-0.3,0.1-0.5,0.1-0.7,0.1
		C349.8,275.8,349.4,275.6,349.1,275.4z M351,275.2c0.2-0.1,0.4-0.1,0.6-0.2v-1.5h-1c-0.3,0-0.5,0-0.7,0.1c-0.2,0-0.3,0.1-0.4,0.2
		c-0.2,0.1-0.3,0.4-0.3,0.7c0,0.3,0.1,0.6,0.3,0.7s0.5,0.2,0.8,0.2C350.5,275.3,350.7,275.3,351,275.2z"/>
	<path class="st4" d="M353.5,269h0.5v6.6h-0.5V269z"/>
	<path class="st4" d="M355.8,275.7c-0.2,0-0.4-0.1-0.6-0.1l0-0.4c0.4,0.1,0.8,0.1,1.2,0.1c0.4,0,0.7-0.1,0.9-0.2
		c0.2-0.1,0.3-0.3,0.3-0.6c0-0.2-0.1-0.3-0.2-0.5s-0.2-0.2-0.4-0.3c-0.1-0.1-0.4-0.1-0.6-0.2c-0.3-0.1-0.6-0.2-0.7-0.3
		c-0.2-0.1-0.3-0.2-0.5-0.4s-0.2-0.4-0.2-0.7c0-0.4,0.1-0.7,0.4-1c0.3-0.2,0.7-0.3,1.2-0.3c0.2,0,0.4,0,0.6,0c0.2,0,0.4,0.1,0.5,0.1
		l0,0.4c-0.4-0.1-0.8-0.1-1.1-0.1c-0.4,0-0.7,0.1-0.9,0.2c-0.2,0.1-0.3,0.3-0.3,0.6c0,0.2,0,0.3,0.1,0.4c0.1,0.1,0.2,0.2,0.4,0.3
		c0.1,0.1,0.3,0.1,0.6,0.2c0.3,0.1,0.6,0.2,0.7,0.3s0.3,0.2,0.5,0.4c0.1,0.2,0.2,0.4,0.2,0.7c0,0.4-0.1,0.7-0.4,1
		c-0.3,0.2-0.7,0.3-1.3,0.3C356.3,275.8,356.1,275.7,355.8,275.7z"/>
	<path class="st4" d="M359.2,269.8L359.2,269.8c0-0.3,0.1-0.4,0.3-0.4h0c0.2,0,0.3,0.1,0.3,0.4v0c0,0.2-0.1,0.4-0.3,0.4h0
		C359.3,270.2,359.2,270,359.2,269.8z M359.3,271.1h0.5v4.5h-0.5V271.1z"/>
	<path class="st4" d="M361.6,271.5h-0.8v-0.3l0.8-0.1v-0.7c0-0.3,0-0.5,0.1-0.7c0.1-0.2,0.2-0.4,0.3-0.5c0.3-0.3,0.7-0.4,1.2-0.4
		c0.2,0,0.6,0,0.9,0.1v0.4c-0.3,0-0.6-0.1-0.9-0.1c-0.4,0-0.7,0.1-0.9,0.3c-0.1,0.1-0.1,0.2-0.2,0.3c0,0.1-0.1,0.3-0.1,0.6v0.6h2.5
		v4.5H364v-4.1h-1.9v4.1h-0.5V271.5z"/>
	<path class="st4" d="M366.3,275.2c-0.4-0.4-0.5-1-0.5-1.8c0-0.8,0.2-1.4,0.5-1.8s0.9-0.6,1.6-0.6c0.4,0,0.7,0.1,1.1,0.2l0,0.4
		c-0.4-0.1-0.7-0.1-0.9-0.1c-0.6,0-1,0.2-1.3,0.5c-0.2,0.3-0.4,0.8-0.4,1.5c0,0.7,0.1,1.2,0.4,1.5c0.3,0.3,0.7,0.5,1.3,0.5
		c0.1,0,0.3,0,0.4,0s0.3,0,0.4-0.1l0,0.4c-0.3,0.1-0.7,0.1-1,0.1C367.2,275.8,366.6,275.6,366.3,275.2z"/>
	<path class="st4" d="M370.1,275.4c-0.3-0.2-0.4-0.6-0.4-1c0-0.4,0.1-0.7,0.4-1c0.2-0.1,0.3-0.3,0.6-0.3c0.2-0.1,0.5-0.1,0.9-0.1
		h1.1v-0.4c0-0.4-0.1-0.7-0.3-0.9c-0.2-0.2-0.5-0.3-0.9-0.3c-0.4,0-0.8,0-1.3,0.1l0-0.4c0.5-0.1,0.9-0.2,1.4-0.2
		c0.6,0,1,0.1,1.3,0.4c0.2,0.3,0.4,0.7,0.4,1.2v3.1h-0.4l0-0.3c-0.2,0.1-0.5,0.2-0.7,0.3c-0.3,0.1-0.5,0.1-0.7,0.1
		C370.8,275.8,370.4,275.6,370.1,275.4z M372,275.2c0.2-0.1,0.4-0.1,0.6-0.2v-1.5h-1c-0.3,0-0.5,0-0.7,0.1c-0.2,0-0.3,0.1-0.4,0.2
		c-0.2,0.1-0.3,0.4-0.3,0.7c0,0.3,0.1,0.6,0.3,0.7s0.5,0.2,0.8,0.2C371.5,275.3,371.8,275.3,372,275.2z"/>
	<path class="st4" d="M374.8,275.2c-0.4-0.4-0.5-1-0.5-1.8c0-0.8,0.2-1.4,0.5-1.8s0.9-0.6,1.6-0.6c0.4,0,0.7,0.1,1.1,0.2l0,0.4
		c-0.4-0.1-0.7-0.1-0.9-0.1c-0.6,0-1,0.2-1.3,0.5c-0.2,0.3-0.4,0.8-0.4,1.5c0,0.7,0.1,1.2,0.4,1.5c0.3,0.3,0.7,0.5,1.3,0.5
		c0.1,0,0.3,0,0.4,0s0.3,0,0.4-0.1l0,0.4c-0.3,0.1-0.7,0.1-1,0.1C375.7,275.8,375.2,275.6,374.8,275.2z"/>
	<path class="st4" d="M378.5,269.8L378.5,269.8c0-0.3,0.1-0.4,0.3-0.4h0c0.2,0,0.3,0.1,0.3,0.4v0c0,0.2-0.1,0.4-0.3,0.4h0
		C378.6,270.2,378.5,270,378.5,269.8z M378.6,271.1h0.5v4.5h-0.5V271.1z"/>
	<path class="st4" d="M380.3,273.4c0-1.6,0.7-2.4,2-2.4s2,0.8,2,2.4s-0.7,2.4-2,2.4S380.3,275,380.3,273.4z M383.3,274.8
		c0.2-0.3,0.3-0.8,0.3-1.5s-0.1-1.1-0.3-1.5s-0.6-0.5-1.1-0.5c-0.5,0-0.9,0.2-1.1,0.5s-0.3,0.8-0.3,1.5s0.1,1.1,0.3,1.5
		c0.2,0.3,0.6,0.5,1.1,0.5C382.7,275.3,383.1,275.1,383.3,274.8z M381.3,270l1.6-1.5l0.4,0.5l-1.7,1.3L381.3,270z"/>
	<path class="st4" d="M385.3,271.1h0.4l0,0.3c0.5-0.3,1.1-0.5,1.6-0.5c0.2,0,0.5,0,0.7,0.1c0.2,0.1,0.4,0.2,0.5,0.3
		c0.1,0.1,0.2,0.3,0.3,0.5c0.1,0.2,0.1,0.4,0.1,0.7v3.1h-0.5v-3c0-0.2,0-0.4-0.1-0.6c0-0.1-0.1-0.3-0.2-0.3
		c-0.2-0.2-0.4-0.3-0.8-0.3c-0.2,0-0.5,0-0.7,0.1c-0.3,0.1-0.5,0.2-0.7,0.3v3.8h-0.5V271.1z"/>
	<path class="st4" d="M345,280.9L345,280.9c0-0.3,0.1-0.4,0.3-0.4h0c0.2,0,0.3,0.1,0.3,0.4v0c0,0.2-0.1,0.4-0.3,0.4h0
		C345.1,281.3,345,281.2,345,280.9z M345.1,282.2h0.5v4.5h-0.5V282.2z"/>
	<path class="st4" d="M347,282.2h0.4l0,0.3c0.5-0.3,1.1-0.5,1.6-0.5c0.2,0,0.5,0,0.7,0.1c0.2,0.1,0.4,0.2,0.5,0.3
		c0.1,0.1,0.2,0.3,0.3,0.5c0.1,0.2,0.1,0.4,0.1,0.7v3.1H350v-3c0-0.2,0-0.4-0.1-0.6c0-0.1-0.1-0.3-0.2-0.3c-0.2-0.2-0.4-0.3-0.8-0.3
		c-0.2,0-0.5,0-0.7,0.1c-0.3,0.1-0.5,0.2-0.7,0.3v3.8H347V282.2z"/>
	<path class="st4" d="M352.2,282.6h-0.8v-0.3l0.8-0.1v-0.8c0-0.3,0-0.5,0.1-0.7c0-0.2,0.1-0.3,0.2-0.4c0.2-0.3,0.6-0.4,1.1-0.4
		c0.2,0,0.4,0,0.6,0.1v0.5c-0.2,0-0.4,0-0.6,0c-0.3,0-0.6,0.1-0.7,0.2c-0.1,0.1-0.1,0.2-0.2,0.3s0,0.3,0,0.6v0.7h1.2v0.4h-1.2v4.1
		h-0.5V282.6z"/>
	<path class="st4" d="M354.4,284.5c0-1.6,0.7-2.4,2-2.4s2,0.8,2,2.4s-0.7,2.4-2,2.4S354.4,286.1,354.4,284.5z M357.4,285.9
		c0.2-0.3,0.3-0.8,0.3-1.5s-0.1-1.1-0.3-1.5s-0.6-0.5-1.1-0.5c-0.5,0-0.9,0.2-1.1,0.5s-0.3,0.8-0.3,1.5s0.1,1.1,0.3,1.5
		c0.2,0.3,0.6,0.5,1.1,0.5C356.9,286.4,357.2,286.3,357.4,285.9z"/>
	<path class="st4" d="M359.5,282.2h0.4l0,0.4c0.2-0.2,0.4-0.3,0.7-0.4c0.2-0.1,0.5-0.1,0.7-0.1c0.1,0,0.2,0,0.2,0v0.5
		c-0.1,0-0.2,0-0.3,0c-0.4,0-0.8,0.1-1.2,0.4v3.8h-0.5V282.2z"/>
	<path class="st4" d="M362.4,282.2h0.4l0,0.3c0.2-0.1,0.5-0.3,0.7-0.3c0.3-0.1,0.5-0.1,0.8-0.1c0.3,0,0.5,0,0.7,0.1
		c0.2,0.1,0.4,0.2,0.5,0.4c0.3-0.2,0.5-0.3,0.8-0.4c0.3-0.1,0.6-0.1,0.8-0.1c0.2,0,0.5,0,0.7,0.1c0.2,0.1,0.4,0.2,0.5,0.3
		c0.1,0.1,0.2,0.3,0.3,0.5c0.1,0.2,0.1,0.4,0.1,0.7v3.1h-0.5v-3c0-0.2,0-0.4-0.1-0.6c0-0.1-0.1-0.3-0.2-0.3
		c-0.2-0.2-0.5-0.3-0.8-0.3c-0.5,0-0.9,0.1-1.4,0.3c0.1,0.2,0.1,0.4,0.1,0.7v3.1h-0.5v-3c0-0.2,0-0.4-0.1-0.6c0-0.1-0.1-0.3-0.2-0.3
		c-0.2-0.2-0.4-0.3-0.8-0.3c-0.2,0-0.4,0-0.6,0.1c-0.2,0.1-0.5,0.1-0.7,0.3v3.8h-0.5V282.2z"/>
	<path class="st4" d="M370.3,286.5c-0.3-0.2-0.4-0.6-0.4-1c0-0.4,0.1-0.7,0.4-1c0.2-0.1,0.3-0.3,0.6-0.3c0.2-0.1,0.5-0.1,0.9-0.1
		h1.1v-0.4c0-0.4-0.1-0.7-0.3-0.9c-0.2-0.2-0.5-0.3-0.9-0.3c-0.4,0-0.8,0-1.3,0.1l0-0.4c0.5-0.1,0.9-0.2,1.4-0.2
		c0.6,0,1,0.1,1.3,0.4c0.2,0.3,0.4,0.7,0.4,1.2v3.1h-0.4l0-0.3c-0.2,0.1-0.5,0.2-0.7,0.3c-0.3,0.1-0.5,0.1-0.7,0.1
		C370.9,286.9,370.5,286.8,370.3,286.5z M372.1,286.3c0.2-0.1,0.4-0.1,0.6-0.2v-1.5h-1c-0.3,0-0.5,0-0.7,0.1c-0.2,0-0.3,0.1-0.4,0.2
		c-0.2,0.1-0.3,0.4-0.3,0.7c0,0.3,0.1,0.6,0.3,0.7s0.5,0.2,0.8,0.2C371.7,286.4,371.9,286.4,372.1,286.3z M370.7,281.2l1.6-1.5
		l0.4,0.5l-1.7,1.3L370.7,281.2z"/>
	<path class="st4" d="M375.2,286.6c-0.1-0.1-0.2-0.2-0.2-0.4c0-0.2-0.1-0.4-0.1-0.6v-2.9h-0.8v-0.3l0.8-0.1v-1
		c0.2-0.1,0.4-0.1,0.5-0.1v1.2h1.2v0.4h-1.2v2.7c0,0.2,0,0.4,0,0.5c0,0.1,0.1,0.2,0.1,0.3c0.1,0.1,0.3,0.2,0.6,0.2
		c0.2,0,0.4,0,0.7-0.1l0,0.4c-0.2,0.1-0.5,0.1-0.8,0.1C375.7,286.9,375.4,286.8,375.2,286.6z"/>
	<path class="st4" d="M377.8,280.9L377.8,280.9c0-0.3,0.1-0.4,0.3-0.4h0c0.2,0,0.3,0.1,0.3,0.4v0c0,0.2-0.1,0.4-0.3,0.4h0
		C377.9,281.3,377.8,281.2,377.8,280.9z M377.8,282.2h0.5v4.5h-0.5V282.2z"/>
	<path class="st4" d="M380.1,286.3c-0.4-0.4-0.5-1-0.5-1.8c0-0.8,0.2-1.4,0.5-1.8s0.9-0.6,1.6-0.6c0.4,0,0.7,0.1,1.1,0.2l0,0.4
		c-0.4-0.1-0.7-0.1-0.9-0.1c-0.6,0-1,0.2-1.3,0.5c-0.2,0.3-0.4,0.8-0.4,1.5c0,0.7,0.1,1.2,0.4,1.5c0.3,0.3,0.7,0.5,1.3,0.5
		c0.1,0,0.3,0,0.4,0s0.3,0,0.4-0.1l0,0.4c-0.3,0.1-0.7,0.1-1,0.1C381,286.9,380.5,286.7,380.1,286.3z"/>
	<path class="st4" d="M384,286.5c-0.3-0.2-0.4-0.6-0.4-1c0-0.4,0.1-0.7,0.4-1c0.2-0.1,0.3-0.3,0.6-0.3c0.2-0.1,0.5-0.1,0.9-0.1h1.1
		v-0.4c0-0.4-0.1-0.7-0.3-0.9c-0.2-0.2-0.5-0.3-0.9-0.3c-0.4,0-0.8,0-1.3,0.1l0-0.4c0.5-0.1,0.9-0.2,1.4-0.2c0.6,0,1,0.1,1.3,0.4
		c0.2,0.3,0.4,0.7,0.4,1.2v3.1h-0.4l0-0.3c-0.2,0.1-0.5,0.2-0.7,0.3c-0.3,0.1-0.5,0.1-0.7,0.1C384.6,286.9,384.2,286.8,384,286.5z
		 M385.8,286.3c0.2-0.1,0.4-0.1,0.6-0.2v-1.5h-1c-0.3,0-0.5,0-0.7,0.1c-0.2,0-0.3,0.1-0.4,0.2c-0.2,0.1-0.3,0.4-0.3,0.7
		c0,0.3,0.1,0.6,0.3,0.7s0.5,0.2,0.8,0.2C385.4,286.4,385.6,286.4,385.8,286.3z"/>
</g>
<g>
	<path class="st4" d="M415.6,269.3h3.3l-0.1,0.5h-2.6v2.4h2.1v0.5h-2.1v3h-0.6V269.3z"/>
	<path class="st4" d="M419.4,271.1h0.4l0,0.4c0.2-0.2,0.4-0.3,0.7-0.4c0.2-0.1,0.5-0.1,0.7-0.1c0.1,0,0.2,0,0.2,0v0.5
		c-0.1,0-0.2,0-0.3,0c-0.4,0-0.8,0.1-1.2,0.4v3.8h-0.5V271.1z"/>
	<path class="st4" d="M422.3,275.4c-0.3-0.2-0.4-0.6-0.4-1c0-0.4,0.1-0.7,0.4-1c0.2-0.1,0.3-0.3,0.6-0.3c0.2-0.1,0.5-0.1,0.9-0.1
		h1.1v-0.4c0-0.4-0.1-0.7-0.3-0.9c-0.2-0.2-0.5-0.3-0.9-0.3c-0.4,0-0.8,0-1.3,0.1l0-0.4c0.5-0.1,0.9-0.2,1.4-0.2
		c0.6,0,1,0.1,1.3,0.4c0.2,0.3,0.4,0.7,0.4,1.2v3.1h-0.4l0-0.3c-0.2,0.1-0.5,0.2-0.7,0.3c-0.3,0.1-0.5,0.1-0.7,0.1
		C422.9,275.8,422.6,275.6,422.3,275.4z M424.2,275.2c0.2-0.1,0.4-0.1,0.6-0.2v-1.5h-1c-0.3,0-0.5,0-0.7,0.1c-0.2,0-0.3,0.1-0.4,0.2
		c-0.2,0.1-0.3,0.4-0.3,0.7c0,0.3,0.1,0.6,0.3,0.7s0.5,0.2,0.8,0.2C423.7,275.3,423.9,275.3,424.2,275.2z"/>
	<path class="st4" d="M427.5,275.7c-0.2-0.1-0.4-0.2-0.5-0.3c-0.1-0.1-0.2-0.3-0.3-0.5c-0.1-0.2-0.1-0.4-0.1-0.7v-3.1h0.5v3
		c0,0.2,0,0.4,0.1,0.6c0,0.1,0.1,0.3,0.2,0.3c0.2,0.2,0.4,0.3,0.8,0.3c0.2,0,0.5,0,0.7-0.1c0.2-0.1,0.5-0.2,0.7-0.3v-3.8h0.5v4.5
		h-0.4l0-0.3c-0.5,0.3-1,0.5-1.6,0.5C427.9,275.8,427.7,275.7,427.5,275.7z"/>
	<path class="st4" d="M431.4,273.4c0-0.8,0.2-1.3,0.5-1.8c0.3-0.4,0.8-0.6,1.4-0.6c0.4,0,0.8,0.1,1.3,0.3V269h0.5v6.6h-0.4l0-0.3
		c-0.2,0.1-0.4,0.2-0.6,0.3c-0.2,0.1-0.5,0.1-0.7,0.1C432,275.8,431.4,275,431.4,273.4z M433.9,275.2c0.2-0.1,0.4-0.1,0.6-0.2v-3.3
		c-0.4-0.2-0.8-0.3-1.2-0.3c-0.5,0-0.9,0.2-1.1,0.5c-0.2,0.3-0.3,0.8-0.3,1.5c0,0.7,0.1,1.1,0.3,1.5c0.2,0.3,0.5,0.5,1,0.5
		C433.4,275.3,433.6,275.3,433.9,275.2z"/>
	<path class="st4" d="M436.7,275.2c-0.3-0.4-0.5-1-0.5-1.8c0-0.7,0.2-1.3,0.5-1.8c0.3-0.4,0.8-0.6,1.4-0.6c1.2,0,1.8,0.8,1.8,2.4
		v0.1c0,0,0,0.1,0,0.1c0,0,0,0-0.1,0h-3c0,0.6,0.1,1,0.4,1.3c0.3,0.3,0.7,0.4,1.2,0.4c0.4,0,0.7,0,1.1-0.1l0,0.4
		c-0.2,0-0.3,0.1-0.6,0.1s-0.5,0-0.6,0C437.6,275.8,437,275.6,436.7,275.2z M439.3,273.1c0-0.5-0.1-1-0.3-1.3
		c-0.2-0.3-0.5-0.5-1-0.5s-0.7,0.2-1,0.5c-0.2,0.3-0.3,0.7-0.3,1.3H439.3z"/>
	<path class="st4" d="M415.4,280.9L415.4,280.9c0-0.3,0.1-0.4,0.3-0.4h0c0.2,0,0.3,0.1,0.3,0.4v0c0,0.2-0.1,0.4-0.3,0.4h0
		C415.5,281.3,415.4,281.2,415.4,280.9z M415.5,282.2h0.5v4.5h-0.5V282.2z"/>
	<path class="st4" d="M417.4,282.2h0.4l0,0.3c0.5-0.3,1.1-0.5,1.6-0.5c0.2,0,0.5,0,0.7,0.1c0.2,0.1,0.4,0.2,0.5,0.3
		c0.1,0.1,0.2,0.3,0.3,0.5c0.1,0.2,0.1,0.4,0.1,0.7v3.1h-0.5v-3c0-0.2,0-0.4-0.1-0.6c0-0.1-0.1-0.3-0.2-0.3
		c-0.2-0.2-0.4-0.3-0.8-0.3c-0.2,0-0.5,0-0.7,0.1c-0.3,0.1-0.5,0.2-0.7,0.3v3.8h-0.5V282.2z"/>
	<path class="st4" d="M422.6,282.6h-0.8v-0.3l0.8-0.1v-0.8c0-0.3,0-0.5,0.1-0.7c0-0.2,0.1-0.3,0.2-0.4c0.2-0.3,0.6-0.4,1.1-0.4
		c0.2,0,0.4,0,0.6,0.1v0.5c-0.2,0-0.4,0-0.6,0c-0.3,0-0.6,0.1-0.7,0.2c-0.1,0.1-0.1,0.2-0.2,0.3s0,0.3,0,0.6v0.7h1.2v0.4h-1.2v4.1
		h-0.5V282.6z"/>
	<path class="st4" d="M424.8,284.5c0-1.6,0.7-2.4,2-2.4s2,0.8,2,2.4s-0.7,2.4-2,2.4S424.8,286.1,424.8,284.5z M427.9,285.9
		c0.2-0.3,0.3-0.8,0.3-1.5s-0.1-1.1-0.3-1.5s-0.6-0.5-1.1-0.5c-0.5,0-0.9,0.2-1.1,0.5s-0.3,0.8-0.3,1.5s0.1,1.1,0.3,1.5
		c0.2,0.3,0.6,0.5,1.1,0.5C427.3,286.4,427.6,286.3,427.9,285.9z"/>
	<path class="st4" d="M429.9,282.2h0.4l0,0.4c0.2-0.2,0.4-0.3,0.7-0.4c0.2-0.1,0.5-0.1,0.7-0.1c0.1,0,0.2,0,0.2,0v0.5
		c-0.1,0-0.2,0-0.3,0c-0.4,0-0.8,0.1-1.2,0.4v3.8h-0.5V282.2z"/>
	<path class="st4" d="M432.8,282.2h0.4l0,0.3c0.2-0.1,0.5-0.3,0.7-0.3c0.3-0.1,0.5-0.1,0.8-0.1c0.3,0,0.5,0,0.7,0.1
		c0.2,0.1,0.4,0.2,0.5,0.4c0.3-0.2,0.5-0.3,0.8-0.4c0.3-0.1,0.6-0.1,0.8-0.1c0.2,0,0.5,0,0.7,0.1c0.2,0.1,0.4,0.2,0.5,0.3
		c0.1,0.1,0.2,0.3,0.3,0.5c0.1,0.2,0.1,0.4,0.1,0.7v3.1h-0.5v-3c0-0.2,0-0.4-0.1-0.6c0-0.1-0.1-0.3-0.2-0.3
		c-0.2-0.2-0.5-0.3-0.8-0.3c-0.5,0-0.9,0.1-1.4,0.3c0.1,0.2,0.1,0.4,0.1,0.7v3.1h-0.5v-3c0-0.2,0-0.4-0.1-0.6c0-0.1-0.1-0.3-0.2-0.3
		c-0.2-0.2-0.4-0.3-0.8-0.3c-0.2,0-0.4,0-0.6,0.1c-0.2,0.1-0.5,0.1-0.7,0.3v3.8h-0.5V282.2z"/>
	<path class="st4" d="M440.7,286.5c-0.3-0.2-0.4-0.6-0.4-1c0-0.4,0.1-0.7,0.4-1c0.2-0.1,0.3-0.3,0.6-0.3c0.2-0.1,0.5-0.1,0.9-0.1
		h1.1v-0.4c0-0.4-0.1-0.7-0.3-0.9c-0.2-0.2-0.5-0.3-0.9-0.3c-0.4,0-0.8,0-1.3,0.1l0-0.4c0.5-0.1,0.9-0.2,1.4-0.2
		c0.6,0,1,0.1,1.3,0.4c0.2,0.3,0.4,0.7,0.4,1.2v3.1h-0.4l0-0.3c-0.2,0.1-0.5,0.2-0.7,0.3c-0.3,0.1-0.5,0.1-0.7,0.1
		C441.3,286.9,440.9,286.8,440.7,286.5z M442.5,286.3c0.2-0.1,0.4-0.1,0.6-0.2v-1.5h-1c-0.3,0-0.5,0-0.7,0.1c-0.2,0-0.3,0.1-0.4,0.2
		c-0.2,0.1-0.3,0.4-0.3,0.7c0,0.3,0.1,0.6,0.3,0.7s0.5,0.2,0.8,0.2C442.1,286.4,442.3,286.4,442.5,286.3z M441.1,281.2l1.6-1.5
		l0.4,0.5l-1.7,1.3L441.1,281.2z"/>
	<path class="st4" d="M445.6,286.6c-0.1-0.1-0.2-0.2-0.2-0.4c0-0.2-0.1-0.4-0.1-0.6v-2.9h-0.8v-0.3l0.8-0.1v-1
		c0.2-0.1,0.4-0.1,0.5-0.1v1.2h1.2v0.4h-1.2v2.7c0,0.2,0,0.4,0,0.5c0,0.1,0.1,0.2,0.1,0.3c0.1,0.1,0.3,0.2,0.6,0.2
		c0.2,0,0.4,0,0.7-0.1l0,0.4c-0.2,0.1-0.5,0.1-0.8,0.1C446.1,286.9,445.8,286.8,445.6,286.6z"/>
	<path class="st4" d="M448.2,280.9L448.2,280.9c0-0.3,0.1-0.4,0.3-0.4h0c0.2,0,0.3,0.1,0.3,0.4v0c0,0.2-0.1,0.4-0.3,0.4h0
		C448.3,281.3,448.2,281.2,448.2,280.9z M448.3,282.2h0.5v4.5h-0.5V282.2z"/>
	<path class="st4" d="M450.5,286.3c-0.4-0.4-0.5-1-0.5-1.8c0-0.8,0.2-1.4,0.5-1.8s0.9-0.6,1.6-0.6c0.4,0,0.7,0.1,1.1,0.2l0,0.4
		c-0.4-0.1-0.7-0.1-0.9-0.1c-0.6,0-1,0.2-1.3,0.5c-0.2,0.3-0.4,0.8-0.4,1.5c0,0.7,0.1,1.2,0.4,1.5c0.3,0.3,0.7,0.5,1.3,0.5
		c0.1,0,0.3,0,0.4,0s0.3,0,0.4-0.1l0,0.4c-0.3,0.1-0.7,0.1-1,0.1C451.4,286.9,450.9,286.7,450.5,286.3z"/>
	<path class="st4" d="M453.9,284.5c0-1.6,0.7-2.4,2-2.4s2,0.8,2,2.4s-0.7,2.4-2,2.4S453.9,286.1,453.9,284.5z M457,285.9
		c0.2-0.3,0.3-0.8,0.3-1.5s-0.1-1.1-0.3-1.5s-0.6-0.5-1.1-0.5c-0.5,0-0.9,0.2-1.1,0.5s-0.3,0.8-0.3,1.5s0.1,1.1,0.3,1.5
		c0.2,0.3,0.6,0.5,1.1,0.5C456.4,286.4,456.8,286.3,457,285.9z"/>
</g>
<g>
	<path class="st4" d="M482.1,269.3h0.6v6.3h-0.6V269.3z"/>
	<path class="st4" d="M484.1,271.1h0.4l0,0.3c0.5-0.3,1.1-0.5,1.6-0.5c0.2,0,0.5,0,0.7,0.1c0.2,0.1,0.4,0.2,0.5,0.3
		c0.1,0.1,0.2,0.3,0.3,0.5c0.1,0.2,0.1,0.4,0.1,0.7v3.1h-0.5v-3c0-0.2,0-0.4-0.1-0.6c0-0.1-0.1-0.3-0.2-0.3
		c-0.2-0.2-0.4-0.3-0.8-0.3c-0.2,0-0.5,0-0.7,0.1c-0.3,0.1-0.5,0.2-0.7,0.3v3.8h-0.5V271.1z"/>
	<path class="st4" d="M489.7,275.5c-0.1-0.1-0.2-0.2-0.2-0.4c0-0.2-0.1-0.4-0.1-0.6v-2.9h-0.8v-0.3l0.8-0.1v-1
		c0.2-0.1,0.4-0.1,0.5-0.1v1.2h1.2v0.4h-1.2v2.7c0,0.2,0,0.4,0,0.5c0,0.1,0.1,0.2,0.1,0.3c0.1,0.1,0.3,0.2,0.6,0.2
		c0.2,0,0.4,0,0.7-0.1l0,0.4c-0.2,0.1-0.5,0.1-0.8,0.1C490.2,275.8,489.8,275.7,489.7,275.5z"/>
	<path class="st4" d="M492.6,275.2c-0.3-0.4-0.5-1-0.5-1.8c0-0.7,0.2-1.3,0.5-1.8c0.3-0.4,0.8-0.6,1.4-0.6c1.2,0,1.8,0.8,1.8,2.4
		v0.1c0,0,0,0.1,0,0.1c0,0,0,0-0.1,0h-3c0,0.6,0.1,1,0.4,1.3c0.3,0.3,0.7,0.4,1.2,0.4c0.4,0,0.7,0,1.1-0.1l0,0.4
		c-0.2,0-0.3,0.1-0.6,0.1s-0.5,0-0.6,0C493.5,275.8,492.9,275.6,492.6,275.2z M495.2,273.1c0-0.5-0.1-1-0.3-1.3
		c-0.2-0.3-0.5-0.5-1-0.5s-0.7,0.2-1,0.5c-0.2,0.3-0.3,0.7-0.3,1.3H495.2z"/>
	<path class="st4" d="M496.9,271.1h0.4l0,0.4c0.2-0.2,0.4-0.3,0.7-0.4c0.2-0.1,0.5-0.1,0.7-0.1c0.1,0,0.2,0,0.2,0v0.5
		c-0.1,0-0.2,0-0.3,0c-0.4,0-0.8,0.1-1.2,0.4v3.8h-0.5V271.1z"/>
	<path class="st4" d="M500.1,271.5h-0.8v-0.3l0.8-0.1v-0.8c0-0.3,0-0.5,0.1-0.7c0-0.2,0.1-0.3,0.2-0.4c0.2-0.3,0.6-0.4,1.1-0.4
		c0.2,0,0.4,0,0.6,0.1v0.5c-0.2,0-0.4,0-0.6,0c-0.3,0-0.6,0.1-0.7,0.2c-0.1,0.1-0.1,0.2-0.2,0.3s0,0.3,0,0.6v0.7h1.2v0.4h-1.2v4.1
		h-0.5V271.5z"/>
	<path class="st4" d="M502.8,275.2c-0.3-0.4-0.5-1-0.5-1.8c0-0.7,0.2-1.3,0.5-1.8c0.3-0.4,0.8-0.6,1.4-0.6c1.2,0,1.8,0.8,1.8,2.4
		v0.1c0,0,0,0.1,0,0.1c0,0,0,0-0.1,0h-3c0,0.6,0.1,1,0.4,1.3c0.3,0.3,0.7,0.4,1.2,0.4c0.4,0,0.7,0,1.2-0.1l0,0.4
		c-0.2,0-0.3,0.1-0.6,0.1c-0.2,0-0.5,0-0.6,0C503.7,275.8,503.2,275.6,502.8,275.2z M505.4,273.1c0-0.5-0.1-1-0.3-1.3
		c-0.2-0.3-0.5-0.5-1-0.5c-0.4,0-0.7,0.2-1,0.5c-0.2,0.3-0.3,0.7-0.3,1.3H505.4z"/>
	<path class="st4" d="M507.1,271.1h0.4l0,0.4c0.2-0.2,0.4-0.3,0.7-0.4s0.5-0.1,0.7-0.1c0.1,0,0.2,0,0.2,0v0.5c-0.1,0-0.2,0-0.3,0
		c-0.4,0-0.8,0.1-1.2,0.4v3.8h-0.5V271.1z"/>
	<path class="st4" d="M510.1,275.2c-0.3-0.4-0.5-1-0.5-1.8c0-0.7,0.2-1.3,0.5-1.8c0.3-0.4,0.8-0.6,1.4-0.6c1.2,0,1.8,0.8,1.8,2.4
		v0.1c0,0,0,0.1,0,0.1c0,0,0,0-0.1,0h-3c0,0.6,0.1,1,0.4,1.3c0.3,0.3,0.7,0.4,1.2,0.4c0.4,0,0.7,0,1.2-0.1l0,0.4
		c-0.2,0-0.3,0.1-0.6,0.1c-0.2,0-0.5,0-0.6,0C511,275.8,510.5,275.6,510.1,275.2z M512.7,273.1c0-0.5-0.1-1-0.3-1.3
		c-0.2-0.3-0.5-0.5-1-0.5c-0.4,0-0.7,0.2-1,0.5c-0.2,0.3-0.3,0.7-0.3,1.3H512.7z"/>
	<path class="st4" d="M514.4,271.1h0.4l0,0.3c0.5-0.3,1.1-0.5,1.6-0.5c0.2,0,0.5,0,0.7,0.1c0.2,0.1,0.4,0.2,0.5,0.3
		c0.1,0.1,0.2,0.3,0.3,0.5c0.1,0.2,0.1,0.4,0.1,0.7v3.1h-0.5v-3c0-0.2,0-0.4-0.1-0.6c0-0.1-0.1-0.3-0.2-0.3
		c-0.2-0.2-0.4-0.3-0.8-0.3c-0.2,0-0.5,0-0.7,0.1c-0.3,0.1-0.5,0.2-0.7,0.3v3.8h-0.5V271.1z"/>
	<path class="st4" d="M519.7,275.2c-0.4-0.4-0.5-1-0.5-1.8c0-0.8,0.2-1.4,0.5-1.8c0.4-0.4,0.9-0.6,1.6-0.6c0.4,0,0.7,0.1,1.1,0.2
		l0,0.4c-0.4-0.1-0.7-0.1-0.9-0.1c-0.6,0-1,0.2-1.3,0.5c-0.2,0.3-0.4,0.8-0.4,1.5c0,0.7,0.1,1.2,0.4,1.5c0.3,0.3,0.7,0.5,1.3,0.5
		c0.1,0,0.3,0,0.4,0s0.3,0,0.4-0.1l0,0.4c-0.3,0.1-0.7,0.1-1,0.1C520.6,275.8,520.1,275.6,519.7,275.2z"/>
	<path class="st4" d="M523.3,269.8L523.3,269.8c0-0.3,0.1-0.4,0.3-0.4h0c0.2,0,0.3,0.1,0.3,0.4v0c0,0.2-0.1,0.4-0.3,0.4h0
		C523.5,270.2,523.3,270,523.3,269.8z M523.4,271.1h0.5v4.5h-0.5V271.1z"/>
	<path class="st4" d="M525.5,275.4c-0.3-0.2-0.4-0.6-0.4-1c0-0.4,0.1-0.7,0.4-1c0.2-0.1,0.3-0.3,0.6-0.3c0.2-0.1,0.5-0.1,0.9-0.1
		h1.1v-0.4c0-0.4-0.1-0.7-0.3-0.9c-0.2-0.2-0.5-0.3-0.9-0.3c-0.4,0-0.8,0-1.3,0.1l0-0.4c0.5-0.1,0.9-0.2,1.4-0.2
		c0.6,0,1,0.1,1.3,0.4c0.2,0.3,0.4,0.7,0.4,1.2v3.1h-0.4l0-0.3c-0.2,0.1-0.5,0.2-0.7,0.3c-0.3,0.1-0.5,0.1-0.7,0.1
		C526.2,275.8,525.8,275.6,525.5,275.4z M527.4,275.2c0.2-0.1,0.4-0.1,0.6-0.2v-1.5h-1c-0.3,0-0.5,0-0.7,0.1c-0.2,0-0.3,0.1-0.4,0.2
		c-0.2,0.1-0.3,0.4-0.3,0.7c0,0.3,0.1,0.6,0.3,0.7s0.5,0.2,0.8,0.2C526.9,275.3,527.1,275.3,527.4,275.2z"/>
	<path class="st4" d="M482.2,286.3c-0.3-0.4-0.5-1-0.5-1.8c0-0.7,0.2-1.3,0.5-1.8c0.3-0.4,0.8-0.6,1.4-0.6c1.2,0,1.8,0.8,1.8,2.4
		v0.1c0,0,0,0.1,0,0.1c0,0,0,0-0.1,0h-3c0,0.6,0.1,1,0.4,1.3c0.3,0.3,0.7,0.4,1.2,0.4c0.4,0,0.7,0,1.1-0.1l0,0.4
		c-0.2,0-0.3,0.1-0.6,0.1s-0.5,0-0.6,0C483.1,286.9,482.6,286.7,482.2,286.3z M484.8,284.3c0-0.5-0.1-1-0.3-1.3
		c-0.2-0.3-0.5-0.5-1-0.5s-0.7,0.2-1,0.5c-0.2,0.3-0.3,0.7-0.3,1.3H484.8z"/>
	<path class="st4" d="M486.5,282.2h0.4l0,0.3c0.5-0.3,1.1-0.5,1.6-0.5c0.2,0,0.5,0,0.7,0.1c0.2,0.1,0.4,0.2,0.5,0.3
		c0.1,0.1,0.2,0.3,0.3,0.5c0.1,0.2,0.1,0.4,0.1,0.7v3.1h-0.5v-3c0-0.2,0-0.4-0.1-0.6c0-0.1-0.1-0.3-0.2-0.3
		c-0.2-0.2-0.4-0.3-0.8-0.3c-0.2,0-0.5,0-0.7,0.1c-0.3,0.1-0.5,0.2-0.7,0.3v3.8h-0.5V282.2z"/>
	<path class="st4" d="M493.3,280.1h0.5v6.6h-0.5V280.1z"/>
	<path class="st4" d="M495,284.5c0-1.6,0.7-2.4,2-2.4s2,0.8,2,2.4s-0.7,2.4-2,2.4S495,286.1,495,284.5z M498,285.9
		c0.2-0.3,0.3-0.8,0.3-1.5s-0.1-1.1-0.3-1.5s-0.6-0.5-1.1-0.5c-0.5,0-0.9,0.2-1.1,0.5s-0.3,0.8-0.3,1.5s0.1,1.1,0.3,1.5
		c0.2,0.3,0.6,0.5,1.1,0.5C497.5,286.4,497.8,286.3,498,285.9z"/>
	<path class="st4" d="M500.5,286.8c-0.2,0-0.4-0.1-0.6-0.1l0-0.4c0.4,0.1,0.8,0.1,1.2,0.1c0.4,0,0.7-0.1,0.9-0.2
		c0.2-0.1,0.3-0.3,0.3-0.6c0-0.2-0.1-0.3-0.2-0.5s-0.2-0.2-0.4-0.3c-0.1-0.1-0.4-0.1-0.6-0.2c-0.3-0.1-0.6-0.2-0.7-0.3
		c-0.2-0.1-0.3-0.2-0.5-0.4s-0.2-0.4-0.2-0.7c0-0.4,0.1-0.7,0.4-1c0.3-0.2,0.7-0.3,1.2-0.3c0.2,0,0.4,0,0.6,0c0.2,0,0.4,0.1,0.5,0.1
		l0,0.4c-0.4-0.1-0.8-0.1-1.1-0.1c-0.4,0-0.7,0.1-0.9,0.2c-0.2,0.1-0.3,0.3-0.3,0.6c0,0.2,0,0.3,0.1,0.4c0.1,0.1,0.2,0.2,0.4,0.3
		c0.1,0.1,0.3,0.1,0.6,0.2c0.3,0.1,0.6,0.2,0.7,0.3s0.3,0.2,0.5,0.4c0.1,0.2,0.2,0.4,0.2,0.7c0,0.4-0.1,0.7-0.4,1
		c-0.3,0.2-0.7,0.3-1.3,0.3C500.9,286.9,500.7,286.9,500.5,286.8z"/>
	<path class="st4" d="M505.6,284.5c0-0.8,0.2-1.3,0.5-1.8c0.3-0.4,0.8-0.6,1.4-0.6c0.4,0,0.8,0.1,1.3,0.3v-2.3h0.5v6.6h-0.4l0-0.3
		c-0.2,0.1-0.4,0.2-0.6,0.3s-0.5,0.1-0.7,0.1C506.2,286.9,505.6,286.1,505.6,284.5z M508.1,286.3c0.2-0.1,0.4-0.1,0.6-0.2v-3.3
		c-0.4-0.2-0.8-0.3-1.2-0.3c-0.5,0-0.9,0.2-1.1,0.5c-0.2,0.3-0.3,0.8-0.3,1.5c0,0.7,0.1,1.1,0.3,1.5c0.2,0.3,0.5,0.5,1,0.5
		C507.6,286.4,507.9,286.4,508.1,286.3z"/>
	<path class="st4" d="M510.8,286.5c-0.3-0.2-0.4-0.6-0.4-1c0-0.4,0.1-0.7,0.4-1c0.2-0.1,0.3-0.3,0.6-0.3c0.2-0.1,0.5-0.1,0.9-0.1
		h1.1v-0.4c0-0.4-0.1-0.7-0.3-0.9c-0.2-0.2-0.5-0.3-0.9-0.3c-0.4,0-0.8,0-1.3,0.1l0-0.4c0.5-0.1,0.9-0.2,1.4-0.2
		c0.6,0,1,0.1,1.3,0.4c0.2,0.3,0.4,0.7,0.4,1.2v3.1h-0.4l0-0.3c-0.2,0.1-0.5,0.2-0.7,0.3c-0.3,0.1-0.5,0.1-0.7,0.1
		C511.4,286.9,511,286.8,510.8,286.5z M512.6,286.3c0.2-0.1,0.4-0.1,0.6-0.2v-1.5h-1c-0.3,0-0.5,0-0.7,0.1c-0.2,0-0.3,0.1-0.4,0.2
		c-0.2,0.1-0.3,0.4-0.3,0.7c0,0.3,0.1,0.6,0.3,0.7s0.5,0.2,0.8,0.2C512.2,286.4,512.4,286.4,512.6,286.3z"/>
	<path class="st4" d="M515.7,286.6c-0.1-0.1-0.2-0.2-0.2-0.4c0-0.2-0.1-0.4-0.1-0.6v-2.9h-0.8v-0.3l0.8-0.1v-1
		c0.2-0.1,0.4-0.1,0.5-0.1v1.2h1.2v0.4h-1.2v2.7c0,0.2,0,0.4,0,0.5s0.1,0.2,0.1,0.3c0.1,0.1,0.3,0.2,0.6,0.2c0.2,0,0.4,0,0.7-0.1
		l0,0.4c-0.2,0.1-0.5,0.1-0.8,0.1C516.2,286.9,515.9,286.8,515.7,286.6z"/>
	<path class="st4" d="M518.1,284.5c0-1.6,0.7-2.4,2-2.4s2,0.8,2,2.4s-0.7,2.4-2,2.4S518.1,286.1,518.1,284.5z M521.1,285.9
		c0.2-0.3,0.3-0.8,0.3-1.5s-0.1-1.1-0.3-1.5c-0.2-0.3-0.6-0.5-1.1-0.5s-0.9,0.2-1.1,0.5s-0.3,0.8-0.3,1.5s0.1,1.1,0.3,1.5
		c0.2,0.3,0.6,0.5,1.1,0.5S520.9,286.3,521.1,285.9z"/>
	<path class="st4" d="M523.6,286.8c-0.2,0-0.4-0.1-0.6-0.1l0-0.4c0.4,0.1,0.8,0.1,1.2,0.1c0.4,0,0.7-0.1,0.9-0.2
		c0.2-0.1,0.3-0.3,0.3-0.6c0-0.2-0.1-0.3-0.2-0.5s-0.2-0.2-0.4-0.3c-0.1-0.1-0.4-0.1-0.6-0.2c-0.3-0.1-0.6-0.2-0.7-0.3
		c-0.2-0.1-0.3-0.2-0.5-0.4s-0.2-0.4-0.2-0.7c0-0.4,0.1-0.7,0.4-1c0.3-0.2,0.7-0.3,1.2-0.3c0.2,0,0.4,0,0.6,0c0.2,0,0.4,0.1,0.5,0.1
		l0,0.4c-0.4-0.1-0.8-0.1-1.1-0.1c-0.4,0-0.7,0.1-0.9,0.2c-0.2,0.1-0.3,0.3-0.3,0.6c0,0.2,0,0.3,0.1,0.4s0.2,0.2,0.4,0.3
		c0.1,0.1,0.3,0.1,0.6,0.2c0.3,0.1,0.6,0.2,0.7,0.3s0.3,0.2,0.5,0.4s0.2,0.4,0.2,0.7c0,0.4-0.1,0.7-0.4,1s-0.7,0.3-1.3,0.3
		C524,286.9,523.8,286.9,523.6,286.8z"/>
	<path class="st4" d="M483.1,300l-0.1-0.5c0.2,0,0.4,0,0.6,0c0.2,0,0.5,0,0.6-0.1c0.2,0,0.3-0.1,0.4-0.2c0.1-0.1,0.2-0.2,0.2-0.4
		s0.1-0.4,0.1-0.6v-0.8c-0.5,0.3-1,0.4-1.5,0.4c-0.2,0-0.5,0-0.7-0.1c-0.2-0.1-0.4-0.2-0.5-0.3c-0.1-0.1-0.2-0.3-0.3-0.5
		c-0.1-0.2-0.1-0.4-0.1-0.7v-3.1h0.5v3c0,0.2,0,0.4,0.1,0.6c0,0.1,0.1,0.3,0.2,0.3c0.2,0.2,0.4,0.3,0.8,0.3c0.2,0,0.5,0,0.7-0.1
		c0.2-0.1,0.5-0.2,0.7-0.3v-3.8h0.5v5.1c0,0.3,0,0.6-0.1,0.8c-0.1,0.2-0.2,0.4-0.3,0.5c-0.3,0.3-0.7,0.4-1.4,0.4
		C483.5,300.1,483.2,300.1,483.1,300z"/>
	<path class="st4" d="M489,297.4c-0.3-0.4-0.5-1-0.5-1.8c0-0.7,0.2-1.3,0.5-1.8c0.3-0.4,0.8-0.6,1.4-0.6c1.2,0,1.8,0.8,1.8,2.4v0.1
		c0,0,0,0.1,0,0.1c0,0,0,0-0.1,0h-3c0,0.6,0.1,1,0.4,1.3c0.3,0.3,0.7,0.4,1.2,0.4c0.4,0,0.7,0,1.1-0.1l0,0.4c-0.2,0-0.3,0.1-0.6,0.1
		s-0.5,0-0.6,0C489.9,298,489.3,297.8,489,297.4z M491.6,295.4c0-0.5-0.1-1-0.3-1.3c-0.2-0.3-0.5-0.5-1-0.5s-0.7,0.2-1,0.5
		c-0.2,0.3-0.3,0.7-0.3,1.3H491.6z"/>
	<path class="st4" d="M493.3,293.3h0.4l0,0.3c0.5-0.3,1.1-0.5,1.6-0.5c0.2,0,0.5,0,0.7,0.1c0.2,0.1,0.4,0.2,0.5,0.3
		c0.1,0.1,0.2,0.3,0.3,0.5c0.1,0.2,0.1,0.4,0.1,0.7v3.1h-0.5v-3c0-0.2,0-0.4-0.1-0.6c0-0.1-0.1-0.3-0.2-0.3
		c-0.2-0.2-0.4-0.3-0.8-0.3c-0.2,0-0.5,0-0.7,0.1c-0.3,0.1-0.5,0.2-0.7,0.3v3.8h-0.5V293.3z"/>
	<path class="st4" d="M500.3,297.4c-0.3-0.4-0.5-1-0.5-1.8c0-0.7,0.2-1.3,0.5-1.8c0.3-0.4,0.8-0.6,1.4-0.6c1.2,0,1.8,0.8,1.8,2.4
		v0.1c0,0,0,0.1,0,0.1c0,0,0,0-0.1,0h-3c0,0.6,0.1,1,0.4,1.3c0.3,0.3,0.7,0.4,1.2,0.4c0.4,0,0.7,0,1.1-0.1l0,0.4
		c-0.2,0-0.4,0.1-0.6,0.1s-0.5,0-0.6,0C501.2,298,500.7,297.8,500.3,297.4z M502.9,295.4c0-0.5-0.1-1-0.3-1.3
		c-0.2-0.3-0.5-0.5-1-0.5s-0.7,0.2-1,0.5c-0.2,0.3-0.3,0.7-0.3,1.3H502.9z"/>
	<path class="st4" d="M504.7,291.3h0.5v6.6h-0.5V291.3z"/>
	<path class="st4" d="M507,298c-0.2,0-0.4-0.1-0.6-0.1l0-0.4c0.4,0.1,0.8,0.1,1.2,0.1c0.4,0,0.7-0.1,0.9-0.2
		c0.2-0.1,0.3-0.3,0.3-0.6c0-0.2-0.1-0.3-0.2-0.5s-0.2-0.2-0.4-0.3c-0.1-0.1-0.4-0.1-0.6-0.2c-0.3-0.1-0.6-0.2-0.7-0.3
		c-0.2-0.1-0.3-0.2-0.5-0.4s-0.2-0.4-0.2-0.7c0-0.4,0.1-0.7,0.4-1c0.3-0.2,0.7-0.3,1.2-0.3c0.2,0,0.4,0,0.6,0c0.2,0,0.4,0.1,0.5,0.1
		l0,0.4c-0.4-0.1-0.8-0.1-1.1-0.1c-0.4,0-0.7,0.1-0.9,0.2c-0.2,0.1-0.3,0.3-0.3,0.6c0,0.2,0,0.3,0.1,0.4s0.2,0.2,0.4,0.3
		c0.1,0.1,0.3,0.1,0.6,0.2c0.3,0.1,0.6,0.2,0.7,0.3s0.3,0.2,0.5,0.4s0.2,0.4,0.2,0.7c0,0.4-0.1,0.7-0.4,1s-0.7,0.3-1.3,0.3
		C507.4,298,507.2,298,507,298z"/>
	<path class="st4" d="M510.4,292.1L510.4,292.1c0-0.3,0.1-0.4,0.3-0.4h0c0.2,0,0.3,0.1,0.3,0.4v0c0,0.2-0.1,0.4-0.3,0.4h0
		C510.5,292.4,510.4,292.3,510.4,292.1z M510.5,293.3h0.5v4.5h-0.5V293.3z"/>
	<path class="st4" d="M512.8,298c-0.2,0-0.4-0.1-0.6-0.1l0-0.4c0.4,0.1,0.8,0.1,1.2,0.1c0.4,0,0.7-0.1,0.9-0.2
		c0.2-0.1,0.3-0.3,0.3-0.6c0-0.2-0.1-0.3-0.2-0.5s-0.2-0.2-0.4-0.3c-0.1-0.1-0.4-0.1-0.6-0.2c-0.3-0.1-0.6-0.2-0.7-0.3
		c-0.2-0.1-0.3-0.2-0.5-0.4s-0.2-0.4-0.2-0.7c0-0.4,0.1-0.7,0.4-1c0.3-0.2,0.7-0.3,1.2-0.3c0.2,0,0.4,0,0.6,0c0.2,0,0.4,0.1,0.5,0.1
		l0,0.4c-0.4-0.1-0.8-0.1-1.1-0.1c-0.4,0-0.7,0.1-0.9,0.2c-0.2,0.1-0.3,0.3-0.3,0.6c0,0.2,0,0.3,0.1,0.4s0.2,0.2,0.4,0.3
		c0.1,0.1,0.3,0.1,0.6,0.2c0.3,0.1,0.6,0.2,0.7,0.3s0.3,0.2,0.5,0.4s0.2,0.4,0.2,0.7c0,0.4-0.1,0.7-0.4,1s-0.7,0.3-1.3,0.3
		C513.2,298,513,298,512.8,298z"/>
	<path class="st4" d="M516.8,297.7c-0.1-0.1-0.2-0.2-0.2-0.4c0-0.2-0.1-0.4-0.1-0.6v-2.9h-0.8v-0.3l0.8-0.1v-1
		c0.2-0.1,0.4-0.1,0.5-0.1v1.2h1.2v0.4h-1.2v2.7c0,0.2,0,0.4,0,0.5s0.1,0.2,0.1,0.3c0.1,0.1,0.3,0.2,0.6,0.2c0.2,0,0.4,0,0.7-0.1
		l0,0.4c-0.2,0.1-0.5,0.1-0.8,0.1C517.3,298,517,297.9,516.8,297.7z"/>
	<path class="st4" d="M519.7,297.4c-0.3-0.4-0.5-1-0.5-1.8c0-0.7,0.2-1.3,0.5-1.8c0.3-0.4,0.8-0.6,1.4-0.6c1.2,0,1.8,0.8,1.8,2.4
		v0.1c0,0,0,0.1,0,0.1c0,0,0,0-0.1,0h-3c0,0.6,0.1,1,0.4,1.3c0.3,0.3,0.7,0.4,1.2,0.4c0.4,0,0.7,0,1.2-0.1l0,0.4
		c-0.2,0-0.3,0.1-0.6,0.1c-0.2,0-0.5,0-0.6,0C520.6,298,520.1,297.8,519.7,297.4z M522.3,295.4c0-0.5-0.1-1-0.3-1.3
		c-0.2-0.3-0.5-0.5-1-0.5c-0.4,0-0.7,0.2-1,0.5c-0.2,0.3-0.3,0.7-0.3,1.3H522.3z"/>
	<path class="st4" d="M524,293.3h0.4l0,0.3c0.2-0.1,0.5-0.3,0.7-0.3c0.3-0.1,0.5-0.1,0.8-0.1c0.3,0,0.5,0,0.7,0.1
		c0.2,0.1,0.4,0.2,0.5,0.4c0.3-0.2,0.5-0.3,0.8-0.4c0.3-0.1,0.6-0.1,0.8-0.1c0.2,0,0.5,0,0.7,0.1c0.2,0.1,0.4,0.2,0.5,0.3
		c0.1,0.1,0.2,0.3,0.3,0.5c0.1,0.2,0.1,0.4,0.1,0.7v3.1h-0.5v-3c0-0.2,0-0.4-0.1-0.6c0-0.1-0.1-0.3-0.2-0.3
		c-0.2-0.2-0.5-0.3-0.8-0.3c-0.5,0-0.9,0.1-1.4,0.3c0.1,0.2,0.1,0.4,0.1,0.7v3.1H527v-3c0-0.2,0-0.4-0.1-0.6c0-0.1-0.1-0.3-0.2-0.3
		c-0.2-0.2-0.4-0.3-0.8-0.3c-0.2,0-0.4,0-0.6,0.1c-0.2,0.1-0.5,0.1-0.7,0.3v3.8H524V293.3z"/>
	<path class="st4" d="M531.9,297.7c-0.3-0.2-0.4-0.6-0.4-1c0-0.4,0.1-0.7,0.4-1c0.2-0.1,0.3-0.3,0.6-0.3c0.2-0.1,0.5-0.1,0.9-0.1
		h1.1v-0.4c0-0.4-0.1-0.7-0.3-0.9c-0.2-0.2-0.5-0.3-0.9-0.3c-0.4,0-0.8,0-1.3,0.1l0-0.4c0.5-0.1,0.9-0.2,1.4-0.2
		c0.6,0,1,0.1,1.3,0.4c0.2,0.3,0.4,0.7,0.4,1.2v3.1h-0.4l0-0.3c-0.2,0.1-0.5,0.2-0.7,0.3c-0.3,0.1-0.5,0.1-0.7,0.1
		C532.6,298,532.2,297.9,531.9,297.7z M533.8,297.5c0.2-0.1,0.4-0.1,0.6-0.2v-1.5h-1c-0.3,0-0.5,0-0.7,0.1c-0.2,0-0.3,0.1-0.4,0.2
		c-0.2,0.1-0.3,0.4-0.3,0.7c0,0.3,0.1,0.6,0.3,0.7s0.5,0.2,0.8,0.2C533.3,297.5,533.5,297.5,533.8,297.5z"/>
</g>
<g>
	<path class="st0" d="M5.8,5.9h1.8c0.7,0,1.2,0.1,1.7,0.2c0.4,0.1,0.8,0.3,1.1,0.6c0.5,0.6,0.8,1.6,0.8,2.9c0,0.8-0.1,1.4-0.3,2
		c-0.2,0.5-0.4,0.9-0.7,1.2c-0.5,0.4-1.2,0.7-2.3,0.7H5.8V5.9z M7.8,12.9c0.9,0,1.5-0.2,1.9-0.6c0.3-0.3,0.5-0.6,0.6-1
		c0.1-0.4,0.2-1,0.2-1.6c0-0.6-0.1-1.1-0.2-1.6c-0.1-0.4-0.3-0.7-0.5-1C9.5,6.9,9.3,6.8,8.9,6.7C8.6,6.6,8.1,6.5,7.6,6.5H6.5v6.4
		H7.8z"/>
	<path class="st0" d="M12.8,5.9h4l-0.1,0.6h-3.3v2.9h2.7V10h-2.7v3h3.4v0.6h-4.1V5.9z"/>
	<path class="st0" d="M18.5,5.9h0.7v7h3.3v0.6h-4V5.9z"/>
	<path class="st0" d="M23.9,5.9h0.7v7.6h-0.7V5.9z"/>
	<path class="st0" d="M28.3,6.5h-2.4V5.9h5.6l-0.1,0.6H29v7h-0.7V6.5z"/>
	<path class="st0" d="M32.6,12.7c-0.5-0.7-0.7-1.7-0.7-2.9s0.2-2.3,0.7-2.9s1.2-1,2.2-1s1.7,0.3,2.2,1c0.5,0.7,0.7,1.7,0.7,2.9
		S37.4,12,37,12.7c-0.5,0.7-1.2,1-2.2,1S33.1,13.4,32.6,12.7z M36.5,12.2c0.3-0.6,0.5-1.4,0.5-2.5c0-1.1-0.2-1.9-0.5-2.5
		c-0.3-0.6-0.9-0.9-1.7-0.9s-1.4,0.3-1.7,0.9c-0.3,0.6-0.5,1.4-0.5,2.5c0,1.1,0.2,1.9,0.5,2.5c0.3,0.6,0.9,0.8,1.7,0.8
		S36.1,12.8,36.5,12.2z"/>
	<path class="st0" d="M39,13.4l0.1-0.6c0.6,0.2,1.2,0.3,1.8,0.3c0.4,0,0.7,0,0.9-0.1c0.2-0.1,0.4-0.1,0.6-0.3
		c0.3-0.2,0.5-0.6,0.5-1.1c0-0.3-0.1-0.6-0.2-0.8c-0.2-0.2-0.4-0.4-0.6-0.5c-0.2-0.1-0.6-0.3-1-0.5c-0.5-0.2-0.8-0.4-1.1-0.5
		S39.4,9,39.3,8.7c-0.2-0.3-0.3-0.6-0.3-1c0-0.5,0.2-1,0.5-1.3c0.4-0.4,1-0.6,1.9-0.6c0.6,0,1.2,0.1,1.7,0.3L43,6.6
		c-0.5-0.1-1-0.2-1.6-0.2c-1.2,0-1.8,0.4-1.8,1.3c0,0.3,0.1,0.5,0.2,0.7c0.2,0.2,0.3,0.4,0.6,0.5c0.2,0.1,0.5,0.3,1,0.5
		c0.5,0.2,0.8,0.4,1.1,0.6s0.5,0.4,0.7,0.7s0.3,0.6,0.3,1.1c0,0.7-0.2,1.2-0.7,1.6c-0.4,0.3-1.1,0.5-1.9,0.5
		C40.3,13.7,39.6,13.6,39,13.4z"/>
</g>
<g>
	<path class="st0" d="M542.3,252.8h-2.4v-0.6h5.6l-0.1,0.6H543v7h-0.7V252.8z"/>
	<path class="st0" d="M546.7,252.3h0.7v7.6h-0.7V252.3z"/>
	<path class="st0" d="M549.4,252.3h2.1c0.5,0,0.9,0,1.2,0.1c0.3,0.1,0.6,0.2,0.8,0.5c0.2,0.2,0.3,0.4,0.4,0.7s0.1,0.6,0.1,1
		c0,0.8-0.2,1.4-0.6,1.8c-0.4,0.4-1,0.6-1.8,0.6H550v2.9h-0.7V252.3z M551.4,256.4c0.4,0,0.7,0,0.9-0.1c0.2-0.1,0.4-0.2,0.6-0.3
		s0.3-0.3,0.3-0.6c0.1-0.2,0.1-0.5,0.1-0.8c0-0.6-0.1-1-0.4-1.3c-0.1-0.2-0.3-0.3-0.6-0.4c-0.2-0.1-0.6-0.1-1-0.1H550v3.5H551.4z"/>
	<path class="st0" d="M556,259c-0.5-0.7-0.7-1.7-0.7-2.9s0.2-2.3,0.7-2.9s1.2-1,2.2-1s1.7,0.3,2.2,1s0.7,1.7,0.7,2.9
		s-0.2,2.3-0.7,2.9c-0.5,0.7-1.2,1-2.2,1S556.5,259.7,556,259z M559.8,258.6c0.3-0.6,0.5-1.4,0.5-2.5c0-1.1-0.2-1.9-0.5-2.5
		c-0.3-0.6-0.9-0.9-1.7-0.9s-1.4,0.3-1.7,0.9c-0.3,0.6-0.5,1.4-0.5,2.5c0,1.1,0.2,1.9,0.5,2.5c0.3,0.6,0.9,0.8,1.7,0.8
		S559.5,259.1,559.8,258.6z"/>
</g>
<line class="st3" x1="152.5" y1="252.5" x2="152.5" y2="259.9"/>
<line class="st3" x1="220.2" y1="252.5" x2="220.2" y2="259.9"/>
<line class="st3" x1="290.7" y1="252.5" x2="290.7" y2="259.9"/>
<line class="st3" x1="51.4" y1="25.2" x2="43" y2="25.2"/>
<line class="st3" x1="51.4" y1="45.6" x2="45.8" y2="45.6"/>
<line class="st3" x1="51.4" y1="67.9" x2="45.8" y2="67.9"/>
<line class="st3" x1="51.4" y1="90.1" x2="45.8" y2="90.1"/>
<line class="st3" x1="51.4" y1="111.5" x2="45.8" y2="111.5"/>
<line class="st3" x1="51.4" y1="133.7" x2="45.8" y2="133.7"/>
<line class="st3" x1="51.4" y1="156" x2="45.8" y2="156"/>
<line class="st3" x1="51.4" y1="178.3" x2="45.8" y2="178.3"/>
<line class="st3" x1="51.4" y1="221.9" x2="45.8" y2="221.9"/>
<line class="st3" x1="51.4" y1="199.6" x2="45.8" y2="199.6"/>
<line class="st3" x1="51.4" y1="244.1" x2="45.8" y2="244.1"/>
<line class="st3" x1="83.8" y1="252.5" x2="83.8" y2="259.9"/>
<line class="st3" x1="236.9" y1="238.5" x2="236.9" y2="246"/>
<line class="st3" x1="366.7" y1="252.5" x2="366.7" y2="259.9"/>
<line class="st3" x1="435.3" y1="252.5" x2="435.3" y2="259.9"/>
<line class="st3" x1="502.1" y1="252.5" x2="502.1" y2="259.9"/>
<g>
	<g>
		<path class="st5" d="M131,30.8h-7.9c-2.1,0-3.9,1.7-3.9,3.9v9.9c0,2,1.5,3.6,3.4,3.8v9.5h1.9l0-11.4h-1.5c-1.1,0-2-0.9-2-2v-9.9
			c0-1.1,0.9-2,2-2h7.9c1.1,0,2,0.9,2,2v9.9c0,1.1-0.9,2-2,2h-1.5l0,11.4h1.9v-9.5c1.9-0.2,3.4-1.9,3.4-3.8v-9.9
			C134.9,32.5,133.2,30.8,131,30.8z"/>
		<path class="st5" d="M127.1,18.1c-2.9,0-5.2,2.3-5.2,5.2c0,2.9,2.3,5.2,5.2,5.2c2.9,0,5.2-2.3,5.2-5.2
			C132.3,20.4,130,18.1,127.1,18.1z M127.1,26.7c-1.8,0-3.3-1.5-3.3-3.3c0-1.8,1.5-3.3,3.3-3.3c1.8,0,3.3,1.5,3.3,3.3
			C130.4,25.2,128.9,26.7,127.1,26.7z"/>
	</g>
</g>
<rect x="58.8" y="207" class="st0" width="25" height="39"/>
<rect x="83.8" y="232.1" class="st5" width="25" height="13.9"/>
<rect x="127.4" y="182.9" class="st0" width="25" height="63.1"/>
<rect x="152.5" y="167.1" class="st5" width="25" height="78.8"/>
<rect x="195.1" y="232.1" class="st0" width="25" height="13.9"/>
<rect x="220.2" y="235.8" class="st5" width="25" height="10.2"/>
<rect x="266.5" y="239.5" class="st0" width="25" height="6.5"/>
<rect x="291.6" y="242.3" class="st5" width="25" height="3.7"/>
<rect x="341.7" y="232.1" class="st0" width="25" height="13.9"/>
<rect x="366.7" y="232.1" class="st5" width="25" height="13.9"/>
<rect x="410.3" y="96.6" class="st0" width="25" height="149.3"/>
<rect x="435.3" y="31.7" class="st5" width="25" height="214.3"/>
<rect x="479.9" y="240.4" class="st0" width="25" height="5.6"/>
<rect x="504.9" y="238.5" class="st5" width="25" height="7.4"/>
<g>
	<path class="st0" d="M106.1,44.7l-2-5.5l-2.7-7.7c-0.1-0.4-0.5-0.6-0.9-0.6h-6.9c-0.4,0-0.8,0.3-0.9,0.6l-1.9,5.3h0l-2.8,7.9
		c-0.7,2,0.5,3.6,2.6,3.6h2.1v9.4h1.9l0-11.4h-4c-0.4,0-0.6-0.1-0.8-0.3c-0.1-0.2-0.1-0.5,0-0.8l4.4-12.6h5.5l4.4,12.6
		c0.1,0.4,0.1,0.7,0,0.8c-0.1,0.2-0.4,0.3-0.8,0.3h-4l0,11.4h1.9v-9.4h2.1C105.7,48.3,106.8,46.7,106.1,44.7z"/>
	<path class="st0" d="M97.1,18.2c-2.9,0-5.2,2.3-5.2,5.2c0,2.9,2.3,5.2,5.2,5.2c2.9,0,5.2-2.3,5.2-5.2
		C102.4,20.5,100,18.2,97.1,18.2z M97.1,26.7c-1.8,0-3.3-1.5-3.3-3.3c0-1.8,1.5-3.3,3.3-3.3c1.8,0,3.3,1.5,3.3,3.3
		C100.4,25.2,99,26.7,97.1,26.7z"/>
</g>
</svg>
