<?xml version="1.0" encoding="utf-8"?>
<!-- Generator: Adobe Illustrator 22.0.1, SVG Export Plug-In . SVG Version: 6.00 Build 0)  -->
<svg version="1.1" id="Capa_1" xmlns="http://www.w3.org/2000/svg" xmlns:xlink="http://www.w3.org/1999/xlink" x="0px" y="0px"
	 viewBox="0 0 574.2 300" style="enable-background:new 0 0 574.2 300;" xml:space="preserve">
<style type="text/css">
	.st0{fill:none;stroke:#E6E6E6;stroke-miterlimit:10;}
	.st1{fill:#00ABE3;}
	.st2{fill:none;stroke:#00ABE3;stroke-width:3;stroke-miterlimit:10;stroke-dasharray:3;}
	.st3{fill:none;stroke:#00ABE3;stroke-width:2;stroke-miterlimit:10;}
	.st4{fill:#999999;}
	.st5{fill:#FFFFFF;}
</style>
<line class="st0" x1="153.6" y1="241.2" x2="153.6" y2="27.2"/>
<line class="st0" x1="251.6" y1="241.2" x2="251.6" y2="27.2"/>
<line class="st0" x1="349.6" y1="241.2" x2="349.6" y2="27.2"/>
<line class="st0" x1="447.6" y1="241.2" x2="447.6" y2="27.2"/>
<line class="st0" x1="58.1" y1="26.7" x2="547.1" y2="26.7"/>
<line class="st0" x1="58.1" y1="48.7" x2="547.1" y2="48.7"/>
<line class="st0" x1="58.1" y1="67.7" x2="547.1" y2="67.7"/>
<line class="st0" x1="58.1" y1="87.7" x2="547.1" y2="87.7"/>
<line class="st0" x1="58.1" y1="107.7" x2="547.1" y2="107.7"/>
<line class="st0" x1="58.1" y1="125.7" x2="547.1" y2="125.7"/>
<polygon class="st1" points="60.1,133.6 160.1,107.5 257.4,111 356.4,83.6 447.2,48.7 547.1,25.4 547.1,259.2 60.1,259.2 "/>
<polyline class="st2" points="58.6,123.8 159.3,97.6 257.1,101.1 356.2,73.6 446.3,38.7 545.6,15.4 "/>
<polyline class="st3" points="51.1,26.2 51.1,271.2 547.1,271.2 "/>
<g>
	<path class="st4" d="M15.6,30.1c-0.4-0.7-0.6-1.6-0.6-2.8c0-1.9,0.3-3.2,1-4c0.4-0.5,1.1-0.7,2.1-0.7c0.2,0,0.4,0,0.6,0
		c0.2,0,0.4,0.1,0.6,0.1v0.6c-0.4-0.1-0.8-0.1-1.2-0.1c-0.4,0-0.7,0-1,0.1c-0.2,0.1-0.4,0.2-0.6,0.4c-0.3,0.3-0.4,0.6-0.6,1.1
		c-0.1,0.4-0.2,1-0.2,1.7c0.3-0.1,0.6-0.2,1-0.3s0.7-0.1,0.9-0.1c0.7,0,1.3,0.2,1.7,0.6s0.6,1,0.6,1.8c0,0.8-0.2,1.5-0.6,2
		c-0.4,0.5-1,0.7-1.8,0.7C16.6,31.1,16,30.8,15.6,30.1z M18.8,30c0.3-0.4,0.4-0.9,0.4-1.5c0-0.7-0.1-1.1-0.4-1.4
		c-0.3-0.3-0.7-0.4-1.3-0.4c-0.3,0-0.6,0-0.9,0.1c-0.3,0.1-0.6,0.1-0.9,0.2v0.6c0,2,0.6,3,1.8,3C18.1,30.5,18.5,30.4,18.8,30z"/>
	<path class="st4" d="M22.4,31.1c-0.3,0-0.5-0.1-0.7-0.1v-0.6c0.4,0.1,0.9,0.1,1.5,0.1c1.4,0,2.2-0.6,2.2-1.8c0-0.6-0.1-1-0.4-1.3
		c-0.2-0.2-0.4-0.3-0.7-0.4s-0.7-0.1-1.2-0.1h-1.2c0-0.1,0-0.3,0-0.6l0.1-3.4h3.6v0.6h-3l-0.1,2.8h0.8c0.5,0,1,0.1,1.4,0.2
		c0.4,0.1,0.7,0.3,0.9,0.5c0.4,0.4,0.6,1,0.6,1.8c0,0.8-0.3,1.4-0.8,1.9s-1.2,0.6-2.1,0.6C23,31.1,22.7,31.1,22.4,31.1z"/>
	<path class="st4" d="M30.4,22.8h0.7v4.5l3.6-4.5h0.8l-2.7,3.4l2.9,4.8h-0.8l-2.6-4.3l-1.2,1.5V31h-0.7V22.8z"/>
	<path class="st4" d="M29.5,49.5c-0.2-0.4-0.3-0.9-0.3-1.7c0-1.1,0.2-1.9,0.6-2.3c0.3-0.3,0.7-0.4,1.2-0.4c0.1,0,0.2,0,0.4,0
		c0.1,0,0.3,0,0.4,0.1v0.3c-0.2,0-0.5,0-0.7,0c-0.2,0-0.4,0-0.6,0.1c-0.1,0-0.3,0.1-0.4,0.2c-0.1,0.1-0.3,0.4-0.3,0.6
		c-0.1,0.3-0.1,0.6-0.1,1c0.2-0.1,0.4-0.1,0.6-0.2s0.4-0.1,0.5-0.1c0.4,0,0.8,0.1,1,0.3s0.3,0.6,0.3,1c0,0.5-0.1,0.9-0.4,1.2
		c-0.2,0.3-0.6,0.4-1,0.4C30.1,50.1,29.7,49.9,29.5,49.5z M31.4,49.4c0.2-0.2,0.3-0.5,0.3-0.9c0-0.4-0.1-0.7-0.3-0.8
		c-0.2-0.2-0.4-0.2-0.8-0.2c-0.2,0-0.3,0-0.5,0.1c-0.2,0-0.4,0.1-0.5,0.1V48c0,1.2,0.4,1.7,1.1,1.7C31,49.7,31.2,49.6,31.4,49.4z"/>
	<path class="st4" d="M33.1,49.4c-0.2-0.4-0.4-1-0.4-1.9c0-0.8,0.1-1.4,0.4-1.9c0.2-0.4,0.6-0.6,1.2-0.6c0.6,0,0.9,0.2,1.2,0.6
		c0.2,0.4,0.4,1,0.4,1.9c0,0.8-0.1,1.4-0.4,1.9c-0.2,0.4-0.6,0.6-1.2,0.6C33.7,50.1,33.3,49.9,33.1,49.4z M35.2,49.2
		c0.2-0.3,0.3-0.9,0.3-1.6c0-0.7-0.1-1.2-0.3-1.6c-0.2-0.3-0.5-0.5-0.9-0.5c-0.4,0-0.7,0.2-0.9,0.5c-0.2,0.3-0.3,0.9-0.3,1.6
		c0,0.7,0.1,1.2,0.3,1.6c0.2,0.3,0.5,0.5,0.9,0.5C34.7,49.7,35,49.5,35.2,49.2z"/>
	<path class="st4" d="M29.8,69c-0.2,0-0.3,0-0.4-0.1v-0.3c0.3,0.1,0.5,0.1,0.9,0.1c0.8,0,1.3-0.4,1.3-1.1c0-0.3-0.1-0.6-0.2-0.8
		c-0.1-0.1-0.2-0.2-0.4-0.2c-0.2,0-0.4-0.1-0.7-0.1h-0.7c0-0.1,0-0.2,0-0.3l0.1-2h2.1v0.4h-1.8l-0.1,1.6h0.4c0.3,0,0.6,0,0.8,0.1
		s0.4,0.2,0.5,0.3c0.2,0.2,0.4,0.6,0.4,1c0,0.5-0.1,0.8-0.4,1.1s-0.7,0.4-1.2,0.4C30.1,69.1,29.9,69.1,29.8,69z"/>
	<path class="st4" d="M33.1,68.4c-0.2-0.4-0.4-1-0.4-1.9c0-0.8,0.1-1.4,0.4-1.9c0.2-0.4,0.6-0.6,1.2-0.6c0.6,0,0.9,0.2,1.2,0.6
		c0.2,0.4,0.4,1,0.4,1.9c0,0.8-0.1,1.4-0.4,1.9c-0.2,0.4-0.6,0.6-1.2,0.6C33.7,69.1,33.3,68.9,33.1,68.4z M35.2,68.2
		c0.2-0.3,0.3-0.9,0.3-1.6c0-0.7-0.1-1.2-0.3-1.6c-0.2-0.3-0.5-0.5-0.9-0.5c-0.4,0-0.7,0.2-0.9,0.5c-0.2,0.3-0.3,0.9-0.3,1.6
		c0,0.7,0.1,1.2,0.3,1.6c0.2,0.3,0.5,0.5,0.9,0.5C34.7,68.7,35,68.5,35.2,68.2z"/>
	<path class="st4" d="M31.2,86.8H29c0-0.1,0-0.1,0-0.2c0-0.1,0-0.1,0-0.2c0-0.1,0-0.2,0.1-0.3l1-3h0.4l-1.1,3.2h1.8v-1.2h0.4v1.2
		h0.6v0.3h-0.6V88h-0.4V86.8z"/>
	<path class="st4" d="M33.5,88c-0.2,0-0.3,0-0.4-0.1v-0.3c0.3,0.1,0.5,0.1,0.9,0.1c0.8,0,1.3-0.4,1.3-1.1c0-0.3-0.1-0.6-0.2-0.8
		c-0.1-0.1-0.2-0.2-0.4-0.2c-0.2,0-0.4-0.1-0.7-0.1h-0.7c0-0.1,0-0.2,0-0.3l0.1-2h2.1v0.4h-1.8l-0.1,1.6h0.4c0.3,0,0.6,0,0.8,0.1
		s0.4,0.2,0.5,0.3c0.2,0.2,0.4,0.6,0.4,1c0,0.5-0.1,0.8-0.4,1.1s-0.7,0.4-1.2,0.4C33.8,88.1,33.7,88.1,33.5,88z"/>
	<path class="st4" d="M31.2,105.8H29c0-0.1,0-0.1,0-0.2c0-0.1,0-0.1,0-0.2c0-0.1,0-0.2,0.1-0.3l1-3h0.4l-1.1,3.2h1.8v-1.2h0.4v1.2
		h0.6v0.3h-0.6v1.2h-0.4V105.8z"/>
	<path class="st4" d="M33.1,106.4c-0.2-0.4-0.4-1-0.4-1.9c0-0.8,0.1-1.4,0.4-1.9c0.2-0.4,0.6-0.6,1.2-0.6c0.6,0,0.9,0.2,1.2,0.6
		c0.2,0.4,0.4,1,0.4,1.9c0,0.8-0.1,1.4-0.4,1.9c-0.2,0.4-0.6,0.6-1.2,0.6C33.7,107.1,33.3,106.9,33.1,106.4z M35.2,106.2
		c0.2-0.3,0.3-0.9,0.3-1.6c0-0.7-0.1-1.2-0.3-1.6c-0.2-0.3-0.5-0.5-0.9-0.5c-0.4,0-0.7,0.2-0.9,0.5c-0.2,0.3-0.3,0.9-0.3,1.6
		c0,0.7,0.1,1.2,0.3,1.6c0.2,0.3,0.5,0.5,0.9,0.5C34.7,106.7,35,106.5,35.2,106.2z"/>
	<path class="st4" d="M29.7,126c-0.2,0-0.4-0.1-0.5-0.1v-0.3c0.1,0,0.3,0.1,0.5,0.1c0.2,0,0.3,0,0.5,0c0.5,0,0.8-0.1,1-0.3
		c0.2-0.2,0.3-0.4,0.3-0.8c0-0.3-0.1-0.5-0.3-0.7c-0.2-0.2-0.6-0.3-1-0.3h0v-0.3h0.1c0.2,0,0.4,0,0.5-0.1s0.3-0.1,0.4-0.2
		c0.2-0.2,0.3-0.4,0.3-0.7c0-0.3-0.1-0.5-0.2-0.7c-0.2-0.2-0.5-0.3-0.9-0.3c-0.3,0-0.6,0-0.9,0.1v-0.3c0.1,0,0.3-0.1,0.5-0.1
		c0.2,0,0.4,0,0.5,0c0.5,0,0.8,0.1,1.1,0.3c0.2,0.2,0.3,0.5,0.3,0.9c0,0.6-0.2,0.9-0.7,1.2c0.3,0.1,0.5,0.2,0.6,0.4
		c0.2,0.2,0.2,0.5,0.2,0.8c0,0.4-0.1,0.8-0.4,1c-0.3,0.3-0.7,0.4-1.3,0.4C30,126.1,29.9,126.1,29.7,126z"/>
	<path class="st4" d="M33.5,126c-0.2,0-0.3,0-0.4-0.1v-0.3c0.3,0.1,0.5,0.1,0.9,0.1c0.8,0,1.3-0.4,1.3-1.1c0-0.3-0.1-0.6-0.2-0.8
		c-0.1-0.1-0.2-0.2-0.4-0.2c-0.2,0-0.4-0.1-0.7-0.1h-0.7c0-0.1,0-0.2,0-0.3l0.1-2h2.1v0.4h-1.8l-0.1,1.6h0.4c0.3,0,0.6,0,0.8,0.1
		s0.4,0.2,0.5,0.3c0.2,0.2,0.4,0.6,0.4,1c0,0.5-0.1,0.8-0.4,1.1s-0.7,0.4-1.2,0.4C33.8,126.1,33.7,126.1,33.5,126z"/>
	<path class="st4" d="M29.7,145c-0.2,0-0.4-0.1-0.5-0.1v-0.3c0.1,0,0.3,0.1,0.5,0.1c0.2,0,0.3,0,0.5,0c0.5,0,0.8-0.1,1-0.3
		c0.2-0.2,0.3-0.4,0.3-0.8c0-0.3-0.1-0.5-0.3-0.7c-0.2-0.2-0.6-0.3-1-0.3h0v-0.3h0.1c0.2,0,0.4,0,0.5-0.1s0.3-0.1,0.4-0.2
		c0.2-0.2,0.3-0.4,0.3-0.7c0-0.3-0.1-0.5-0.2-0.7c-0.2-0.2-0.5-0.3-0.9-0.3c-0.3,0-0.6,0-0.9,0.1v-0.3c0.1,0,0.3-0.1,0.5-0.1
		c0.2,0,0.4,0,0.5,0c0.5,0,0.8,0.1,1.1,0.3c0.2,0.2,0.3,0.5,0.3,0.9c0,0.6-0.2,0.9-0.7,1.2c0.3,0.1,0.5,0.2,0.6,0.4
		c0.2,0.2,0.2,0.5,0.2,0.8c0,0.4-0.1,0.8-0.4,1c-0.3,0.3-0.7,0.4-1.3,0.4C30,145.1,29.9,145.1,29.7,145z"/>
	<path class="st4" d="M33.1,144.4c-0.2-0.4-0.4-1-0.4-1.9c0-0.8,0.1-1.4,0.4-1.9c0.2-0.4,0.6-0.6,1.2-0.6c0.6,0,0.9,0.2,1.2,0.6
		c0.2,0.4,0.4,1,0.4,1.9c0,0.8-0.1,1.4-0.4,1.9c-0.2,0.4-0.6,0.6-1.2,0.6C33.7,145.1,33.3,144.9,33.1,144.4z M35.2,144.2
		c0.2-0.3,0.3-0.9,0.3-1.6c0-0.7-0.1-1.2-0.3-1.6c-0.2-0.3-0.5-0.5-0.9-0.5c-0.4,0-0.7,0.2-0.9,0.5c-0.2,0.3-0.3,0.9-0.3,1.6
		c0,0.7,0.1,1.2,0.3,1.6c0.2,0.3,0.5,0.5,0.9,0.5C34.7,144.7,35,144.5,35.2,144.2z"/>
	<path class="st4" d="M29.2,163.8c0-0.1,0-0.2,0.1-0.2c0-0.1,0.1-0.2,0.2-0.3l1.2-1.4c0.3-0.4,0.5-0.6,0.6-0.9s0.2-0.5,0.2-0.7
		c0-0.3-0.1-0.5-0.2-0.6c-0.2-0.2-0.5-0.3-0.9-0.3c-0.3,0-0.6,0-1,0.1v-0.3c0.1,0,0.3-0.1,0.5-0.1c0.2,0,0.4,0,0.6,0
		c0.5,0,0.9,0.1,1.1,0.3c0.1,0.1,0.2,0.2,0.3,0.4c0.1,0.2,0.1,0.3,0.1,0.5c0,0.2,0,0.4-0.1,0.5c-0.1,0.2-0.1,0.3-0.3,0.5
		c-0.1,0.2-0.3,0.4-0.6,0.7l-1.3,1.5h2.3v0.4h-2.7C29.2,163.9,29.2,163.9,29.2,163.8z"/>
	<path class="st4" d="M33.5,164c-0.2,0-0.3,0-0.4-0.1v-0.3c0.3,0.1,0.5,0.1,0.9,0.1c0.8,0,1.3-0.4,1.3-1.1c0-0.3-0.1-0.6-0.2-0.8
		c-0.1-0.1-0.2-0.2-0.4-0.2s-0.4-0.1-0.7-0.1h-0.7c0-0.1,0-0.2,0-0.3l0.1-2h2.1v0.4h-1.8l-0.1,1.6h0.4c0.3,0,0.6,0,0.8,0.1
		c0.2,0.1,0.4,0.2,0.5,0.3c0.2,0.2,0.4,0.6,0.4,1c0,0.5-0.1,0.8-0.4,1.1s-0.7,0.4-1.2,0.4C33.8,164.1,33.7,164.1,33.5,164z"/>
	<path class="st4" d="M29.2,182.8c0-0.1,0-0.2,0.1-0.2c0-0.1,0.1-0.2,0.2-0.3l1.2-1.4c0.3-0.4,0.5-0.6,0.6-0.9s0.2-0.5,0.2-0.7
		c0-0.3-0.1-0.5-0.2-0.6c-0.2-0.2-0.5-0.3-0.9-0.3c-0.3,0-0.6,0-1,0.1v-0.3c0.1,0,0.3-0.1,0.5-0.1c0.2,0,0.4,0,0.6,0
		c0.5,0,0.9,0.1,1.1,0.3c0.1,0.1,0.2,0.2,0.3,0.4s0.1,0.3,0.1,0.5c0,0.2,0,0.4-0.1,0.5s-0.1,0.3-0.3,0.5s-0.3,0.4-0.6,0.7l-1.3,1.5
		h2.3v0.4h-2.7C29.2,182.9,29.2,182.9,29.2,182.8z"/>
	<path class="st4" d="M33.1,182.4c-0.2-0.4-0.4-1-0.4-1.9c0-0.8,0.1-1.4,0.4-1.9c0.2-0.4,0.6-0.6,1.2-0.6c0.6,0,0.9,0.2,1.2,0.6
		c0.2,0.4,0.4,1,0.4,1.9c0,0.8-0.1,1.4-0.4,1.9c-0.2,0.4-0.6,0.6-1.2,0.6C33.7,183.1,33.3,182.9,33.1,182.4z M35.2,182.2
		c0.2-0.3,0.3-0.9,0.3-1.6s-0.1-1.2-0.3-1.6c-0.2-0.3-0.5-0.5-0.9-0.5c-0.4,0-0.7,0.2-0.9,0.5c-0.2,0.3-0.3,0.9-0.3,1.6
		s0.1,1.2,0.3,1.6s0.5,0.5,0.9,0.5C34.7,182.7,35,182.5,35.2,182.2z"/>
	<path class="st4" d="M29.6,201.6h0.8v-4.2h-0.8v-0.3c0.3,0,0.6-0.1,0.8-0.1c0.1,0,0.2,0,0.3,0.1s0.1,0.1,0.1,0.2v4.2h0.7v0.3h-1.9
		V201.6z"/>
	<path class="st4" d="M33.5,202c-0.2,0-0.3,0-0.4-0.1v-0.3c0.3,0.1,0.5,0.1,0.9,0.1c0.8,0,1.3-0.4,1.3-1.1c0-0.3-0.1-0.6-0.2-0.8
		c-0.1-0.1-0.2-0.2-0.4-0.2s-0.4-0.1-0.7-0.1h-0.7c0-0.1,0-0.2,0-0.3l0.1-2h2.1v0.4h-1.8l-0.1,1.6h0.4c0.3,0,0.6,0,0.8,0.1
		c0.2,0.1,0.4,0.2,0.5,0.3c0.2,0.2,0.4,0.6,0.4,1c0,0.5-0.1,0.8-0.4,1.1s-0.7,0.4-1.2,0.4C33.8,202.1,33.7,202.1,33.5,202z"/>
	<path class="st4" d="M29.6,220.6h0.8v-4.2h-0.8v-0.3c0.3,0,0.6-0.1,0.8-0.1c0.1,0,0.2,0,0.3,0.1s0.1,0.1,0.1,0.2v4.2h0.7v0.3h-1.9
		V220.6z"/>
	<path class="st4" d="M33.1,220.4c-0.2-0.4-0.4-1-0.4-1.9c0-0.8,0.1-1.4,0.4-1.9c0.2-0.4,0.6-0.6,1.2-0.6c0.6,0,0.9,0.2,1.2,0.6
		c0.2,0.4,0.4,1,0.4,1.9c0,0.8-0.1,1.4-0.4,1.9c-0.2,0.4-0.6,0.6-1.2,0.6C33.7,221.1,33.3,220.9,33.1,220.4z M35.2,220.2
		c0.2-0.3,0.3-0.9,0.3-1.6s-0.1-1.2-0.3-1.6c-0.2-0.3-0.5-0.5-0.9-0.5c-0.4,0-0.7,0.2-0.9,0.5c-0.2,0.3-0.3,0.9-0.3,1.6
		s0.1,1.2,0.3,1.6s0.5,0.5,0.9,0.5C34.7,220.7,35,220.5,35.2,220.2z"/>
	<path class="st4" d="M33.5,240c-0.2,0-0.3,0-0.4-0.1v-0.3c0.3,0.1,0.5,0.1,0.9,0.1c0.8,0,1.3-0.4,1.3-1.1c0-0.3-0.1-0.6-0.2-0.8
		c-0.1-0.1-0.2-0.2-0.4-0.2s-0.4-0.1-0.7-0.1h-0.7c0-0.1,0-0.2,0-0.3l0.1-2h2.1v0.4h-1.8l-0.1,1.6h0.4c0.3,0,0.6,0,0.8,0.1
		c0.2,0.1,0.4,0.2,0.5,0.3c0.2,0.2,0.4,0.6,0.4,1c0,0.5-0.1,0.8-0.4,1.1s-0.7,0.4-1.2,0.4C33.8,240.1,33.6,240.1,33.5,240z"/>
	<path class="st4" d="M30.9,258.1c-0.4-0.7-0.6-1.8-0.6-3.2c0-1.4,0.2-2.5,0.6-3.2c0.4-0.7,1.1-1.1,2.1-1.1c0.9,0,1.6,0.4,2.1,1.1
		c0.4,0.7,0.6,1.8,0.6,3.2c0,1.4-0.2,2.5-0.6,3.2c-0.4,0.7-1.1,1.1-2.1,1.1C32,259.1,31.3,258.8,30.9,258.1z M34.5,257.6
		c0.3-0.6,0.4-1.5,0.4-2.7c0-1.2-0.1-2.1-0.4-2.7c-0.3-0.6-0.8-0.9-1.5-0.9s-1.2,0.3-1.5,0.9c-0.3,0.6-0.4,1.5-0.4,2.7
		c0,1.2,0.1,2.1,0.4,2.7s0.8,0.9,1.5,0.9S34.2,258.2,34.5,257.6z"/>
</g>
<g>
	<path class="st4" d="M45.4,296c0-0.1,0-0.3,0.1-0.4s0.2-0.3,0.4-0.5l2-2.5c0.5-0.6,0.8-1.1,1-1.5c0.2-0.4,0.3-0.8,0.3-1.2
		c0-0.4-0.1-0.8-0.4-1c-0.3-0.3-0.8-0.5-1.6-0.5c-0.5,0-1.1,0.1-1.7,0.2v-0.6c0.2-0.1,0.5-0.1,0.8-0.2c0.3,0,0.7-0.1,1-0.1
		c0.9,0,1.5,0.2,2,0.6c0.2,0.2,0.4,0.4,0.4,0.7c0.1,0.3,0.1,0.5,0.1,0.8c0,0.3,0,0.6-0.1,0.9c-0.1,0.3-0.2,0.6-0.5,0.9
		s-0.5,0.7-0.9,1.2l-2.2,2.6h3.9v0.6h-4.7C45.4,296.2,45.4,296.1,45.4,296z"/>
	<path class="st4" d="M52.1,295.3c-0.4-0.7-0.6-1.8-0.6-3.2c0-1.4,0.2-2.5,0.6-3.2c0.4-0.7,1.1-1.1,2.1-1.1s1.6,0.4,2.1,1.1
		c0.4,0.7,0.6,1.8,0.6,3.2c0,1.4-0.2,2.4-0.6,3.2c-0.4,0.7-1.1,1.1-2.1,1.1S52.5,296,52.1,295.3z M55.7,294.8
		c0.3-0.6,0.4-1.5,0.4-2.7c0-1.2-0.1-2.1-0.4-2.7c-0.3-0.6-0.8-0.9-1.5-0.9s-1.2,0.3-1.5,0.9c-0.3,0.6-0.4,1.5-0.4,2.7
		c0,1.2,0.1,2.1,0.4,2.7s0.8,0.9,1.5,0.9S55.4,295.4,55.7,294.8z"/>
	<path class="st4" d="M58.9,295.7h1.4v-7.1H59V288c0.5-0.1,1-0.1,1.4-0.1c0.2,0,0.4,0,0.5,0.1c0.1,0.1,0.1,0.2,0.1,0.4v7.2h1.2v0.6
		h-3.3V295.7z"/>
	<path class="st4" d="M64.6,296c0-0.1,0-0.3,0.1-0.4s0.2-0.3,0.4-0.5l2-2.5c0.5-0.6,0.8-1.1,1-1.5c0.2-0.4,0.3-0.8,0.3-1.2
		c0-0.4-0.1-0.8-0.4-1c-0.3-0.3-0.8-0.5-1.6-0.5c-0.5,0-1.1,0.1-1.7,0.2v-0.6c0.2-0.1,0.5-0.1,0.8-0.2c0.3,0,0.7-0.1,1-0.1
		c0.9,0,1.5,0.2,2,0.6c0.2,0.2,0.4,0.4,0.4,0.7c0.1,0.3,0.1,0.5,0.1,0.8c0,0.3,0,0.6-0.1,0.9c-0.1,0.3-0.2,0.6-0.5,0.9
		s-0.5,0.7-0.9,1.2l-2.2,2.6h3.9v0.6h-4.7C64.6,296.2,64.6,296.1,64.6,296z"/>
</g>
<g>
	<path class="st4" d="M142.8,296c0-0.1,0-0.3,0.1-0.4s0.2-0.3,0.4-0.5l2-2.5c0.5-0.6,0.8-1.1,1-1.5c0.2-0.4,0.3-0.8,0.3-1.2
		c0-0.4-0.1-0.8-0.4-1c-0.3-0.3-0.8-0.5-1.6-0.5c-0.5,0-1.1,0.1-1.7,0.2v-0.6c0.2-0.1,0.5-0.1,0.8-0.2c0.3,0,0.7-0.1,1-0.1
		c0.9,0,1.5,0.2,2,0.6c0.2,0.2,0.4,0.4,0.4,0.7c0.1,0.3,0.1,0.5,0.1,0.8c0,0.3,0,0.6-0.1,0.9c-0.1,0.3-0.2,0.6-0.5,0.9
		s-0.5,0.7-0.9,1.2l-2.2,2.6h3.9v0.6h-4.7C142.9,296.2,142.8,296.1,142.8,296z"/>
	<path class="st4" d="M149.6,295.3c-0.4-0.7-0.6-1.8-0.6-3.2c0-1.4,0.2-2.5,0.6-3.2c0.4-0.7,1.1-1.1,2.1-1.1s1.6,0.4,2.1,1.1
		c0.4,0.7,0.6,1.8,0.6,3.2c0,1.4-0.2,2.4-0.6,3.2c-0.4,0.7-1.1,1.1-2.1,1.1S150,296,149.6,295.3z M153.1,294.8
		c0.3-0.6,0.4-1.5,0.4-2.7c0-1.2-0.1-2.1-0.4-2.7c-0.3-0.6-0.8-0.9-1.5-0.9s-1.2,0.3-1.5,0.9c-0.3,0.6-0.4,1.5-0.4,2.7
		c0,1.2,0.1,2.1,0.4,2.7s0.8,0.9,1.5,0.9S152.9,295.4,153.1,294.8z"/>
	<path class="st4" d="M156.4,295.7h1.4v-7.1h-1.4V288c0.5-0.1,1-0.1,1.4-0.1c0.2,0,0.4,0,0.5,0.1c0.1,0.1,0.1,0.2,0.1,0.4v7.2h1.2
		v0.6h-3.3V295.7z"/>
	<path class="st4" d="M162.9,296.3c-0.3,0-0.6-0.1-0.8-0.1v-0.6c0.2,0,0.5,0.1,0.8,0.1s0.6,0,0.8,0c0.8,0,1.4-0.2,1.7-0.5
		c0.3-0.3,0.5-0.7,0.5-1.3c0-0.5-0.1-0.9-0.4-1.2c-0.4-0.3-1-0.5-1.8-0.5h-0.1v-0.5h0.1c0.4,0,0.7,0,0.9-0.1s0.5-0.2,0.6-0.4
		c0.3-0.3,0.4-0.7,0.4-1.2c0-0.5-0.1-0.9-0.4-1.2c-0.3-0.3-0.8-0.5-1.5-0.5c-0.5,0-1,0.1-1.6,0.2v-0.6c0.2-0.1,0.5-0.1,0.9-0.2
		c0.3,0,0.6-0.1,0.9-0.1c0.8,0,1.5,0.2,1.9,0.6c0.4,0.4,0.6,0.9,0.6,1.5c0,1-0.4,1.6-1.3,2c0.4,0.1,0.8,0.4,1.1,0.7
		c0.3,0.3,0.4,0.8,0.4,1.3c0,0.8-0.2,1.3-0.7,1.8c-0.5,0.4-1.2,0.6-2.1,0.6C163.5,296.4,163.2,296.4,162.9,296.3z"/>
</g>
<g>
	<path class="st4" d="M240.3,296c0-0.1,0-0.3,0.1-0.4s0.2-0.3,0.4-0.5l2-2.5c0.5-0.6,0.8-1.1,1-1.5c0.2-0.4,0.3-0.8,0.3-1.2
		c0-0.4-0.1-0.8-0.4-1c-0.3-0.3-0.8-0.5-1.6-0.5c-0.5,0-1.1,0.1-1.7,0.2v-0.6c0.2-0.1,0.5-0.1,0.8-0.2c0.3,0,0.7-0.1,1-0.1
		c0.9,0,1.5,0.2,2,0.6c0.2,0.2,0.4,0.4,0.4,0.7c0.1,0.3,0.1,0.5,0.1,0.8c0,0.3,0,0.6-0.1,0.9c-0.1,0.3-0.2,0.6-0.5,0.9
		s-0.5,0.7-0.9,1.2l-2.2,2.6h3.9v0.6h-4.7C240.3,296.2,240.3,296.1,240.3,296z"/>
	<path class="st4" d="M247,295.3c-0.4-0.7-0.6-1.8-0.6-3.2c0-1.4,0.2-2.5,0.6-3.2c0.4-0.7,1.1-1.1,2.1-1.1s1.6,0.4,2.1,1.1
		c0.4,0.7,0.6,1.8,0.6,3.2c0,1.4-0.2,2.4-0.6,3.2c-0.4,0.7-1.1,1.1-2.1,1.1S247.4,296,247,295.3z M250.6,294.8
		c0.3-0.6,0.4-1.5,0.4-2.7c0-1.2-0.1-2.1-0.4-2.7c-0.3-0.6-0.8-0.9-1.5-0.9s-1.2,0.3-1.5,0.9c-0.3,0.6-0.4,1.5-0.4,2.7
		c0,1.2,0.1,2.1,0.4,2.7s0.8,0.9,1.5,0.9S250.3,295.4,250.6,294.8z"/>
	<path class="st4" d="M253.8,295.7h1.4v-7.1h-1.4V288c0.5-0.1,1-0.1,1.4-0.1c0.2,0,0.4,0,0.5,0.1c0.1,0.1,0.1,0.2,0.1,0.4v7.2h1.2
		v0.6h-3.3V295.7z"/>
	<path class="st4" d="M263,294.2h-3.8c0-0.1,0-0.2,0-0.3c0-0.1,0-0.2,0-0.3c0-0.1,0.1-0.3,0.2-0.5l1.7-5.1h0.7l-1.9,5.6h3.1v-2.1
		h0.7v2.1h1v0.6h-1v2.1H263V294.2z"/>
</g>
<g>
	<path class="st4" d="M337.7,296c0-0.1,0-0.3,0.1-0.4c0.1-0.1,0.2-0.3,0.4-0.5l2-2.5c0.5-0.6,0.8-1.1,1-1.5c0.2-0.4,0.3-0.8,0.3-1.2
		c0-0.4-0.1-0.8-0.4-1c-0.3-0.3-0.8-0.5-1.6-0.5c-0.5,0-1.1,0.1-1.7,0.2v-0.6c0.2-0.1,0.5-0.1,0.8-0.2s0.7-0.1,1-0.1
		c0.9,0,1.5,0.2,2,0.6c0.2,0.2,0.4,0.4,0.4,0.7c0.1,0.3,0.1,0.5,0.1,0.8c0,0.3,0,0.6-0.1,0.9c-0.1,0.3-0.2,0.6-0.5,0.9
		s-0.5,0.7-0.9,1.2l-2.2,2.6h3.9v0.6h-4.7C337.8,296.2,337.7,296.1,337.7,296z"/>
	<path class="st4" d="M344.5,295.3c-0.4-0.7-0.6-1.8-0.6-3.2c0-1.4,0.2-2.5,0.6-3.2c0.4-0.7,1.1-1.1,2.1-1.1c0.9,0,1.6,0.4,2.1,1.1
		c0.4,0.7,0.6,1.8,0.6,3.2c0,1.4-0.2,2.4-0.6,3.2c-0.4,0.7-1.1,1.1-2.1,1.1C345.6,296.4,344.9,296,344.5,295.3z M348,294.8
		c0.3-0.6,0.4-1.5,0.4-2.7c0-1.2-0.1-2.1-0.4-2.7c-0.3-0.6-0.8-0.9-1.5-0.9c-0.7,0-1.2,0.3-1.5,0.9c-0.3,0.6-0.4,1.5-0.4,2.7
		c0,1.2,0.1,2.1,0.4,2.7s0.8,0.9,1.5,0.9C347.2,295.7,347.8,295.4,348,294.8z"/>
	<path class="st4" d="M351.3,295.7h1.4v-7.1h-1.4V288c0.5-0.1,1-0.1,1.4-0.1c0.2,0,0.4,0,0.5,0.1c0.1,0.1,0.1,0.2,0.1,0.4v7.2h1.2
		v0.6h-3.3V295.7z"/>
	<path class="st4" d="M357.9,296.3c-0.3,0-0.5-0.1-0.7-0.1v-0.6c0.4,0.1,0.9,0.1,1.5,0.1c1.4,0,2.2-0.6,2.2-1.8c0-0.6-0.1-1-0.4-1.3
		c-0.2-0.2-0.4-0.3-0.7-0.4s-0.7-0.1-1.2-0.1h-1.2c0-0.1,0-0.3,0-0.6l0.1-3.4h3.6v0.6h-3l-0.1,2.8h0.8c0.5,0,1,0.1,1.4,0.2
		s0.7,0.3,0.9,0.5c0.4,0.4,0.6,1,0.6,1.8c0,0.8-0.3,1.4-0.8,1.9s-1.2,0.6-2.1,0.6C358.5,296.4,358.2,296.4,357.9,296.3z"/>
</g>
<g>
	<path class="st4" d="M435.2,296c0-0.1,0-0.3,0.1-0.4c0.1-0.1,0.2-0.3,0.4-0.5l2-2.5c0.5-0.6,0.8-1.1,1-1.5c0.2-0.4,0.3-0.8,0.3-1.2
		c0-0.4-0.1-0.8-0.4-1c-0.3-0.3-0.8-0.5-1.6-0.5c-0.5,0-1.1,0.1-1.7,0.2v-0.6c0.2-0.1,0.5-0.1,0.8-0.2s0.7-0.1,1-0.1
		c0.9,0,1.5,0.2,2,0.6c0.2,0.2,0.4,0.4,0.4,0.7c0.1,0.3,0.1,0.5,0.1,0.8c0,0.3,0,0.6-0.1,0.9c-0.1,0.3-0.2,0.6-0.5,0.9
		s-0.5,0.7-0.9,1.2l-2.2,2.6h3.9v0.6h-4.7C435.2,296.2,435.2,296.1,435.2,296z"/>
	<path class="st4" d="M441.9,295.3c-0.4-0.7-0.6-1.8-0.6-3.2c0-1.4,0.2-2.5,0.6-3.2c0.4-0.7,1.1-1.1,2.1-1.1c0.9,0,1.6,0.4,2.1,1.1
		c0.4,0.7,0.6,1.8,0.6,3.2c0,1.4-0.2,2.4-0.6,3.2c-0.4,0.7-1.1,1.1-2.1,1.1C443,296.4,442.3,296,441.9,295.3z M445.5,294.8
		c0.3-0.6,0.4-1.5,0.4-2.7c0-1.2-0.1-2.1-0.4-2.7c-0.3-0.6-0.8-0.9-1.5-0.9c-0.7,0-1.2,0.3-1.5,0.9c-0.3,0.6-0.4,1.5-0.4,2.7
		c0,1.2,0.1,2.1,0.4,2.7s0.8,0.9,1.5,0.9C444.7,295.7,445.2,295.4,445.5,294.8z"/>
	<path class="st4" d="M448.7,295.7h1.4v-7.1h-1.4V288c0.5-0.1,1-0.1,1.4-0.1c0.2,0,0.4,0,0.5,0.1c0.1,0.1,0.1,0.2,0.1,0.4v7.2h1.2
		v0.6h-3.3V295.7z"/>
	<path class="st4" d="M455,295.4c-0.4-0.7-0.6-1.6-0.6-2.8c0-1.9,0.3-3.2,1-4c0.4-0.5,1.1-0.7,2.1-0.7c0.2,0,0.4,0,0.6,0
		s0.5,0.1,0.6,0.1v0.6c-0.4-0.1-0.8-0.1-1.2-0.1c-0.4,0-0.7,0-1,0.1c-0.2,0.1-0.4,0.2-0.6,0.4c-0.3,0.3-0.4,0.6-0.6,1.1
		s-0.2,1-0.2,1.7c0.3-0.1,0.6-0.2,1-0.3c0.3-0.1,0.7-0.1,0.9-0.1c0.7,0,1.3,0.2,1.7,0.6c0.4,0.4,0.6,1,0.6,1.8c0,0.8-0.2,1.5-0.6,2
		c-0.4,0.5-1,0.7-1.8,0.7C456,296.4,455.4,296.1,455,295.4z M458.2,295.2c0.3-0.4,0.4-0.9,0.4-1.5c0-0.7-0.1-1.1-0.4-1.4
		s-0.7-0.4-1.3-0.4c-0.3,0-0.6,0-0.9,0.1s-0.6,0.1-0.9,0.2v0.6c0,2,0.6,3,1.8,3C457.5,295.8,457.9,295.6,458.2,295.2z"/>
</g>
<g>
	<path class="st4" d="M532.6,296c0-0.1,0-0.3,0.1-0.4c0.1-0.1,0.2-0.3,0.4-0.5l2-2.5c0.5-0.6,0.8-1.1,1-1.5c0.2-0.4,0.3-0.8,0.3-1.2
		c0-0.4-0.1-0.8-0.4-1c-0.3-0.3-0.8-0.5-1.6-0.5c-0.5,0-1.1,0.1-1.7,0.2v-0.6c0.2-0.1,0.5-0.1,0.8-0.2c0.3,0,0.7-0.1,1-0.1
		c0.9,0,1.5,0.2,2,0.6c0.2,0.2,0.4,0.4,0.4,0.7c0.1,0.3,0.1,0.5,0.1,0.8c0,0.3,0,0.6-0.1,0.9c-0.1,0.3-0.2,0.6-0.5,0.9
		s-0.5,0.7-0.9,1.2l-2.2,2.6h3.9v0.6h-4.7C532.7,296.2,532.6,296.1,532.6,296z"/>
	<path class="st4" d="M539.4,295.3c-0.4-0.7-0.6-1.8-0.6-3.2c0-1.4,0.2-2.5,0.6-3.2c0.4-0.7,1.1-1.1,2.1-1.1c0.9,0,1.6,0.4,2.1,1.1
		c0.4,0.7,0.6,1.8,0.6,3.2c0,1.4-0.2,2.4-0.6,3.2c-0.4,0.7-1.1,1.1-2.1,1.1C540.5,296.4,539.8,296,539.4,295.3z M542.9,294.8
		c0.3-0.6,0.4-1.5,0.4-2.7c0-1.2-0.1-2.1-0.4-2.7c-0.3-0.6-0.8-0.9-1.5-0.9c-0.7,0-1.2,0.3-1.5,0.9c-0.3,0.6-0.4,1.5-0.4,2.7
		c0,1.2,0.1,2.1,0.4,2.7s0.8,0.9,1.5,0.9C542.1,295.7,542.7,295.4,542.9,294.8z"/>
	<path class="st4" d="M546.2,295.7h1.4v-7.1h-1.4V288c0.5-0.1,1-0.1,1.4-0.1c0.2,0,0.4,0,0.5,0.1c0.1,0.1,0.1,0.2,0.1,0.4v7.2h1.2
		v0.6h-3.3V295.7z"/>
	<path class="st4" d="M555.8,288.6h-3.9V288h4.6c0,0.1,0,0.1,0,0.2c0,0.1,0,0.3-0.1,0.5l-2.5,7.5h-0.8L555.8,288.6z"/>
</g>
<g>
	<path class="st1" d="M3,5.4h1.9c0.7,0,1.3,0.1,1.8,0.2C7.2,5.8,7.6,6,7.9,6.3C8.5,7,8.8,8,8.8,9.5c0,0.8-0.1,1.5-0.3,2.1
		c-0.2,0.6-0.4,1-0.8,1.3c-0.5,0.5-1.3,0.7-2.5,0.7H3V5.4z M5.2,13c1,0,1.6-0.2,2.1-0.6c0.3-0.3,0.5-0.7,0.6-1.1
		C8,10.8,8,10.2,8,9.5C8,8.8,8,8.3,7.9,7.8C7.7,7.4,7.6,7,7.3,6.7C7,6.5,6.7,6.3,6.4,6.2C6,6.1,5.5,6.1,4.9,6.1H3.7V13H5.2z"/>
	<path class="st1" d="M10.6,5.4h4.3L14.8,6h-3.5v3.1h2.9v0.6h-2.9V13H15v0.6h-4.4V5.4z"/>
	<path class="st1" d="M16.7,5.4h0.7V13h3.6v0.6h-4.3V5.4z"/>
	<path class="st1" d="M22.5,5.4h0.7v8.2h-0.7V5.4z"/>
	<path class="st1" d="M27.3,6h-2.6V5.4h6L30.6,6H28v7.6h-0.7V6z"/>
	<path class="st1" d="M31.9,12.7c-0.5-0.7-0.8-1.8-0.8-3.2s0.3-2.5,0.8-3.2c0.5-0.7,1.3-1.1,2.3-1.1s1.8,0.4,2.3,1.1
		c0.5,0.7,0.8,1.8,0.8,3.2s-0.3,2.5-0.8,3.2c-0.5,0.7-1.3,1.1-2.3,1.1S32.4,13.4,31.9,12.7z M36.1,12.2c0.4-0.6,0.6-1.5,0.6-2.7
		s-0.2-2.1-0.6-2.7c-0.4-0.6-1-0.9-1.8-0.9s-1.5,0.3-1.8,0.9c-0.4,0.6-0.6,1.5-0.6,2.7s0.2,2.1,0.6,2.7c0.4,0.6,1,0.9,1.8,0.9
		S35.7,12.8,36.1,12.2z"/>
	<path class="st1" d="M38.8,13.5l0.1-0.6c0.7,0.2,1.3,0.3,2,0.3c0.4,0,0.7,0,1-0.1c0.3-0.1,0.5-0.2,0.6-0.3c0.3-0.3,0.5-0.7,0.5-1.2
		c0-0.3-0.1-0.6-0.3-0.8c-0.2-0.2-0.4-0.4-0.6-0.6S41.5,9.9,41,9.7c-0.5-0.2-0.9-0.4-1.2-0.6c-0.3-0.2-0.6-0.4-0.8-0.7
		s-0.3-0.6-0.3-1.1c0-0.6,0.2-1.1,0.5-1.4c0.4-0.4,1.1-0.7,2-0.7c0.7,0,1.3,0.1,1.9,0.3l-0.1,0.6C42.5,6,42,5.9,41.4,5.9
		c-1.3,0-1.9,0.5-1.9,1.4c0,0.3,0.1,0.6,0.3,0.8c0.2,0.2,0.4,0.4,0.6,0.5c0.2,0.1,0.6,0.3,1,0.5c0.5,0.2,0.9,0.4,1.2,0.6
		c0.3,0.2,0.6,0.4,0.8,0.7c0.2,0.3,0.3,0.7,0.3,1.1c0,0.7-0.2,1.3-0.7,1.7c-0.5,0.4-1.1,0.6-2,0.6C40.2,13.8,39.5,13.7,38.8,13.5z"
		/>
</g>
<g>
	<path class="st5" d="M180.8,158.3h1.9l6,17.9H187l-1.6-4.9h-7.2l-1.5,4.9h-1.6L180.8,158.3z M185,170l-3.3-10l-3.1,10H185z"/>
	<path class="st5" d="M193.5,176.3c-0.6-0.2-1-0.4-1.4-0.8c-0.4-0.4-0.6-0.8-0.8-1.3c-0.2-0.5-0.3-1.2-0.3-1.9v-8.9h1.5v8.5
		c0,0.7,0.1,1.2,0.2,1.6s0.3,0.7,0.6,1c0.5,0.5,1.3,0.8,2.3,0.8c0.6,0,1.3-0.1,2-0.3c0.7-0.2,1.4-0.4,2-0.8v-10.8h1.5v12.8h-1.2
		l-0.1-1c-1.5,0.9-2.9,1.3-4.4,1.3C194.7,176.6,194.1,176.5,193.5,176.3z"/>
	<path class="st5" d="M205,163.4h1.2l0.1,0.9c0.6-0.4,1.3-0.7,2.1-1s1.5-0.4,2.2-0.4c0.7,0,1.4,0.1,2.1,0.4c0.6,0.2,1.1,0.6,1.4,1
		c0.7-0.4,1.5-0.8,2.3-1c0.8-0.2,1.6-0.4,2.4-0.4c0.7,0,1.3,0.1,1.8,0.3c0.6,0.2,1,0.4,1.4,0.8c0.4,0.4,0.6,0.8,0.8,1.3
		c0.2,0.5,0.2,1.2,0.2,1.9v8.9h-1.5v-8.5c0-0.7-0.1-1.2-0.2-1.6c-0.1-0.4-0.3-0.7-0.5-1c-0.5-0.5-1.3-0.8-2.3-0.8
		c-1.3,0-2.6,0.3-3.9,1c0.2,0.5,0.3,1.2,0.3,2v8.9h-1.5v-8.5c0-0.7-0.1-1.2-0.2-1.6c-0.1-0.4-0.3-0.7-0.5-1
		c-0.5-0.5-1.3-0.8-2.2-0.8c-0.6,0-1.2,0.1-1.8,0.3c-0.7,0.2-1.3,0.4-2,0.7v10.8H205V163.4z"/>
	<path class="st5" d="M227.6,174.9c-1-1.2-1.5-2.8-1.5-5c0-2.1,0.4-3.7,1.3-5s2.2-1.8,3.9-1.8c3.4,0,5,2.3,5,6.9v0.2
		c0,0.1,0,0.2-0.1,0.2c0,0-0.1,0.1-0.2,0.1h-8.4c0,1.6,0.4,2.8,1.1,3.6c0.7,0.8,1.9,1.2,3.5,1.2c1,0,2.1-0.1,3.2-0.4l0.1,1.2
		c-0.4,0.1-1,0.3-1.6,0.3c-0.7,0.1-1.3,0.1-1.8,0.1C230.1,176.6,228.6,176,227.6,174.9z M234.9,169.2c0-1.5-0.3-2.7-0.9-3.6
		c-0.6-0.9-1.5-1.3-2.7-1.3c-1.2,0-2.1,0.4-2.7,1.3c-0.6,0.9-0.9,2.1-0.9,3.6H234.9z"/>
	<path class="st5" d="M239.7,163.4h1.2l0.1,1c1.5-0.9,3-1.3,4.5-1.3c0.7,0,1.3,0.1,1.9,0.3c0.6,0.2,1,0.4,1.4,0.8
		c0.4,0.4,0.6,0.8,0.8,1.3c0.2,0.5,0.3,1.2,0.3,1.9v8.9h-1.5v-8.5c0-0.7-0.1-1.2-0.2-1.6c-0.1-0.4-0.3-0.7-0.6-1
		c-0.5-0.5-1.3-0.8-2.3-0.8c-0.6,0-1.3,0.1-2,0.3c-0.7,0.2-1.4,0.4-2,0.8v10.8h-1.5V163.4z"/>
	<path class="st5" d="M255.3,175.8c-0.3-0.3-0.5-0.7-0.7-1.2c-0.1-0.5-0.2-1.1-0.2-1.8v-8.2H252v-0.9l2.4-0.3v-3
		c0.5-0.2,1-0.3,1.5-0.3v3.3h3.4v1.2h-3.4v7.7c0,0.7,0,1.2,0.1,1.5c0.1,0.3,0.2,0.6,0.4,0.8c0.3,0.4,0.9,0.6,1.7,0.6
		c0.6,0,1.3-0.1,2-0.2l0.1,1.2c-0.7,0.2-1.4,0.3-2.3,0.3C256.7,176.6,255.8,176.3,255.3,175.8z"/>
	<path class="st5" d="M262,169.8c0-4.5,1.8-6.8,5.5-6.8c3.7,0,5.5,2.3,5.5,6.8c0,4.5-1.8,6.8-5.5,6.8
		C263.8,176.6,262,174.3,262,169.8z M270.5,173.9c0.6-0.9,0.9-2.3,0.9-4.1c0-1.8-0.3-3.2-0.9-4.1c-0.6-0.9-1.6-1.4-3-1.4
		c-1.4,0-2.4,0.5-3,1.4c-0.6,0.9-0.9,2.3-0.9,4.1c0,1.8,0.3,3.2,0.9,4.1c0.6,0.9,1.6,1.4,3,1.4C268.9,175.3,269.9,174.8,270.5,173.9
		z"/>
	<path class="st5" d="M280.9,169.9c0-2.1,0.4-3.8,1.3-5s2.2-1.8,3.9-1.8c1.2,0,2.4,0.3,3.6,0.9v-6.4h1.5v18.7H290l-0.1-0.8
		c-0.5,0.3-1.1,0.6-1.8,0.8s-1.4,0.3-2,0.3C282.6,176.6,280.9,174.4,280.9,169.9z M287.9,175c0.6-0.2,1.2-0.4,1.7-0.6v-9.2
		c-1.2-0.5-2.3-0.8-3.3-0.8c-1.4,0-2.4,0.5-3,1.4c-0.6,0.9-0.9,2.3-0.9,4.1c0,1.8,0.3,3.2,0.9,4.1c0.6,0.9,1.5,1.3,2.9,1.3
		C286.7,175.3,287.3,175.2,287.9,175z"/>
	<path class="st5" d="M295.9,174.9c-1-1.2-1.5-2.8-1.5-5c0-2.1,0.4-3.7,1.3-5c0.9-1.2,2.2-1.8,3.9-1.8c3.4,0,5,2.3,5,6.9v0.2
		c0,0.1,0,0.2-0.1,0.2c0,0-0.1,0.1-0.2,0.1H296c0,1.6,0.4,2.8,1.1,3.6s1.9,1.2,3.5,1.2c1,0,2.1-0.1,3.2-0.4l0.1,1.2
		c-0.4,0.1-1,0.3-1.6,0.3c-0.7,0.1-1.3,0.1-1.8,0.1C298.4,176.6,296.9,176,295.9,174.9z M303.2,169.2c0-1.5-0.3-2.7-0.9-3.6
		s-1.5-1.3-2.7-1.3s-2.1,0.4-2.7,1.3s-0.9,2.1-0.9,3.6H303.2z"/>
	<path class="st5" d="M308,157.5h1.5v18.7H308V157.5z"/>
	<path class="st5" d="M320.8,176.5c-0.6-0.1-1.2-0.2-1.6-0.3v-1.3c0.9,0.2,2,0.3,3.3,0.3c3.2,0,4.7-1.3,4.7-4c0-1.3-0.3-2.3-0.9-2.9
		c-0.4-0.4-0.9-0.7-1.5-0.9c-0.6-0.2-1.5-0.3-2.6-0.3h-2.6c-0.1-0.3-0.1-0.7-0.1-1.3l0.3-7.5h7.9v1.3h-6.6l-0.2,6.1h1.6
		c1.2,0,2.2,0.1,3,0.4c0.8,0.2,1.4,0.6,2,1.1c0.9,0.9,1.4,2.2,1.4,3.9c0,1.8-0.5,3.1-1.6,4s-2.6,1.4-4.5,1.4
		C322,176.6,321.4,176.6,320.8,176.5z"/>
	<path class="st5" d="M334.4,176.5c-0.7-0.1-1.3-0.2-1.8-0.3v-1.3c0.5,0.1,1.1,0.2,1.7,0.2c0.7,0.1,1.3,0.1,1.8,0.1
		c1.7,0,3-0.4,3.8-1.1c0.7-0.6,1-1.6,1-2.8c0-1.1-0.3-1.9-0.9-2.5c-0.8-0.8-2.1-1.1-3.9-1.1h-0.2v-1.2h0.2c0.8,0,1.5-0.1,2.1-0.2
		c0.5-0.2,1-0.4,1.3-0.8c0.6-0.7,1-1.6,1-2.6c0-1.1-0.3-2-0.8-2.5c-0.6-0.7-1.7-1-3.3-1c-1.1,0-2.3,0.1-3.5,0.4v-1.2
		c0.5-0.2,1.2-0.3,1.9-0.4c0.7-0.1,1.4-0.1,2-0.1c1.8,0,3.2,0.4,4.1,1.3c0.8,0.8,1.3,1.9,1.3,3.3c0,2.1-0.9,3.5-2.7,4.4
		c1,0.3,1.8,0.8,2.3,1.5s0.9,1.7,0.9,2.9c0,1.7-0.5,2.9-1.5,3.8c-1,0.9-2.6,1.4-4.7,1.4C335.8,176.6,335.1,176.5,334.4,176.5z"/>
	<path class="st5" d="M347.3,176.6c-0.3-0.1-0.6-0.2-0.7-0.4s-0.2-0.4-0.2-0.7v-0.1c0-0.4,0.1-0.6,0.3-0.8c0.2-0.2,0.4-0.3,0.7-0.3
		h0.1c0.4,0,0.6,0.1,0.8,0.4c0.2,0.2,0.2,0.6,0.2,1.1s0,1.2-0.1,1.9c-0.1,0.7-0.2,1.4-0.4,1.9h-0.7V176.6z"/>
	<path class="st5" d="M354.4,176c-0.8-0.4-1.5-1-1.9-1.7c-0.5-0.7-0.7-1.5-0.7-2.4c0-1.2,0.3-2.2,1-3.1c0.7-0.9,1.6-1.6,2.8-2.2
		c-0.9-0.5-1.7-1.1-2.2-1.8c-0.5-0.7-0.8-1.5-0.8-2.5c0-0.8,0.2-1.6,0.6-2.2c0.4-0.7,1-1.2,1.7-1.6s1.6-0.6,2.5-0.6
		c0.9,0,1.7,0.2,2.5,0.6c0.7,0.4,1.3,0.9,1.7,1.5c0.4,0.6,0.6,1.3,0.6,2.1c0,1.1-0.3,2-0.9,2.7c-0.6,0.7-1.4,1.4-2.5,1.9
		c1.3,0.7,2.4,1.4,3.1,2.1s1.1,1.7,1.1,2.9c0,1-0.2,1.8-0.7,2.6c-0.5,0.7-1.2,1.3-2,1.7s-1.8,0.6-2.9,0.6
		C356.2,176.6,355.2,176.4,354.4,176z M360.4,174.4c0.8-0.6,1.1-1.4,1.1-2.5c0-0.8-0.2-1.4-0.6-2c-0.4-0.5-0.9-1-1.5-1.3
		c-0.6-0.3-1.4-0.8-2.5-1.3c-1.2,0.5-2,1.1-2.7,1.8c-0.6,0.8-0.9,1.6-0.9,2.6c0,1,0.4,1.9,1.1,2.5c0.7,0.7,1.7,1,3,1
		S359.6,175,360.4,174.4z M360,164.5c0.5-0.6,0.8-1.4,0.8-2.2c0-0.9-0.3-1.6-0.9-2.1s-1.4-0.8-2.4-0.8c-1,0-1.9,0.3-2.5,0.8
		s-0.9,1.3-0.9,2.2c0,0.9,0.3,1.6,0.9,2.1c0.6,0.6,1.5,1.1,2.6,1.7C358.6,165.6,359.4,165.1,360,164.5z"/>
	<path class="st5" d="M366.9,167.2c-0.6-0.9-1-2.2-1-3.9s0.3-3,1-3.9c0.6-0.9,1.6-1.4,2.9-1.4s2.3,0.5,2.9,1.4c0.6,0.9,1,2.2,1,3.9
		s-0.3,3-1,3.9c-0.6,0.9-1.6,1.4-2.9,1.4S367.5,168.1,366.9,167.2z M371.7,166.4c0.4-0.6,0.6-1.7,0.6-3.1s-0.2-2.5-0.6-3.1
		c-0.4-0.6-1-1-1.9-1c-0.9,0-1.6,0.3-1.9,1c-0.4,0.6-0.6,1.7-0.6,3.1s0.2,2.5,0.6,3.1c0.4,0.6,1,1,1.9,1
		C370.7,167.3,371.3,167,371.7,166.4z M379.8,158h1.4l-9,18.6h-1.4L379.8,158z M379.3,175.2c-0.6-0.9-1-2.2-1-3.9s0.3-3,1-3.9
		c0.6-0.9,1.6-1.4,2.9-1.4c1.3,0,2.3,0.5,2.9,1.4c0.6,0.9,1,2.2,1,3.9s-0.3,3-1,3.9c-0.6,0.9-1.6,1.4-2.9,1.4
		C380.9,176.6,379.9,176.1,379.3,175.2z M384.2,174.4c0.4-0.6,0.6-1.7,0.6-3.1s-0.2-2.5-0.6-3.1c-0.4-0.6-1-1-1.9-1
		c-0.9,0-1.6,0.3-1.9,1c-0.4,0.6-0.6,1.7-0.6,3.1s0.2,2.5,0.6,3.1c0.4,0.6,1,1,1.9,1C383.1,175.4,383.8,175,384.2,174.4z"/>
	<path class="st5" d="M394.2,169.9c0-2.1,0.4-3.8,1.3-5s2.2-1.8,3.9-1.8c1.2,0,2.4,0.3,3.6,0.9v-6.4h1.5v18.7h-1.2l-0.1-0.8
		c-0.5,0.3-1.1,0.6-1.8,0.8s-1.4,0.3-2,0.3C395.9,176.6,394.2,174.4,394.2,169.9z M401.3,175c0.6-0.2,1.2-0.4,1.7-0.6v-9.2
		c-1.2-0.5-2.3-0.8-3.3-0.8c-1.4,0-2.4,0.5-3,1.4c-0.6,0.9-0.9,2.3-0.9,4.1c0,1.8,0.3,3.2,0.9,4.1c0.6,0.9,1.5,1.3,2.9,1.3
		C400,175.3,400.6,175.2,401.3,175z"/>
	<path class="st5" d="M409.2,174.9c-1-1.2-1.5-2.8-1.5-5c0-2.1,0.4-3.7,1.3-5c0.9-1.2,2.2-1.8,3.9-1.8c3.4,0,5,2.3,5,6.9v0.2
		c0,0.1,0,0.2-0.1,0.2c0,0-0.1,0.1-0.2,0.1h-8.4c0,1.6,0.4,2.8,1.1,3.6s1.9,1.2,3.5,1.2c1,0,2.1-0.1,3.2-0.4l0.1,1.2
		c-0.4,0.1-1,0.3-1.6,0.3c-0.7,0.1-1.3,0.1-1.8,0.1C411.7,176.6,410.2,176,409.2,174.9z M416.5,169.2c0-1.5-0.3-2.7-0.9-3.6
		s-1.5-1.3-2.7-1.3s-2.1,0.4-2.7,1.3s-0.9,2.1-0.9,3.6H416.5z"/>
	<path class="st5" d="M426.6,157.5h1.5v18.7h-1.5V157.5z"/>
	<path class="st5" d="M432.5,175.6c-0.8-0.7-1.2-1.7-1.2-3c0-1.2,0.3-2.1,1-2.7c0.4-0.4,1-0.7,1.6-0.9c0.7-0.2,1.5-0.3,2.5-0.3h3.1
		v-1c0-1.2-0.3-2.1-0.8-2.6c-0.5-0.5-1.4-0.8-2.6-0.8c-1.2,0-2.4,0.1-3.6,0.4l-0.1-1.3c1.3-0.3,2.5-0.5,3.8-0.5c1.7,0,3,0.4,3.7,1.1
		c0.7,0.7,1,1.8,1,3.3v8.7h-1.2l-0.1-0.9c-0.6,0.4-1.3,0.7-2,0.9s-1.4,0.3-2.1,0.3C434.3,176.6,433.3,176.3,432.5,175.6z M437.8,175
		c0.7-0.2,1.3-0.4,1.8-0.7V170h-2.9c-0.8,0-1.4,0.1-1.9,0.2c-0.5,0.1-0.9,0.3-1.2,0.5c-0.5,0.4-0.7,1-0.7,1.9c0,0.9,0.3,1.6,0.8,2
		s1.3,0.7,2.2,0.7C436.5,175.3,437.1,175.2,437.8,175z"/>
	<path class="st5" d="M138.8,192.2c0,1.1,0.1,2,0.3,2.9c0.2,0.8,0.5,1.5,1,2c0.4,0.5,0.9,0.8,1.5,1c0.6,0.2,1.4,0.3,2.4,0.3
		c0.4,0,1,0,1.6-0.1c0.6-0.1,1.2-0.2,1.7-0.3l0.4,3c-0.3,0.1-0.6,0.2-0.9,0.2s-0.8,0.1-1.2,0.2s-0.8,0.1-1.2,0.1c-0.4,0-0.8,0-1.2,0
		c-1.6,0-2.9-0.2-3.9-0.5c-1-0.4-1.9-0.9-2.6-1.6c-0.8-0.8-1.3-1.8-1.7-3s-0.5-2.5-0.5-4.1c0-1.4,0.2-2.7,0.5-3.8
		c0.3-1.2,0.8-2.1,1.5-3c0.7-0.8,1.6-1.5,2.7-1.9c1.1-0.5,2.4-0.7,3.9-0.7c0.4,0,0.8,0,1.2,0.1c0.4,0,0.9,0.1,1.3,0.2
		s0.8,0.2,1.2,0.2c0.4,0.1,0.7,0.2,1,0.3l-0.5,3c-0.7-0.2-1.4-0.3-2-0.5c-0.7-0.1-1.3-0.2-1.8-0.2c-1,0-1.7,0.2-2.4,0.5
		c-0.6,0.3-1.1,0.7-1.5,1.3c-0.4,0.5-0.6,1.2-0.7,1.9S138.8,191.3,138.8,192.2z"/>
	<path class="st5" d="M154.3,184.4c0,0.6-0.2,1.1-0.5,1.4c-0.3,0.3-0.8,0.4-1.5,0.4h-0.2c-0.6,0-1.1-0.1-1.5-0.4
		c-0.3-0.3-0.5-0.7-0.5-1.4v-0.3c0-0.6,0.2-1.1,0.5-1.4c0.3-0.3,0.8-0.4,1.5-0.4h0.2c0.6,0,1.1,0.1,1.5,0.4c0.3,0.3,0.5,0.7,0.5,1.4
		V184.4z M154.1,201.1h-3.7v-12.8h3.7V201.1z"/>
	<path class="st5" d="M161.1,188.8c0.5-0.3,1-0.5,1.6-0.6c0.6-0.2,1.3-0.2,1.9-0.2c0.7,0,1.4,0.1,2,0.4c0.6,0.2,1.1,0.6,1.5,1.2
		c0.4,0.5,0.8,1.2,1,2.1c0.2,0.9,0.4,1.9,0.4,3.1c0,1.2-0.1,2.2-0.4,3.1c-0.2,0.9-0.6,1.7-1.1,2.2c-0.9,1-2.1,1.5-3.6,1.5
		c-0.7,0-1.3-0.1-2-0.3c-0.7-0.2-1.3-0.5-1.8-0.8l-0.2,0.8h-3.1v-18.7h3.7V188.8z M161.1,198c0.3,0.2,0.6,0.3,1.1,0.4
		c0.4,0.1,0.8,0.2,1.2,0.2c0.4,0,0.8-0.1,1.1-0.2s0.5-0.3,0.7-0.6c0.2-0.3,0.3-0.7,0.4-1.2s0.1-1.1,0.1-1.8c0-0.8,0-1.4-0.1-1.9
		s-0.2-0.9-0.4-1.2c-0.2-0.3-0.4-0.5-0.7-0.6c-0.3-0.1-0.6-0.2-1-0.2c-0.4,0-0.8,0-1.2,0.1c-0.4,0.1-0.7,0.1-1,0.3V198z"/>
	<path class="st5" d="M175.3,195.9c0.1,1.1,0.4,1.8,1.1,2.2c0.7,0.4,1.6,0.6,2.9,0.6c0.5,0,1,0,1.6-0.1c0.6-0.1,1.1-0.1,1.6-0.2
		l0.3,2.7c-0.6,0.1-1.3,0.2-2,0.3c-0.7,0.1-1.5,0.1-2.3,0.1c-1.2,0-2.2-0.1-3.1-0.4c-0.9-0.3-1.6-0.7-2.2-1.2
		c-0.6-0.6-1.1-1.4-1.3-2.2c-0.3-0.9-0.4-1.8-0.4-2.9c0-2.3,0.5-4,1.6-5.1c1.1-1.1,2.6-1.7,4.6-1.7c1.9,0,3.4,0.5,4.4,1.6
		c1,1,1.5,2.7,1.5,4.9v1.2c0,0.2-0.1,0.3-0.3,0.3H175.3z M179.8,193.4c0-0.8-0.2-1.5-0.6-1.9c-0.4-0.5-0.9-0.7-1.7-0.7
		c-0.8,0-1.3,0.2-1.7,0.7c-0.4,0.5-0.6,1.1-0.6,2H179.8z"/>
	<path class="st5" d="M189.1,188.3l0.1,1c0.2-0.2,0.5-0.4,0.9-0.6c0.3-0.2,0.7-0.3,1-0.4c0.4-0.1,0.7-0.2,1.1-0.3
		c0.3-0.1,0.7-0.1,1-0.1c0.1,0,0.2,0,0.3,0s0.2,0,0.3,0v3.3c-0.2,0-0.5-0.1-0.8-0.1c-0.3,0-0.6,0-0.9,0c-0.5,0-1,0-1.4,0.1
		c-0.4,0.1-0.8,0.1-1.2,0.2v9.6h-3.7v-12.8H189.1z"/>
	<path class="st5" d="M195,194.8c0-1.1,0.1-2,0.4-2.9c0.2-0.8,0.6-1.6,1-2.1c0.4-0.6,1-1,1.6-1.3c0.6-0.3,1.3-0.5,2.1-0.5
		c0.6,0,1.1,0.1,1.7,0.2c0.6,0.2,1.2,0.4,1.7,0.7v-6.5h3.7v18.7H204l-0.1-0.9c-0.6,0.4-1.2,0.7-1.9,0.9c-0.7,0.2-1.4,0.4-2.2,0.4
		c-1.3,0-2.3-0.4-3.1-1.1c-0.6-0.6-1.1-1.4-1.3-2.3C195.1,197.1,195,196,195,194.8z M203.5,191.2c-0.3-0.1-0.6-0.2-0.9-0.2
		c-0.3-0.1-0.6-0.1-0.9-0.1c-0.4,0-0.8,0.1-1.2,0.2c-0.3,0.1-0.6,0.3-0.9,0.6s-0.4,0.7-0.5,1.2c-0.1,0.5-0.2,1.1-0.2,1.9
		c0,0.7,0,1.3,0.1,1.8c0.1,0.5,0.2,0.9,0.4,1.1s0.4,0.5,0.7,0.6c0.3,0.1,0.7,0.2,1.1,0.2c0.3,0,0.7,0,1.1-0.1
		c0.4-0.1,0.8-0.2,1.1-0.3V191.2z"/>
	<path class="st5" d="M213.6,195.9c0.1,1.1,0.4,1.8,1.1,2.2c0.7,0.4,1.6,0.6,2.9,0.6c0.5,0,1,0,1.6-0.1c0.6-0.1,1.1-0.1,1.6-0.2
		l0.3,2.7c-0.6,0.1-1.3,0.2-2,0.3c-0.7,0.1-1.5,0.1-2.3,0.1c-1.2,0-2.2-0.1-3.1-0.4c-0.9-0.3-1.6-0.7-2.2-1.2
		c-0.6-0.6-1.1-1.4-1.3-2.2c-0.3-0.9-0.4-1.8-0.4-2.9c0-2.3,0.5-4,1.6-5.1c1.1-1.1,2.6-1.7,4.6-1.7c1.9,0,3.4,0.5,4.4,1.6
		c1,1,1.5,2.7,1.5,4.9v1.2c0,0.2-0.1,0.3-0.3,0.3H213.6z M218.2,193.4c0-0.8-0.2-1.5-0.6-1.9c-0.4-0.5-0.9-0.7-1.7-0.7
		c-0.8,0-1.3,0.2-1.7,0.7c-0.4,0.5-0.6,1.1-0.6,2H218.2z"/>
	<path class="st5" d="M228,182.4v18.7h-3.7v-18.7H228z"/>
	<path class="st5" d="M235.2,184.4c0,0.6-0.2,1.1-0.5,1.4c-0.3,0.3-0.8,0.4-1.5,0.4h-0.2c-0.6,0-1.1-0.1-1.5-0.4
		c-0.3-0.3-0.5-0.7-0.5-1.4v-0.3c0-0.6,0.2-1.1,0.5-1.4c0.3-0.3,0.8-0.4,1.5-0.4h0.2c0.6,0,1.1,0.1,1.5,0.4c0.3,0.3,0.5,0.7,0.5,1.4
		V184.4z M235,201.1h-3.7v-12.8h3.7V201.1z"/>
	<path class="st5" d="M241.5,188.3l0.1,0.9c0.7-0.5,1.5-0.8,2.2-1c0.8-0.2,1.5-0.3,2.2-0.3c0.6,0,1.1,0.1,1.7,0.2
		c0.6,0.2,1,0.4,1.4,0.8c0.4,0.4,0.7,0.9,0.8,1.4s0.2,1.2,0.2,2v8.8h-3.7v-8.4c0-0.3,0-0.6-0.1-0.8c-0.1-0.2-0.2-0.4-0.3-0.5
		c-0.2-0.2-0.4-0.3-0.7-0.3c-0.3-0.1-0.6-0.1-1-0.1c-0.3,0-0.8,0-1.3,0.1c-0.5,0.1-0.9,0.2-1.2,0.3v9.7h-3.7v-12.8H241.5z"/>
	<path class="st5" d="M259.6,201.5c-0.6,0-1.1,0-1.7-0.1c-0.6-0.1-1.1-0.2-1.6-0.4c-0.5-0.2-1-0.5-1.5-0.8c-0.5-0.3-0.9-0.8-1.2-1.3
		c-0.3-0.5-0.6-1.2-0.8-1.8c-0.2-0.7-0.3-1.4-0.3-2.1c0-1.1,0.1-2.1,0.4-2.9s0.7-1.6,1.3-2.2c0.6-0.6,1.3-1.1,2.2-1.4
		c0.9-0.3,1.9-0.5,2.9-0.5c0.6,0,1.2,0,1.9,0.1c0.7,0.1,1.3,0.2,1.9,0.4l-0.2,2.8c-0.4-0.1-0.9-0.2-1.4-0.3c-0.5-0.1-1-0.1-1.6-0.1
		c-1.2,0-2,0.3-2.6,0.9c-0.3,0.3-0.5,0.8-0.7,1.3c-0.1,0.5-0.2,1.1-0.2,1.7c0,1.3,0.3,2.3,0.9,2.9c0.6,0.6,1.5,1,2.9,1
		c0.4,0,0.9,0,1.3-0.1c0.5,0,0.9-0.1,1.3-0.2l0.3,2.7c-0.6,0.1-1.2,0.2-1.7,0.3C260.9,201.5,260.3,201.5,259.6,201.5z"/>
	<path class="st5" d="M273.8,201.1l-0.1-0.9c-0.7,0.4-1.4,0.7-2.2,0.9c-0.8,0.2-1.5,0.3-2.1,0.3c-0.6,0-1.1-0.1-1.7-0.2
		c-0.6-0.2-1-0.4-1.4-0.8c-0.4-0.4-0.7-0.9-0.9-1.4s-0.2-1.2-0.2-2v-8.8h3.7v8.3c0,0.6,0.1,1.1,0.4,1.4c0.2,0.2,0.4,0.3,0.7,0.3
		s0.6,0.1,1,0.1c0.3,0,0.7,0,1.2-0.1c0.5-0.1,0.8-0.2,1.2-0.3v-9.7h3.7v12.8H273.8z"/>
	<path class="st5" d="M283.5,195.9c0.1,1.1,0.4,1.8,1.1,2.2c0.7,0.4,1.6,0.6,2.9,0.6c0.5,0,1,0,1.6-0.1c0.6-0.1,1.1-0.1,1.6-0.2
		l0.3,2.7c-0.6,0.1-1.3,0.2-2,0.3c-0.7,0.1-1.5,0.1-2.3,0.1c-1.2,0-2.2-0.1-3.1-0.4c-0.9-0.3-1.6-0.7-2.2-1.2
		c-0.6-0.6-1.1-1.4-1.3-2.2c-0.3-0.9-0.4-1.8-0.4-2.9c0-2.3,0.5-4,1.6-5.1s2.6-1.7,4.6-1.7c1.9,0,3.4,0.5,4.4,1.6
		c1,1,1.5,2.7,1.5,4.9v1.2c0,0.2-0.1,0.3-0.3,0.3H283.5z M288,193.4c0-0.8-0.2-1.5-0.6-1.9c-0.4-0.5-0.9-0.7-1.7-0.7
		c-0.8,0-1.3,0.2-1.7,0.7s-0.6,1.1-0.6,2H288z"/>
	<path class="st5" d="M297.3,188.3l0.1,0.9c0.7-0.5,1.5-0.8,2.2-1c0.8-0.2,1.5-0.3,2.2-0.3c0.6,0,1.1,0.1,1.7,0.2
		c0.6,0.2,1,0.4,1.4,0.8c0.4,0.4,0.7,0.9,0.9,1.4c0.2,0.6,0.2,1.2,0.2,2v8.8h-3.7v-8.4c0-0.3,0-0.6-0.1-0.8
		c-0.1-0.2-0.2-0.4-0.3-0.5c-0.2-0.2-0.4-0.3-0.7-0.3s-0.6-0.1-1-0.1c-0.3,0-0.8,0-1.3,0.1c-0.5,0.1-0.9,0.2-1.2,0.3v9.7H294v-12.8
		H297.3z"/>
	<path class="st5" d="M315.4,201.5c-0.6,0-1.1,0-1.7-0.1c-0.6-0.1-1.1-0.2-1.6-0.4c-0.5-0.2-1-0.5-1.5-0.8c-0.5-0.3-0.9-0.8-1.2-1.3
		c-0.3-0.5-0.6-1.2-0.8-1.8c-0.2-0.7-0.3-1.4-0.3-2.1c0-1.1,0.1-2.1,0.4-2.9s0.7-1.6,1.3-2.2c0.6-0.6,1.3-1.1,2.2-1.4
		c0.9-0.3,1.9-0.5,2.9-0.5c0.6,0,1.2,0,1.9,0.1c0.7,0.1,1.3,0.2,1.9,0.4l-0.2,2.8c-0.4-0.1-0.9-0.2-1.4-0.3c-0.5-0.1-1-0.1-1.6-0.1
		c-1.2,0-2,0.3-2.6,0.9c-0.3,0.3-0.5,0.8-0.7,1.3c-0.1,0.5-0.2,1.1-0.2,1.7c0,1.3,0.3,2.3,0.9,2.9c0.6,0.6,1.5,1,2.9,1
		c0.4,0,0.9,0,1.3-0.1c0.5,0,0.9-0.1,1.3-0.2l0.3,2.7c-0.6,0.1-1.2,0.2-1.7,0.3C316.7,201.5,316.1,201.5,315.4,201.5z"/>
	<path class="st5" d="M325.1,184.4c0,0.6-0.2,1.1-0.5,1.4c-0.3,0.3-0.8,0.4-1.5,0.4H323c-0.6,0-1.1-0.1-1.5-0.4
		c-0.3-0.3-0.5-0.7-0.5-1.4v-0.3c0-0.6,0.2-1.1,0.5-1.4c0.3-0.3,0.8-0.4,1.5-0.4h0.2c0.6,0,1.1,0.1,1.5,0.4c0.3,0.3,0.5,0.7,0.5,1.4
		V184.4z M324.9,201.1h-3.7v-12.8h3.7V201.1z"/>
	<path class="st5" d="M335.7,200.4c-0.6,0.3-1.2,0.6-1.8,0.8c-0.7,0.2-1.3,0.3-2,0.3c-1.5,0-2.6-0.4-3.3-1.2c-0.8-0.8-1.2-1.8-1.2-3
		c0-0.6,0.1-1.1,0.3-1.6c0.2-0.5,0.5-0.9,0.8-1.3c0.5-0.4,1.1-0.7,1.8-0.9c0.7-0.2,1.7-0.3,2.9-0.3h2v-0.4c0-0.6-0.2-1.1-0.5-1.4
		c-0.2-0.2-0.5-0.3-0.9-0.4c-0.4-0.1-0.8-0.1-1.3-0.1c-0.6,0-1.2,0-1.9,0.1c-0.7,0.1-1.2,0.1-1.7,0.2l-0.2-2.8
		c0.7-0.1,1.4-0.3,2.2-0.3c0.8-0.1,1.6-0.1,2.4-0.1c1,0,1.9,0.1,2.7,0.3c0.8,0.2,1.4,0.6,1.9,1.1c0.7,0.8,1,1.9,1,3.4v8.3h-3
		L335.7,200.4z M335.2,195.6h-2c-0.5,0-0.8,0-1.1,0.1c-0.3,0.1-0.5,0.2-0.7,0.4c-0.2,0.2-0.4,0.6-0.4,1.1s0.1,0.8,0.4,1.1
		c0.3,0.3,0.7,0.4,1.4,0.4c0.3,0,0.7,0,1.2-0.1c0.4-0.1,0.8-0.2,1.1-0.3V195.6z"/>
	<path class="st5" d="M348.5,199.8c-1-1.2-1.5-2.8-1.5-5c0-2.1,0.4-3.7,1.3-5c0.9-1.2,2.2-1.8,3.9-1.8c3.4,0,5,2.3,5,6.9v0.2
		c0,0.1,0,0.2-0.1,0.2c0,0-0.1,0.1-0.2,0.1h-8.4c0,1.6,0.4,2.8,1.1,3.6c0.7,0.8,1.9,1.2,3.5,1.2c1,0,2.1-0.1,3.2-0.4l0.1,1.2
		c-0.4,0.1-1,0.3-1.6,0.3c-0.7,0.1-1.3,0.1-1.8,0.1C351,201.5,349.5,200.9,348.5,199.8z M355.8,194.1c0-1.5-0.3-2.7-0.9-3.6
		s-1.5-1.3-2.7-1.3s-2.1,0.4-2.7,1.3s-0.9,2.1-0.9,3.6H355.8z"/>
	<path class="st5" d="M360.6,188.3h1.2l0.1,1c1.5-0.9,3-1.3,4.5-1.3c0.7,0,1.3,0.1,1.9,0.3c0.6,0.2,1,0.4,1.4,0.8
		c0.4,0.4,0.6,0.8,0.8,1.3c0.2,0.5,0.3,1.2,0.3,1.9v8.9h-1.5v-8.5c0-0.7-0.1-1.2-0.2-1.6c-0.1-0.4-0.3-0.7-0.6-1
		c-0.5-0.5-1.3-0.8-2.3-0.8c-0.6,0-1.3,0.1-2,0.3c-0.7,0.2-1.4,0.4-2,0.8v10.8h-1.5V188.3z"/>
	<path class="st5" d="M380.8,199.3c-0.9-1.5-1.3-3.5-1.3-6.2c0-4.2,0.7-7.1,2.1-8.6c1-1.1,2.5-1.6,4.5-1.6c0.4,0,0.8,0,1.4,0.1
		c0.5,0.1,1,0.1,1.3,0.2v1.2c-0.9-0.1-1.7-0.2-2.6-0.2c-0.9,0-1.6,0.1-2.1,0.2c-0.5,0.2-1,0.4-1.4,0.8c-0.6,0.6-1,1.3-1.2,2.3
		c-0.3,1-0.4,2.2-0.5,3.7c0.7-0.3,1.4-0.5,2.2-0.7c0.8-0.2,1.4-0.2,2.1-0.2c1.6,0,2.9,0.4,3.7,1.3c0.9,0.9,1.3,2.2,1.3,3.9
		c0,1.8-0.5,3.3-1.4,4.3c-0.9,1.1-2.2,1.6-3.9,1.6C383.1,201.5,381.7,200.8,380.8,199.3z M387.9,199c0.7-0.8,1-1.9,1-3.3
		c0-1.4-0.3-2.5-1-3.1c-0.6-0.6-1.6-0.9-2.9-0.9c-0.6,0-1.3,0.1-2,0.2s-1.4,0.3-2,0.5v1.3c0,4.3,1.3,6.5,4,6.5
		C386.3,200.2,387.3,199.8,387.9,199z"/>
	<path class="st5" d="M399.3,200.5c-0.8-0.7-1.2-1.7-1.2-3c0-1.2,0.3-2.1,1-2.7c0.4-0.4,1-0.7,1.6-0.9c0.7-0.2,1.5-0.3,2.5-0.3h3.1
		v-1c0-1.2-0.3-2.1-0.8-2.6c-0.5-0.5-1.4-0.8-2.6-0.8c-1.2,0-2.4,0.1-3.6,0.4l-0.1-1.3c1.3-0.3,2.5-0.5,3.8-0.5c1.7,0,3,0.4,3.7,1.1
		c0.7,0.7,1,1.8,1,3.3v8.7h-1.2l-0.1-0.9c-0.6,0.4-1.3,0.7-2,0.9c-0.7,0.2-1.4,0.3-2.1,0.3C401.1,201.5,400.1,201.2,399.3,200.5z
		 M404.6,199.9c0.7-0.2,1.3-0.4,1.8-0.7v-4.3h-2.9c-0.8,0-1.4,0.1-1.9,0.2c-0.5,0.1-0.9,0.3-1.2,0.5c-0.5,0.4-0.7,1-0.7,1.9
		c0,0.9,0.3,1.6,0.8,2c0.5,0.4,1.3,0.7,2.2,0.7C403.3,200.2,403.9,200.1,404.6,199.9z"/>
	<path class="st5" d="M411.6,188.3h1.2l0.1,1c1.5-0.9,3-1.3,4.5-1.3c0.7,0,1.3,0.1,1.9,0.3c0.6,0.2,1,0.4,1.4,0.8
		c0.4,0.4,0.6,0.8,0.8,1.3c0.2,0.5,0.3,1.2,0.3,1.9v8.9h-1.5v-8.5c0-0.7-0.1-1.2-0.2-1.6c-0.1-0.4-0.3-0.7-0.6-1
		c-0.5-0.5-1.3-0.8-2.3-0.8c-0.6,0-1.3,0.1-2,0.3c-0.7,0.2-1.4,0.4-2,0.8v10.8h-1.5V188.3z M418,185c-0.3-0.1-0.6-0.2-1-0.4
		c-0.3-0.1-0.5-0.2-0.8-0.3s-0.5-0.1-0.7-0.1c-0.3,0-0.5,0.1-0.6,0.2c-0.2,0.2-0.3,0.4-0.5,0.8l-0.9-0.2c0.1-0.7,0.3-1.3,0.7-1.7
		c0.3-0.4,0.8-0.6,1.3-0.6c0.3,0,0.6,0,0.9,0.1c0.3,0.1,0.6,0.2,1,0.4c0.3,0.2,0.6,0.3,0.8,0.4c0.2,0.1,0.4,0.1,0.6,0.1
		c0.3,0,0.5-0.1,0.6-0.2c0.2-0.2,0.3-0.4,0.5-0.8l0.9,0.2c-0.1,0.7-0.3,1.3-0.7,1.7c-0.3,0.4-0.8,0.6-1.3,0.6
		C418.6,185.2,418.3,185.1,418,185z"/>
	<path class="st5" d="M424.9,194.7c0-4.5,1.8-6.8,5.5-6.8c3.7,0,5.5,2.3,5.5,6.8s-1.8,6.8-5.5,6.8
		C426.7,201.5,424.9,199.2,424.9,194.7z M433.5,198.8c0.6-0.9,0.9-2.3,0.9-4.1c0-1.8-0.3-3.2-0.9-4.1c-0.6-0.9-1.6-1.4-3-1.4
		c-1.4,0-2.4,0.5-3,1.4c-0.6,0.9-0.9,2.3-0.9,4.1c0,1.8,0.3,3.2,0.9,4.1c0.6,0.9,1.6,1.4,3,1.4C431.8,200.2,432.8,199.7,433.5,198.8
		z"/>
	<path class="st5" d="M440.3,201.4c-0.6-0.1-1.2-0.2-1.6-0.3l0.1-1.2c1.1,0.3,2.2,0.4,3.3,0.4c1.2,0,2-0.2,2.6-0.6s0.9-1,0.9-1.8
		c0-0.5-0.1-0.9-0.4-1.3c-0.3-0.3-0.6-0.6-1.1-0.8c-0.4-0.2-1-0.4-1.8-0.6c-0.9-0.3-1.6-0.5-2.1-0.8c-0.5-0.2-1-0.6-1.3-1.1
		s-0.5-1.1-0.5-1.9c0-1.2,0.4-2.1,1.2-2.7c0.8-0.6,1.9-0.9,3.4-0.9c0.5,0,1,0,1.6,0.1c0.6,0.1,1.1,0.2,1.5,0.3l-0.1,1.2
		c-1.1-0.2-2.2-0.4-3.1-0.4c-1.1,0-1.9,0.2-2.4,0.5c-0.5,0.4-0.8,0.9-0.8,1.7c0,0.5,0.1,0.9,0.4,1.2c0.3,0.3,0.6,0.5,1,0.7
		c0.4,0.2,1,0.4,1.7,0.6c0.9,0.3,1.6,0.5,2.1,0.8c0.5,0.3,1,0.6,1.4,1.1c0.4,0.5,0.6,1.1,0.6,1.9c0,1.2-0.4,2.1-1.3,2.7s-2,1-3.6,1
		C441.6,201.5,440.9,201.5,440.3,201.4z"/>
</g>
<g>
	<path class="st1" d="M770.5,405h0.9l2.7,8.2h-0.8l-0.7-2.2h-3.3l-0.7,2.2H768L770.5,405z M772.5,410.4l-1.5-4.6l-1.4,4.6H772.5z"/>
	<path class="st1" d="M775.5,405h0.5l4.7,6.9V405h0.6v8.2h-0.5l-4.7-6.8v6.8h-0.6V405z M778.9,403.7c-0.1,0-0.3-0.1-0.4-0.2
		c-0.1-0.1-0.2-0.1-0.4-0.1s-0.2-0.1-0.3-0.1c-0.1,0-0.2,0-0.3,0.1s-0.1,0.2-0.2,0.4l-0.4-0.1c0-0.3,0.1-0.6,0.3-0.8
		c0.2-0.2,0.4-0.3,0.6-0.3c0.1,0,0.3,0,0.4,0.1s0.3,0.1,0.5,0.2c0.2,0.1,0.3,0.1,0.4,0.2c0.1,0,0.2,0.1,0.3,0.1c0.1,0,0.2,0,0.3-0.1
		s0.1-0.2,0.2-0.4l0.4,0.1c0,0.3-0.1,0.6-0.3,0.8c-0.2,0.2-0.4,0.3-0.6,0.3C779.2,403.7,779,403.7,778.9,403.7z"/>
	<path class="st1" d="M783.9,412.3c-0.5-0.7-0.8-1.8-0.8-3.2s0.3-2.5,0.8-3.2c0.5-0.7,1.3-1.1,2.3-1.1s1.8,0.4,2.3,1.1
		c0.5,0.7,0.8,1.8,0.8,3.2s-0.3,2.5-0.8,3.2c-0.5,0.7-1.3,1.1-2.3,1.1S784.4,413,783.9,412.3z M788.1,411.8c0.4-0.6,0.6-1.5,0.6-2.7
		s-0.2-2.1-0.6-2.7s-1-0.9-1.8-0.9s-1.5,0.3-1.8,0.9c-0.4,0.6-0.6,1.5-0.6,2.7s0.2,2.1,0.6,2.7c0.4,0.6,1,0.9,1.8,0.9
		S787.7,412.4,788.1,411.8z"/>
	<path class="st1" d="M790.8,413l0.1-0.6c0.7,0.2,1.3,0.3,2,0.3c0.4,0,0.7,0,1-0.1c0.3-0.1,0.5-0.2,0.6-0.3c0.3-0.3,0.5-0.7,0.5-1.2
		c0-0.3-0.1-0.6-0.3-0.8s-0.4-0.4-0.6-0.6s-0.6-0.3-1.1-0.5c-0.5-0.2-0.9-0.4-1.2-0.6c-0.3-0.2-0.6-0.4-0.8-0.7
		c-0.2-0.3-0.3-0.6-0.3-1.1c0-0.6,0.2-1.1,0.5-1.4c0.4-0.4,1.1-0.7,2-0.7c0.7,0,1.3,0.1,1.9,0.3l-0.1,0.6c-0.6-0.2-1.1-0.2-1.7-0.2
		c-1.3,0-1.9,0.5-1.9,1.4c0,0.3,0.1,0.6,0.3,0.8s0.4,0.4,0.6,0.5c0.2,0.1,0.6,0.3,1,0.5c0.5,0.2,0.9,0.4,1.2,0.6
		c0.3,0.2,0.6,0.4,0.8,0.7c0.2,0.3,0.3,0.7,0.3,1.1c0,0.7-0.2,1.3-0.7,1.7c-0.5,0.4-1.1,0.6-2,0.6
		C792.2,413.4,791.5,413.3,790.8,413z"/>
</g>
<line class="st3" x1="154.1" y1="271.2" x2="154.1" y2="279.2"/>
<line class="st3" x1="52.1" y1="26.2" x2="43.1" y2="26.2"/>
<line class="st3" x1="52.1" y1="48.2" x2="46.1" y2="48.2"/>
<line class="st3" x1="52.1" y1="67.2" x2="46.1" y2="67.2"/>
<line class="st3" x1="52.1" y1="87.2" x2="46.1" y2="87.2"/>
<line class="st3" x1="52.1" y1="106.2" x2="46.1" y2="106.2"/>
<line class="st3" x1="52.1" y1="125.2" x2="46.1" y2="125.2"/>
<line class="st3" x1="52.1" y1="144.2" x2="46.1" y2="144.2"/>
<line class="st3" x1="52.1" y1="164.2" x2="46.1" y2="164.2"/>
<line class="st3" x1="52.1" y1="183.2" x2="46.1" y2="183.2"/>
<line class="st3" x1="52.1" y1="202.2" x2="46.1" y2="202.2"/>
<line class="st3" x1="52.1" y1="221.2" x2="46.1" y2="221.2"/>
<line class="st3" x1="52.1" y1="241.2" x2="46.1" y2="241.2"/>
<line class="st3" x1="52.1" y1="260.2" x2="46.1" y2="260.2"/>
<line class="st3" x1="60.1" y1="271.2" x2="60.1" y2="279.2"/>
<line class="st3" x1="252.1" y1="271.2" x2="252.1" y2="279.2"/>
<line class="st3" x1="350.1" y1="271.2" x2="350.1" y2="279.2"/>
<line class="st3" x1="448.1" y1="271.2" x2="448.1" y2="279.2"/>
<line class="st3" x1="546.1" y1="271.2" x2="546.1" y2="279.2"/>
<line class="st0" x1="62.6" y1="27.2" x2="62.6" y2="133.2"/>
</svg>
