<?xml version="1.0" encoding="utf-8"?>
<!-- Generator: Adobe Illustrator 22.0.1, SVG Export Plug-In . SVG Version: 6.00 Build 0)  -->
<svg version="1.1" id="Capa_1" xmlns="http://www.w3.org/2000/svg" xmlns:xlink="http://www.w3.org/1999/xlink" x="0px" y="0px"
	 viewBox="0 0 388.1 300" style="enable-background:new 0 0 388.1 300;" xml:space="preserve">
<style type="text/css">
	.st0{fill:#00ABE3;}
	.st1{fill:none;stroke:#E6E6E6;stroke-miterlimit:10;}
	.st2{fill:none;stroke:#00ABE3;stroke-width:2;stroke-miterlimit:10;}
	.st3{fill:#999999;}
	.st4{fill:#808080;}
	.st5{fill:#FFFFFF;}
</style>
<g>
	<path class="st0" d="M770.5,405h0.9l2.7,8.2h-0.8l-0.7-2.2h-3.3l-0.7,2.2H768L770.5,405z M772.5,410.4l-1.5-4.6l-1.4,4.6H772.5z"/>
	<path class="st0" d="M775.5,405h0.5l4.7,6.9V405h0.6v8.2h-0.5l-4.7-6.8v6.8h-0.6V405z M778.9,403.7c-0.1,0-0.3-0.1-0.4-0.2
		c-0.1-0.1-0.2-0.1-0.4-0.1s-0.2-0.1-0.3-0.1c-0.1,0-0.2,0-0.3,0.1s-0.1,0.2-0.2,0.4l-0.4-0.1c0-0.3,0.1-0.6,0.3-0.8
		c0.2-0.2,0.4-0.3,0.6-0.3c0.1,0,0.3,0,0.4,0.1s0.3,0.1,0.5,0.2c0.2,0.1,0.3,0.1,0.4,0.2c0.1,0,0.2,0.1,0.3,0.1c0.1,0,0.2,0,0.3-0.1
		s0.1-0.2,0.2-0.4l0.4,0.1c0,0.3-0.1,0.6-0.3,0.8c-0.2,0.2-0.4,0.3-0.6,0.3C779.2,403.7,779,403.7,778.9,403.7z"/>
	<path class="st0" d="M783.9,412.3c-0.5-0.7-0.8-1.8-0.8-3.2s0.3-2.5,0.8-3.2c0.5-0.7,1.3-1.1,2.3-1.1s1.8,0.4,2.3,1.1
		c0.5,0.7,0.8,1.8,0.8,3.2s-0.3,2.5-0.8,3.2c-0.5,0.7-1.3,1.1-2.3,1.1S784.4,413,783.9,412.3z M788.1,411.8c0.4-0.6,0.6-1.5,0.6-2.7
		s-0.2-2.1-0.6-2.7s-1-0.9-1.8-0.9s-1.5,0.3-1.8,0.9c-0.4,0.6-0.6,1.5-0.6,2.7s0.2,2.1,0.6,2.7c0.4,0.6,1,0.9,1.8,0.9
		S787.7,412.4,788.1,411.8z"/>
	<path class="st0" d="M790.8,413l0.1-0.6c0.7,0.2,1.3,0.3,2,0.3c0.4,0,0.7,0,1-0.1c0.3-0.1,0.5-0.2,0.6-0.3c0.3-0.3,0.5-0.7,0.5-1.2
		c0-0.3-0.1-0.6-0.3-0.8s-0.4-0.4-0.6-0.6s-0.6-0.3-1.1-0.5c-0.5-0.2-0.9-0.4-1.2-0.6c-0.3-0.2-0.6-0.4-0.8-0.7
		c-0.2-0.3-0.3-0.6-0.3-1.1c0-0.6,0.2-1.1,0.5-1.4c0.4-0.4,1.1-0.7,2-0.7c0.7,0,1.3,0.1,1.9,0.3l-0.1,0.6c-0.6-0.2-1.1-0.2-1.7-0.2
		c-1.3,0-1.9,0.5-1.9,1.4c0,0.3,0.1,0.6,0.3,0.8s0.4,0.4,0.6,0.5c0.2,0.1,0.6,0.3,1,0.5c0.5,0.2,0.9,0.4,1.2,0.6
		c0.3,0.2,0.6,0.4,0.8,0.7c0.2,0.3,0.3,0.7,0.3,1.1c0,0.7-0.2,1.3-0.7,1.7c-0.5,0.4-1.1,0.6-2,0.6
		C792.2,413.4,791.5,413.3,790.8,413z"/>
</g>
<line class="st1" x1="72.1" y1="56.3" x2="346" y2="56.3"/>
<line class="st1" x1="255.4" y1="3.2" x2="255.4" y2="29.1"/>
<line class="st1" x1="72.1" y1="77.7" x2="346" y2="77.7"/>
<line class="st1" x1="72.1" y1="98.2" x2="346" y2="98.2"/>
<line class="st1" x1="72.1" y1="119.7" x2="346" y2="119.7"/>
<line class="st1" x1="72.1" y1="140.2" x2="346" y2="140.2"/>
<line class="st1" x1="72.1" y1="161.6" x2="346" y2="161.6"/>
<line class="st1" x1="72.1" y1="183" x2="346" y2="183"/>
<line class="st1" x1="72.1" y1="203.5" x2="346" y2="203.5"/>
<line class="st1" x1="72.1" y1="245.5" x2="346" y2="245.5"/>
<line class="st1" x1="72.1" y1="225" x2="346" y2="225"/>
<line class="st1" x1="72.1" y1="266.9" x2="346" y2="266.9"/>
<polyline class="st2" points="65.8,55.9 65.8,274.5 346,274.5 "/>
<g>
	<path class="st3" d="M30.1,59.9c0-0.1,0-0.2,0.1-0.3c0.1-0.1,0.2-0.3,0.3-0.5l1.8-2.2c0.4-0.5,0.7-1,0.9-1.3s0.3-0.7,0.3-1
		c0-0.4-0.1-0.7-0.3-0.9c-0.3-0.3-0.7-0.4-1.4-0.4c-0.4,0-1,0.1-1.5,0.2v-0.5c0.2-0.1,0.4-0.1,0.7-0.1c0.3,0,0.6-0.1,0.9-0.1
		c0.8,0,1.4,0.2,1.7,0.5c0.2,0.2,0.3,0.4,0.4,0.6c0.1,0.2,0.1,0.5,0.1,0.7c0,0.3,0,0.6-0.1,0.8c-0.1,0.2-0.2,0.5-0.4,0.8
		c-0.2,0.3-0.5,0.7-0.8,1.1l-2,2.4h3.5v0.5h-4.2C30.1,60,30.1,60,30.1,59.9z"/>
	<path class="st3" d="M36.7,60.2c-0.3,0-0.5-0.1-0.7-0.1v-0.5c0.4,0.1,0.8,0.1,1.3,0.1c1.3,0,1.9-0.5,1.9-1.6c0-0.5-0.1-0.9-0.4-1.2
		c-0.2-0.2-0.4-0.3-0.6-0.4c-0.3-0.1-0.6-0.1-1-0.1h-1.1c0-0.1,0-0.3,0-0.5l0.1-3.1h3.2v0.5h-2.7l-0.1,2.5h0.7c0.5,0,0.9,0,1.2,0.1
		c0.3,0.1,0.6,0.2,0.8,0.5c0.4,0.4,0.6,0.9,0.6,1.6c0,0.7-0.2,1.3-0.7,1.7c-0.4,0.4-1.1,0.6-1.9,0.6C37.2,60.2,36.9,60.2,36.7,60.2z
		"/>
	<path class="st3" d="M43.9,56.4c-0.3-0.4-0.4-0.9-0.4-1.6c0-0.7,0.1-1.2,0.4-1.6c0.3-0.4,0.7-0.6,1.2-0.6c0.5,0,0.9,0.2,1.2,0.6
		c0.3,0.4,0.4,0.9,0.4,1.6c0,0.7-0.1,1.2-0.4,1.6c-0.3,0.4-0.7,0.6-1.2,0.6C44.6,56.9,44.2,56.8,43.9,56.4z M45.9,56.1
		c0.2-0.3,0.2-0.7,0.2-1.3c0-0.6-0.1-1-0.2-1.3c-0.2-0.3-0.4-0.4-0.8-0.4c-0.4,0-0.6,0.1-0.8,0.4c-0.2,0.3-0.2,0.7-0.2,1.3
		c0,0.6,0.1,1,0.2,1.3c0.2,0.3,0.4,0.4,0.8,0.4C45.5,56.4,45.7,56.3,45.9,56.1z M49.2,52.6h0.6l-3.7,7.6h-0.6L49.2,52.6z M49,59.7
		c-0.3-0.4-0.4-0.9-0.4-1.6c0-0.7,0.1-1.2,0.4-1.6c0.3-0.4,0.7-0.6,1.2-0.6c0.5,0,0.9,0.2,1.2,0.6c0.3,0.4,0.4,0.9,0.4,1.6
		c0,0.7-0.1,1.2-0.4,1.6c-0.3,0.4-0.7,0.6-1.2,0.6C49.7,60.2,49.3,60,49,59.7z M51,59.3c0.2-0.3,0.2-0.7,0.2-1.3
		c0-0.6-0.1-1-0.2-1.3c-0.2-0.3-0.4-0.4-0.8-0.4c-0.4,0-0.6,0.1-0.8,0.4c-0.2,0.3-0.2,0.7-0.2,1.3c0,0.6,0.1,1,0.2,1.3
		c0.2,0.3,0.4,0.4,0.8,0.4C50.6,59.7,50.8,59.6,51,59.3z"/>
	<path class="st3" d="M46.6,80.8h0.7v-3.7h-0.7v-0.3c0.3,0,0.5-0.1,0.7-0.1c0.1,0,0.2,0,0.3,0.1c0,0,0.1,0.1,0.1,0.2v3.8h0.6v0.3
		h-1.7V80.8z"/>
	<path class="st3" d="M50,81c-0.2-0.1-0.4-0.2-0.5-0.4c-0.1-0.2-0.2-0.4-0.2-0.6c0-0.3,0.1-0.5,0.2-0.7c0.2-0.2,0.4-0.4,0.7-0.5
		c-0.2-0.1-0.4-0.3-0.5-0.4c-0.1-0.2-0.2-0.4-0.2-0.6c0-0.2,0-0.4,0.1-0.5c0.1-0.2,0.2-0.3,0.4-0.4c0.2-0.1,0.4-0.1,0.6-0.1
		c0.2,0,0.4,0,0.6,0.1c0.2,0.1,0.3,0.2,0.4,0.4c0.1,0.2,0.1,0.3,0.1,0.5c0,0.3-0.1,0.5-0.2,0.6c-0.1,0.2-0.3,0.3-0.6,0.4
		c0.3,0.2,0.6,0.3,0.7,0.5c0.2,0.2,0.3,0.4,0.3,0.7c0,0.2-0.1,0.4-0.2,0.6c-0.1,0.2-0.3,0.3-0.5,0.4s-0.4,0.1-0.7,0.1
		C50.5,81.1,50.3,81.1,50,81z M51.5,80.6c0.2-0.1,0.3-0.3,0.3-0.6c0-0.2,0-0.3-0.1-0.5c-0.1-0.1-0.2-0.2-0.3-0.3
		c-0.1-0.1-0.3-0.2-0.6-0.3c-0.3,0.1-0.5,0.3-0.6,0.4s-0.2,0.4-0.2,0.6c0,0.2,0.1,0.4,0.3,0.6c0.2,0.2,0.4,0.2,0.7,0.2
		C51.1,80.8,51.3,80.8,51.5,80.6z M51.4,78.2c0.1-0.1,0.2-0.3,0.2-0.5c0-0.2-0.1-0.4-0.2-0.5S51,77,50.8,77c-0.2,0-0.4,0.1-0.6,0.2
		C50,77.3,50,77.5,50,77.7c0,0.2,0.1,0.4,0.2,0.5c0.1,0.1,0.3,0.3,0.6,0.4C51.1,78.5,51.3,78.4,51.4,78.2z"/>
	<path class="st3" d="M46.6,101.7h0.7V98h-0.7v-0.3c0.3,0,0.5-0.1,0.7-0.1c0.1,0,0.2,0,0.3,0.1c0,0,0.1,0.1,0.1,0.2v3.8h0.6v0.3
		h-1.7V101.7z"/>
	<path class="st3" d="M49.8,101.6c-0.2-0.3-0.3-0.8-0.3-1.5c0-1,0.2-1.7,0.5-2.1c0.2-0.3,0.6-0.4,1.1-0.4c0.1,0,0.2,0,0.3,0
		c0.1,0,0.2,0,0.3,0.1V98c-0.2,0-0.4,0-0.6,0c-0.2,0-0.4,0-0.5,0.1c-0.1,0-0.2,0.1-0.3,0.2c-0.1,0.1-0.2,0.3-0.3,0.5
		c-0.1,0.2-0.1,0.5-0.1,0.9c0.2-0.1,0.3-0.1,0.5-0.2c0.2,0,0.3-0.1,0.5-0.1c0.4,0,0.7,0.1,0.9,0.3c0.2,0.2,0.3,0.5,0.3,0.9
		c0,0.4-0.1,0.8-0.3,1c-0.2,0.3-0.5,0.4-0.9,0.4C50.4,102.1,50,101.9,49.8,101.6z M51.5,101.5c0.2-0.2,0.2-0.5,0.2-0.8
		c0-0.3-0.1-0.6-0.2-0.7c-0.2-0.1-0.4-0.2-0.7-0.2c-0.1,0-0.3,0-0.5,0c-0.2,0-0.3,0.1-0.5,0.1v0.3c0,1,0.3,1.6,0.9,1.6
		C51.1,101.8,51.4,101.7,51.5,101.5z"/>
	<path class="st3" d="M46.6,122.7h0.7V119h-0.7v-0.3c0.3,0,0.5-0.1,0.7-0.1c0.1,0,0.2,0,0.3,0.1c0,0,0.1,0.1,0.1,0.2v3.8h0.6v0.3
		h-1.7V122.7z"/>
	<path class="st3" d="M51.4,121.9h-2c0-0.1,0-0.1,0-0.1c0-0.1,0-0.1,0-0.2c0-0.1,0-0.1,0.1-0.3l0.9-2.6h0.3l-1,2.9h1.6v-1.1h0.3v1.1
		h0.5v0.3h-0.5v1.1h-0.3V121.9z"/>
	<path class="st3" d="M46.6,143.7h0.7V140h-0.7v-0.3c0.3,0,0.5-0.1,0.7-0.1c0.1,0,0.2,0,0.3,0.1c0,0,0.1,0.1,0.1,0.2v3.8h0.6v0.3
		h-1.7V143.7z"/>
	<path class="st3" d="M49.5,143.8c0-0.1,0-0.1,0-0.2c0-0.1,0.1-0.2,0.2-0.3l1-1.3c0.3-0.3,0.4-0.6,0.5-0.8c0.1-0.2,0.2-0.4,0.2-0.6
		c0-0.2-0.1-0.4-0.2-0.5c-0.2-0.2-0.4-0.2-0.8-0.2c-0.3,0-0.6,0-0.9,0.1v-0.3c0.1,0,0.3-0.1,0.4-0.1c0.2,0,0.3,0,0.5,0
		c0.5,0,0.8,0.1,1,0.3c0.1,0.1,0.2,0.2,0.2,0.4c0,0.1,0.1,0.3,0.1,0.4c0,0.2,0,0.3-0.1,0.5c0,0.1-0.1,0.3-0.2,0.5
		c-0.1,0.2-0.3,0.4-0.5,0.6l-1.1,1.4h2v0.3h-2.4C49.5,143.9,49.5,143.9,49.5,143.8z"/>
	<path class="st3" d="M46.6,164.6h0.7v-3.7h-0.7v-0.3c0.3,0,0.5-0.1,0.7-0.1c0.1,0,0.2,0,0.3,0.1c0,0,0.1,0.1,0.1,0.2v3.8h0.6v0.3
		h-1.7V164.6z"/>
	<path class="st3" d="M49.7,164.5c-0.2-0.4-0.3-0.9-0.3-1.7c0-0.7,0.1-1.3,0.3-1.7c0.2-0.4,0.6-0.6,1.1-0.6c0.5,0,0.8,0.2,1.1,0.6
		c0.2,0.4,0.3,0.9,0.3,1.7c0,0.7-0.1,1.3-0.3,1.7c-0.2,0.4-0.6,0.6-1.1,0.6C50.3,165,49.9,164.8,49.7,164.5z M51.6,164.2
		c0.1-0.3,0.2-0.8,0.2-1.4c0-0.6-0.1-1.1-0.2-1.4c-0.1-0.3-0.4-0.5-0.8-0.5c-0.4,0-0.6,0.2-0.8,0.5c-0.1,0.3-0.2,0.8-0.2,1.4
		c0,0.6,0.1,1.1,0.2,1.4c0.1,0.3,0.4,0.5,0.8,0.5C51.1,164.7,51.4,164.5,51.6,164.2z"/>
	<path class="st3" d="M50,185.9c-0.2-0.1-0.4-0.2-0.5-0.4c-0.1-0.2-0.2-0.4-0.2-0.6c0-0.3,0.1-0.5,0.2-0.7c0.2-0.2,0.4-0.4,0.7-0.5
		c-0.2-0.1-0.4-0.3-0.5-0.4c-0.1-0.2-0.2-0.4-0.2-0.6c0-0.2,0-0.4,0.1-0.5c0.1-0.2,0.2-0.3,0.4-0.4c0.2-0.1,0.4-0.1,0.6-0.1
		c0.2,0,0.4,0,0.6,0.1c0.2,0.1,0.3,0.2,0.4,0.4c0.1,0.2,0.1,0.3,0.1,0.5c0,0.3-0.1,0.5-0.2,0.6c-0.1,0.2-0.3,0.3-0.6,0.4
		c0.3,0.2,0.6,0.3,0.7,0.5c0.2,0.2,0.3,0.4,0.3,0.7c0,0.2-0.1,0.4-0.2,0.6c-0.1,0.2-0.3,0.3-0.5,0.4c-0.2,0.1-0.4,0.1-0.7,0.1
		C50.5,186,50.3,185.9,50,185.9z M51.5,185.5c0.2-0.1,0.3-0.3,0.3-0.6c0-0.2,0-0.3-0.1-0.5c-0.1-0.1-0.2-0.2-0.3-0.3
		c-0.1-0.1-0.3-0.2-0.6-0.3c-0.3,0.1-0.5,0.3-0.6,0.4c-0.1,0.2-0.2,0.4-0.2,0.6c0,0.2,0.1,0.4,0.3,0.6c0.2,0.2,0.4,0.2,0.7,0.2
		C51.1,185.7,51.3,185.6,51.5,185.5z M51.4,183.1c0.1-0.1,0.2-0.3,0.2-0.5c0-0.2-0.1-0.4-0.2-0.5s-0.3-0.2-0.6-0.2
		c-0.2,0-0.4,0.1-0.6,0.2c-0.1,0.1-0.2,0.3-0.2,0.5c0,0.2,0.1,0.4,0.2,0.5c0.1,0.1,0.3,0.3,0.6,0.4
		C51.1,183.4,51.3,183.2,51.4,183.1z"/>
	<path class="st3" d="M49.8,206.4c-0.2-0.3-0.3-0.8-0.3-1.5c0-1,0.2-1.7,0.5-2.1c0.2-0.3,0.6-0.4,1.1-0.4c0.1,0,0.2,0,0.3,0
		c0.1,0,0.2,0,0.3,0.1v0.3c-0.2,0-0.4,0-0.6,0c-0.2,0-0.4,0-0.5,0.1c-0.1,0-0.2,0.1-0.3,0.2c-0.1,0.1-0.2,0.3-0.3,0.5
		c-0.1,0.2-0.1,0.5-0.1,0.9c0.2-0.1,0.3-0.1,0.5-0.2c0.2,0,0.3-0.1,0.5-0.1c0.4,0,0.7,0.1,0.9,0.3c0.2,0.2,0.3,0.5,0.3,0.9
		c0,0.4-0.1,0.8-0.3,1c-0.2,0.3-0.5,0.4-0.9,0.4C50.4,207,50,206.8,49.8,206.4z M51.5,206.4c0.2-0.2,0.2-0.5,0.2-0.8
		c0-0.3-0.1-0.6-0.2-0.7c-0.2-0.1-0.4-0.2-0.7-0.2c-0.1,0-0.3,0-0.5,0c-0.2,0-0.3,0.1-0.5,0.1v0.3c0,1,0.3,1.6,0.9,1.6
		C51.1,206.7,51.4,206.6,51.5,206.4z"/>
	<path class="st3" d="M51.4,226.8h-2c0-0.1,0-0.1,0-0.1c0-0.1,0-0.1,0-0.2c0-0.1,0-0.1,0.1-0.3l0.9-2.6h0.3l-1,2.9h1.6v-1.1h0.3v1.1
		h0.5v0.3h-0.5v1.1h-0.3V226.8z"/>
	<path class="st3" d="M49.5,248.7c0-0.1,0-0.1,0-0.2c0-0.1,0.1-0.2,0.2-0.3l1-1.3c0.3-0.3,0.4-0.6,0.5-0.8c0.1-0.2,0.2-0.4,0.2-0.6
		c0-0.2-0.1-0.4-0.2-0.5c-0.2-0.2-0.4-0.2-0.8-0.2c-0.3,0-0.6,0-0.9,0.1v-0.3c0.1,0,0.3-0.1,0.4-0.1c0.2,0,0.3,0,0.5,0
		c0.5,0,0.8,0.1,1,0.3c0.1,0.1,0.2,0.2,0.2,0.4c0,0.1,0.1,0.3,0.1,0.4c0,0.2,0,0.3-0.1,0.5c0,0.1-0.1,0.3-0.2,0.5
		c-0.1,0.2-0.3,0.4-0.5,0.6l-1.1,1.4h2v0.3h-2.4C49.5,248.8,49.5,248.7,49.5,248.7z"/>
	<path class="st3" d="M47.7,269c-0.4-0.6-0.6-1.6-0.6-2.8c0-1.2,0.2-2.2,0.6-2.8c0.4-0.6,1-1,1.8-1s1.5,0.3,1.8,1
		c0.4,0.6,0.6,1.6,0.6,2.8c0,1.2-0.2,2.2-0.6,2.8c-0.4,0.6-1,1-1.8,1S48.1,269.6,47.7,269z M50.9,268.6c0.3-0.5,0.4-1.3,0.4-2.4
		c0-1.1-0.1-1.9-0.4-2.4c-0.3-0.5-0.7-0.8-1.4-0.8c-0.6,0-1.1,0.3-1.4,0.8c-0.3,0.5-0.4,1.3-0.4,2.4c0,1.1,0.1,1.9,0.4,2.4
		s0.7,0.8,1.4,0.8C50.2,269.4,50.7,269.1,50.9,268.6z"/>
</g>
<g>
	<path class="st3" d="M79.8,262.2c-0.2-0.4-0.3-0.9-0.3-1.7c0-0.7,0.1-1.3,0.3-1.7c0.2-0.4,0.6-0.6,1.1-0.6c0.5,0,0.8,0.2,1.1,0.6
		c0.2,0.4,0.3,0.9,0.3,1.7c0,0.7-0.1,1.3-0.3,1.7c-0.2,0.4-0.6,0.6-1.1,0.6C80.4,262.7,80,262.6,79.8,262.2z M81.7,261.9
		c0.1-0.3,0.2-0.8,0.2-1.4c0-0.6-0.1-1.1-0.2-1.4c-0.1-0.3-0.4-0.5-0.8-0.5c-0.4,0-0.6,0.2-0.8,0.5c-0.1,0.3-0.2,0.8-0.2,1.4
		c0,0.6,0.1,1.1,0.2,1.4c0.1,0.3,0.4,0.5,0.8,0.5C81.3,262.4,81.5,262.2,81.7,261.9z"/>
	<path class="st3" d="M83.2,260.5c-0.2-0.2-0.2-0.5-0.2-0.9s0.1-0.7,0.2-0.9c0.2-0.2,0.4-0.3,0.7-0.3s0.5,0.1,0.7,0.3
		c0.2,0.2,0.2,0.5,0.2,0.9s-0.1,0.7-0.2,0.9c-0.2,0.2-0.4,0.3-0.7,0.3S83.3,260.7,83.2,260.5z M84.3,260.3c0.1-0.2,0.1-0.4,0.1-0.7
		c0-0.3,0-0.6-0.1-0.7c-0.1-0.2-0.2-0.2-0.5-0.2s-0.4,0.1-0.5,0.2c-0.1,0.2-0.1,0.4-0.1,0.7c0,0.3,0,0.6,0.1,0.7
		c0.1,0.2,0.2,0.2,0.5,0.2S84.2,260.5,84.3,260.3z M86.2,258.3h0.3l-2.1,4.4h-0.3L86.2,258.3z M86.1,262.4c-0.2-0.2-0.2-0.5-0.2-0.9
		c0-0.4,0.1-0.7,0.2-0.9c0.2-0.2,0.4-0.3,0.7-0.3c0.3,0,0.5,0.1,0.7,0.3c0.2,0.2,0.2,0.5,0.2,0.9c0,0.4-0.1,0.7-0.2,0.9
		c-0.2,0.2-0.4,0.3-0.7,0.3C86.5,262.7,86.3,262.6,86.1,262.4z M87.3,262.2c0.1-0.2,0.1-0.4,0.1-0.7s0-0.6-0.1-0.7
		c-0.1-0.2-0.2-0.2-0.5-0.2c-0.2,0-0.4,0.1-0.5,0.2c-0.1,0.2-0.1,0.4-0.1,0.7s0,0.6,0.1,0.7c0.1,0.2,0.2,0.2,0.5,0.2
		C87,262.4,87.2,262.4,87.3,262.2z"/>
</g>
<g>
	<path class="st3" d="M126.2,262.2c-0.2-0.4-0.3-0.9-0.3-1.7c0-0.7,0.1-1.3,0.3-1.7c0.2-0.4,0.6-0.6,1.1-0.6c0.5,0,0.8,0.2,1.1,0.6
		c0.2,0.4,0.3,0.9,0.3,1.7c0,0.7-0.1,1.3-0.3,1.7c-0.2,0.4-0.6,0.6-1.1,0.6C126.8,262.7,126.4,262.6,126.2,262.2z M128.1,261.9
		c0.1-0.3,0.2-0.8,0.2-1.4c0-0.6-0.1-1.1-0.2-1.4c-0.1-0.3-0.4-0.5-0.8-0.5c-0.4,0-0.6,0.2-0.8,0.5c-0.1,0.3-0.2,0.8-0.2,1.4
		c0,0.6,0.1,1.1,0.2,1.4c0.1,0.3,0.4,0.5,0.8,0.5C127.7,262.4,127.9,262.2,128.1,261.9z"/>
	<path class="st3" d="M129.6,260.5c-0.2-0.2-0.2-0.5-0.2-0.9s0.1-0.7,0.2-0.9c0.2-0.2,0.4-0.3,0.7-0.3s0.5,0.1,0.7,0.3
		c0.2,0.2,0.2,0.5,0.2,0.9s-0.1,0.7-0.2,0.9c-0.2,0.2-0.4,0.3-0.7,0.3S129.7,260.7,129.6,260.5z M130.7,260.3
		c0.1-0.2,0.1-0.4,0.1-0.7c0-0.3,0-0.6-0.1-0.7c-0.1-0.2-0.2-0.2-0.5-0.2s-0.4,0.1-0.5,0.2s-0.1,0.4-0.1,0.7c0,0.3,0,0.6,0.1,0.7
		c0.1,0.2,0.2,0.2,0.5,0.2S130.6,260.5,130.7,260.3z M132.6,258.3h0.3l-2.1,4.4h-0.3L132.6,258.3z M132.5,262.4
		c-0.2-0.2-0.2-0.5-0.2-0.9c0-0.4,0.1-0.7,0.2-0.9c0.2-0.2,0.4-0.3,0.7-0.3s0.5,0.1,0.7,0.3c0.2,0.2,0.2,0.5,0.2,0.9
		c0,0.4-0.1,0.7-0.2,0.9c-0.2,0.2-0.4,0.3-0.7,0.3S132.7,262.6,132.5,262.4z M133.7,262.2c0.1-0.2,0.1-0.4,0.1-0.7s0-0.6-0.1-0.7
		c-0.1-0.2-0.2-0.2-0.5-0.2c-0.2,0-0.4,0.1-0.5,0.2c-0.1,0.2-0.1,0.4-0.1,0.7s0,0.6,0.1,0.7c0.1,0.2,0.2,0.2,0.5,0.2
		C133.4,262.4,133.6,262.4,133.7,262.2z"/>
</g>
<g>
	<path class="st3" d="M101,259.5c-0.2-0.4-0.3-0.9-0.3-1.7c0-0.7,0.1-1.3,0.3-1.7c0.2-0.4,0.6-0.6,1.1-0.6c0.5,0,0.8,0.2,1.1,0.6
		c0.2,0.4,0.3,0.9,0.3,1.7c0,0.7-0.1,1.3-0.3,1.7c-0.2,0.4-0.6,0.6-1.1,0.6C101.6,260.1,101.2,259.9,101,259.5z M102.8,259.3
		c0.1-0.3,0.2-0.8,0.2-1.4c0-0.6-0.1-1.1-0.2-1.4c-0.1-0.3-0.4-0.5-0.8-0.5c-0.4,0-0.6,0.2-0.8,0.5c-0.1,0.3-0.2,0.8-0.2,1.4
		c0,0.6,0.1,1.1,0.2,1.4c0.1,0.3,0.4,0.5,0.8,0.5C102.4,259.7,102.7,259.6,102.8,259.3z"/>
	<path class="st3" d="M104.4,260.1c-0.1,0-0.1-0.1-0.2-0.1c0,0-0.1-0.1-0.1-0.2v0c0-0.1,0-0.2,0.1-0.2c0,0,0.1-0.1,0.2-0.1h0
		c0.1,0,0.2,0,0.2,0.1c0,0.1,0.1,0.1,0.1,0.3c0,0.1,0,0.3,0,0.4c0,0.2-0.1,0.3-0.1,0.5h-0.2V260.1z"/>
	<path class="st3" d="M106.1,259.9c-0.2-0.1-0.4-0.2-0.5-0.4c-0.1-0.2-0.2-0.4-0.2-0.6c0-0.3,0.1-0.5,0.2-0.7
		c0.2-0.2,0.4-0.4,0.7-0.5c-0.2-0.1-0.4-0.3-0.5-0.4c-0.1-0.2-0.2-0.4-0.2-0.6c0-0.2,0-0.4,0.1-0.5c0.1-0.2,0.2-0.3,0.4-0.4
		c0.2-0.1,0.4-0.1,0.6-0.1c0.2,0,0.4,0,0.6,0.1c0.2,0.1,0.3,0.2,0.4,0.4c0.1,0.2,0.1,0.3,0.1,0.5c0,0.3-0.1,0.5-0.2,0.6
		c-0.1,0.2-0.3,0.3-0.6,0.4c0.3,0.2,0.6,0.3,0.7,0.5c0.2,0.2,0.3,0.4,0.3,0.7c0,0.2-0.1,0.4-0.2,0.6c-0.1,0.2-0.3,0.3-0.5,0.4
		c-0.2,0.1-0.4,0.1-0.7,0.1C106.5,260.1,106.3,260,106.1,259.9z M107.5,259.5c0.2-0.1,0.3-0.3,0.3-0.6c0-0.2,0-0.3-0.1-0.5
		c-0.1-0.1-0.2-0.2-0.3-0.3c-0.1-0.1-0.3-0.2-0.6-0.3c-0.3,0.1-0.5,0.3-0.6,0.4c-0.1,0.2-0.2,0.4-0.2,0.6c0,0.2,0.1,0.4,0.3,0.6
		c0.2,0.2,0.4,0.2,0.7,0.2C107.1,259.7,107.3,259.7,107.5,259.5z M107.4,257.2c0.1-0.1,0.2-0.3,0.2-0.5c0-0.2-0.1-0.4-0.2-0.5
		c-0.1-0.1-0.3-0.2-0.6-0.2c-0.2,0-0.4,0.1-0.6,0.2c-0.1,0.1-0.2,0.3-0.2,0.5c0,0.2,0.1,0.4,0.2,0.5c0.1,0.1,0.3,0.3,0.6,0.4
		C107.1,257.4,107.3,257.3,107.4,257.2z"/>
	<path class="st3" d="M109,257.8c-0.2-0.2-0.2-0.5-0.2-0.9s0.1-0.7,0.2-0.9c0.2-0.2,0.4-0.3,0.7-0.3s0.5,0.1,0.7,0.3
		c0.2,0.2,0.2,0.5,0.2,0.9s-0.1,0.7-0.2,0.9c-0.2,0.2-0.4,0.3-0.7,0.3S109.2,258,109,257.8z M110.2,257.6c0.1-0.2,0.1-0.4,0.1-0.7
		c0-0.3,0-0.6-0.1-0.7c-0.1-0.2-0.2-0.2-0.5-0.2s-0.4,0.1-0.5,0.2c-0.1,0.2-0.1,0.4-0.1,0.7c0,0.3,0,0.6,0.1,0.7
		c0.1,0.2,0.2,0.2,0.5,0.2S110.1,257.8,110.2,257.6z M112.1,255.6h0.3l-2.1,4.4H110L112.1,255.6z M112,259.7
		c-0.2-0.2-0.2-0.5-0.2-0.9s0.1-0.7,0.2-0.9c0.2-0.2,0.4-0.3,0.7-0.3c0.3,0,0.5,0.1,0.7,0.3c0.2,0.2,0.2,0.5,0.2,0.9
		s-0.1,0.7-0.2,0.9s-0.4,0.3-0.7,0.3C112.4,260.1,112.2,260,112,259.7z M113.2,259.5c0.1-0.2,0.1-0.4,0.1-0.7s0-0.6-0.1-0.7
		c-0.1-0.2-0.2-0.2-0.5-0.2s-0.4,0.1-0.5,0.2s-0.1,0.4-0.1,0.7s0,0.6,0.1,0.7c0.1,0.2,0.2,0.2,0.5,0.2S113.1,259.7,113.2,259.5z"/>
</g>
<g>
	<path class="st3" d="M151.7,237.5c0-0.1,0-0.1,0-0.2c0-0.1,0.1-0.2,0.2-0.3l1-1.3c0.3-0.3,0.4-0.6,0.5-0.8c0.1-0.2,0.2-0.4,0.2-0.6
		c0-0.2-0.1-0.4-0.2-0.5c-0.2-0.2-0.4-0.2-0.8-0.2c-0.3,0-0.6,0-0.9,0.1v-0.3c0.1,0,0.3-0.1,0.4-0.1c0.2,0,0.3,0,0.5,0
		c0.5,0,0.8,0.1,1,0.3c0.1,0.1,0.2,0.2,0.2,0.4c0,0.1,0.1,0.3,0.1,0.4c0,0.2,0,0.3-0.1,0.5c0,0.1-0.1,0.3-0.2,0.5
		c-0.1,0.2-0.3,0.4-0.5,0.6l-1.1,1.4h2v0.3h-2.4C151.7,237.6,151.7,237.6,151.7,237.5z"/>
	<path class="st3" d="M155.2,237.8c-0.1,0-0.1-0.1-0.2-0.1c0,0-0.1-0.1-0.1-0.2v0c0-0.1,0-0.2,0.1-0.2c0,0,0.1-0.1,0.2-0.1h0
		c0.1,0,0.2,0,0.2,0.1c0,0.1,0.1,0.1,0.1,0.3c0,0.1,0,0.3,0,0.4c0,0.2-0.1,0.3-0.1,0.5h-0.2V237.8z"/>
	<path class="st3" d="M158.2,236.6h-2c0-0.1,0-0.1,0-0.1c0-0.1,0-0.1,0-0.2c0-0.1,0-0.1,0.1-0.3l0.9-2.6h0.3l-1,2.9h1.6v-1.1h0.3
		v1.1h0.5v0.3h-0.5v1.1h-0.3V236.6z"/>
	<path class="st3" d="M159.9,235.5c-0.2-0.2-0.2-0.5-0.2-0.9s0.1-0.7,0.2-0.9c0.2-0.2,0.4-0.3,0.7-0.3c0.3,0,0.5,0.1,0.7,0.3
		c0.2,0.2,0.2,0.5,0.2,0.9s-0.1,0.7-0.2,0.9c-0.2,0.2-0.4,0.3-0.7,0.3C160.3,235.8,160,235.7,159.9,235.5z M161.1,235.3
		c0.1-0.2,0.1-0.4,0.1-0.7c0-0.3,0-0.6-0.1-0.7c-0.1-0.2-0.2-0.2-0.5-0.2c-0.2,0-0.4,0.1-0.5,0.2c-0.1,0.2-0.1,0.4-0.1,0.7
		c0,0.3,0,0.6,0.1,0.7c0.1,0.2,0.2,0.2,0.5,0.2C160.8,235.5,161,235.5,161.1,235.3z M163,233.3h0.3l-2.1,4.4h-0.3L163,233.3z
		 M162.9,237.4c-0.2-0.2-0.2-0.5-0.2-0.9s0.1-0.7,0.2-0.9c0.2-0.2,0.4-0.3,0.7-0.3c0.3,0,0.5,0.1,0.7,0.3c0.2,0.2,0.2,0.5,0.2,0.9
		s-0.1,0.7-0.2,0.9s-0.4,0.3-0.7,0.3C163.3,237.8,163,237.6,162.9,237.4z M164,237.2c0.1-0.2,0.1-0.4,0.1-0.7s0-0.6-0.1-0.7
		c-0.1-0.2-0.2-0.2-0.5-0.2c-0.2,0-0.4,0.1-0.5,0.2s-0.1,0.4-0.1,0.7s0,0.6,0.1,0.7s0.2,0.2,0.5,0.2
		C163.8,237.5,163.9,237.4,164,237.2z"/>
</g>
<g>
	<path class="st3" d="M332.4,222.6c-0.2,0-0.3,0-0.4-0.1v-0.3c0.1,0,0.3,0,0.4,0.1c0.2,0,0.3,0,0.4,0c0.4,0,0.7-0.1,0.9-0.3
		c0.2-0.1,0.2-0.4,0.2-0.7c0-0.3-0.1-0.5-0.2-0.6c-0.2-0.2-0.5-0.3-0.9-0.3h0v-0.3h0.1c0.2,0,0.4,0,0.5-0.1c0.1,0,0.2-0.1,0.3-0.2
		c0.2-0.2,0.2-0.4,0.2-0.6c0-0.3-0.1-0.5-0.2-0.6c-0.1-0.2-0.4-0.2-0.8-0.2c-0.3,0-0.5,0-0.8,0.1v-0.3c0.1,0,0.3-0.1,0.4-0.1
		c0.2,0,0.3,0,0.5,0c0.4,0,0.8,0.1,1,0.3c0.2,0.2,0.3,0.5,0.3,0.8c0,0.5-0.2,0.8-0.7,1c0.2,0.1,0.4,0.2,0.6,0.4
		c0.1,0.2,0.2,0.4,0.2,0.7c0,0.4-0.1,0.7-0.4,0.9c-0.2,0.2-0.6,0.3-1.1,0.3C332.7,222.6,332.6,222.6,332.4,222.6z"/>
	<path class="st3" d="M335.5,222.6c-0.1,0-0.1-0.1-0.2-0.1c0,0-0.1-0.1-0.1-0.2v0c0-0.1,0-0.2,0.1-0.2c0,0,0.1-0.1,0.2-0.1h0
		c0.1,0,0.2,0,0.2,0.1c0,0.1,0.1,0.1,0.1,0.3c0,0.1,0,0.3,0,0.4c0,0.2-0.1,0.3-0.1,0.5h-0.2V222.6z"/>
	<path class="st3" d="M337.2,222.4c-0.2-0.1-0.4-0.2-0.5-0.4c-0.1-0.2-0.2-0.4-0.2-0.6c0-0.3,0.1-0.5,0.2-0.7
		c0.2-0.2,0.4-0.4,0.7-0.5c-0.2-0.1-0.4-0.3-0.5-0.4c-0.1-0.2-0.2-0.4-0.2-0.6c0-0.2,0-0.4,0.1-0.5c0.1-0.2,0.2-0.3,0.4-0.4
		c0.2-0.1,0.4-0.1,0.6-0.1c0.2,0,0.4,0,0.6,0.1c0.2,0.1,0.3,0.2,0.4,0.4c0.1,0.2,0.1,0.3,0.1,0.5c0,0.3-0.1,0.5-0.2,0.6
		c-0.1,0.2-0.3,0.3-0.6,0.4c0.3,0.2,0.6,0.3,0.7,0.5s0.3,0.4,0.3,0.7c0,0.2-0.1,0.4-0.2,0.6c-0.1,0.2-0.3,0.3-0.5,0.4
		c-0.2,0.1-0.4,0.1-0.7,0.1C337.6,222.6,337.4,222.5,337.2,222.4z M338.6,222.1c0.2-0.1,0.3-0.3,0.3-0.6c0-0.2,0-0.3-0.1-0.5
		c-0.1-0.1-0.2-0.2-0.3-0.3c-0.1-0.1-0.3-0.2-0.6-0.3c-0.3,0.1-0.5,0.3-0.6,0.4c-0.1,0.2-0.2,0.4-0.2,0.6c0,0.2,0.1,0.4,0.3,0.6
		c0.2,0.2,0.4,0.2,0.7,0.2C338.2,222.3,338.4,222.2,338.6,222.1z M338.5,219.7c0.1-0.1,0.2-0.3,0.2-0.5c0-0.2-0.1-0.4-0.2-0.5
		c-0.1-0.1-0.3-0.2-0.6-0.2c-0.2,0-0.4,0.1-0.6,0.2c-0.1,0.1-0.2,0.3-0.2,0.5c0,0.2,0.1,0.4,0.2,0.5c0.1,0.1,0.3,0.3,0.6,0.4
		C338.2,220,338.4,219.8,338.5,219.7z"/>
	<path class="st3" d="M340.2,220.3c-0.2-0.2-0.2-0.5-0.2-0.9c0-0.4,0.1-0.7,0.2-0.9c0.2-0.2,0.4-0.3,0.7-0.3c0.3,0,0.5,0.1,0.7,0.3
		c0.2,0.2,0.2,0.5,0.2,0.9c0,0.4-0.1,0.7-0.2,0.9c-0.2,0.2-0.4,0.3-0.7,0.3C340.5,220.7,340.3,220.6,340.2,220.3z M341.3,220.1
		c0.1-0.2,0.1-0.4,0.1-0.7c0-0.3,0-0.6-0.1-0.7c-0.1-0.2-0.2-0.2-0.5-0.2c-0.2,0-0.4,0.1-0.5,0.2c-0.1,0.2-0.1,0.4-0.1,0.7
		c0,0.3,0,0.6,0.1,0.7c0.1,0.2,0.2,0.2,0.5,0.2C341.1,220.4,341.2,220.3,341.3,220.1z M343.2,218.1h0.3l-2.1,4.4h-0.3L343.2,218.1z
		 M343.1,222.3c-0.2-0.2-0.2-0.5-0.2-0.9c0-0.4,0.1-0.7,0.2-0.9c0.2-0.2,0.4-0.3,0.7-0.3c0.3,0,0.5,0.1,0.7,0.3
		c0.2,0.2,0.2,0.5,0.2,0.9c0,0.4-0.1,0.7-0.2,0.9c-0.2,0.2-0.4,0.3-0.7,0.3C343.5,222.6,343.3,222.5,343.1,222.3z M344.3,222.1
		c0.1-0.2,0.1-0.4,0.1-0.7c0-0.3,0-0.6-0.1-0.7c-0.1-0.2-0.2-0.2-0.5-0.2s-0.4,0.1-0.5,0.2c-0.1,0.2-0.1,0.4-0.1,0.7
		c0,0.3,0,0.6,0.1,0.7c0.1,0.2,0.2,0.2,0.5,0.2S344.2,222.2,344.3,222.1z"/>
</g>
<g>
	<path class="st3" d="M178.1,174.2c-0.2-0.1-0.4-0.2-0.5-0.4c-0.1-0.2-0.2-0.4-0.2-0.6c0-0.3,0.1-0.5,0.2-0.7
		c0.2-0.2,0.4-0.4,0.7-0.5c-0.2-0.1-0.4-0.3-0.5-0.4c-0.1-0.2-0.2-0.4-0.2-0.6c0-0.2,0-0.4,0.1-0.5s0.2-0.3,0.4-0.4
		c0.2-0.1,0.4-0.1,0.6-0.1c0.2,0,0.4,0,0.6,0.1c0.2,0.1,0.3,0.2,0.4,0.4c0.1,0.2,0.1,0.3,0.1,0.5c0,0.3-0.1,0.5-0.2,0.6
		c-0.1,0.2-0.3,0.3-0.6,0.4c0.3,0.2,0.6,0.3,0.7,0.5s0.3,0.4,0.3,0.7c0,0.2-0.1,0.4-0.2,0.6c-0.1,0.2-0.3,0.3-0.5,0.4
		c-0.2,0.1-0.4,0.1-0.7,0.1C178.5,174.4,178.3,174.3,178.1,174.2z M179.5,173.9c0.2-0.1,0.3-0.3,0.3-0.6c0-0.2,0-0.3-0.1-0.5
		c-0.1-0.1-0.2-0.2-0.3-0.3c-0.1-0.1-0.3-0.2-0.6-0.3c-0.3,0.1-0.5,0.3-0.6,0.4c-0.1,0.2-0.2,0.4-0.2,0.6c0,0.2,0.1,0.4,0.3,0.6
		s0.4,0.2,0.7,0.2C179.1,174.1,179.3,174,179.5,173.9z M179.4,171.5c0.1-0.1,0.2-0.3,0.2-0.5c0-0.2-0.1-0.4-0.2-0.5
		c-0.1-0.1-0.3-0.2-0.6-0.2c-0.2,0-0.4,0.1-0.6,0.2c-0.1,0.1-0.2,0.3-0.2,0.5c0,0.2,0.1,0.4,0.2,0.5c0.1,0.1,0.3,0.3,0.6,0.4
		C179.1,171.8,179.3,171.6,179.4,171.5z"/>
	<path class="st3" d="M181.1,174.4c-0.1,0-0.1-0.1-0.2-0.1c0,0-0.1-0.1-0.1-0.2v0c0-0.1,0-0.2,0.1-0.2c0,0,0.1-0.1,0.2-0.1h0
		c0.1,0,0.2,0,0.2,0.1c0,0.1,0.1,0.1,0.1,0.3c0,0.1,0,0.3,0,0.4c0,0.2-0.1,0.3-0.1,0.5h-0.2V174.4z"/>
	<path class="st3" d="M184.4,170.4h-2V170h2.4c0,0,0,0.1,0,0.1c0,0.1,0,0.1-0.1,0.3l-1.3,3.9H183L184.4,170.4z"/>
	<path class="st3" d="M185.8,172.2c-0.2-0.2-0.2-0.5-0.2-0.9c0-0.4,0.1-0.7,0.2-0.9c0.2-0.2,0.4-0.3,0.7-0.3s0.5,0.1,0.7,0.3
		c0.2,0.2,0.2,0.5,0.2,0.9c0,0.4-0.1,0.7-0.2,0.9s-0.4,0.3-0.7,0.3S185.9,172.4,185.8,172.2z M186.9,172c0.1-0.2,0.1-0.4,0.1-0.7
		c0-0.3,0-0.6-0.1-0.7c-0.1-0.2-0.2-0.2-0.5-0.2c-0.2,0-0.4,0.1-0.5,0.2s-0.1,0.4-0.1,0.7c0,0.3,0,0.6,0.1,0.7
		c0.1,0.2,0.2,0.2,0.5,0.2C186.7,172.2,186.8,172.1,186.9,172z M188.9,170h0.3l-2.1,4.4h-0.3L188.9,170z M188.7,174.1
		c-0.2-0.2-0.2-0.5-0.2-0.9c0-0.4,0.1-0.7,0.2-0.9c0.2-0.2,0.4-0.3,0.7-0.3s0.5,0.1,0.7,0.3c0.2,0.2,0.2,0.5,0.2,0.9
		c0,0.4-0.1,0.7-0.2,0.9s-0.4,0.3-0.7,0.3S188.9,174.3,188.7,174.1z M189.9,173.9c0.1-0.2,0.1-0.4,0.1-0.7s0-0.6-0.1-0.7
		c-0.1-0.2-0.2-0.2-0.5-0.2c-0.2,0-0.4,0.1-0.5,0.2c-0.1,0.2-0.1,0.4-0.1,0.7s0,0.6,0.1,0.7c0.1,0.2,0.2,0.2,0.5,0.2
		C189.7,174.1,189.8,174,189.9,173.9z"/>
</g>
<g>
	<path class="st3" d="M280.7,174.2c-0.2-0.1-0.4-0.2-0.5-0.4c-0.1-0.2-0.2-0.4-0.2-0.6c0-0.3,0.1-0.5,0.2-0.7
		c0.2-0.2,0.4-0.4,0.7-0.5c-0.2-0.1-0.4-0.3-0.5-0.4c-0.1-0.2-0.2-0.4-0.2-0.6c0-0.2,0-0.4,0.1-0.5s0.2-0.3,0.4-0.4
		c0.2-0.1,0.4-0.1,0.6-0.1c0.2,0,0.4,0,0.6,0.1c0.2,0.1,0.3,0.2,0.4,0.4c0.1,0.2,0.1,0.3,0.1,0.5c0,0.3-0.1,0.5-0.2,0.6
		c-0.1,0.2-0.3,0.3-0.6,0.4c0.3,0.2,0.6,0.3,0.7,0.5c0.2,0.2,0.3,0.4,0.3,0.7c0,0.2-0.1,0.4-0.2,0.6c-0.1,0.2-0.3,0.3-0.5,0.4
		c-0.2,0.1-0.4,0.1-0.7,0.1C281.1,174.4,280.9,174.3,280.7,174.2z M282.1,173.9c0.2-0.1,0.3-0.3,0.3-0.6c0-0.2,0-0.3-0.1-0.5
		c-0.1-0.1-0.2-0.2-0.3-0.3c-0.1-0.1-0.3-0.2-0.6-0.3c-0.3,0.1-0.5,0.3-0.6,0.4c-0.1,0.2-0.2,0.4-0.2,0.6c0,0.2,0.1,0.4,0.3,0.6
		s0.4,0.2,0.7,0.2C281.7,174.1,282,174,282.1,173.9z M282,171.5c0.1-0.1,0.2-0.3,0.2-0.5c0-0.2-0.1-0.4-0.2-0.5
		c-0.1-0.1-0.3-0.2-0.6-0.2c-0.2,0-0.4,0.1-0.6,0.2c-0.1,0.1-0.2,0.3-0.2,0.5c0,0.2,0.1,0.4,0.2,0.5c0.1,0.1,0.3,0.3,0.6,0.4
		C281.7,171.8,281.9,171.6,282,171.5z"/>
	<path class="st3" d="M283.7,174.4c-0.1,0-0.1-0.1-0.2-0.1c0,0-0.1-0.1-0.1-0.2v0c0-0.1,0-0.2,0.1-0.2c0,0,0.1-0.1,0.2-0.1h0
		c0.1,0,0.2,0,0.2,0.1c0,0.1,0.1,0.1,0.1,0.3c0,0.1,0,0.3,0,0.4c0,0.2-0.1,0.3-0.1,0.5h-0.2V174.4z"/>
	<path class="st3" d="M287,170.4h-2V170h2.4c0,0,0,0.1,0,0.1c0,0.1,0,0.1-0.1,0.3l-1.3,3.9h-0.4L287,170.4z"/>
	<path class="st3" d="M288.4,172.2c-0.2-0.2-0.2-0.5-0.2-0.9c0-0.4,0.1-0.7,0.2-0.9c0.2-0.2,0.4-0.3,0.7-0.3c0.3,0,0.5,0.1,0.7,0.3
		c0.2,0.2,0.2,0.5,0.2,0.9c0,0.4-0.1,0.7-0.2,0.9s-0.4,0.3-0.7,0.3C288.8,172.5,288.6,172.4,288.4,172.2z M289.6,172
		c0.1-0.2,0.1-0.4,0.1-0.7c0-0.3,0-0.6-0.1-0.7c-0.1-0.2-0.2-0.2-0.5-0.2s-0.4,0.1-0.5,0.2c-0.1,0.2-0.1,0.4-0.1,0.7
		c0,0.3,0,0.6,0.1,0.7c0.1,0.2,0.2,0.2,0.5,0.2S289.5,172.1,289.6,172z M291.5,170h0.3l-2.1,4.4h-0.3L291.5,170z M291.4,174.1
		c-0.2-0.2-0.2-0.5-0.2-0.9c0-0.4,0.1-0.7,0.2-0.9c0.2-0.2,0.4-0.3,0.7-0.3c0.3,0,0.5,0.1,0.7,0.3c0.2,0.2,0.2,0.5,0.2,0.9
		c0,0.4-0.1,0.7-0.2,0.9s-0.4,0.3-0.7,0.3C291.8,174.4,291.5,174.3,291.4,174.1z M292.5,173.9c0.1-0.2,0.1-0.4,0.1-0.7
		s0-0.6-0.1-0.7c-0.1-0.2-0.2-0.2-0.5-0.2c-0.2,0-0.4,0.1-0.5,0.2c-0.1,0.2-0.1,0.4-0.1,0.7s0,0.6,0.1,0.7c0.1,0.2,0.2,0.2,0.5,0.2
		C292.3,174.1,292.4,174,292.5,173.9z"/>
</g>
<g>
	<path class="st3" d="M202.3,68.7h0.7V65h-0.7v-0.3c0.3,0,0.5-0.1,0.7-0.1c0.1,0,0.2,0,0.3,0.1c0,0,0.1,0.1,0.1,0.2v3.8h0.6V69h-1.7
		V68.7z"/>
	<path class="st3" d="M205.8,68.9c-0.2-0.1-0.4-0.2-0.5-0.4c-0.1-0.2-0.2-0.4-0.2-0.6c0-0.3,0.1-0.5,0.2-0.7
		c0.2-0.2,0.4-0.4,0.7-0.5c-0.2-0.1-0.4-0.3-0.5-0.4c-0.1-0.2-0.2-0.4-0.2-0.6c0-0.2,0-0.4,0.1-0.5c0.1-0.2,0.2-0.3,0.4-0.4
		c0.2-0.1,0.4-0.1,0.6-0.1c0.2,0,0.4,0,0.6,0.1c0.2,0.1,0.3,0.2,0.4,0.4c0.1,0.2,0.1,0.3,0.1,0.5c0,0.3-0.1,0.5-0.2,0.6
		c-0.1,0.2-0.3,0.3-0.6,0.4c0.3,0.2,0.6,0.3,0.7,0.5c0.2,0.2,0.3,0.4,0.3,0.7c0,0.2-0.1,0.4-0.2,0.6c-0.1,0.2-0.3,0.3-0.5,0.4
		c-0.2,0.1-0.4,0.1-0.7,0.1C206.2,69.1,206,69,205.8,68.9z M207.2,68.6c0.2-0.1,0.3-0.3,0.3-0.6c0-0.2,0-0.3-0.1-0.5
		c-0.1-0.1-0.2-0.2-0.3-0.3c-0.1-0.1-0.3-0.2-0.6-0.3c-0.3,0.1-0.5,0.3-0.6,0.4c-0.1,0.2-0.2,0.4-0.2,0.6c0,0.2,0.1,0.4,0.3,0.6
		s0.4,0.2,0.7,0.2C206.8,68.8,207,68.7,207.2,68.6z M207.1,66.2c0.1-0.1,0.2-0.3,0.2-0.5c0-0.2-0.1-0.4-0.2-0.5
		c-0.1-0.1-0.3-0.2-0.6-0.2c-0.2,0-0.4,0.1-0.6,0.2c-0.1,0.1-0.2,0.3-0.2,0.5c0,0.2,0.1,0.4,0.2,0.5c0.1,0.1,0.3,0.3,0.6,0.4
		C206.8,66.5,207,66.3,207.1,66.2z"/>
	<path class="st3" d="M208.8,69.1c-0.1,0-0.1-0.1-0.2-0.1c0,0-0.1-0.1-0.1-0.2v0c0-0.1,0-0.2,0.1-0.2c0,0,0.1-0.1,0.2-0.1h0
		c0.1,0,0.2,0,0.2,0.1c0,0.1,0.1,0.1,0.1,0.3c0,0.1,0,0.3,0,0.4c0,0.2-0.1,0.3-0.1,0.5h-0.2V69.1z"/>
	<path class="st3" d="M210.3,68.7h0.7V65h-0.7v-0.3c0.3,0,0.5-0.1,0.7-0.1c0.1,0,0.2,0,0.3,0.1c0,0,0.1,0.1,0.1,0.2v3.8h0.6V69h-1.7
		V68.7z"/>
	<path class="st3" d="M213.4,66.8c-0.2-0.2-0.2-0.5-0.2-0.9c0-0.4,0.1-0.7,0.2-0.9c0.2-0.2,0.4-0.3,0.7-0.3c0.3,0,0.5,0.1,0.7,0.3
		c0.2,0.2,0.2,0.5,0.2,0.9c0,0.4-0.1,0.7-0.2,0.9c-0.2,0.2-0.4,0.3-0.7,0.3C213.8,67.2,213.6,67.1,213.4,66.8z M214.6,66.7
		c0.1-0.2,0.1-0.4,0.1-0.7c0-0.3,0-0.6-0.1-0.7c-0.1-0.2-0.2-0.2-0.5-0.2c-0.2,0-0.4,0.1-0.5,0.2c-0.1,0.2-0.1,0.4-0.1,0.7
		c0,0.3,0,0.6,0.1,0.7c0.1,0.2,0.2,0.2,0.5,0.2C214.4,66.9,214.5,66.8,214.6,66.7z M216.5,64.7h0.3l-2.1,4.4h-0.3L216.5,64.7z
		 M216.4,68.8c-0.2-0.2-0.2-0.5-0.2-0.9c0-0.4,0.1-0.7,0.2-0.9c0.2-0.2,0.4-0.3,0.7-0.3s0.5,0.1,0.7,0.3c0.2,0.2,0.2,0.5,0.2,0.9
		c0,0.4-0.1,0.7-0.2,0.9c-0.2,0.2-0.4,0.3-0.7,0.3S216.6,69,216.4,68.8z M217.6,68.6c0.1-0.2,0.1-0.4,0.1-0.7s0-0.6-0.1-0.7
		c-0.1-0.2-0.2-0.2-0.5-0.2c-0.2,0-0.4,0.1-0.5,0.2s-0.1,0.4-0.1,0.7s0,0.6,0.1,0.7c0.1,0.2,0.2,0.2,0.5,0.2
		C217.3,68.8,217.5,68.7,217.6,68.6z"/>
</g>
<g>
	<path class="st3" d="M252.8,55.5c0-0.1,0-0.1,0-0.2s0.1-0.2,0.2-0.3l1-1.3c0.3-0.3,0.4-0.6,0.5-0.8c0.1-0.2,0.2-0.4,0.2-0.6
		c0-0.2-0.1-0.4-0.2-0.5c-0.2-0.2-0.4-0.2-0.8-0.2c-0.3,0-0.6,0-0.9,0.1v-0.3c0.1,0,0.3-0.1,0.4-0.1c0.2,0,0.3,0,0.5,0
		c0.5,0,0.8,0.1,1,0.3c0.1,0.1,0.2,0.2,0.2,0.4c0,0.1,0.1,0.3,0.1,0.4c0,0.2,0,0.3-0.1,0.5c0,0.1-0.1,0.3-0.2,0.5
		c-0.1,0.2-0.3,0.4-0.5,0.6l-1.1,1.4h2v0.3h-2.4C252.8,55.6,252.8,55.5,252.8,55.5z"/>
	<path class="st3" d="M256.6,55.7c-0.2,0-0.3,0-0.4-0.1v-0.3c0.1,0,0.3,0,0.4,0.1c0.2,0,0.3,0,0.4,0c0.4,0,0.7-0.1,0.9-0.3
		c0.2-0.1,0.2-0.4,0.2-0.7c0-0.3-0.1-0.5-0.2-0.6c-0.2-0.2-0.5-0.3-0.9-0.3h0v-0.3h0.1c0.2,0,0.4,0,0.5-0.1c0.1,0,0.2-0.1,0.3-0.2
		c0.2-0.2,0.2-0.4,0.2-0.6c0-0.3-0.1-0.5-0.2-0.6c-0.1-0.2-0.4-0.2-0.8-0.2c-0.3,0-0.5,0-0.8,0.1v-0.3c0.1,0,0.3-0.1,0.4-0.1
		c0.2,0,0.3,0,0.5,0c0.4,0,0.8,0.1,1,0.3c0.2,0.2,0.3,0.5,0.3,0.8c0,0.5-0.2,0.8-0.7,1c0.2,0.1,0.4,0.2,0.6,0.4
		c0.1,0.2,0.2,0.4,0.2,0.7c0,0.4-0.1,0.7-0.4,0.9c-0.2,0.2-0.6,0.3-1.1,0.3C256.9,55.7,256.7,55.7,256.6,55.7z"/>
	<path class="st3" d="M259.6,55.7c-0.1,0-0.1-0.1-0.2-0.1c0,0-0.1-0.1-0.1-0.2v0c0-0.1,0-0.2,0.1-0.2c0,0,0.1-0.1,0.2-0.1h0
		c0.1,0,0.2,0,0.2,0.1c0,0.1,0.1,0.1,0.1,0.3c0,0.1,0,0.3,0,0.4c0,0.2-0.1,0.3-0.1,0.5h-0.2V55.7z"/>
	<path class="st3" d="M261.1,55.2c-0.2-0.3-0.3-0.8-0.3-1.5c0-1,0.2-1.7,0.5-2.1c0.2-0.3,0.6-0.4,1.1-0.4c0.1,0,0.2,0,0.3,0
		c0.1,0,0.2,0,0.3,0.1v0.3c-0.2,0-0.4,0-0.6,0c-0.2,0-0.4,0-0.5,0.1c-0.1,0-0.2,0.1-0.3,0.2c-0.1,0.1-0.2,0.3-0.3,0.5
		c-0.1,0.2-0.1,0.5-0.1,0.9c0.2-0.1,0.3-0.1,0.5-0.2c0.2,0,0.3-0.1,0.5-0.1c0.4,0,0.7,0.1,0.9,0.3c0.2,0.2,0.3,0.5,0.3,0.9
		c0,0.4-0.1,0.8-0.3,1c-0.2,0.3-0.5,0.4-0.9,0.4C261.7,55.7,261.3,55.5,261.1,55.2z M262.8,55.1c0.2-0.2,0.2-0.5,0.2-0.8
		c0-0.3-0.1-0.6-0.2-0.7c-0.2-0.1-0.4-0.2-0.7-0.2c-0.1,0-0.3,0-0.5,0c-0.2,0-0.3,0.1-0.5,0.1v0.3c0,1,0.3,1.6,0.9,1.6
		C262.4,55.4,262.7,55.3,262.8,55.1z"/>
	<path class="st3" d="M264.3,53.5c-0.2-0.2-0.2-0.5-0.2-0.9c0-0.4,0.1-0.7,0.2-0.9c0.2-0.2,0.4-0.3,0.7-0.3c0.3,0,0.5,0.1,0.7,0.3
		c0.2,0.2,0.2,0.5,0.2,0.9c0,0.4-0.1,0.7-0.2,0.9c-0.2,0.2-0.4,0.3-0.7,0.3C264.7,53.8,264.5,53.7,264.3,53.5z M265.5,53.3
		c0.1-0.2,0.1-0.4,0.1-0.7c0-0.3,0-0.6-0.1-0.7c-0.1-0.2-0.2-0.2-0.5-0.2c-0.2,0-0.4,0.1-0.5,0.2c-0.1,0.2-0.1,0.4-0.1,0.7
		c0,0.3,0,0.6,0.1,0.7c0.1,0.2,0.2,0.2,0.5,0.2C265.2,53.5,265.4,53.4,265.5,53.3z M267.4,51.3h0.3l-2.1,4.4h-0.3L267.4,51.3z
		 M267.3,55.4c-0.2-0.2-0.2-0.5-0.2-0.9c0-0.4,0.1-0.7,0.2-0.9c0.2-0.2,0.4-0.3,0.7-0.3c0.3,0,0.5,0.1,0.7,0.3
		c0.2,0.2,0.2,0.5,0.2,0.9c0,0.4-0.1,0.7-0.2,0.9s-0.4,0.3-0.7,0.3C267.7,55.7,267.4,55.6,267.3,55.4z M268.4,55.2
		c0.1-0.2,0.1-0.4,0.1-0.7c0-0.3,0-0.6-0.1-0.7c-0.1-0.2-0.2-0.2-0.5-0.2c-0.2,0-0.4,0.1-0.5,0.2c-0.1,0.2-0.1,0.4-0.1,0.7
		c0,0.3,0,0.6,0.1,0.7c0.1,0.2,0.2,0.2,0.5,0.2C268.2,55.4,268.3,55.3,268.4,55.2z"/>
</g>
<g>
	<path class="st3" d="M227.3,84.8h0.7v-3.7h-0.7v-0.3c0.3,0,0.5-0.1,0.7-0.1c0.1,0,0.2,0,0.3,0.1c0,0,0.1,0.1,0.1,0.2v3.8h0.6v0.3
		h-1.7V84.8z"/>
	<path class="st3" d="M232.3,81.1h-2v-0.3h2.4c0,0,0,0.1,0,0.1c0,0.1,0,0.1-0.1,0.3l-1.3,3.9h-0.4L232.3,81.1z"/>
	<path class="st3" d="M233.8,85.2c-0.1,0-0.1-0.1-0.2-0.1c0,0-0.1-0.1-0.1-0.2v0c0-0.1,0-0.2,0.1-0.2c0,0,0.1-0.1,0.2-0.1h0
		c0.1,0,0.2,0,0.2,0.1c0,0.1,0.1,0.1,0.1,0.3c0,0.1,0,0.3,0,0.4c0,0.2-0.1,0.3-0.1,0.5h-0.2V85.2z"/>
	<path class="st3" d="M235.4,85.1c-0.2,0-0.3,0-0.4-0.1v-0.3c0.1,0,0.3,0,0.4,0.1c0.2,0,0.3,0,0.4,0c0.4,0,0.7-0.1,0.9-0.3
		c0.2-0.1,0.2-0.4,0.2-0.7c0-0.3-0.1-0.5-0.2-0.6c-0.2-0.2-0.5-0.3-0.9-0.3h0v-0.3h0.1c0.2,0,0.4,0,0.5-0.1c0.1,0,0.2-0.1,0.3-0.2
		c0.2-0.2,0.2-0.4,0.2-0.6c0-0.3-0.1-0.5-0.2-0.6c-0.1-0.2-0.4-0.2-0.8-0.2c-0.3,0-0.5,0-0.8,0.1v-0.3c0.1,0,0.3-0.1,0.4-0.1
		c0.2,0,0.3,0,0.5,0c0.4,0,0.8,0.1,1,0.3c0.2,0.2,0.3,0.5,0.3,0.8c0,0.5-0.2,0.8-0.7,1c0.2,0.1,0.4,0.2,0.6,0.4
		c0.1,0.2,0.2,0.4,0.2,0.7c0,0.4-0.1,0.7-0.4,0.9c-0.2,0.2-0.6,0.3-1.1,0.3C235.7,85.2,235.6,85.1,235.4,85.1z"/>
	<path class="st3" d="M238.4,82.9c-0.2-0.2-0.2-0.5-0.2-0.9s0.1-0.7,0.2-0.9c0.2-0.2,0.4-0.3,0.7-0.3s0.5,0.1,0.7,0.3
		c0.2,0.2,0.2,0.5,0.2,0.9s-0.1,0.7-0.2,0.9c-0.2,0.2-0.4,0.3-0.7,0.3S238.6,83.1,238.4,82.9z M239.6,82.7c0.1-0.2,0.1-0.4,0.1-0.7
		c0-0.3,0-0.6-0.1-0.7c-0.1-0.2-0.2-0.2-0.5-0.2c-0.2,0-0.4,0.1-0.5,0.2c-0.1,0.2-0.1,0.4-0.1,0.7c0,0.3,0,0.6,0.1,0.7
		c0.1,0.2,0.2,0.2,0.5,0.2C239.3,82.9,239.5,82.9,239.6,82.7z M241.5,80.7h0.3l-2.1,4.4h-0.3L241.5,80.7z M241.4,84.8
		c-0.2-0.2-0.2-0.5-0.2-0.9s0.1-0.7,0.2-0.9c0.2-0.2,0.4-0.3,0.7-0.3c0.3,0,0.5,0.1,0.7,0.3c0.2,0.2,0.2,0.5,0.2,0.9
		s-0.1,0.7-0.2,0.9c-0.2,0.2-0.4,0.3-0.7,0.3C241.8,85.2,241.6,85,241.4,84.8z M242.6,84.6c0.1-0.2,0.1-0.4,0.1-0.7s0-0.6-0.1-0.7
		c-0.1-0.2-0.2-0.2-0.5-0.2c-0.2,0-0.4,0.1-0.5,0.2c-0.1,0.2-0.1,0.4-0.1,0.7s0,0.6,0.1,0.7s0.2,0.2,0.5,0.2
		C242.3,84.9,242.5,84.8,242.6,84.6z"/>
</g>
<g>
	<path class="st3" d="M304.9,83.9h0.7v-3.7h-0.7v-0.3c0.3,0,0.5-0.1,0.7-0.1c0.1,0,0.2,0,0.3,0.1c0,0,0.1,0.1,0.1,0.2v3.8h0.6v0.3
		h-1.7V83.9z"/>
	<path class="st3" d="M309.9,80.2h-2v-0.3h2.4c0,0,0,0.1,0,0.1c0,0.1,0,0.1-0.1,0.3l-1.3,3.9h-0.4L309.9,80.2z"/>
	<path class="st3" d="M311.4,84.3c-0.1,0-0.1-0.1-0.2-0.1c0,0-0.1-0.1-0.1-0.2v0c0-0.1,0-0.2,0.1-0.2c0,0,0.1-0.1,0.2-0.1h0
		c0.1,0,0.2,0,0.2,0.1c0,0.1,0.1,0.1,0.1,0.3s0,0.3,0,0.4c0,0.2-0.1,0.3-0.1,0.5h-0.2V84.3z"/>
	<path class="st3" d="M313,84.2c-0.2,0-0.3,0-0.4-0.1v-0.3c0.1,0,0.3,0,0.4,0.1c0.2,0,0.3,0,0.4,0c0.4,0,0.7-0.1,0.9-0.3
		c0.2-0.1,0.2-0.4,0.2-0.7c0-0.3-0.1-0.5-0.2-0.6c-0.2-0.2-0.5-0.3-0.9-0.3h0v-0.3h0.1c0.2,0,0.4,0,0.5-0.1c0.1,0,0.2-0.1,0.3-0.2
		c0.2-0.2,0.2-0.4,0.2-0.6c0-0.3-0.1-0.5-0.2-0.6c-0.1-0.2-0.4-0.2-0.8-0.2c-0.3,0-0.5,0-0.8,0.1v-0.3c0.1,0,0.3-0.1,0.4-0.1
		c0.2,0,0.3,0,0.5,0c0.4,0,0.8,0.1,1,0.3c0.2,0.2,0.3,0.5,0.3,0.8c0,0.5-0.2,0.8-0.7,1c0.2,0.1,0.4,0.2,0.6,0.4
		c0.1,0.2,0.2,0.4,0.2,0.7c0,0.4-0.1,0.7-0.4,0.9c-0.2,0.2-0.6,0.3-1.1,0.3C313.4,84.3,313.2,84.3,313,84.2z"/>
	<path class="st3" d="M316.1,82c-0.2-0.2-0.2-0.5-0.2-0.9c0-0.4,0.1-0.7,0.2-0.9c0.2-0.2,0.4-0.3,0.7-0.3s0.5,0.1,0.7,0.3
		c0.2,0.2,0.2,0.5,0.2,0.9c0,0.4-0.1,0.7-0.2,0.9c-0.2,0.2-0.4,0.3-0.7,0.3S316.2,82.2,316.1,82z M317.2,81.8
		c0.1-0.2,0.1-0.4,0.1-0.7c0-0.3,0-0.6-0.1-0.7c-0.1-0.2-0.2-0.2-0.5-0.2s-0.4,0.1-0.5,0.2c-0.1,0.2-0.1,0.4-0.1,0.7
		c0,0.3,0,0.6,0.1,0.7c0.1,0.2,0.2,0.2,0.5,0.2S317.1,82,317.2,81.8z M319.2,79.8h0.3l-2.1,4.4H317L319.2,79.8z M319,83.9
		c-0.2-0.2-0.2-0.5-0.2-0.9c0-0.4,0.1-0.7,0.2-0.9c0.2-0.2,0.4-0.3,0.7-0.3c0.3,0,0.5,0.1,0.7,0.3c0.2,0.2,0.2,0.5,0.2,0.9
		c0,0.4-0.1,0.7-0.2,0.9c-0.2,0.2-0.4,0.3-0.7,0.3C319.4,84.3,319.2,84.2,319,83.9z M320.2,83.7c0.1-0.2,0.1-0.4,0.1-0.7
		c0-0.3,0-0.6-0.1-0.7c-0.1-0.2-0.2-0.2-0.5-0.2s-0.4,0.1-0.5,0.2c-0.1,0.2-0.1,0.4-0.1,0.7c0,0.3,0,0.6,0.1,0.7
		c0.1,0.2,0.2,0.2,0.5,0.2S320.1,83.9,320.2,83.7z"/>
</g>
<g>
	<path class="st3" d="M76.5,292.3v-0.5l2.7-1.4v0.5l-2.3,1.2l2.3,1.1v0.5L76.5,292.3z"/>
	<path class="st3" d="M83.8,289.3h-2.9v-0.5h3.5c0,0,0,0.1,0,0.2c0,0.1,0,0.2-0.1,0.4l-1.9,5.6h-0.6L83.8,289.3z"/>
	<path class="st3" d="M104.2,294.9c-0.3-0.1-0.5-0.3-0.7-0.6c-0.2-0.2-0.2-0.5-0.2-0.8c0-0.4,0.1-0.7,0.4-1.1c0.2-0.3,0.6-0.6,1-0.7
		c-0.3-0.2-0.6-0.4-0.7-0.6c-0.2-0.2-0.3-0.5-0.3-0.8c0-0.3,0.1-0.5,0.2-0.8c0.1-0.2,0.3-0.4,0.6-0.5c0.2-0.1,0.5-0.2,0.8-0.2
		c0.3,0,0.6,0.1,0.8,0.2c0.2,0.1,0.4,0.3,0.6,0.5c0.1,0.2,0.2,0.5,0.2,0.7c0,0.4-0.1,0.7-0.3,0.9c-0.2,0.3-0.5,0.5-0.9,0.6
		c0.5,0.2,0.8,0.5,1.1,0.7c0.3,0.3,0.4,0.6,0.4,1c0,0.3-0.1,0.6-0.3,0.9c-0.2,0.3-0.4,0.4-0.7,0.6c-0.3,0.1-0.6,0.2-1,0.2
		C104.8,295.1,104.4,295.1,104.2,294.9z M106.2,294.4c0.3-0.2,0.4-0.5,0.4-0.8c0-0.3-0.1-0.5-0.2-0.7c-0.1-0.2-0.3-0.3-0.5-0.4
		c-0.2-0.1-0.5-0.3-0.9-0.5c-0.4,0.2-0.7,0.4-0.9,0.6c-0.2,0.3-0.3,0.6-0.3,0.9c0,0.4,0.1,0.6,0.4,0.9c0.3,0.2,0.6,0.3,1,0.3
		C105.6,294.7,105.9,294.6,106.2,294.4z M106.1,291c0.2-0.2,0.3-0.5,0.3-0.7c0-0.3-0.1-0.5-0.3-0.7c-0.2-0.2-0.5-0.3-0.8-0.3
		c-0.4,0-0.6,0.1-0.8,0.3c-0.2,0.2-0.3,0.4-0.3,0.7c0,0.3,0.1,0.5,0.3,0.7c0.2,0.2,0.5,0.4,0.9,0.6
		C105.6,291.4,105.9,291.2,106.1,291z"/>
	<path class="st3" d="M128.6,295.1c-0.2,0-0.3,0-0.5-0.1v-0.4c0.3,0,0.6,0.1,0.9,0.1c0.3,0,0.5,0,0.7-0.1c0.2-0.1,0.3-0.1,0.5-0.3
		c0.2-0.2,0.3-0.5,0.4-0.8c0.1-0.3,0.1-0.8,0.2-1.3c-0.2,0.1-0.5,0.2-0.7,0.2c-0.3,0.1-0.5,0.1-0.7,0.1c-0.6,0-1-0.1-1.3-0.4
		s-0.4-0.7-0.4-1.3c0-0.6,0.2-1.1,0.5-1.5c0.3-0.4,0.8-0.5,1.3-0.5c0.7,0,1.2,0.2,1.5,0.7c0.3,0.5,0.4,1.2,0.4,2.1
		c0,1.4-0.2,2.4-0.7,2.9c-0.3,0.4-0.8,0.5-1.5,0.5C128.9,295.1,128.8,295.1,128.6,295.1z M130.1,292.1c0.2,0,0.5-0.1,0.7-0.2v-0.4
		c0-1.5-0.5-2.2-1.4-2.2c-0.4,0-0.7,0.1-1,0.4s-0.3,0.6-0.3,1.1c0,0.5,0.1,0.8,0.3,1.1c0.2,0.2,0.5,0.3,1,0.3
		C129.6,292.1,129.9,292.1,130.1,292.1z"/>
	<path class="st3" d="M150.9,294.6h1.1v-5.3h-1v-0.4c0.4,0,0.7-0.1,1.1-0.1c0.2,0,0.3,0,0.4,0.1c0.1,0.1,0.1,0.1,0.1,0.3v5.4h0.9
		v0.4h-2.5V294.6z"/>
	<path class="st3" d="M155.4,294.3c-0.3-0.5-0.5-1.3-0.5-2.4c0-1,0.2-1.8,0.5-2.4c0.3-0.5,0.8-0.8,1.5-0.8c0.7,0,1.2,0.3,1.5,0.8
		c0.3,0.5,0.5,1.3,0.5,2.4c0,1-0.2,1.8-0.5,2.4c-0.3,0.5-0.8,0.8-1.5,0.8C156.2,295.1,155.7,294.9,155.4,294.3z M158,294
		c0.2-0.4,0.3-1.1,0.3-2c0-0.9-0.1-1.6-0.3-2c-0.2-0.4-0.6-0.7-1.1-0.7c-0.5,0-0.9,0.2-1.1,0.7c-0.2,0.4-0.3,1.1-0.3,2
		c0,0.9,0.1,1.6,0.3,2c0.2,0.4,0.6,0.7,1.1,0.7C157.4,294.6,157.8,294.4,158,294z"/>
	<path class="st3" d="M178.3,294.6h1.1v-5.3h-1v-0.4c0.4,0,0.7-0.1,1.1-0.1c0.2,0,0.3,0,0.4,0.1c0.1,0.1,0.1,0.1,0.1,0.3v5.4h0.9
		v0.4h-2.5V294.6z"/>
	<path class="st3" d="M183,294.6h1.1v-5.3h-1v-0.4c0.4,0,0.7-0.1,1.1-0.1c0.2,0,0.3,0,0.4,0.1c0.1,0.1,0.1,0.1,0.1,0.3v5.4h0.9v0.4
		H183V294.6z"/>
	<path class="st3" d="M205.6,294.6h1.1v-5.3h-1v-0.4c0.4,0,0.7-0.1,1.1-0.1c0.2,0,0.3,0,0.4,0.1c0.1,0.1,0.1,0.1,0.1,0.3v5.4h0.9
		v0.4h-2.5V294.6z"/>
	<path class="st3" d="M209.8,294.8c0-0.1,0-0.2,0.1-0.3c0-0.1,0.1-0.2,0.3-0.4l1.5-1.8c0.4-0.4,0.6-0.8,0.8-1.1
		c0.2-0.3,0.2-0.6,0.2-0.9c0-0.3-0.1-0.6-0.3-0.8c-0.2-0.2-0.6-0.3-1.2-0.3c-0.4,0-0.8,0-1.3,0.1v-0.4c0.2,0,0.4-0.1,0.6-0.1
		c0.2,0,0.5,0,0.7,0c0.7,0,1.1,0.1,1.5,0.4c0.2,0.1,0.3,0.3,0.3,0.5c0.1,0.2,0.1,0.4,0.1,0.6c0,0.3,0,0.5-0.1,0.7
		c-0.1,0.2-0.2,0.4-0.3,0.7c-0.2,0.2-0.4,0.5-0.7,0.9l-1.6,2h2.9v0.5h-3.5C209.8,295,209.8,294.9,209.8,294.8z"/>
	<path class="st3" d="M233,294.6h1.1v-5.3h-1v-0.4c0.4,0,0.7-0.1,1.1-0.1c0.2,0,0.3,0,0.4,0.1c0.1,0.1,0.1,0.1,0.1,0.3v5.4h0.9v0.4
		H233V294.6z"/>
	<path class="st3" d="M237.8,295.1c-0.2,0-0.5-0.1-0.6-0.1v-0.4c0.2,0,0.4,0.1,0.6,0.1c0.2,0,0.4,0,0.6,0c0.6,0,1-0.1,1.3-0.4
		c0.2-0.2,0.3-0.5,0.3-1c0-0.4-0.1-0.7-0.3-0.9c-0.3-0.3-0.7-0.4-1.3-0.4h-0.1v-0.4h0.1c0.3,0,0.5,0,0.7-0.1s0.3-0.1,0.5-0.3
		c0.2-0.2,0.3-0.5,0.3-0.9c0-0.4-0.1-0.7-0.3-0.9c-0.2-0.2-0.6-0.3-1.1-0.3c-0.4,0-0.8,0-1.2,0.1v-0.4c0.2-0.1,0.4-0.1,0.6-0.1
		c0.2,0,0.5,0,0.7,0c0.6,0,1.1,0.1,1.4,0.4c0.3,0.3,0.4,0.7,0.4,1.1c0,0.7-0.3,1.2-0.9,1.5c0.3,0.1,0.6,0.3,0.8,0.5
		c0.2,0.3,0.3,0.6,0.3,1c0,0.6-0.2,1-0.5,1.3c-0.4,0.3-0.9,0.5-1.6,0.5C238.3,295.1,238.1,295.1,237.8,295.1z"/>
	<path class="st3" d="M260.3,294.6h1.1v-5.3h-1v-0.4c0.4,0,0.7-0.1,1.1-0.1c0.2,0,0.3,0,0.4,0.1c0.1,0.1,0.1,0.1,0.1,0.3v5.4h0.9
		v0.4h-2.5V294.6z"/>
	<path class="st3" d="M267.1,293.5h-2.8c0-0.1,0-0.1,0-0.2c0-0.1,0-0.2,0-0.2c0-0.1,0.1-0.2,0.1-0.4l1.3-3.8h0.5l-1.4,4.1h2.3v-1.6
		h0.5v1.6h0.7v0.4h-0.7v1.5h-0.5V293.5z"/>
	<path class="st3" d="M284.1,294.6h1.1v-5.3h-1v-0.4c0.4,0,0.7-0.1,1.1-0.1c0.2,0,0.3,0,0.4,0.1c0.1,0.1,0.1,0.1,0.1,0.3v5.4h0.9
		v0.4h-2.5V294.6z"/>
	<path class="st3" d="M289,295.1c-0.2,0-0.4-0.1-0.5-0.1v-0.4c0.3,0.1,0.7,0.1,1.1,0.1c1.1,0,1.6-0.5,1.6-1.4c0-0.4-0.1-0.8-0.3-1
		c-0.1-0.1-0.3-0.2-0.5-0.3c-0.2-0.1-0.5-0.1-0.9-0.1h-0.9c0-0.1,0-0.3,0-0.4l0.1-2.6h2.7v0.5h-2.3l-0.1,2.1h0.6c0.4,0,0.7,0,1,0.1
		c0.3,0.1,0.5,0.2,0.7,0.4c0.3,0.3,0.5,0.7,0.5,1.3c0,0.6-0.2,1.1-0.6,1.4c-0.4,0.3-0.9,0.5-1.5,0.5
		C289.5,295.1,289.2,295.1,289,295.1z"/>
	<path class="st3" d="M309.6,294.6h1.1v-5.3h-1v-0.4c0.4,0,0.7-0.1,1.1-0.1c0.2,0,0.3,0,0.4,0.1c0.1,0.1,0.1,0.1,0.1,0.3v5.4h0.9
		v0.4h-2.5V294.6z"/>
	<path class="st3" d="M314.3,294.4c-0.3-0.5-0.4-1.2-0.4-2.1c0-1.4,0.2-2.4,0.7-2.9c0.3-0.4,0.8-0.5,1.5-0.5c0.1,0,0.3,0,0.5,0
		c0.2,0,0.3,0,0.5,0.1v0.4c-0.3,0-0.6-0.1-0.9-0.1c-0.3,0-0.5,0-0.7,0.1c-0.2,0.1-0.3,0.2-0.5,0.3c-0.2,0.2-0.3,0.5-0.4,0.8
		c-0.1,0.3-0.1,0.8-0.2,1.3c0.2-0.1,0.5-0.2,0.7-0.2s0.5-0.1,0.7-0.1c0.6,0,1,0.1,1.3,0.4s0.4,0.7,0.4,1.3c0,0.6-0.2,1.1-0.5,1.5
		s-0.8,0.5-1.3,0.5C315,295.1,314.6,294.9,314.3,294.4z M316.7,294.3c0.2-0.3,0.3-0.6,0.3-1.1c0-0.5-0.1-0.8-0.3-1.1
		c-0.2-0.2-0.5-0.3-1-0.3c-0.2,0-0.4,0-0.7,0.1c-0.2,0-0.5,0.1-0.7,0.2v0.4c0,1.5,0.5,2.2,1.4,2.2
		C316.1,294.7,316.5,294.5,316.7,294.3z"/>
	<path class="st3" d="M333.4,294.6h1.1v-5.3h-1v-0.4c0.4,0,0.7-0.1,1.1-0.1c0.2,0,0.3,0,0.4,0.1c0.1,0.1,0.1,0.1,0.1,0.3v5.4h0.9
		v0.4h-2.5V294.6z"/>
	<path class="st3" d="M340.6,289.3h-2.9v-0.5h3.5c0,0,0,0.1,0,0.2c0,0.1,0,0.2-0.1,0.4l-1.9,5.6h-0.6L340.6,289.3z"/>
</g>
<g>
	<path class="st0" d="M21,14.6h0.8l2.5,7.3h-0.7l-0.7-2h-2.9l-0.6,2h-0.6L21,14.6z M22.7,19.4l-1.3-4.1l-1.3,4.1H22.7z"/>
	<path class="st0" d="M25.4,14.6H26v6.8h3.2v0.6h-3.8V14.6z"/>
	<path class="st0" d="M31.1,21.2c-0.5-0.6-0.8-1.6-0.8-2.9c0-1.3,0.3-2.2,0.8-2.9c0.5-0.7,1.3-1,2.3-1c0.3,0,0.6,0,0.8,0.1
		c0.3,0,0.5,0.1,0.8,0.2l-0.1,0.5c-0.5-0.1-0.9-0.2-1.4-0.2c-0.8,0-1.5,0.3-1.9,0.8c-0.4,0.5-0.6,1.3-0.6,2.4c0,0.8,0.1,1.4,0.3,1.8
		s0.4,0.8,0.8,1c0.4,0.2,0.9,0.3,1.5,0.3c0.4,0,0.8-0.1,1.3-0.2l0.1,0.5c-0.2,0.1-0.5,0.1-0.7,0.2c-0.3,0-0.5,0.1-0.8,0.1
		C32.4,22.1,31.6,21.8,31.1,21.2z"/>
	<path class="st0" d="M38,14.6h0.8l2.5,7.3h-0.7l-0.7-2h-2.9l-0.6,2h-0.6L38,14.6z M39.7,19.4l-1.3-4.1l-1.3,4.1H39.7z"/>
	<path class="st0" d="M42.4,14.6h0.4l4.2,6.2v-6.2h0.6v7.3h-0.5l-4.2-6.1v6.1h-0.6V14.6z"/>
	<path class="st0" d="M50,21.2c-0.5-0.6-0.8-1.6-0.8-2.9c0-1.3,0.3-2.2,0.8-2.9c0.5-0.7,1.3-1,2.3-1c0.3,0,0.6,0,0.8,0.1
		c0.3,0,0.5,0.1,0.8,0.2l-0.1,0.5c-0.5-0.1-0.9-0.2-1.4-0.2c-0.8,0-1.5,0.3-1.9,0.8c-0.4,0.5-0.6,1.3-0.6,2.4c0,0.8,0.1,1.4,0.3,1.8
		c0.2,0.5,0.4,0.8,0.8,1c0.4,0.2,0.9,0.3,1.5,0.3c0.4,0,0.8-0.1,1.3-0.2l0.1,0.5c-0.2,0.1-0.5,0.1-0.7,0.2c-0.3,0-0.5,0.1-0.8,0.1
		C51.3,22.1,50.5,21.8,50,21.2z"/>
	<path class="st0" d="M55.3,14.6h3.9L59,15.2h-3.1V18h2.6v0.6h-2.6v2.9h3.3v0.6h-3.9V14.6z"/>
	<path class="st0" d="M6.2,25.3h2c0.4,0,0.8,0,1.1,0.1c0.3,0.1,0.6,0.2,0.8,0.4c0.2,0.2,0.3,0.4,0.4,0.7c0.1,0.3,0.1,0.6,0.1,0.9
		c0,0.8-0.2,1.3-0.5,1.7c-0.4,0.4-0.9,0.6-1.7,0.6H6.8v2.8H6.2V25.3z M8.2,29.3c0.4,0,0.7,0,0.9-0.1c0.2-0.1,0.4-0.2,0.5-0.3
		c0.1-0.1,0.2-0.3,0.3-0.5c0.1-0.2,0.1-0.5,0.1-0.8c0-0.5-0.1-0.9-0.4-1.2C9.5,26.1,9.3,26,9.1,26c-0.2-0.1-0.5-0.1-0.9-0.1H6.8v3.4
		H8.2z"/>
	<path class="st0" d="M12.6,31.8c-0.5-0.6-0.7-1.6-0.7-2.8c0-1.2,0.2-2.2,0.7-2.8c0.5-0.6,1.2-1,2.1-1c0.9,0,1.6,0.3,2.1,1
		c0.5,0.6,0.7,1.6,0.7,2.8c0,1.2-0.2,2.2-0.7,2.8c-0.5,0.6-1.2,1-2.1,1C13.7,32.8,13,32.5,12.6,31.8z M16.3,31.4
		c0.3-0.5,0.5-1.3,0.5-2.4s-0.2-1.8-0.5-2.4c-0.3-0.5-0.9-0.8-1.6-0.8c-0.8,0-1.3,0.3-1.6,0.8c-0.3,0.5-0.5,1.3-0.5,2.4
		s0.2,1.8,0.5,2.4c0.3,0.5,0.9,0.8,1.6,0.8C15.4,32.2,16,31.9,16.3,31.4z"/>
	<path class="st0" d="M19,25.3H21c0.4,0,0.8,0,1.1,0.1c0.3,0.1,0.5,0.2,0.7,0.4c0.1,0.1,0.2,0.3,0.3,0.5c0.1,0.2,0.1,0.4,0.1,0.7
		c0,0.4-0.1,0.8-0.3,1.1c-0.2,0.3-0.4,0.5-0.8,0.6c0.5,0.1,0.9,0.2,1.1,0.6c0.3,0.3,0.4,0.8,0.4,1.3c0,0.3,0,0.6-0.1,0.9
		c-0.1,0.3-0.2,0.5-0.3,0.6c-0.2,0.2-0.4,0.4-0.7,0.4c-0.3,0.1-0.7,0.1-1.3,0.1H19V25.3z M20.8,28.6c0.6,0,1-0.1,1.3-0.3
		c0.3-0.2,0.4-0.6,0.4-1c0-0.5-0.1-0.8-0.4-1C22,26.1,21.8,26,21.6,26c-0.2,0-0.5-0.1-0.9-0.1h-1.1v2.7H20.8z M20.9,32.1
		c0.5,0,0.9,0,1.1-0.1c0.2,0,0.4-0.1,0.6-0.3c0.2-0.2,0.4-0.6,0.4-1.1c0-0.5-0.1-0.9-0.4-1.2c-0.1-0.1-0.3-0.2-0.6-0.3
		c-0.2-0.1-0.5-0.1-1-0.1h-1.3v3H20.9z"/>
	<path class="st0" d="M25.1,25.3h0.6v6.8H29v0.6h-3.8V25.3z"/>
	<path class="st0" d="M31.9,25.3h0.8l2.5,7.3h-0.7l-0.7-2h-2.9l-0.6,2h-0.6L31.9,25.3z M33.6,30.1L32.3,26L31,30.1H33.6z"/>
	<path class="st0" d="M36.7,31.9C36.2,31.3,36,30.3,36,29c0-1.3,0.3-2.2,0.8-2.9c0.5-0.7,1.3-1,2.3-1c0.3,0,0.6,0,0.8,0.1
		c0.3,0,0.5,0.1,0.8,0.2L40.5,26c-0.5-0.1-0.9-0.2-1.4-0.2c-0.8,0-1.5,0.3-1.9,0.8s-0.6,1.3-0.6,2.4c0,0.8,0.1,1.4,0.3,1.8
		c0.2,0.5,0.4,0.8,0.8,1c0.4,0.2,0.9,0.3,1.5,0.3c0.4,0,0.8-0.1,1.3-0.2l0.1,0.5c-0.2,0.1-0.5,0.1-0.7,0.2s-0.5,0.1-0.8,0.1
		C38,32.8,37.3,32.5,36.7,31.9z"/>
	<path class="st0" d="M42.1,25.3h0.6v7.3h-0.6V25.3z"/>
	<path class="st0" d="M45,31.8c-0.5-0.6-0.7-1.6-0.7-2.8c0-1.2,0.2-2.2,0.7-2.8c0.5-0.6,1.2-1,2.1-1c0.9,0,1.6,0.3,2.1,1
		c0.5,0.6,0.7,1.6,0.7,2.8c0,1.2-0.2,2.2-0.7,2.8c-0.5,0.6-1.2,1-2.1,1C46.2,32.8,45.5,32.5,45,31.8z M48.7,31.4
		c0.3-0.5,0.5-1.3,0.5-2.4s-0.2-1.8-0.5-2.4c-0.3-0.5-0.9-0.8-1.6-0.8c-0.8,0-1.3,0.3-1.6,0.8C45.1,27.2,45,28,45,29
		s0.2,1.8,0.5,2.4c0.3,0.5,0.9,0.8,1.6,0.8C47.8,32.2,48.4,31.9,48.7,31.4z M46,24.3l1.8-1.7l0.4,0.5l-2,1.5L46,24.3z"/>
	<path class="st0" d="M51.5,25.3h0.4l4.2,6.2v-6.2h0.6v7.3h-0.5L52,26.5v6.1h-0.6V25.3z"/>
	<path class="st0" d="M19.8,36h0.6v7.3h-0.6V36z"/>
	<path class="st0" d="M22.4,36h0.4l4.2,6.2V36h0.6v7.3h-0.5l-4.2-6.1v6.1h-0.6V36z"/>
	<path class="st0" d="M29.5,36h3.8l-0.1,0.6h-3v2.8h2.5v0.6h-2.5v3.4h-0.6V36z"/>
	<path class="st0" d="M35.5,36h0.8l2.5,7.3h-0.7l-0.7-2h-2.9l-0.6,2h-0.6L35.5,36z M37.3,40.8l-1.3-4.1l-1.3,4.1H37.3z"/>
	<path class="st0" d="M40,36h0.4l4.2,6.2V36h0.6v7.3h-0.5l-4.2-6.1v6.1H40V36z"/>
	<path class="st0" d="M48.8,36.6h-2.4V36h5.4l-0.1,0.6h-2.3v6.8h-0.6V36.6z"/>
	<path class="st0" d="M53,36h0.6v7.3H53V36z"/>
	<path class="st0" d="M55.5,36h0.6v6.8h3.2v0.6h-3.8V36z"/>
</g>
<g>
	<path class="st4" d="M120.3,20.5h0.5v5.6h-0.5V20.5z"/>
	<path class="st4" d="M122.2,22.1h0.4l0,0.3c0.5-0.3,0.9-0.4,1.4-0.4c0.2,0,0.4,0,0.6,0.1c0.2,0.1,0.3,0.1,0.4,0.3
		c0.1,0.1,0.2,0.3,0.3,0.4c0.1,0.2,0.1,0.4,0.1,0.6v2.8h-0.5v-2.7c0-0.2,0-0.4-0.1-0.5c0-0.1-0.1-0.2-0.2-0.3
		c-0.2-0.2-0.4-0.2-0.7-0.2c-0.2,0-0.4,0-0.6,0.1c-0.2,0.1-0.4,0.1-0.6,0.2v3.4h-0.5V22.1z"/>
	<path class="st4" d="M126.8,22.5h-0.7v-0.3l0.7-0.1v-0.7c0-0.2,0-0.4,0.1-0.6c0-0.2,0.1-0.3,0.2-0.4c0.2-0.2,0.5-0.3,1-0.3
		c0.2,0,0.4,0,0.6,0v0.4c-0.2,0-0.4,0-0.5,0c-0.3,0-0.5,0.1-0.7,0.2c-0.1,0.1-0.1,0.2-0.1,0.3c0,0.1,0,0.3,0,0.5v0.6h1.1v0.4h-1.1
		v3.7h-0.5V22.5z"/>
	<path class="st4" d="M128.8,24.1c0-1.4,0.6-2.1,1.7-2.1s1.7,0.7,1.7,2.1c0,1.4-0.6,2.1-1.7,2.1S128.8,25.5,128.8,24.1z M131.5,25.4
		c0.2-0.3,0.3-0.7,0.3-1.3s-0.1-1-0.3-1.3c-0.2-0.3-0.5-0.4-1-0.4s-0.8,0.1-1,0.4c-0.2,0.3-0.3,0.7-0.3,1.3s0.1,1,0.3,1.3
		c0.2,0.3,0.5,0.4,1,0.4S131.3,25.7,131.5,25.4z"/>
	<path class="st4" d="M133.3,22.1h0.4l0,0.3c0.2-0.1,0.4-0.3,0.6-0.3c0.2-0.1,0.4-0.1,0.6-0.1c0.1,0,0.1,0,0.2,0v0.4
		c-0.1,0-0.2,0-0.3,0c-0.4,0-0.7,0.1-1.1,0.3v3.4h-0.5V22.1z"/>
	<path class="st4" d="M135.8,22.1h0.4l0,0.3c0.2-0.1,0.4-0.2,0.6-0.3c0.2-0.1,0.5-0.1,0.7-0.1c0.2,0,0.5,0,0.6,0.1
		c0.2,0.1,0.3,0.2,0.4,0.3c0.2-0.1,0.5-0.2,0.7-0.3c0.3-0.1,0.5-0.1,0.7-0.1c0.2,0,0.4,0,0.6,0.1c0.2,0.1,0.3,0.1,0.4,0.3
		c0.1,0.1,0.2,0.3,0.3,0.4c0.1,0.2,0.1,0.4,0.1,0.6v2.8H141v-2.7c0-0.2,0-0.4,0-0.5c0-0.1-0.1-0.2-0.2-0.3c-0.2-0.2-0.4-0.2-0.7-0.2
		c-0.4,0-0.8,0.1-1.2,0.3c0.1,0.2,0.1,0.4,0.1,0.6v2.8h-0.5v-2.7c0-0.2,0-0.4,0-0.5c0-0.1-0.1-0.2-0.2-0.3c-0.2-0.2-0.4-0.2-0.7-0.2
		c-0.2,0-0.4,0-0.6,0.1c-0.2,0.1-0.4,0.1-0.6,0.2v3.4h-0.5V22.1z"/>
	<path class="st4" d="M143,25.7c-0.3-0.4-0.5-0.9-0.5-1.6c0-0.7,0.1-1.2,0.4-1.6c0.3-0.4,0.7-0.6,1.2-0.6c1.1,0,1.6,0.7,1.6,2.2v0.1
		c0,0,0,0.1,0,0.1c0,0,0,0-0.1,0H143c0,0.5,0.1,0.9,0.3,1.1c0.2,0.3,0.6,0.4,1.1,0.4c0.3,0,0.7,0,1-0.1l0,0.4
		c-0.1,0-0.3,0.1-0.5,0.1c-0.2,0-0.4,0-0.6,0C143.7,26.2,143.3,26,143,25.7z M145.3,23.9c0-0.5-0.1-0.9-0.3-1.1
		c-0.2-0.3-0.5-0.4-0.8-0.4c-0.4,0-0.7,0.1-0.9,0.4c-0.2,0.3-0.3,0.6-0.3,1.1H145.3z"/>
	<path class="st4" d="M149.8,20.9H148v-0.4h4.1l-0.1,0.4h-1.8v5.2h-0.5V20.9z"/>
	<path class="st4" d="M152.4,25.7c-0.3-0.4-0.5-0.9-0.5-1.6c0-0.7,0.1-1.2,0.4-1.6c0.3-0.4,0.7-0.6,1.2-0.6c1.1,0,1.6,0.7,1.6,2.2
		v0.1c0,0,0,0.1,0,0.1c0,0,0,0-0.1,0h-2.6c0,0.5,0.1,0.9,0.3,1.1c0.2,0.3,0.6,0.4,1.1,0.4c0.3,0,0.7,0,1-0.1l0,0.4
		c-0.1,0-0.3,0.1-0.5,0.1c-0.2,0-0.4,0-0.6,0C153.2,26.2,152.7,26,152.4,25.7z M154.7,23.9c0-0.5-0.1-0.9-0.3-1.1
		c-0.2-0.3-0.5-0.4-0.8-0.4c-0.4,0-0.7,0.1-0.9,0.4c-0.2,0.3-0.3,0.6-0.3,1.1H154.7z"/>
	<path class="st4" d="M156.2,20.2h0.5v5.9h-0.5V20.2z"/>
	<path class="st4" d="M158.2,25.7c-0.3-0.4-0.5-0.9-0.5-1.6c0-0.7,0.1-1.2,0.4-1.6c0.3-0.4,0.7-0.6,1.2-0.6c1.1,0,1.6,0.7,1.6,2.2
		v0.1c0,0,0,0.1,0,0.1c0,0,0,0-0.1,0h-2.6c0,0.5,0.1,0.9,0.3,1.1c0.2,0.3,0.6,0.4,1.1,0.4c0.3,0,0.7,0,1-0.1l0,0.4
		c-0.1,0-0.3,0.1-0.5,0.1c-0.2,0-0.4,0-0.6,0C159,26.2,158.5,26,158.2,25.7z M160.5,23.9c0-0.5-0.1-0.9-0.3-1.1
		c-0.2-0.3-0.5-0.4-0.8-0.4c-0.4,0-0.7,0.1-0.9,0.4c-0.2,0.3-0.3,0.6-0.3,1.1H160.5z M158.6,21.1l1.4-1.3l0.3,0.4l-1.5,1.1
		L158.6,21.1z"/>
	<path class="st4" d="M162.3,22.5h-0.7v-0.3l0.7-0.1v-0.7c0-0.2,0-0.4,0.1-0.6c0-0.2,0.1-0.3,0.2-0.4c0.2-0.2,0.5-0.3,1-0.3
		c0.2,0,0.4,0,0.6,0v0.4c-0.2,0-0.4,0-0.5,0c-0.3,0-0.5,0.1-0.7,0.2c-0.1,0.1-0.1,0.2-0.1,0.3c0,0.1,0,0.3,0,0.5v0.6h1.1v0.4h-1.1
		v3.7h-0.5V22.5z"/>
	<path class="st4" d="M164.2,24.1c0-1.4,0.6-2.1,1.7-2.1c1.2,0,1.7,0.7,1.7,2.1c0,1.4-0.6,2.1-1.7,2.1
		C164.8,26.2,164.2,25.5,164.2,24.1z M166.9,25.4c0.2-0.3,0.3-0.7,0.3-1.3s-0.1-1-0.3-1.3c-0.2-0.3-0.5-0.4-1-0.4
		c-0.4,0-0.8,0.1-1,0.4c-0.2,0.3-0.3,0.7-0.3,1.3s0.1,1,0.3,1.3c0.2,0.3,0.5,0.4,1,0.4C166.4,25.8,166.7,25.7,166.9,25.4z"/>
	<path class="st4" d="M168.7,22.1h0.4l0,0.3c0.5-0.3,0.9-0.4,1.4-0.4c0.2,0,0.4,0,0.6,0.1c0.2,0.1,0.3,0.1,0.4,0.3
		c0.1,0.1,0.2,0.3,0.3,0.4c0.1,0.2,0.1,0.4,0.1,0.6v2.8h-0.5v-2.7c0-0.2,0-0.4-0.1-0.5c0-0.1-0.1-0.2-0.2-0.3
		c-0.2-0.2-0.4-0.2-0.7-0.2c-0.2,0-0.4,0-0.6,0.1c-0.2,0.1-0.4,0.1-0.6,0.2v3.4h-0.5V22.1z"/>
	<path class="st4" d="M172.9,24.1c0-1.4,0.6-2.1,1.7-2.1c1.2,0,1.7,0.7,1.7,2.1c0,1.4-0.6,2.1-1.7,2.1
		C173.5,26.2,172.9,25.5,172.9,24.1z M175.6,25.4c0.2-0.3,0.3-0.7,0.3-1.3s-0.1-1-0.3-1.3c-0.2-0.3-0.5-0.4-1-0.4s-0.8,0.1-1,0.4
		c-0.2,0.3-0.3,0.7-0.3,1.3s0.1,1,0.3,1.3c0.2,0.3,0.5,0.4,1,0.4S175.4,25.7,175.6,25.4z"/>
	<path class="st4" d="M180.4,20.5h0.6l1.9,5.6h-0.5l-0.5-1.5h-2.3l-0.5,1.5h-0.5L180.4,20.5z M181.7,24.1l-1-3.2l-1,3.2H181.7z"/>
	<path class="st4" d="M183.8,20.5h0.3l3.3,4.7v-4.7h0.4v5.6h-0.4l-3.2-4.7v4.7h-0.4V20.5z"/>
	<path class="st4" d="M190.5,20.5h0.6l1.9,5.6h-0.5l-0.5-1.5h-2.3l-0.5,1.5h-0.5L190.5,20.5z M191.8,24.1l-1-3.2l-1,3.2H191.8z"/>
	<path class="st4" d="M193.9,20.5h1.6c0.4,0,0.7,0,0.9,0.1c0.2,0.1,0.4,0.2,0.6,0.4c0.3,0.3,0.4,0.7,0.4,1.2c0,0.9-0.4,1.4-1.1,1.6
		l1.2,2.3h-0.5l-1.1-2.2c-0.1,0-0.2,0-0.4,0h-1.1v2.2h-0.5V20.5z M195.5,23.5c0.5,0,0.8-0.1,1-0.3c0.2-0.2,0.3-0.6,0.3-1
		c0-0.2,0-0.4-0.1-0.5c0-0.1-0.1-0.3-0.2-0.4c-0.1-0.1-0.2-0.2-0.4-0.2c-0.2-0.1-0.4-0.1-0.7-0.1h-1v2.6H195.5z"/>
	<path class="st4" d="M200.1,26c0-0.1,0-0.2,0.1-0.3c0-0.1,0.1-0.2,0.3-0.4l1.4-1.7c0.3-0.4,0.6-0.8,0.7-1c0.1-0.3,0.2-0.5,0.2-0.8
		c0-0.3-0.1-0.5-0.2-0.7c-0.2-0.2-0.6-0.3-1.1-0.3c-0.3,0-0.7,0-1.2,0.1v-0.4c0.1,0,0.3-0.1,0.6-0.1c0.2,0,0.5,0,0.7,0
		c0.6,0,1.1,0.1,1.3,0.4c0.1,0.1,0.2,0.3,0.3,0.5c0.1,0.2,0.1,0.4,0.1,0.5c0,0.2,0,0.4-0.1,0.6c-0.1,0.2-0.2,0.4-0.3,0.6
		c-0.1,0.2-0.4,0.5-0.7,0.8l-1.5,1.8h2.7v0.4h-3.2C200.1,26.1,200.1,26,200.1,26z"/>
	<path class="st4" d="M204.7,25.5c-0.3-0.5-0.4-1.2-0.4-2.2c0-1,0.1-1.7,0.4-2.2c0.3-0.5,0.8-0.7,1.4-0.7c0.6,0,1.1,0.2,1.4,0.7
		c0.3,0.5,0.4,1.2,0.4,2.2c0,1-0.1,1.7-0.4,2.2c-0.3,0.5-0.8,0.7-1.4,0.7C205.5,26.2,205,26,204.7,25.5z M207.2,25.2
		c0.2-0.4,0.3-1,0.3-1.9s-0.1-1.5-0.3-1.9c-0.2-0.4-0.5-0.6-1-0.6c-0.5,0-0.8,0.2-1,0.6c-0.2,0.4-0.3,1-0.3,1.9s0.1,1.5,0.3,1.9
		c0.2,0.4,0.5,0.6,1,0.6C206.6,25.8,207,25.6,207.2,25.2z"/>
	<path class="st4" d="M209.4,25.7h1v-4.9h-0.9v-0.3c0.4,0,0.7-0.1,1-0.1c0.2,0,0.3,0,0.3,0.1c0.1,0,0.1,0.1,0.1,0.3v5h0.8v0.4h-2.3
		V25.7z"/>
	<path class="st4" d="M216,20.9h-2.7v-0.4h3.2c0,0,0,0.1,0,0.1c0,0.1,0,0.2-0.1,0.3l-1.7,5.2h-0.5L216,20.9z"/>
</g>
<g>
	<path class="st0" d="M119.9,6.6h0.7l2.2,6.6l2.1-6.6h0.6l-2.3,7.3h-0.8L119.9,6.6z"/>
	<path class="st0" d="M125.9,5.5l1.8-1.7l0.4,0.5l-2,1.5L125.9,5.5z M126.6,6.6h0.6v7.3h-0.6V6.6z"/>
	<path class="st0" d="M129.6,13.2c-0.5-0.6-0.8-1.6-0.8-2.9c0-1.3,0.3-2.2,0.8-2.9s1.3-1,2.3-1c0.3,0,0.6,0,0.8,0.1
		c0.3,0,0.5,0.1,0.8,0.2l-0.1,0.5C132.9,7.1,132.4,7,132,7c-0.8,0-1.5,0.3-1.9,0.8c-0.4,0.5-0.6,1.3-0.6,2.4c0,0.8,0.1,1.4,0.3,1.8
		s0.4,0.8,0.8,1c0.4,0.2,0.9,0.3,1.5,0.3c0.4,0,0.8-0.1,1.3-0.2l0.1,0.5c-0.2,0.1-0.5,0.1-0.7,0.2c-0.3,0-0.5,0.1-0.8,0.1
		C130.9,14.1,130.1,13.8,129.6,13.2z"/>
	<path class="st0" d="M136.6,7.1h-2.4V6.6h5.4l-0.1,0.6h-2.3v6.8h-0.6V7.1z"/>
	<path class="st0" d="M140.8,6.6h0.6v7.3h-0.6V6.6z"/>
	<path class="st0" d="M143.4,6.6h0.6l2.7,5.1l2.7-5.1h0.5v7.3h-0.6V7.9l-2.4,4.5h-0.6l-2.3-4.5v6.1h-0.6V6.6z"/>
	<path class="st0" d="M153.3,6.6h0.8l2.5,7.3h-0.7l-0.7-2h-2.9l-0.6,2H151L153.3,6.6z M155.1,11.4l-1.3-4.1l-1.3,4.1H155.1z"/>
	<path class="st0" d="M157.4,13.8l0.1-0.5c0.6,0.2,1.2,0.3,1.8,0.3c0.3,0,0.6,0,0.9-0.1c0.2-0.1,0.4-0.1,0.6-0.3
		c0.3-0.2,0.5-0.6,0.5-1.1c0-0.3-0.1-0.6-0.2-0.8c-0.2-0.2-0.3-0.4-0.6-0.5c-0.2-0.1-0.5-0.3-1-0.5c-0.4-0.2-0.8-0.3-1.1-0.5
		c-0.3-0.2-0.5-0.4-0.7-0.6c-0.2-0.3-0.3-0.6-0.3-1c0-0.5,0.2-0.9,0.5-1.3c0.4-0.4,1-0.6,1.8-0.6c0.6,0,1.1,0.1,1.7,0.3l-0.1,0.5
		c-0.5-0.1-1-0.2-1.5-0.2c-1.1,0-1.7,0.4-1.7,1.2c0,0.3,0.1,0.5,0.2,0.7c0.1,0.2,0.3,0.3,0.6,0.5c0.2,0.1,0.5,0.3,0.9,0.4
		c0.4,0.2,0.8,0.4,1.1,0.5c0.3,0.2,0.5,0.4,0.7,0.7c0.2,0.3,0.3,0.6,0.3,1c0,0.7-0.2,1.2-0.6,1.5c-0.4,0.3-1,0.5-1.8,0.5
		C158.7,14.1,158,14,157.4,13.8z"/>
	<path class="st0" d="M165.5,6.6h1.7c0.6,0,1.2,0.1,1.6,0.2c0.4,0.1,0.8,0.3,1,0.6c0.5,0.6,0.8,1.5,0.8,2.8c0,0.7-0.1,1.4-0.3,1.9
		c-0.2,0.5-0.4,0.9-0.7,1.2c-0.5,0.4-1.2,0.6-2.2,0.6h-2V6.6z M167.4,13.3c0.8,0,1.5-0.2,1.8-0.5c0.3-0.2,0.4-0.6,0.6-1
		c0.1-0.4,0.2-0.9,0.2-1.6c0-0.6-0.1-1.1-0.2-1.5c-0.1-0.4-0.3-0.7-0.5-1c-0.2-0.2-0.5-0.4-0.8-0.5c-0.3-0.1-0.8-0.1-1.3-0.1h-1.1
		v6.2H167.4z"/>
	<path class="st0" d="M172.2,6.6h3.9L176,7.1h-3.1v2.8h2.6v0.6h-2.6v2.9h3.3v0.6h-3.9V6.6z"/>
	<path class="st0" d="M180.3,13.2c-0.5-0.6-0.8-1.6-0.8-2.9c0-1.3,0.3-2.2,0.8-2.9c0.5-0.7,1.3-1,2.3-1c0.3,0,0.6,0,0.8,0.1
		c0.3,0,0.5,0.1,0.8,0.2l-0.1,0.5c-0.5-0.1-0.9-0.2-1.4-0.2c-0.8,0-1.5,0.3-1.9,0.8c-0.4,0.5-0.6,1.3-0.6,2.4c0,0.8,0.1,1.4,0.3,1.8
		c0.2,0.5,0.4,0.8,0.8,1c0.4,0.2,0.9,0.3,1.5,0.3c0.4,0,0.8-0.1,1.3-0.2l0.1,0.5c-0.2,0.1-0.5,0.1-0.7,0.2c-0.3,0-0.5,0.1-0.8,0.1
		C181.6,14.1,180.8,13.8,180.3,13.2z"/>
	<path class="st0" d="M185.6,6.6h0.6v7.3h-0.6V6.6z"/>
	<path class="st0" d="M188.2,6.6h1.9c0.4,0,0.8,0,1.1,0.1c0.3,0.1,0.5,0.2,0.7,0.4c0.1,0.1,0.2,0.3,0.3,0.5c0.1,0.2,0.1,0.4,0.1,0.7
		c0,0.4-0.1,0.8-0.3,1.1c-0.2,0.3-0.4,0.5-0.8,0.6c0.5,0.1,0.9,0.2,1.1,0.6c0.3,0.3,0.4,0.8,0.4,1.3c0,0.3,0,0.6-0.1,0.9
		c-0.1,0.3-0.2,0.5-0.3,0.6c-0.2,0.2-0.4,0.4-0.7,0.4c-0.3,0.1-0.7,0.1-1.3,0.1h-2.1V6.6z M189.9,9.8c0.6,0,1-0.1,1.3-0.3
		c0.3-0.2,0.4-0.6,0.4-1c0-0.5-0.1-0.8-0.4-1c-0.1-0.1-0.3-0.2-0.5-0.2c-0.2,0-0.5-0.1-0.9-0.1h-1.1v2.7H189.9z M190,13.4
		c0.5,0,0.9,0,1.1-0.1c0.2,0,0.4-0.1,0.6-0.3c0.2-0.2,0.4-0.6,0.4-1.1c0-0.5-0.1-0.9-0.4-1.2c-0.1-0.1-0.3-0.2-0.6-0.3
		c-0.2-0.1-0.5-0.1-1-0.1h-1.3v3H190z"/>
	<path class="st0" d="M194.3,6.6h3.9l-0.1,0.6h-3.1v2.8h2.6v0.6h-2.6v2.9h3.3v0.6h-3.9V6.6z"/>
	<path class="st0" d="M199.8,6.6h2c0.5,0,0.9,0.1,1.2,0.1c0.3,0.1,0.6,0.3,0.7,0.5c0.3,0.4,0.5,0.9,0.5,1.6c0,1.1-0.5,1.8-1.4,2.1
		l1.6,3h-0.7l-1.5-2.9c-0.1,0-0.3,0-0.5,0h-1.4v2.9h-0.6V6.6z M201.8,10.5c0.6,0,1.1-0.1,1.3-0.4c0.3-0.3,0.4-0.7,0.4-1.3
		c0-0.3,0-0.5-0.1-0.7c-0.1-0.2-0.2-0.4-0.3-0.5c-0.1-0.1-0.3-0.2-0.5-0.3s-0.5-0.1-0.9-0.1h-1.4v3.3H201.8z"/>
	<path class="st0" d="M205.9,6.6h1.9c0.4,0,0.8,0,1.1,0.1c0.3,0.1,0.5,0.2,0.7,0.4c0.1,0.1,0.2,0.3,0.3,0.5c0.1,0.2,0.1,0.4,0.1,0.7
		c0,0.4-0.1,0.8-0.3,1.1c-0.2,0.3-0.4,0.5-0.8,0.6c0.5,0.1,0.9,0.2,1.1,0.6c0.3,0.3,0.4,0.8,0.4,1.3c0,0.3,0,0.6-0.1,0.9
		c-0.1,0.3-0.2,0.5-0.3,0.6c-0.2,0.2-0.4,0.4-0.7,0.4c-0.3,0.1-0.7,0.1-1.3,0.1h-2.1V6.6z M207.7,9.8c0.6,0,1-0.1,1.3-0.3
		c0.3-0.2,0.4-0.6,0.4-1c0-0.5-0.1-0.8-0.4-1c-0.1-0.1-0.3-0.2-0.5-0.2c-0.2,0-0.5-0.1-0.9-0.1h-1.1v2.7H207.7z M207.8,13.4
		c0.5,0,0.9,0,1.1-0.1c0.2,0,0.4-0.1,0.6-0.3c0.2-0.2,0.4-0.6,0.4-1.1c0-0.5-0.1-0.9-0.4-1.2c-0.1-0.1-0.3-0.2-0.6-0.3
		c-0.2-0.1-0.5-0.1-1-0.1h-1.3v3H207.8z"/>
	<path class="st0" d="M212.6,13.4c-0.2-0.2-0.4-0.5-0.5-0.8c-0.1-0.3-0.1-0.7-0.1-1.2V6.6h0.6v4.8c0,0.4,0,0.7,0.1,1
		s0.2,0.5,0.4,0.6c0.3,0.3,0.8,0.4,1.5,0.4c0.6,0,1-0.1,1.3-0.4c0.4-0.3,0.5-0.9,0.5-1.7V6.6h0.6v4.9c0,0.9-0.2,1.5-0.7,2
		c-0.4,0.4-1,0.6-1.8,0.6C213.7,14.1,213,13.8,212.6,13.4z"/>
	<path class="st0" d="M218.9,6.6h0.6v6.8h3.2v0.6h-3.8V6.6z"/>
	<path class="st0" d="M224.1,6.6h0.6v6.8h3.2v0.6h-3.8V6.6z"/>
	<path class="st0" d="M230.1,10.9l-2.3-4.3h0.7l2,3.8l2-3.8h0.7l-2.4,4.3v3h-0.6V10.9z"/>
	<path class="st0" d="M234.4,6.6h0.6v7.3h-0.6V6.6z"/>
	<path class="st0" d="M236.9,6.6h0.4l4.2,6.2V6.6h0.6v7.3h-0.5l-4.2-6.1v6.1h-0.6V6.6z"/>
	<path class="st0" d="M244.6,13.2c-0.6-0.6-0.8-1.5-0.8-2.8c0-1.3,0.3-2.2,0.8-2.9c0.6-0.7,1.4-1,2.4-1c0.3,0,0.6,0,0.9,0.1
		c0.3,0,0.6,0.1,0.8,0.2l-0.1,0.5c-0.5-0.1-1-0.2-1.5-0.2c-0.9,0-1.6,0.3-2,0.8c-0.4,0.5-0.6,1.4-0.6,2.5c0,1.2,0.2,2,0.6,2.5
		c0.4,0.5,1.1,0.7,2,0.7c0.2,0,0.4,0,0.6,0c0.2,0,0.4,0,0.5-0.1v-2.5h-1.3v-0.5h1.9v3.5c-0.2,0.1-0.5,0.1-0.8,0.2
		c-0.4,0-0.7,0.1-0.9,0.1C246,14.1,245.2,13.8,244.6,13.2z"/>
</g>
<g>
	<path class="st0" d="M353.9,274.3h3.9l-0.1,0.6h-3.1v2.8h2.6v0.6h-2.6v2.9h3.3v0.6h-3.9V274.3z"/>
	<path class="st0" d="M359.3,274.3h1.7c0.6,0,1.2,0.1,1.6,0.2c0.4,0.1,0.8,0.3,1,0.6c0.5,0.6,0.8,1.5,0.8,2.8c0,0.7-0.1,1.4-0.3,1.9
		c-0.2,0.5-0.4,0.9-0.7,1.2c-0.5,0.4-1.2,0.6-2.2,0.6h-2V274.3z M361.3,281.1c0.8,0,1.5-0.2,1.8-0.5c0.3-0.2,0.4-0.6,0.6-1
		c0.1-0.4,0.2-0.9,0.2-1.6c0-0.6-0.1-1.1-0.2-1.5c-0.1-0.4-0.3-0.7-0.5-1c-0.2-0.2-0.5-0.4-0.8-0.5c-0.3-0.1-0.8-0.1-1.3-0.1H360
		v6.2H361.3z"/>
	<path class="st0" d="M367.6,274.3h0.8l2.5,7.3h-0.7l-0.7-2h-2.9l-0.6,2h-0.6L367.6,274.3z M369.3,279.1L368,275l-1.3,4.1H369.3z"/>
	<path class="st0" d="M372,274.3h1.7c0.6,0,1.2,0.1,1.6,0.2c0.4,0.1,0.8,0.3,1,0.6c0.5,0.6,0.8,1.5,0.8,2.8c0,0.7-0.1,1.4-0.3,1.9
		c-0.2,0.5-0.4,0.9-0.7,1.2c-0.5,0.4-1.2,0.6-2.2,0.6h-2V274.3z M373.9,281.1c0.8,0,1.5-0.2,1.8-0.5c0.3-0.2,0.4-0.6,0.6-1
		c0.1-0.4,0.2-0.9,0.2-1.6c0-0.6-0.1-1.1-0.2-1.5c-0.1-0.4-0.3-0.7-0.5-1c-0.2-0.2-0.5-0.4-0.8-0.5c-0.3-0.1-0.8-0.1-1.3-0.1h-1.1
		v6.2H373.9z"/>
</g>
<line class="st2" x1="105.1" y1="274.5" x2="105.1" y2="281.6"/>
<line class="st2" x1="129.2" y1="274.5" x2="129.2" y2="281.6"/>
<line class="st2" x1="66.7" y1="55.9" x2="58.7" y2="55.9"/>
<line class="st2" x1="66.7" y1="75.5" x2="61.3" y2="75.5"/>
<line class="st2" x1="66.7" y1="96.9" x2="61.3" y2="96.9"/>
<line class="st2" x1="66.7" y1="118.3" x2="61.3" y2="118.3"/>
<line class="st2" x1="66.7" y1="138.8" x2="61.3" y2="138.8"/>
<line class="st2" x1="66.7" y1="160.3" x2="61.3" y2="160.3"/>
<line class="st2" x1="66.7" y1="181.7" x2="61.3" y2="181.7"/>
<line class="st2" x1="66.7" y1="203.1" x2="61.3" y2="203.1"/>
<line class="st2" x1="66.7" y1="245" x2="61.3" y2="245"/>
<line class="st2" x1="66.7" y1="223.6" x2="61.3" y2="223.6"/>
<line class="st2" x1="66.7" y1="266.5" x2="61.3" y2="266.5"/>
<line class="st2" x1="83.7" y1="274.5" x2="83.7" y2="281.6"/>
<line class="st2" x1="183.6" y1="274.5" x2="183.6" y2="281.6"/>
<line class="st2" x1="210.4" y1="274.5" x2="210.4" y2="281.6"/>
<line class="st2" x1="235.4" y1="274.5" x2="235.4" y2="281.6"/>
<line class="st2" x1="261.2" y1="274.5" x2="261.2" y2="281.6"/>
<line class="st2" x1="286.2" y1="274.5" x2="286.2" y2="281.6"/>
<line class="st2" x1="312.1" y1="274.5" x2="312.1" y2="281.6"/>
<line class="st2" x1="338" y1="274.5" x2="338" y2="281.6"/>
<line class="st2" x1="154.2" y1="274.5" x2="154.2" y2="281.6"/>
<g>
	<g>
		<path class="st0" d="M79.3,28.8H72c-2,0-3.6,1.6-3.6,3.6v3.8c0,1.8,1.4,3.4,3.2,3.6v5h1.8l0-6.7H72c-1,0-1.8-0.8-1.8-1.8v-3.8
			c0-1,0.8-1.8,1.8-1.8h7.3c1,0,1.8,0.8,1.8,1.8v3.8c0,1-0.8,1.8-1.8,1.8h-1.4l0,6.7h1.8v-5c1.8-0.2,3.2-1.7,3.2-3.6v-3.8
			C82.9,30.4,81.3,28.8,79.3,28.8z"/>
		<path class="st0" d="M75.6,17c-2.7,0-4.9,2.2-4.9,4.9c0,2.7,2.2,4.9,4.9,4.9c2.7,0,4.9-2.2,4.9-4.9C80.5,19.2,78.3,17,75.6,17z
			 M75.6,25c-1.7,0-3.1-1.4-3.1-3.1c0-1.7,1.4-3.1,3.1-3.1c1.7,0,3.1,1.4,3.1,3.1C78.7,23.6,77.3,25,75.6,25z"/>
	</g>
</g>
<rect x="99.5" y="262.9" class="st0" width="16.1" height="5.4"/>
<rect x="150.7" y="240.6" class="st0" width="16.1" height="27.7"/>
<rect x="176.3" y="177.2" class="st0" width="16.1" height="91"/>
<rect x="201.9" y="72.8" class="st0" width="16.1" height="195.4"/>
<rect x="227.5" y="87.1" class="st0" width="16.1" height="181.2"/>
<rect x="253.1" y="60.3" class="st0" width="16.1" height="207.9"/>
<rect x="278.7" y="177.2" class="st0" width="16.1" height="91"/>
<rect x="304.3" y="87.1" class="st0" width="16.1" height="181.2"/>
<rect x="330" y="227.2" class="st0" width="16.1" height="41"/>
<g>
	<g>
		<path class="st0" d="M268.4,6.7h4.4l-0.1,0.6h-3.6v3.2h2.9v0.6h-2.9v3.3h3.8v0.6h-4.5V6.7z"/>
		<path class="st0" d="M274.6,6.7h2c0.7,0,1.3,0.1,1.8,0.2c0.5,0.1,0.9,0.4,1.2,0.7c0.6,0.7,0.9,1.7,0.9,3.2c0,0.8-0.1,1.6-0.3,2.1
			c-0.2,0.6-0.5,1-0.8,1.3c-0.5,0.5-1.4,0.7-2.5,0.7h-2.3V6.7z M276.8,14.4c1,0,1.7-0.2,2.1-0.6c0.3-0.3,0.5-0.7,0.6-1.2
			c0.1-0.5,0.2-1.1,0.2-1.8c0-0.7-0.1-1.3-0.2-1.7c-0.1-0.5-0.3-0.8-0.6-1.1c-0.2-0.2-0.6-0.4-0.9-0.5c-0.4-0.1-0.9-0.2-1.4-0.2
			h-1.2v7.1H276.8z"/>
		<path class="st0" d="M284,6.7h0.9l2.8,8.4H287l-0.7-2.3h-3.4l-0.7,2.3h-0.7L284,6.7z M286,12.2l-1.5-4.7l-1.4,4.7H286z"/>
		<path class="st0" d="M289.1,6.7h2c0.7,0,1.3,0.1,1.8,0.2c0.5,0.1,0.9,0.4,1.2,0.7c0.6,0.7,0.9,1.7,0.9,3.2c0,0.8-0.1,1.6-0.3,2.1
			c-0.2,0.6-0.5,1-0.8,1.3c-0.5,0.5-1.4,0.7-2.5,0.7h-2.3V6.7z M291.3,14.4c1,0,1.7-0.2,2.1-0.6c0.3-0.3,0.5-0.7,0.6-1.2
			c0.1-0.5,0.2-1.1,0.2-1.8c0-0.7-0.1-1.3-0.2-1.7c-0.1-0.5-0.3-0.8-0.6-1.1c-0.2-0.2-0.6-0.4-0.9-0.5c-0.4-0.1-0.9-0.2-1.4-0.2
			h-1.2v7.1H291.3z"/>
		<path class="st0" d="M263.5,18.9h0.7l3,5.8l3.1-5.8h0.6v8.4h-0.7v-6.9l-2.8,5.1h-0.6l-2.7-5.2v7h-0.7V18.9z"/>
		<path class="st0" d="M273,18.9h4.4l-0.1,0.6h-3.6v3.2h2.9v0.6h-2.9v3.3h3.8v0.6H273V18.9z"/>
		<path class="st0" d="M279.3,18.9h2c0.7,0,1.3,0.1,1.8,0.2c0.5,0.1,0.9,0.4,1.2,0.7c0.6,0.7,0.9,1.7,0.9,3.2c0,0.8-0.1,1.6-0.3,2.1
			c-0.2,0.6-0.5,1-0.8,1.3c-0.5,0.5-1.4,0.7-2.5,0.7h-2.3V18.9z M281.5,26.7c1,0,1.7-0.2,2.1-0.6c0.3-0.3,0.5-0.7,0.6-1.2
			c0.1-0.5,0.2-1.1,0.2-1.8c0-0.7-0.1-1.3-0.2-1.7c-0.1-0.5-0.3-0.8-0.6-1.1c-0.2-0.2-0.6-0.4-0.9-0.5c-0.4-0.1-0.9-0.2-1.4-0.2H280
			v7.1H281.5z"/>
		<path class="st0" d="M287,18.9h0.7v8.4H287V18.9z"/>
		<path class="st0" d="M291.7,18.9h0.9l2.8,8.4h-0.8l-0.7-2.3h-3.4l-0.7,2.3h-0.7L291.7,18.9z M293.7,24.4l-1.5-4.7l-1.4,4.7H293.7z
			"/>
	</g>
	<rect x="301.5" y="2.8" class="st0" width="41.8" height="31.6"/>
	<g>
		<path class="st5" d="M311.5,17.5h1.5v-7.3h-1.4V9.8c0.5-0.1,1-0.1,1.4-0.1c0.2,0,0.4,0,0.5,0.1c0.1,0.1,0.1,0.2,0.1,0.4v7.4h1.2
			v0.6h-3.4V17.5z"/>
		<path class="st5" d="M318.2,18.2c-0.3,0-0.6-0.1-0.8-0.1v-0.6c0.2,0,0.5,0.1,0.8,0.1c0.3,0,0.6,0,0.9,0c0.8,0,1.4-0.2,1.8-0.5
			c0.3-0.3,0.5-0.7,0.5-1.3c0-0.5-0.1-0.9-0.4-1.2c-0.4-0.4-1-0.5-1.8-0.5h-0.1v-0.5h0.1c0.4,0,0.7,0,1-0.1c0.3-0.1,0.5-0.2,0.6-0.4
			c0.3-0.3,0.5-0.7,0.5-1.2c0-0.5-0.1-0.9-0.4-1.2c-0.3-0.3-0.8-0.5-1.6-0.5c-0.5,0-1.1,0.1-1.6,0.2V9.8c0.3-0.1,0.5-0.1,0.9-0.2
			c0.3,0,0.6-0.1,0.9-0.1c0.8,0,1.5,0.2,1.9,0.6c0.4,0.4,0.6,0.9,0.6,1.6c0,1-0.4,1.7-1.3,2c0.5,0.1,0.8,0.4,1.1,0.7
			c0.3,0.3,0.4,0.8,0.4,1.3c0,0.8-0.2,1.4-0.7,1.8c-0.5,0.4-1.2,0.7-2.2,0.7C318.8,18.3,318.5,18.3,318.2,18.2z"/>
		<path class="st5" d="M324.2,18.3c-0.2,0-0.3-0.1-0.3-0.2c-0.1-0.1-0.1-0.2-0.1-0.3v-0.1c0-0.2,0-0.3,0.1-0.4
			c0.1-0.1,0.2-0.1,0.3-0.1h0c0.2,0,0.3,0.1,0.4,0.2c0.1,0.1,0.1,0.3,0.1,0.5s0,0.5-0.1,0.9c0,0.3-0.1,0.6-0.2,0.9h-0.3V18.3z"/>
		<path class="st5" d="M327.1,17.3c-0.4-0.7-0.6-1.6-0.6-2.9c0-2,0.3-3.3,1-4c0.5-0.5,1.2-0.7,2.1-0.7c0.2,0,0.4,0,0.6,0
			c0.2,0,0.5,0.1,0.6,0.1v0.6c-0.4-0.1-0.8-0.1-1.2-0.1c-0.4,0-0.7,0-1,0.1c-0.2,0.1-0.5,0.2-0.6,0.4c-0.3,0.3-0.5,0.6-0.6,1.1
			c-0.1,0.5-0.2,1-0.2,1.7c0.3-0.1,0.7-0.2,1-0.3c0.4-0.1,0.7-0.1,1-0.1c0.8,0,1.3,0.2,1.7,0.6c0.4,0.4,0.6,1,0.6,1.8
			c0,0.9-0.2,1.5-0.6,2c-0.4,0.5-1,0.7-1.8,0.7C328.2,18.3,327.5,18,327.1,17.3z M330.4,17.1c0.3-0.4,0.5-0.9,0.5-1.5
			c0-0.7-0.2-1.2-0.5-1.5c-0.3-0.3-0.8-0.4-1.3-0.4c-0.3,0-0.6,0-0.9,0.1c-0.3,0.1-0.6,0.1-0.9,0.2v0.6c0,2,0.6,3,1.9,3
			C329.7,17.7,330.1,17.5,330.4,17.1z"/>
	</g>
	<g>
		<path class="st5" d="M313.9,28.1c-0.3-0.3-0.5-0.6-0.5-1.2c0-0.5,0.1-0.8,0.4-1.1c0.2-0.2,0.4-0.3,0.6-0.4c0.3-0.1,0.6-0.1,1-0.1
			h1.2V25c0-0.5-0.1-0.8-0.3-1c-0.2-0.2-0.5-0.3-1-0.3c-0.5,0-0.9,0.1-1.4,0.2l0-0.5c0.5-0.1,1-0.2,1.5-0.2c0.7,0,1.2,0.1,1.4,0.4
			c0.3,0.3,0.4,0.7,0.4,1.3v3.4h-0.5l0-0.3c-0.3,0.1-0.5,0.3-0.8,0.4s-0.6,0.1-0.8,0.1C314.6,28.5,314.2,28.3,313.9,28.1z M316,27.8
			c0.3-0.1,0.5-0.2,0.7-0.3v-1.7h-1.1c-0.3,0-0.6,0-0.8,0.1c-0.2,0-0.3,0.1-0.5,0.2c-0.2,0.2-0.3,0.4-0.3,0.7c0,0.4,0.1,0.6,0.3,0.8
			c0.2,0.2,0.5,0.3,0.9,0.3C315.5,27.9,315.7,27.9,316,27.8z"/>
		<path class="st5" d="M318.8,23.3h0.5l0,0.4c0.6-0.3,1.2-0.5,1.8-0.5c0.3,0,0.5,0,0.7,0.1c0.2,0.1,0.4,0.2,0.5,0.3
			c0.1,0.1,0.2,0.3,0.3,0.5s0.1,0.5,0.1,0.7v3.5h-0.6V25c0-0.3,0-0.5-0.1-0.6s-0.1-0.3-0.2-0.4c-0.2-0.2-0.5-0.3-0.9-0.3
			c-0.2,0-0.5,0-0.8,0.1c-0.3,0.1-0.5,0.2-0.8,0.3v4.2h-0.6V23.3z M321.2,22c-0.1,0-0.2-0.1-0.4-0.2c-0.1,0-0.2-0.1-0.3-0.1
			c-0.1,0-0.2-0.1-0.3-0.1c-0.1,0-0.2,0-0.2,0.1c-0.1,0.1-0.1,0.2-0.2,0.3l-0.4-0.1c0-0.3,0.1-0.5,0.3-0.7c0.1-0.2,0.3-0.2,0.5-0.2
			c0.1,0,0.2,0,0.3,0.1c0.1,0,0.2,0.1,0.4,0.2c0.1,0.1,0.2,0.1,0.3,0.1c0.1,0,0.2,0,0.3,0c0.1,0,0.2,0,0.3-0.1
			c0.1-0.1,0.1-0.2,0.2-0.3l0.4,0.1c0,0.3-0.1,0.5-0.3,0.7c-0.1,0.2-0.3,0.2-0.5,0.2C321.5,22.1,321.3,22.1,321.2,22z"/>
		<path class="st5" d="M323.9,25.8c0-1.8,0.7-2.6,2.2-2.6c1.4,0,2.2,0.9,2.2,2.6c0,1.8-0.7,2.6-2.2,2.6
			C324.6,28.5,323.9,27.6,323.9,25.8z M327.3,27.4c0.2-0.4,0.4-0.9,0.4-1.6c0-0.7-0.1-1.2-0.4-1.6s-0.6-0.5-1.2-0.5
			c-0.6,0-0.9,0.2-1.2,0.5s-0.4,0.9-0.4,1.6c0,0.7,0.1,1.2,0.4,1.6s0.6,0.5,1.2,0.5C326.6,28,327,27.8,327.3,27.4z"/>
		<path class="st5" d="M329.9,28.4c-0.2,0-0.5-0.1-0.6-0.1l0.1-0.5c0.4,0.1,0.8,0.2,1.3,0.2c0.4,0,0.8-0.1,1-0.2
			c0.2-0.2,0.4-0.4,0.4-0.7c0-0.2-0.1-0.4-0.2-0.5c-0.1-0.1-0.2-0.2-0.4-0.3c-0.2-0.1-0.4-0.2-0.7-0.2c-0.3-0.1-0.6-0.2-0.8-0.3
			c-0.2-0.1-0.4-0.2-0.5-0.4c-0.1-0.2-0.2-0.4-0.2-0.7c0-0.5,0.2-0.8,0.5-1c0.3-0.2,0.8-0.4,1.3-0.4c0.2,0,0.4,0,0.6,0
			c0.2,0,0.4,0.1,0.6,0.1l0,0.5c-0.4-0.1-0.8-0.1-1.2-0.1c-0.4,0-0.7,0.1-0.9,0.2c-0.2,0.1-0.3,0.4-0.3,0.7c0,0.2,0.1,0.3,0.2,0.5
			c0.1,0.1,0.2,0.2,0.4,0.3c0.2,0.1,0.4,0.2,0.7,0.2c0.3,0.1,0.6,0.2,0.8,0.3c0.2,0.1,0.4,0.2,0.5,0.4c0.1,0.2,0.2,0.4,0.2,0.7
			c0,0.5-0.2,0.8-0.5,1.1c-0.3,0.2-0.8,0.4-1.4,0.4C330.4,28.5,330.2,28.4,329.9,28.4z"/>
	</g>
</g>
</svg>
