<?xml version="1.0" encoding="utf-8"?>
<!-- Generator: Adobe Illustrator 17.1.0, SVG Export Plug-In . SVG Version: 6.00 Build 0)  -->
<!DOCTYPE svg PUBLIC "-//W3C//DTD SVG 1.1 Basic//EN" "http://www.w3.org/Graphics/SVG/1.1/DTD/svg11-basic.dtd">
<svg version="1.1" baseProfile="basic" id="Capa_1" xmlns="http://www.w3.org/2000/svg" xmlns:xlink="http://www.w3.org/1999/xlink"
	 x="0px" y="0px" viewBox="0 0 676 509" xml:space="preserve">
<g>
	<g>
		<path fill="#00A9E0" d="M131.4,64.9c-30.3,0.5-86.2,15.4-111.7,119.7c-11.1,45.4-15.4,92.8-5.9,149.1c8.8,52,24.3,96.8,34.8,121.6
			c3.6,8.5,9.2,17.4,13.5,22.9c12.4,15.7,33.1,14.7,41.8,10.4c9.5-4.7,20.4-15.9,16.4-41.7c-1.9-12.4-7.4-30.6-10.5-40.7
			c-9.5-31-22.1-68.5-23.2-95.1c-1.5-35.7,12.6-40.3,21.9-42.4c15.7-3.5,28.9,13.8,41.4,35.4c14.9,25.8,40.5,71.5,61.4,106.4
			c18.8,31.5,53.6,65.3,109.5,63c56.9-2.4,98.9-24.1,120.5-92.5c16.2-51.2,27.2-89.4,45-128.6c20.4-45,47.6-69.1,70.6-61.8
			c21.3,6.8,26.6,27.6,26.9,58.2c0.2,27-2.9,56.9-5.3,78.8c-0.9,7.9-2.5,23.9-1.8,32.8c1.3,17.5,8.8,34.9,28.5,37.7
			c20.9,3,37.7-13.8,44.4-34c2.6-8,4.9-20.2,6.1-28.8c6.2-43.7,7.8-73.1,5-117.8c-3.2-52.3-13.5-100-31.3-141.3
			c-17.1-39.5-44.5-64.8-79.7-67C510.7,6.7,466,32.5,442.5,82.7c-21.6,46.2-38.9,93.7-49.4,117.9c-10.6,24.6-26.3,39.7-50.3,42.2
			c-29.4,3.1-54.7-18.2-73.3-48.7c-16.2-26.5-48.2-77-65.4-94C188.1,84.2,169.7,64.3,131.4,64.9z"/>
	</g>
</g>
</svg>
