<?xml version="1.0" encoding="utf-8"?>
<!-- Generator: Adobe Illustrator 22.0.1, SVG Export Plug-In . SVG Version: 6.00 Build 0)  -->
<svg version="1.1" id="Capa_1" xmlns="http://www.w3.org/2000/svg" xmlns:xlink="http://www.w3.org/1999/xlink" x="0px" y="0px"
	 viewBox="0 0 1305.4 500" style="enable-background:new 0 0 1305.4 500;" xml:space="preserve">
<style type="text/css">
	.st0{fill:#00A9E0;}
</style>
<g>
	<g>
		<g>
			<path class="st0" d="M14.5,3.8h29.8c6.5,0,12,0.6,16.6,1.9s8.4,3.5,11.5,6.6c2.5,2.5,4.4,5.8,5.8,9.8c1.4,4,2,8.6,2,13.7
				c0,11.3-2.7,19.8-8,25.4c-5.4,5.8-13.7,8.6-24.8,8.6H23.9v41.3h-9.4V3.8z M43.6,61.6c5.8,0,10.2-0.4,13.3-1.3
				c3.1-0.9,5.7-2.4,7.8-4.5c2.1-2.1,3.6-4.7,4.5-7.8s1.3-7.1,1.3-11.8c0-7.8-1.8-13.8-5.3-17.9c-2.1-2.4-4.8-4.1-8-4.9
				c-3.2-0.9-7.8-1.3-13.8-1.3H23.9v49.6H43.6z"/>
			<path class="st0" d="M89.6,72.7c0-27.1,11-40.6,33.1-40.6c22.1,0,33.1,13.6,33.1,40.6c0,27.1-11,40.6-33.1,40.6
				C100.7,113.4,89.6,99.8,89.6,72.7z M140.9,97.4c3.7-5.4,5.5-13.7,5.5-24.6c0-11-1.8-19.2-5.5-24.6s-9.7-8.2-18.2-8.2
				s-14.5,2.7-18.2,8.2c-3.7,5.4-5.5,13.7-5.5,24.6c0,11,1.8,19.2,5.5,24.6c3.7,5.4,9.7,8.2,18.2,8.2S137.3,102.8,140.9,97.4z"/>
			<path class="st0" d="M164.6,34.3h9.4l18.5,66.9l17.9-66.9h9.6l20.6,67.8l17-67.8h8.6l-20.6,76.9h-10.4l-19.9-65.1l-17.7,65.1
				h-10.5L164.6,34.3z"/>
			<path class="st0" d="M283.8,103.1c-5.9-7-8.8-17-8.8-30.2c0-12.6,2.6-22.5,7.9-29.7c5.3-7.3,13.1-10.9,23.5-10.9
				c20.2,0,30.3,13.7,30.3,41.1v1.4c0,0.6-0.1,1.1-0.4,1.3c-0.3,0.3-0.8,0.4-1.5,0.4h-50.2c0.2,9.6,2.4,16.9,6.7,21.8
				c4.2,4.9,11.2,7.4,21,7.4c6,0,12.4-0.8,19.5-2.4l0.8,7.4c-2.6,0.8-5.9,1.5-9.9,2c-4,0.5-7.6,0.8-11,0.8
				C298.9,113.5,289.6,110.1,283.8,103.1z M327.7,69.1c0-9.2-1.8-16.4-5.3-21.6c-3.5-5.2-8.9-7.8-16.1-7.8c-7.2,0-12.7,2.6-16.3,7.8
				c-3.7,5.2-5.5,12.4-5.6,21.6H327.7z"/>
			<path class="st0" d="M356.4,34.3h7.2l0.8,6.6c3.5-2.8,7.2-5,11.2-6.5c4-1.5,7.9-2.3,11.5-2.3c1.5,0,2.7,0.1,3.8,0.2v8.5
				c-1.7-0.1-3.5-0.2-5.3-0.2c-7.2,0-13.9,2.1-20.1,6.4v64.2h-9.1V34.3z"/>
			<path class="st0" d="M407.6,103.1c-5.9-7-8.8-17-8.8-30.2c0-12.6,2.6-22.5,7.9-29.7c5.3-7.3,13.1-10.9,23.5-10.9
				c20.2,0,30.3,13.7,30.3,41.1v1.4c0,0.6-0.1,1.1-0.4,1.3c-0.3,0.3-0.8,0.4-1.5,0.4h-50.2c0.2,9.6,2.4,16.9,6.7,21.8
				c4.2,4.9,11.2,7.4,21,7.4c6,0,12.4-0.8,19.5-2.4l0.8,7.4c-2.6,0.8-5.9,1.5-9.9,2c-4,0.5-7.6,0.8-11,0.8
				C422.7,113.5,413.4,110.1,407.6,103.1z M451.5,69.1c0-9.2-1.8-16.4-5.3-21.6c-3.5-5.2-8.9-7.8-16.1-7.8c-7.2,0-12.7,2.6-16.3,7.8
				c-3.7,5.2-5.5,12.4-5.6,21.6H451.5z"/>
			<path class="st0" d="M476.5,73.1c0-12.8,2.6-22.8,7.8-30.1c5.2-7.3,13.1-10.9,23.5-10.9c7.1,0,14.2,1.8,21.3,5.3V-1h9.1v112.2
				h-7.2l-0.5-4.7c-3,2-6.6,3.6-10.8,4.9c-4.2,1.3-8.2,2-11.9,2C486.9,113.4,476.5,99.9,476.5,73.1z M518.8,104
				c3.8-0.9,7.2-2.2,10.4-3.8V45c-7.1-3.2-13.7-4.9-19.6-4.9c-8.5,0-14.5,2.7-18.2,8.2s-5.5,13.7-5.5,24.6c0,11.1,1.8,19.3,5.3,24.6
				c3.6,5.3,9.3,7.9,17.1,7.9C511.6,105.4,515.1,104.9,518.8,104z"/>
			<path class="st0" d="M612.1,111.2c-4.4-1.5-8.2-3.2-11.5-5.3l-0.5,5.3h-7.2V-1h9.1v39.2c3.3-1.9,7-3.4,11.1-4.5
				c4-1.1,7.9-1.6,11.5-1.6c9.6,0,17,3.4,22.1,10.1c5.1,6.7,7.6,16.8,7.6,30.2c0,15.3-3.1,26.3-9.3,33.1c-4.8,5.2-11.6,7.8-20.2,7.8
				C620.7,113.4,616.5,112.6,612.1,111.2z M633.3,103.3c3-1.4,5.3-3.5,6.8-6.3c3.1-5.5,4.7-13.8,4.7-24.8c0-11.4-2-19.8-6-25.3
				c-3.5-4.6-8.8-6.9-16-6.9c-3.2,0-6.8,0.5-10.6,1.6c-3.8,1-7.2,2.4-10.3,3.9v53.5c3,1.9,6.5,3.4,10.4,4.6
				c3.9,1.2,7.6,1.7,11.1,1.7C627.1,105.4,630.3,104.7,633.3,103.3z"/>
			<path class="st0" d="M692.9,147.6l-1.1-7.7c3.1,0.5,6.8,0.8,11,0.8c4.2,0,7.6-0.3,10.4-1c2.7-0.7,4.9-1.8,6.6-3.2
				c1.7-1.6,2.9-3.6,3.6-6.1c0.7-2.5,1.1-6.1,1.1-10.8v-13.3c-8.5,4.8-16.9,7.2-25.4,7.2c-4.1,0-7.8-0.6-11.1-1.6
				c-3.3-1.1-6.1-2.7-8.2-4.8c-2.2-2.2-3.8-4.8-4.9-7.9c-1-3.1-1.6-6.9-1.6-11.5V34.3h9.1v50.8c0,4,0.3,7.1,1,9.5
				c0.7,2.4,1.8,4.3,3.4,5.9c3,3,7.6,4.6,13.7,4.6c3.8,0,7.7-0.5,11.9-1.6c4.2-1,8.2-2.6,12.1-4.6V34.3h9.1v85.5
				c0,5.2-0.5,9.6-1.5,13c-1,3.5-2.6,6.3-4.8,8.6c-4.7,4.8-12.3,7.2-22.9,7.2C699.7,148.7,695.9,148.3,692.9,147.6z"/>
		</g>
	</g>
	<g>
		<path class="st0" d="M156.1,189.1c-85.8,0-155.4,69.6-155.4,155.4c0,35.5,11.9,68.2,31.8,94.3L161.7,269h-13.9H134
			c-14.7,0-28.6,1-38.5,3c-6.1,1.2-11.4,3.4-15.8,6.5c-5.2,3.6-11.6,11.3-15.8,18.8c-0.5,0.9-1.2,2.2-2.1,4l-7.6-1.7l12.7-48.8
			h161.8L100,422.8c8.4-0.8,11.7-0.9,18.5-0.9c5.2,0,13.1,0.3,23.8,1l22.8,1.3c8.2,0.5,15.2,0.8,20.4,0.8c11.8,0,19.5-0.9,27.1-3.2
			c5.9-1.8,11.5-4.5,16.6-8c9.1-6.2,17.8-16.3,23.1-26.3c0.5-1,1.4-2.5,2.3-4.6l6.9,1.8c-2.2,8.5-3.4,11.7-6.8,19.4
			c-6.9,15.4-14.7,25.8-25.4,33.7c-11,8.2-23.2,12.2-37.6,12.4l-2.2,0c-10.7,0-19-0.9-44.5-4.8c-26-4-39.3-5.4-52.3-5.4
			c-8.8,0-16.9,0.6-25.3,2c-11.1,1.8-15.5,3.1-25.7,7.7c28.4,31,69.2,50.4,114.5,50.4c85.9,0,155.4-69.6,155.4-155.5
			C311.5,258.7,241.9,189.1,156.1,189.1z"/>
		<path class="st0" d="M474.1,400.2c-6.7,1.2-14.2,1.8-23.6,2.1c-3.1,0.1-7.2,0.1-12,0.1h-23l91.2-130H388.3l-14.5,31.7
			c4.9-2.5,6.8-3.4,11-5.1c6.7-2.6,14.1-4.7,21.3-5.9c6.2-1.1,11.9-1.6,21.2-1.9c4.2-0.1,8-0.1,11.7-0.1h17.5l-92.1,129.9h130.1
			l15-33.9c-5.2,3-7.1,4-11.1,5.8C490.9,396.3,482.6,398.8,474.1,400.2z M894.8,300c0.1-9.9,0.3-12.7,1.6-16.7
			c0.5-1.6,1.3-3.2,2.1-4.7c1.6-2.5,2.7-3.7,5.7-6.2h-48.3c3.2,2.7,4.2,3.8,5.6,5.9c1,1.5,1.8,3.2,2.3,4.9c1.1,3.6,1.5,7.2,1.6,16
			c0,4.5,0,7.5,0,8.9v89c0,5.2-0.9,10.8-2.4,14.3c-0.7,1.6-1.4,3-2.4,4.4c-1.1,1.7-1.9,2.6-4.6,5.3h47.7c-2.3-2-3.1-2.9-4.7-5.3
			c-0.9-1.4-1.7-2.9-2.3-4.6c-1.3-3.3-2.1-8.3-2.1-13v-89.6L894.8,300z M1039.2,399.6c-9.1,3.8-17.4,5.5-26.3,5.5
			c-15.6,0-28.9-5.5-38.7-16c-9.7-10.4-15.1-24.8-15.1-41.2c0-15.6,4.9-30,13.6-40.2c3.8-4.4,8.4-8.1,13.7-11
			c8.5-4.7,18.3-7.2,29.1-7.2c9.2,0,18.1,1.8,27.1,5.4c5.6,2.2,7.6,3.3,12.4,6.7v-28c-3.6-1.2-5.1-1.6-9.2-2.4
			c-8.7-1.8-17-2.6-26.5-2.6c-16.2,0-30.1,2.6-42.9,7.9c-7.6,3.2-14.6,7.3-20.7,12.1c-18.6,14.8-28.7,36.2-28.7,60.8
			c0,23.9,9.7,44.5,27.5,58.4c14.6,11.4,33.5,17.2,56.2,17.2c14.1,0,27.4-2.1,42.2-6.7c0.5-0.2,1.3-0.4,2.4-0.7v-27
			c-3.6,2.4-4.8,3.2-7,4.4C1045.5,396.7,1042.4,398.2,1039.2,399.6z M1216.3,299.9c0-6.5,0.6-11.6,1.7-15.8c0.5-1.9,1.3-3.8,2.4-5.5
			c1.6-2.6,2.7-3.8,6-6.2h-49.1c2.8,2.3,3.8,3.4,5.5,6c1.1,1.7,1.9,3.5,2.5,5.2c1.2,3.5,1.6,7.8,1.6,15.6v36.2h-67.5v-27.2
			c0-8.2,0.1-13.6,0.4-17.6c0.2-2.4,0.5-4.6,1.2-6.5c1.1-3.2,3.8-7.6,6.3-10.1c0.4-0.4,0.9-0.9,1.7-1.6h-48.2c2.9,2.9,3.7,3.8,5,5.7
			c1,1.5,1.9,3.2,2.5,5c1.4,3.8,1.6,5.8,1.7,15.7l0.1,9.4v81.4c0,8.3-0.2,11.9-0.6,15.7c-0.2,2-0.8,3.9-1.5,5.9
			c-1.3,3.2-3,5.8-5.8,8.4c-0.3,0.3-0.9,0.8-1.7,1.5h47.6c-2-2.1-2.8-3-4-4.9c-0.9-1.4-1.7-3-2.4-4.7c-1.6-3.9-2.1-6.7-2.2-13
			c0-3.2-0.1-6.1-0.1-8.9v-36h67.5v36.3c0,8-0.1,11-0.7,15.2c-0.3,2.3-0.8,4.4-1.6,6.3c-1.1,2.8-2.9,5.4-5.4,7.8
			c-0.4,0.4-1.2,1-2.1,1.9h48.1c-2-1.9-2.7-2.8-4.1-4.6c-1.2-1.7-2.1-3.3-2.8-4.9c-1.5-3.4-1.9-6-2-13.4c0-4.3-0.1-6.9-0.1-7.7
			l0.1-81.8V299.9z M831.9,410.8c-5.3-4.9-10-9.7-17-17.3c-4.5-4.7-8.1-8.8-11-12.1l-23.4-27.2c2.9-0.9,4-1.3,6.7-2.3
			c7.5-3,13.3-6.2,18.5-10.6c6-5,9.7-10.3,11.9-17c1.2-3.7,1.8-7.5,1.8-11.4c0-9.1-3.4-17.4-10.2-24.4c-6.2-6.4-14.8-11.1-24.4-13.3
			c-6.8-1.6-13.8-2.3-25.7-2.6c-4.5-0.1-9.1-0.2-14-0.2h-38.9c2.7,2.4,3.7,3.4,5.1,5.6c1.2,1.7,2,3.6,2.6,5.4
			c1,3.4,1.5,7.9,1.5,15.8v97.6c0,7.1-0.5,11.1-1.7,14.4c-0.7,1.7-1.6,3.3-2.6,4.7c-1.3,1.8-2.2,2.7-5,5.2h47.8
			c-2.2-2.3-2.9-3-4.1-4.8c-1.1-1.5-2-2.9-2.6-4.6c-1.3-3.2-1.8-6.8-2-13.7c0-2.3-0.1-4.7-0.1-7.5v-33.4l27.9,33
			c1.3,1.6,3.4,4,6.3,7.2c3.2,3.6,5.6,6.3,7.3,8c5.4,5.5,10.6,9.5,15.6,12.2c4.3,2.3,8.4,3.3,14.9,3.5c2.4,0.1,5,0.1,7.8,0.1h18.9
			c-2.5-2-3.6-2.8-5.5-4.5C836.3,414.8,834.1,412.9,831.9,410.8z M774.4,337.9c-5.4,3.1-10.8,4.9-19,6c-3.1,0.4-5.7,0.7-7.8,0.7
			c-0.8,0-1.3,0-2.5-0.1v-55c1.9-0.1,2.7-0.1,3.9-0.1c7.4,0,14.6,0.9,20.3,2.5c3.8,1.1,7.3,2.9,10.2,5.3c5.1,4.3,7.8,10.5,7.8,18.3
			c0,6.7-2,12.5-5.9,16.8C779.6,334.4,777.2,336.3,774.4,337.9z M639.1,278.2c1,1.6,1.7,3.3,2.2,5.1c1,3.6,1.3,7.2,1.3,15.6v56.5
			c0,12.2-0.3,19.3-1.3,25.2c-0.6,3.9-1.9,7.7-3.9,10.9c-3.7,6.1-10.4,10.7-18.5,12.7c-3.3,0.8-6.9,1.2-10.7,1.2
			c-12.9,0-24-4.7-29.4-12.6c-4.2-6.1-5.3-11.8-5.5-27.2l-0.2-12.2v-44.8c0-8.6,0.1-12.8,0.4-17.2c0.2-2.7,0.6-4.9,1.1-6.8
			c1-3.4,3.6-8,6.1-10.8c0.3-0.3,0.7-0.7,1.2-1.3h-48.9c3,2.4,4,3.5,5.4,6c1,1.6,1.7,3.3,2.1,5.1c0.6,2.3,1,4.6,1,6.9
			c0,1.5,0.1,4.5,0.1,9.2v51.2c0,15.8,0.1,19.8,0.6,26.2c0.9,10.8,4.3,19.5,10.5,27.4c11.4,14.1,29.7,21.6,53.1,21.6
			c11.2,0,22-1.7,30.2-4.7c8.7-3.2,16.7-8.5,22.4-14.8c7-7.7,11-17.2,12.2-28.9c0.7-6.8,1-14.9,1-26.6v-42.8l-0.1-8.4v-1.7
			c0-6.4,0.3-10.1,1.2-13.5c0.6-2.2,1.4-4.2,2.6-6c1.6-2.6,2.7-3.7,5.9-6.2h-48C636.5,274.7,637.5,275.8,639.1,278.2z M1277,235.5
			v-0.1c3.6-0.5,6.5-3,6.5-6.7c0-5.4-3.4-7.7-8.6-7.7h-7.6v29.4h2.9v-13.8h2.4c2.8,0,4.7,0.1,6.4,3.9l4.2,9.9h3.2l-5-11.3
			C1280.6,237.1,1279.3,235.8,1277,235.5z M1270.2,234v-10.5h3c4,0,7.4,0.3,7.4,5.1c0,4-3.9,5.3-7.3,5.3H1270.2z M1275.9,211.6
			c-13.3,0-24.1,10.8-24.1,24.1c0,13.3,10.8,24.1,24.1,24.1c13.3,0,24.1-10.8,24.1-24.1C1300,222.4,1289.2,211.6,1275.9,211.6z
			 M1275.9,257c-11.8,0-21.3-9.5-21.3-21.3s9.6-21.3,21.3-21.3c11.8,0,21.3,9.6,21.3,21.3S1287.7,257,1275.9,257z"/>
	</g>
</g>
</svg>
